<?xml version="1.0" standalone="no"?>
<!DOCTYPE svg PUBLIC "-//W3C//DTD SVG 20010904//EN"
 "http://www.w3.org/TR/2001/REC-SVG-20010904/DTD/svg10.dtd">
<svg version="1.0" xmlns="http://www.w3.org/2000/svg"
 width="760.000000pt" height="760.000000pt" viewBox="0 0 760.000000 760.000000"
 preserveAspectRatio="xMidYMid meet">
<metadata>
Created by potrace 1.11, written by Peter Selinger 2001-2013
</metadata>
<g transform="translate(0.000000,760.000000) scale(0.100000,-0.100000)"
fill="#000000" stroke="none">
<path d="M0 3800 l0 -3800 3800 0 3800 0 0 3800 0 3800 -3800 0 -3800 0 0
-3800z m4165 3713 c152 -77 237 -139 249 -181 7 -24 15 -32 32 -32 30 0 40
-17 15 -25 -17 -5 -20 -14 -18 -63 2 -70 16 -84 74 -76 39 6 43 4 49 -21 4
-15 2 -31 -4 -37 -15 -15 -43 -2 -49 22 -3 11 -8 20 -12 20 -9 0 -7 -73 3 -88
5 -8 4 -18 -3 -25 -15 -15 -14 -66 3 -114 12 -33 12 -43 0 -64 -18 -32 -18
-78 1 -85 18 -7 21 -74 4 -91 -17 -17 -3 -58 26 -73 14 -7 25 -18 25 -24 0 -6
11 -32 25 -58 14 -26 25 -53 25 -61 0 -18 28 -42 49 -42 10 0 21 -16 30 -45 7
-25 19 -58 27 -75 7 -16 14 -39 16 -50 4 -23 48 -35 48 -13 0 20 20 37 36 31
8 -3 14 -17 14 -32 0 -15 9 -34 20 -44 28 -24 25 -52 -7 -72 -16 -10 -32 -24
-36 -32 -4 -7 -15 -13 -23 -13 -8 0 -47 -17 -87 -37 -74 -37 -93 -40 -227 -32
-58 4 -131 -17 -156 -44 -13 -14 -38 -28 -56 -32 -18 -4 -43 -14 -56 -22 -16
-10 -36 -12 -61 -8 -35 6 -39 4 -50 -23 -10 -23 -23 -32 -62 -42 -27 -8 -57
-22 -66 -32 -9 -10 -24 -18 -35 -18 -27 0 -76 -59 -88 -105 -17 -67 -48 -123
-80 -146 -16 -13 -30 -28 -30 -35 0 -24 -38 -49 -102 -68 -35 -11 -78 -33 -96
-48 -41 -35 -70 -35 -192 -2 -52 15 -112 30 -132 34 -73 14 -147 104 -148 178
0 18 10 53 21 78 13 26 22 65 22 92 l0 47 -45 6 c-25 4 -58 14 -74 22 -16 8
-45 18 -64 22 -19 3 -60 19 -90 35 -52 26 -64 28 -220 33 -91 3 -176 10 -190
15 -16 6 -34 6 -50 0 -14 -5 -63 -12 -110 -15 -104 -7 -125 -14 -142 -50 -10
-21 -28 -32 -78 -49 -48 -17 -75 -33 -101 -63 -42 -47 -81 -55 -100 -19 -12
23 -7 136 10 198 5 19 12 85 16 145 3 61 13 179 20 264 8 85 15 209 15 276 0
140 17 215 59 254 31 30 65 84 76 121 4 14 23 42 41 63 19 20 34 45 34 55 0
11 18 47 40 81 30 47 50 66 83 80 23 10 50 28 61 40 10 11 35 24 55 27 35 7
131 68 131 84 0 5 19 15 43 22 32 11 46 23 60 51 16 32 24 37 65 42 26 3 54 8
62 10 8 1 330 2 715 1 683 -2 701 -3 740 -23z m750 -1443 c0 -8 -10 -16 -22
-18 -22 -3 -32 16 -16 32 12 11 38 2 38 -14z m-2548 -446 c39 -9 79 -21 88
-28 27 -20 3 -53 -48 -67 -45 -13 -83 -42 -92 -70 -6 -18 -43 -36 -85 -41 -18
-2 -26 -10 -28 -28 -5 -32 -28 -58 -56 -62 -19 -3 -21 -8 -17 -71 2 -42 -1
-73 -9 -82 -9 -11 -7 -20 6 -40 14 -21 23 -26 44 -21 33 6 50 -9 50 -46 0 -26
12 -34 43 -29 5 1 11 -8 14 -19 5 -19 11 -22 58 -24 16 -1 20 -7 17 -35 l-2
-34 39 6 c40 5 72 -8 98 -41 11 -14 15 -14 31 1 25 23 59 21 72 -4 10 -17 20
-20 68 -19 31 1 82 -2 112 -5 62 -8 154 14 188 44 12 10 39 25 60 35 21 10 46
30 54 44 9 15 33 34 55 41 21 8 53 24 72 37 18 12 39 20 47 17 14 -5 25 14 44
85 14 52 50 72 130 72 51 0 120 -22 120 -38 0 -5 14 -30 31 -56 l32 -47 -22
-15 c-26 -19 -27 -40 -2 -47 26 -6 57 -71 63 -129 5 -40 2 -50 -18 -69 -17
-16 -24 -34 -24 -59 0 -20 -5 -41 -11 -47 -6 -6 -9 -21 -7 -34 2 -17 11 -25
32 -29 24 -4 31 -12 42 -50 18 -60 21 -316 4 -377 -12 -45 3 -93 45 -143 35
-42 35 -43 35 -140 0 -88 -3 -104 -31 -164 -28 -60 -30 -72 -25 -138 10 -131
10 -128 27 -123 9 3 23 -3 33 -14 15 -16 16 -25 6 -60 -7 -28 -8 -53 -1 -76 5
-21 6 -73 1 -131 -10 -119 2 -203 36 -244 14 -16 29 -42 35 -58 7 -22 22 -35
52 -47 23 -9 49 -23 57 -30 9 -7 55 -16 110 -20 74 -5 109 -13 155 -34 93 -44
162 -64 224 -65 l56 -1 3 35 c4 41 21 63 68 85 34 16 42 29 25 40 -6 3 -4 17
4 33 8 15 17 39 20 54 12 63 56 68 92 10 9 -15 30 -41 46 -58 25 -28 27 -34
16 -53 -11 -16 -11 -23 -1 -33 10 -10 14 -10 21 0 6 10 11 5 19 -15 33 -82 26
-128 -33 -213 -39 -56 -65 -112 -65 -138 0 -36 -27 -31 -71 14 -73 75 -124 95
-253 100 -99 5 -277 28 -310 40 -7 2 -20 18 -30 34 -30 52 -54 57 -165 34 -19
-4 -57 -20 -83 -35 -55 -33 -83 -36 -96 -13 -8 14 -11 14 -26 -7 -14 -21 -24
-24 -83 -24 -66 0 -67 0 -116 47 -35 35 -58 48 -80 50 -39 1 -47 3 -70 13 -20
8 -42 -14 -53 -52 -3 -13 -13 -23 -21 -23 -8 0 -33 -20 -56 -44 -23 -24 -50
-46 -59 -49 -20 -7 -25 -27 -7 -27 8 0 7 -5 -2 -16 -11 -14 -14 -14 -23 -1 -7
9 -24 13 -46 10 -61 -6 -74 -5 -132 4 -61 10 -81 2 -106 -43 -12 -22 -86 -22
-110 0 -25 21 -44 20 -76 -5 -17 -13 -26 -30 -26 -49 0 -16 -3 -35 -6 -44 -6
-14 -9 -14 -34 1 -45 26 -57 8 -65 -98 -8 -104 -4 -114 62 -131 25 -6 50 -19
56 -28 6 -10 16 -16 24 -13 7 3 10 9 7 14 -3 5 -10 7 -15 4 -5 -4 -9 0 -9 7 0
7 10 19 22 27 18 11 23 11 32 -1 10 -14 86 -35 86 -24 0 5 -13 38 -36 93 -20
44 -13 118 9 113 16 -4 73 25 90 46 47 60 179 85 235 45 31 -22 124 -51 163
-51 11 0 30 6 42 14 34 22 99 28 163 16 33 -6 91 -13 129 -16 39 -4 83 -12 99
-20 16 -8 44 -14 61 -14 18 0 38 -7 45 -15 9 -11 7 -19 -14 -40 -14 -14 -34
-25 -46 -25 -11 0 -20 -4 -20 -10 0 -5 16 -9 35 -8 19 1 38 -2 42 -5 3 -4 16
2 28 13 20 19 24 20 38 5 14 -14 18 -13 43 10 15 14 28 35 29 46 4 47 70 69
207 69 54 0 100 4 103 10 9 15 69 12 91 -5 18 -14 18 -16 -22 -54 -41 -39 -43
-40 -98 -34 -32 3 -56 2 -55 -3 1 -5 1 -17 0 -28 -1 -15 -3 -16 -16 -6 -9 7
-14 19 -11 27 3 8 2 11 -3 8 -5 -3 -12 -1 -16 4 -3 6 -25 10 -49 9 -24 0 -48
2 -54 6 -13 8 -74 -52 -69 -68 2 -6 27 -13 55 -16 109 -11 79 -53 -46 -64
l-73 -6 17 24 c21 34 11 46 -40 46 -49 0 -76 -21 -57 -44 8 -9 8 -21 1 -40 -7
-20 -16 -26 -40 -26 -20 0 -40 -9 -57 -26 l-25 -25 21 -23 c19 -20 20 -24 6
-36 -8 -7 -15 -21 -15 -31 0 -34 -36 -59 -86 -59 -49 0 -69 -15 -100 -76 -15
-31 -50 -54 -83 -54 -9 0 -32 11 -51 25 -39 29 -58 31 -67 9 -4 -10 4 -24 21
-37 l27 -22 -36 -35 c-22 -21 -54 -39 -83 -47 -71 -18 -184 -45 -208 -49 -35
-6 -36 -30 -4 -84 17 -28 30 -55 30 -59 0 -5 18 -20 40 -35 23 -15 46 -37 52
-50 12 -27 53 -47 146 -72 46 -12 74 -28 102 -54 36 -34 44 -37 115 -43 42 -4
81 -5 85 -2 11 7 181 7 245 0 60 -6 118 16 134 51 6 14 30 33 55 44 25 10 52
29 60 42 9 14 46 37 87 54 42 17 78 40 90 56 32 44 74 60 141 52 74 -8 84 -24
61 -88 l-17 -46 26 -27 c14 -16 32 -47 38 -70 9 -28 32 -62 72 -102 49 -49 58
-64 53 -85 -3 -14 -7 -38 -10 -52 -5 -21 -10 -25 -37 -22 -27 2 -34 -2 -47
-27 -9 -16 -23 -34 -31 -39 -8 -6 -26 -22 -40 -38 -17 -19 -34 -28 -55 -28
-26 0 -34 -6 -47 -34 -18 -36 -43 -46 -127 -46 -25 0 -55 -7 -65 -15 -11 -8
-28 -15 -38 -15 -10 0 -18 -4 -18 -10 0 -9 38 -12 180 -14 26 -1 34 -5 32 -16
-4 -19 -57 -64 -97 -84 -17 -8 -43 -29 -58 -45 -20 -23 -36 -31 -60 -31 -18 0
-38 -5 -43 -10 -6 -6 -93 -17 -192 -25 -129 -10 -206 -21 -264 -39 -75 -22
-103 -24 -295 -26 -218 -1 -352 10 -413 35 -19 8 -60 21 -92 30 -36 10 -69 28
-93 50 -20 19 -40 35 -44 35 -12 0 -145 90 -153 104 -4 6 -8 14 -8 18 0 15 45
48 65 48 44 0 58 41 28 86 -13 21 -14 30 -5 45 12 18 7 49 -8 49 -4 0 -11 -12
-14 -26 -5 -18 -12 -24 -22 -20 -9 3 -22 6 -30 6 -22 0 -16 31 11 56 28 26 31
34 12 34 -7 0 -19 6 -25 12 -7 7 -20 13 -30 13 -27 0 -22 39 6 43 30 5 28 30
-3 38 -17 4 -31 18 -40 40 -8 19 -19 34 -25 34 -6 0 -23 12 -37 26 -22 23 -29
25 -46 15 -33 -21 -64 9 -76 76 -6 32 -18 71 -26 86 -8 16 -15 44 -15 63 0 28
-6 38 -29 52 -22 12 -33 30 -45 73 -9 34 -30 74 -55 104 -26 32 -44 66 -51 97
-5 27 -16 61 -24 76 -8 15 -17 56 -21 92 -6 60 -4 68 20 100 14 19 30 51 36
72 7 27 19 43 41 54 17 9 47 32 68 52 21 21 58 53 84 72 59 45 77 75 64 111
-7 21 -18 28 -46 33 -70 11 -77 23 -74 123 3 101 -5 129 -51 184 -40 47 -87
157 -87 205 0 41 -15 74 -33 74 -7 0 -28 16 -47 36 -45 46 -45 45 -117 104
-35 28 -63 56 -64 63 0 7 -2 21 -4 32 -2 11 5 28 17 39 16 15 19 26 14 59 -4
23 -11 46 -15 52 -19 23 -42 242 -44 415 -2 128 -5 143 -59 283 l-30 78 7 161
c5 131 10 167 26 197 10 19 19 43 19 51 0 9 8 26 17 40 16 23 21 45 43 183 5
38 18 83 27 100 9 18 20 48 24 67 20 89 49 175 69 203 13 16 25 51 28 76 5 53
50 118 130 189 92 82 118 93 197 87 39 -4 102 -13 142 -21z m2601 -101 c29
-22 32 -29 27 -55 -6 -25 -3 -34 19 -52 l26 -21 -20 -32 c-24 -39 -49 -42 -78
-8 -12 14 -29 25 -38 25 -9 0 -26 10 -36 23 -17 18 -19 31 -14 76 4 30 12 61
18 68 15 19 53 9 96 -24z m2079 -745 c-3 -8 -6 -5 -6 6 -1 11 2 17 5 13 3 -3
4 -12 1 -19z m-1011 -614 c12 -49 -62 -259 -92 -259 -14 0 -17 76 -4 120 7 22
21 52 31 67 11 14 19 31 19 36 0 21 20 62 30 62 5 0 13 -12 16 -26z m-698
-380 c27 -19 30 -54 3 -54 -29 0 -65 34 -58 53 8 21 26 22 55 1z m-1042 -16
c10 -16 -10 -26 -33 -17 -32 12 -30 38 2 31 14 -2 28 -9 31 -14z m614 -95 c53
-105 55 -110 58 -205 l4 -97 -33 -14 c-36 -15 -62 -6 -41 15 17 17 15 38 -3
38 -8 0 -15 -4 -15 -9 0 -18 -33 -21 -57 -5 l-25 16 4 167 c3 168 10 201 42
201 7 0 36 -48 66 -107z m-595 3 c12 -27 13 -46 5 -88 -6 -29 -14 -56 -19 -61
-5 -5 -30 -12 -55 -14 -44 -5 -46 -5 -46 21 0 19 8 32 30 44 21 12 32 27 36
52 8 43 22 80 29 80 3 0 12 -15 20 -34z m-951 -996 c25 -12 46 -25 46 -29 0
-11 -65 -17 -110 -11 -41 6 -51 32 -18 48 31 15 29 15 82 -8z m-614 -255 c0
-19 -21 -19 -46 0 -18 14 -17 14 14 15 22 0 32 -5 32 -15z m2196 -110 c4 -8
10 -13 14 -10 5 3 15 3 23 0 10 -5 13 -18 9 -55 -4 -45 -3 -50 16 -50 27 0 33
-11 17 -33 -11 -15 -25 -17 -76 -15 -59 3 -65 5 -77 31 -14 29 -25 30 -75 11
-11 -4 -17 5 -22 35 -8 47 -2 61 28 61 12 0 33 9 47 20 30 23 88 27 96 5z
m-2386 -100 c0 -8 -4 -15 -10 -15 -5 0 -10 7 -10 15 0 8 5 15 10 15 6 0 10 -7
10 -15z m1988 -912 c-4 -22 -22 -20 -26 1 -2 10 3 16 13 16 10 0 15 -7 13 -17z"/>
<path d="M4626 6363 c-11 -11 -6 -23 9 -23 8 0 15 4 15 9 0 13 -16 22 -24 14z"/>
<path d="M4810 6183 c0 -6 -19 -29 -42 -51 -36 -35 -39 -42 -24 -48 29 -11 61
11 74 52 7 25 8 42 2 48 -7 7 -10 6 -10 -1z"/>
<path d="M3162 5701 c-33 -17 -33 -17 -13 -35 19 -18 22 -18 46 -2 50 33 22
65 -33 37z"/>
<path d="M2275 4970 c-10 -16 2 -27 35 -32 34 -5 41 7 10 17 -11 3 -20 11 -20
16 0 12 -17 12 -25 -1z"/>
<path d="M3045 3923 c-4 -12 -17 -29 -30 -37 -21 -14 -39 -62 -28 -79 9 -14
33 15 33 39 0 13 9 33 21 45 11 11 18 28 16 37 -4 14 -6 13 -12 -5z"/>
<path d="M2945 3757 c-10 -37 -1 -54 12 -25 6 14 8 31 3 38 -6 10 -10 7 -15
-13z"/>
<path d="M3195 3753 c-16 -9 -36 -24 -45 -35 -8 -10 -26 -24 -40 -31 -22 -12
-25 -19 -25 -70 0 -48 -2 -57 -17 -57 -16 0 -23 -11 -19 -33 1 -4 -11 -12 -25
-17 -19 -8 -32 -6 -53 6 -26 15 -30 15 -54 -1 -22 -14 -25 -20 -16 -36 5 -11
18 -25 28 -31 11 -6 17 -18 14 -25 -4 -11 -8 -11 -21 -1 -13 11 -15 10 -9 -4
10 -27 -1 -45 -39 -69 -19 -11 -34 -27 -34 -35 0 -8 -4 -14 -10 -14 -5 0 -10
-7 -10 -15 0 -13 4 -14 20 -5 11 6 20 17 20 26 0 13 3 13 23 0 63 -41 178 -23
198 32 5 15 18 33 27 40 16 12 15 14 -8 32 -19 15 -22 22 -13 31 7 7 9 24 6
40 -5 27 -4 29 29 29 40 0 58 -15 58 -48 0 -20 4 -23 28 -20 22 2 28 8 30 35
3 28 8 34 43 45 23 6 49 23 60 40 17 24 27 28 62 27 80 -3 110 22 86 74 -9 19
-21 26 -54 29 -25 3 -57 16 -77 32 -21 16 -48 26 -67 26 -18 0 -40 4 -49 9
-12 6 -27 4 -47 -6z"/>
<path d="M2733 3553 c-7 -2 -13 -9 -13 -15 0 -14 43 -6 48 10 4 12 -12 15 -35
5z"/>
<path d="M3493 3108 l2 -53 -41 3 c-29 2 -52 -3 -75 -17 -19 -12 -44 -21 -56
-21 -21 0 -83 -53 -83 -71 0 -4 -10 -11 -22 -15 -13 -4 -39 -18 -58 -31 l-35
-25 48 6 c27 3 60 15 73 25 38 30 126 45 172 30 20 -6 43 -16 50 -22 7 -6 28
-11 45 -12 18 -1 42 -5 55 -9 31 -10 28 4 -13 81 -26 48 -35 77 -35 113 0 30
-6 52 -15 60 -12 10 -14 4 -12 -42z"/>
<path d="M2880 2321 c0 -16 19 -23 40 -16 30 10 24 25 -10 25 -16 0 -30 -4
-30 -9z"/>
<path d="M2836 2241 c-4 -5 -2 -12 3 -15 5 -4 12 -2 15 3 4 5 2 12 -3 15 -5 4
-12 2 -15 -3z"/>
<path d="M2747 2140 c3 -11 9 -20 14 -20 11 0 11 3 3 24 -9 23 -23 20 -17 -4z"/>
<path d="M2899 1080 c24 -20 51 -27 51 -12 0 16 -25 32 -49 32 l-26 -1 24 -19z"/>
<path d="M2960 1056 c0 -8 10 -18 23 -21 120 -27 137 -29 137 -17 0 12 -72 41
-117 48 -36 5 -43 4 -43 -10z"/>
<path d="M3149 996 c13 -15 80 -39 98 -34 4 1 34 -2 66 -7 38 -5 62 -4 69 3
15 15 -25 34 -81 38 -25 2 -73 7 -106 10 -53 6 -58 5 -46 -10z"/>
</g>
</svg>
