<svg
  xmlns="http://www.w3.org/2000/svg"
  viewBox="0 0 712 502"
  height="100%"
  width="100%"
  style="backgroundColor: #111121; color: #849e8f; overflow: visible"
>
 <path
    stroke="currentColor"
    fill="transparent"
    d="M486,311L435,303M435,303L450,322M450,322L486,311M435,303L427,306M427,306L450,322M427,306L426,329M426,329L450,322M390,141L388,311M388,311L427,306M427,306L390,141M388,311L426,329M486,311L485,185M485,185L435,303M435,303L390,141M426,329L469,401M469,401L450,322M469,401L486,311M486,311L580,284M580,284L550,262M550,262L486,311M363,441L469,401M426,329L363,441M550,262L485,185M605,370L580,284M486,311L605,370M550,262L562,221M562,221L485,185M603,251L562,221M550,262L603,251M605,370L597,268M597,268L580,284M597,268L550,262M597,268L603,251M603,251L563,183M563,183L562,221M563,183L485,185M563,183L551,166M551,166L485,185M469,401L605,370M597,268L696,229M696,229L603,251M290,262L312,378M312,378L388,311M388,311L290,262M388,311L363,441M408,122L390,141M390,141L485,185M485,185L408,122M312,378L363,441M469,401L529,477M529,477L605,370M390,141L290,262M467,83L408,122M485,185L467,83M404,485L529,477M469,401L404,485M363,441L404,485M563,183L584,138M584,138L551,166M551,166L467,83M603,251L584,138M529,477L642,387M642,387L605,370M642,387L597,268M696,229L584,138M408,122L361,121M361,121L390,141M361,121L290,262M584,138L467,83M408,122L365,104M365,104L361,121M372,92L365,104M408,122L372,92M361,121L208,93M208,93L290,262M467,83L372,92M346,598L404,485M363,441L346,598M346,598L418,532M418,532L404,485M418,532L529,477M418,532L562,518M562,518L529,477M529,477L672,429M672,429L642,387M642,387L696,229M562,518L672,429M642,387L696,389M696,389L696,229M672,429L696,389M562,518L574,528M574,528L672,429M418,532L574,528M379,36L467,83M467,83L750,114M379,36L372,92M379,36L365,104M365,104L208,93M789,362L755,349M755,349L696,389M696,389L789,362M755,349L696,229M696,389L849,509M849,509L789,362M312,378L346,598M346,598L574,528M312,378L167,90M379,36L208,93M290,262L167,90M672,429L849,509M755,349L841,265M841,265L696,229M696,229L750,114M750,114L584,138M167,90L208,93M789,362L841,265M849,509L574,528M346,598L849,509L841,265L750,114L379,36L167,90Z"
    stroke-width="2px"
    stroke-dasharray="0 0 0 0"
    stroke-linecap="butt"
    stroke-linejoin="round"
    stroke-dashoffset="0"
    stroke-opacity="17%"
  />
  <path
    stroke="currentColor"
    fill="transparent"
    d="M346,598L849,509L841,265L750,114L379,36L167,90Z"
    stroke-width="6px"
    stroke-dasharray="0 0 0 0"
    stroke-linecap="butt"
    stroke-linejoin="miter"
    stroke-dashoffset="0"
    stroke-opacity="2%"
  />
  <path
    stroke="currentColor"
    fill="transparent"
    d="M644,387A2,2,0,1,1,640,387A2,2,0,1,1,644,387M363,121A2,2,0,1,1,359,121A2,2,0,1,1,363,121M410,122A2,2,0,1,1,406,122A2,2,0,1,1,410,122M564,518A2,2,0,1,1,560,518A2,2,0,1,1,564,518M348,598A2,2,0,1,1,344,598A2,2,0,1,1,348,598M210,93A2,2,0,1,1,206,93A2,2,0,1,1,210,93M381,36A2,2,0,1,1,377,36A2,2,0,1,1,381,36M374,92A2,2,0,1,1,370,92A2,2,0,1,1,374,92M367,104A2,2,0,1,1,363,104A2,2,0,1,1,367,104M698,389A2,2,0,1,1,694,389A2,2,0,1,1,698,389M564,221A2,2,0,1,1,560,221A2,2,0,1,1,564,221M586,138A2,2,0,1,1,582,138A2,2,0,1,1,586,138M791,362A2,2,0,1,1,787,362A2,2,0,1,1,791,362M531,477A2,2,0,1,1,527,477A2,2,0,1,1,531,477M428,329A2,2,0,1,1,424,329A2,2,0,1,1,428,329M314,378A2,2,0,1,1,310,378A2,2,0,1,1,314,378M553,166A2,2,0,1,1,549,166A2,2,0,1,1,553,166M390,311A2,2,0,1,1,386,311A2,2,0,1,1,390,311M471,401A2,2,0,1,1,467,401A2,2,0,1,1,471,401M576,528A2,2,0,1,1,572,528A2,2,0,1,1,576,528M565,183A2,2,0,1,1,561,183A2,2,0,1,1,565,183M406,485A2,2,0,1,1,402,485A2,2,0,1,1,406,485M365,441A2,2,0,1,1,361,441A2,2,0,1,1,365,441M292,262A2,2,0,1,1,288,262A2,2,0,1,1,292,262M392,141A2,2,0,1,1,388,141A2,2,0,1,1,392,141M752,114A2,2,0,1,1,748,114A2,2,0,1,1,752,114M469,83A2,2,0,1,1,465,83A2,2,0,1,1,469,83M851,509A2,2,0,1,1,847,509A2,2,0,1,1,851,509M437,303A2,2,0,1,1,433,303A2,2,0,1,1,437,303M698,229A2,2,0,1,1,694,229A2,2,0,1,1,698,229M605,251A2,2,0,1,1,601,251A2,2,0,1,1,605,251M599,268A2,2,0,1,1,595,268A2,2,0,1,1,599,268M674,429A2,2,0,1,1,670,429A2,2,0,1,1,674,429M582,284A2,2,0,1,1,578,284A2,2,0,1,1,582,284M169,90A2,2,0,1,1,165,90A2,2,0,1,1,169,90M420,532A2,2,0,1,1,416,532A2,2,0,1,1,420,532M487,185A2,2,0,1,1,483,185A2,2,0,1,1,487,185M607,370A2,2,0,1,1,603,370A2,2,0,1,1,607,370M843,265A2,2,0,1,1,839,265A2,2,0,1,1,843,265M429,306A2,2,0,1,1,425,306A2,2,0,1,1,429,306M757,349A2,2,0,1,1,753,349A2,2,0,1,1,757,349M488,311A2,2,0,1,1,484,311A2,2,0,1,1,488,311M452,322A2,2,0,1,1,448,322A2,2,0,1,1,452,322M552,262A2,2,0,1,1,548,262A2,2,0,1,1,552,262"
    stroke-width="0px"
    stroke-dasharray="0 0 0 0"
    stroke-linecap="round"
    stroke-linejoin="miter"
    stroke-dashoffset="0"
    stroke-opacity="100%"
  />
</svg>
