<?xml version="1.0" standalone="no"?>
<!DOCTYPE svg PUBLIC "-//W3C//DTD SVG 20010904//EN"
 "http://www.w3.org/TR/2001/REC-SVG-20010904/DTD/svg10.dtd">
<svg version="1.0" xmlns="http://www.w3.org/2000/svg"
 width="123.000000pt" height="123.000000pt" viewBox="0 0 123.000000 123.000000"
 preserveAspectRatio="xMidYMid meet">
  <defs>
<radialGradient
      id="GradientReflect"
      cx="0.5"
      cy="0.5"
      r="0.4"
      fx="0.75"
      fy="0.75"
      spreadMethod="reflect">
      <stop offset="10%" stop-color="#f55a5a" />
      <stop offset="100%" stop-color="#658877" />
    </radialGradient>
  </defs>
<g transform="translate(0.000000,123.000000) scale(0.100000,-0.100000)"
fill="url(#GradientReflect)" stroke="none">
<path d="M11 1202 c-7 -17 -11 -67 -9 -123 l3 -94 33 62 c41 79 104 124 223
157 l84 24 -161 1 -162 1 -11 -28z"/>
<path d="M975 1205 c33 -13 69 -24 79 -24 38 -2 116 -63 147 -115 l29 -51 0
108 0 107 -157 -1 -158 0 60 -24z"/>
<path d="M572 1061 c-48 -51 -78 -66 -347 -177 -48 -19 -88 -46 -129 -84 -84
-79 -96 -108 -96 -227 l1 -98 35 62 c47 83 96 120 197 149 109 32 131 41 202
82 83 48 144 99 167 139 l20 33 29 -39 c30 -42 103 -101 180 -145 49 -28 181
-76 209 -76 9 0 44 -18 78 -39 45 -30 68 -53 86 -88 l25 -48 1 106 0 107 -47
52 c-58 65 -92 86 -218 137 -191 78 -250 109 -284 149 -53 61 -56 61 -109 5z"/>
<path d="M573 603 c-42 -50 -35 -47 -341 -176 -91 -40 -149 -84 -199 -154 -32
-46 -33 -48 -33 -152 l1 -106 35 62 c51 90 91 117 249 166 133 42 276 133 317
204 l20 33 25 -36 c31 -46 50 -63 139 -119 77 -49 160 -85 242 -104 68 -17
141 -70 174 -128 l28 -48 0 109 0 108 -67 67 c-56 54 -83 72 -153 100 -231 94
-284 121 -332 172 -26 27 -52 49 -56 49 -5 0 -27 -21 -49 -47z"/>
<path d="M573 91 c-27 -28 -68 -59 -93 -70 l-45 -20 190 1 c169 0 187 1 160
13 -16 8 -35 14 -41 15 -6 0 -29 19 -51 43 -71 76 -67 76 -120 18z"/>
</g>
</svg>

