<svg id="svg" version="1.1" xmlns="http://www.w3.org/2000/svg" xmlns:xlink="http://www.w3.org/1999/xlink" width="400" height="438.09523809523813" viewBox="0, 0, 400,438.09523809523813"><g id="svgg"><path id="path0" d="M182.672 78.050 C 180.731 78.469,178.443 79.170,177.587 79.606 C 176.732 80.043,175.768 80.400,175.445 80.400 C 175.121 80.400,174.615 80.642,174.319 80.938 C 174.022 81.235,173.065 81.813,172.190 82.223 C 171.316 82.634,170.362 83.201,170.071 83.485 C 169.781 83.768,169.408 84.000,169.242 84.000 C 168.663 84.000,163.341 89.419,162.022 91.352 C 159.895 94.469,159.074 98.864,159.818 103.152 C 160.138 104.996,160.400 107.031,160.400 107.674 C 160.400 108.318,160.740 109.599,161.155 110.522 C 161.570 111.445,162.039 112.830,162.198 113.600 C 162.356 114.370,162.827 115.561,163.243 116.247 C 163.659 116.933,164.000 117.817,164.000 118.212 C 164.000 118.607,164.495 119.756,165.100 120.765 C 166.704 123.442,166.681 129.768,165.058 132.156 C 164.476 133.012,164.000 134.006,164.000 134.367 C 164.000 134.727,163.754 135.377,163.454 135.811 C 162.406 137.326,162.350 138.220,163.240 139.232 C 167.385 143.946,167.137 144.784,160.648 148.012 C 158.862 148.901,156.526 150.117,155.459 150.714 C 154.391 151.311,151.151 153.038,148.259 154.552 C 145.366 156.065,142.910 157.415,142.800 157.552 C 142.690 157.688,141.376 158.430,139.881 159.200 C 135.959 161.219,135.793 161.472,135.836 165.387 C 135.863 167.763,136.058 168.948,136.536 169.631 C 137.345 170.785,137.383 172.125,136.647 173.538 C 136.343 174.122,135.814 175.500,135.472 176.600 C 134.486 179.764,133.375 182.733,131.807 186.400 L 130.352 189.800 130.031 198.813 C 129.779 205.910,129.571 208.096,129.055 209.093 C 128.695 209.790,128.400 210.617,128.400 210.931 C 128.400 211.245,127.860 213.256,127.200 215.400 C 125.798 219.956,125.512 226.054,126.602 228.146 C 126.931 228.776,127.200 229.599,127.200 229.974 C 127.200 231.165,128.512 234.580,129.168 235.100 C 129.744 235.555,129.744 235.645,129.166 236.100 C 128.479 236.643,127.904 239.285,128.268 240.233 C 128.557 240.987,129.600 240.216,129.600 239.248 C 129.600 238.250,132.604 233.870,134.402 232.246 C 135.281 231.452,136.000 230.642,136.000 230.447 C 136.000 230.252,136.450 229.797,137.000 229.437 C 137.550 229.076,138.000 228.521,138.000 228.203 C 138.000 227.785,138.417 227.648,139.500 227.712 C 140.907 227.795,141.000 227.728,141.000 226.648 C 141.000 225.926,141.291 225.328,141.779 225.048 C 142.207 224.801,143.249 224.120,144.094 223.532 C 145.397 222.627,145.825 222.521,146.913 222.832 C 149.227 223.496,152.321 223.296,152.771 222.453 C 153.065 221.904,153.831 221.632,155.668 221.424 C 157.042 221.269,158.780 220.885,159.532 220.571 C 161.497 219.750,162.409 219.859,163.671 221.068 C 164.723 222.076,164.828 222.098,165.528 221.465 C 166.739 220.369,168.544 220.972,169.333 222.738 C 170.130 224.519,173.562 228.800,174.195 228.800 C 174.809 228.800,176.037 231.438,175.759 232.162 C 175.281 233.408,174.404 233.175,173.593 231.587 C 173.148 230.714,172.472 229.971,172.092 229.935 C 171.711 229.900,170.140 229.839,168.600 229.801 C 164.380 229.695,162.492 229.113,160.963 227.443 C 159.390 225.726,159.427 225.732,157.764 227.000 C 157.043 227.550,156.293 228.000,156.096 228.000 C 155.900 228.000,155.335 228.430,154.842 228.956 C 154.348 229.481,153.457 230.009,152.862 230.128 C 150.512 230.598,147.114 234.147,146.370 236.911 C 146.143 237.753,145.652 238.787,145.279 239.210 C 144.906 239.632,144.150 240.526,143.600 241.197 C 143.050 241.869,142.105 242.894,141.500 243.475 C 140.895 244.057,140.403 244.727,140.407 244.966 C 140.410 245.205,139.705 246.840,138.840 248.600 C 136.149 254.077,135.883 256.905,137.716 260.567 C 138.137 261.408,139.153 260.182,139.186 258.794 C 139.194 258.461,139.543 257.548,139.963 256.765 C 140.382 255.983,140.952 254.545,141.228 253.571 C 141.505 252.597,141.977 251.596,142.277 251.347 C 142.578 251.098,143.070 250.108,143.372 249.147 L 143.921 247.400 143.960 249.420 C 143.982 250.531,143.833 251.611,143.628 251.820 C 143.424 252.029,143.046 254.090,142.787 256.400 C 142.529 258.710,142.070 261.430,141.769 262.445 C 141.400 263.684,141.303 265.180,141.473 267.002 L 141.726 269.713 142.364 268.357 C 142.848 267.328,143.293 266.968,144.201 266.868 C 146.717 266.591,147.200 265.582,147.200 260.607 C 147.200 257.310,147.353 255.951,147.787 255.376 C 148.121 254.935,148.380 253.714,148.387 252.549 C 148.404 249.836,149.091 249.209,151.033 250.135 C 151.800 250.501,152.684 250.800,152.998 250.800 C 153.317 250.800,153.752 251.461,153.984 252.300 C 154.669 254.774,154.915 254.907,156.084 253.441 C 157.020 252.269,157.100 251.936,156.780 250.558 C 156.582 249.701,156.415 248.865,156.410 248.700 C 156.377 247.687,161.068 244.016,162.963 243.570 C 164.084 243.307,165.634 242.773,166.409 242.384 C 167.185 241.995,168.658 241.550,169.684 241.397 C 171.464 241.130,171.532 241.072,171.174 240.132 C 170.166 237.481,172.876 233.600,175.735 233.600 C 176.453 233.600,177.263 233.377,177.537 233.103 C 177.884 232.756,178.118 232.736,178.317 233.039 C 178.769 233.730,183.505 234.482,186.785 234.383 C 192.613 234.208,192.952 234.536,191.882 239.304 C 191.525 240.897,190.865 243.829,190.416 245.819 C 189.390 250.369,189.396 250.724,190.512 251.233 C 191.369 251.623,193.600 255.620,193.600 256.765 C 193.600 257.045,193.960 257.731,194.400 258.291 C 194.840 258.850,195.200 259.611,195.200 259.982 C 195.200 260.353,195.740 261.261,196.400 262.000 C 197.263 262.967,197.600 263.749,197.600 264.787 C 197.600 265.581,197.963 266.943,198.407 267.814 C 198.851 268.685,199.384 270.453,199.592 271.744 C 199.800 273.034,200.250 274.295,200.592 274.545 C 200.963 274.816,201.304 275.888,201.437 277.200 C 201.560 278.410,201.988 280.390,202.387 281.600 C 202.786 282.810,203.336 285.060,203.609 286.600 C 203.881 288.140,204.237 289.580,204.398 289.800 C 204.560 290.020,204.790 290.970,204.909 291.910 C 205.029 292.851,205.516 294.381,205.993 295.310 C 206.469 296.240,206.960 298.117,207.083 299.482 C 207.230 301.109,207.564 302.240,208.053 302.765 C 210.770 305.681,208.496 307.204,202.063 306.776 C 194.699 306.287,192.922 307.708,194.463 312.853 C 195.121 315.047,194.057 317.029,192.025 317.397 C 191.241 317.539,190.330 318.000,190.000 318.422 C 189.621 318.908,188.665 319.285,187.400 319.449 C 185.271 319.724,184.000 320.516,184.000 321.566 C 184.000 321.919,183.640 322.432,183.200 322.707 C 182.558 323.108,182.400 323.640,182.400 325.403 C 182.400 326.612,182.239 327.600,182.043 327.600 C 181.511 327.600,181.200 326.535,181.200 324.713 C 181.200 323.477,180.951 322.861,180.151 322.119 C 179.035 321.085,178.986 317.027,180.046 313.502 C 180.966 310.443,181.599 305.495,181.599 301.355 C 181.600 298.910,181.809 295.940,182.064 294.755 C 182.319 293.570,182.586 290.530,182.657 288.000 C 182.728 285.470,182.809 282.994,182.835 282.499 C 183.011 279.265,179.962 279.510,179.497 282.767 C 179.327 283.958,179.034 285.128,178.846 285.367 C 178.331 286.020,177.653 289.296,177.016 294.207 C 176.702 296.631,176.078 299.421,175.631 300.407 C 175.184 301.393,174.814 302.577,174.809 303.038 C 174.804 303.499,174.440 304.202,174.000 304.600 C 173.030 305.478,172.981 307.073,173.761 312.400 C 174.067 314.490,174.435 318.270,174.579 320.800 C 174.723 323.330,175.027 326.476,175.255 327.790 C 175.482 329.105,175.720 331.355,175.784 332.790 C 175.849 334.226,176.196 337.290,176.556 339.600 C 177.696 346.909,178.150 358.026,177.403 360.300 C 177.210 360.886,177.268 361.200,177.570 361.200 C 177.825 361.200,178.398 361.540,178.844 361.956 C 180.007 363.039,181.262 363.182,186.000 362.771 C 190.906 362.346,204.427 361.738,217.200 361.368 C 222.150 361.225,233.490 361.307,242.400 361.550 C 251.310 361.793,259.005 361.882,259.500 361.749 C 260.613 361.449,260.677 359.461,259.810 352.200 C 259.495 349.560,259.043 344.430,258.806 340.800 C 258.569 337.170,258.102 332.392,257.768 330.182 C 257.000 325.108,256.991 317.945,257.747 313.800 C 258.069 312.040,258.443 308.710,258.580 306.400 C 258.716 304.090,259.191 298.955,259.634 294.990 C 260.638 285.993,260.521 277.189,259.281 268.600 C 258.805 265.300,258.412 261.601,258.408 260.380 C 258.403 259.159,258.240 257.989,258.044 257.780 C 257.849 257.571,257.382 256.320,257.006 255.000 C 256.631 253.680,256.131 252.365,255.895 252.078 C 255.459 251.549,254.488 247.592,253.372 241.800 C 253.033 240.040,252.507 237.700,252.203 236.600 C 251.900 235.500,251.537 233.700,251.397 232.600 C 251.257 231.500,250.776 228.375,250.328 225.655 C 249.546 220.908,249.542 220.644,250.211 219.055 C 250.656 218.001,251.002 215.759,251.165 212.879 C 251.484 207.237,253.236 206.120,255.557 210.078 C 255.905 210.671,256.486 211.234,256.847 211.328 C 258.344 211.720,258.640 214.453,257.309 215.580 C 255.577 217.045,255.274 218.296,256.534 218.775 C 257.078 218.982,257.637 219.337,257.778 219.564 C 257.918 219.791,258.836 220.332,259.817 220.766 C 260.797 221.200,261.600 221.745,261.600 221.978 C 261.600 222.210,261.972 222.400,262.426 222.400 C 263.882 222.400,264.800 223.156,264.800 224.354 C 264.800 226.292,265.593 228.000,266.492 228.000 C 267.254 228.000,269.303 229.846,271.600 232.602 C 272.150 233.263,273.430 234.792,274.446 236.001 C 275.461 237.211,276.502 238.605,276.760 239.100 C 277.017 239.595,277.433 240.000,277.683 240.000 C 277.933 240.000,278.449 240.282,278.830 240.627 C 279.482 241.217,279.521 241.036,279.507 237.527 C 279.489 233.365,280.215 229.051,281.051 228.358 C 281.353 228.107,281.600 227.676,281.600 227.400 C 281.600 227.124,281.883 226.663,282.229 226.376 C 282.575 226.089,283.191 225.211,283.597 224.427 C 284.003 223.642,285.025 222.231,285.868 221.292 C 286.710 220.353,287.913 218.958,288.539 218.192 C 289.166 217.426,289.897 216.800,290.165 216.800 C 291.522 216.800,292.989 214.428,292.333 213.293 C 291.987 212.692,291.477 211.480,291.201 210.600 C 290.925 209.720,290.476 208.730,290.203 208.400 C 289.931 208.070,289.598 207.339,289.465 206.775 C 289.217 205.727,287.353 203.690,284.364 201.200 C 283.440 200.430,282.270 199.440,281.763 199.000 C 274.801 192.948,274.565 192.602,274.003 187.600 C 273.605 184.058,271.971 179.200,271.178 179.200 C 271.024 179.200,270.668 178.646,270.387 177.969 C 270.107 177.292,269.140 175.765,268.239 174.576 C 267.337 173.387,265.980 171.556,265.223 170.507 C 264.466 169.458,263.656 168.417,263.423 168.193 C 262.449 167.257,258.400 159.303,258.400 158.325 C 258.400 157.952,258.225 157.539,258.010 157.406 C 257.796 157.274,257.354 156.267,257.028 155.169 C 256.702 154.071,256.067 152.656,255.617 152.025 C 255.168 151.393,254.798 150.724,254.795 150.538 C 254.781 149.614,249.861 145.279,248.424 144.925 C 247.861 144.787,247.021 144.428,246.557 144.128 C 246.093 143.828,244.254 143.326,242.470 143.012 C 240.686 142.699,238.905 142.270,238.513 142.060 C 238.121 141.851,236.900 141.554,235.800 141.401 C 234.700 141.249,232.396 140.691,230.679 140.162 C 228.963 139.633,226.978 139.200,226.268 139.200 C 225.559 139.200,224.623 138.955,224.189 138.656 C 223.755 138.357,222.050 137.813,220.400 137.447 C 218.750 137.081,217.149 136.624,216.842 136.432 C 215.039 135.300,211.600 138.834,211.600 141.819 C 211.600 142.845,211.343 144.701,211.030 145.942 C 210.716 147.184,210.257 151.890,210.009 156.400 C 209.760 160.910,209.296 165.860,208.977 167.400 C 208.658 168.940,208.123 172.900,207.788 176.200 C 207.453 179.500,207.014 182.650,206.812 183.200 C 206.610 183.750,206.251 186.630,206.015 189.600 C 205.779 192.570,205.334 196.080,205.026 197.400 C 204.718 198.720,204.348 201.510,204.204 203.600 C 204.059 205.690,203.681 209.020,203.363 211.000 C 203.046 212.980,202.537 216.940,202.233 219.800 C 201.526 226.457,201.498 226.530,199.959 225.665 C 199.064 225.161,198.621 224.467,198.133 222.800 C 197.778 221.590,197.169 219.880,196.778 219.000 C 196.387 218.120,195.574 216.230,194.971 214.800 L 193.874 212.200 193.948 189.000 C 193.996 173.890,193.881 165.591,193.617 165.200 C 193.300 164.730,193.209 164.860,193.198 165.800 C 193.191 166.460,193.187 175.100,193.191 185.000 C 193.197 203.458,193.077 205.000,191.635 205.000 C 191.326 205.000,190.711 203.882,190.205 202.400 C 188.650 197.849,186.433 192.009,185.420 189.800 C 185.118 189.140,184.642 187.790,184.363 186.800 C 184.084 185.810,183.727 184.820,183.570 184.600 C 183.413 184.380,183.012 183.210,182.679 182.000 C 182.346 180.790,181.247 177.590,180.237 174.888 C 179.227 172.186,178.400 169.657,178.400 169.268 C 178.400 168.879,178.238 168.389,178.041 168.180 C 175.449 165.439,175.119 158.758,177.653 160.340 C 178.304 160.747,178.400 160.684,178.400 159.846 C 178.400 159.318,178.130 158.782,177.800 158.655 C 177.470 158.529,177.200 158.172,177.200 157.863 C 177.200 157.554,176.760 156.513,176.223 155.550 C 174.986 153.333,174.403 151.108,173.179 143.923 C 172.753 141.424,172.783 141.140,173.629 139.633 C 174.604 137.899,174.249 135.335,172.533 131.715 C 171.607 129.762,172.383 123.102,173.707 121.640 C 174.225 121.068,174.861 120.100,175.121 119.489 C 176.226 116.887,178.349 117.693,179.201 121.039 C 179.736 123.140,179.923 123.414,180.901 123.527 C 182.855 123.752,183.091 122.050,181.623 118.335 C 180.950 116.633,180.400 114.997,180.400 114.700 C 180.400 114.403,180.235 113.989,180.033 113.780 C 179.808 113.548,180.044 111.949,180.637 109.673 C 181.592 106.012,181.599 105.876,181.005 101.903 C 180.110 95.921,180.179 95.281,181.916 93.362 C 184.774 90.206,186.367 89.937,187.011 92.502 C 187.325 93.751,187.486 93.817,188.369 93.053 C 192.142 89.785,193.750 89.269,197.658 90.076 C 199.879 90.535,200.020 90.513,201.452 89.495 C 202.897 88.467,202.971 88.456,204.086 89.115 C 206.444 90.508,206.282 88.865,203.837 86.600 C 202.650 85.500,201.565 84.215,201.426 83.744 C 199.929 78.663,191.571 76.125,182.672 78.050 M206.060 90.380 C 206.148 90.644,206.350 90.847,206.510 90.830 C 206.988 90.781,206.896 90.232,206.380 90.060 C 206.116 89.972,205.972 90.116,206.060 90.380 M191.627 157.549 C 190.879 158.946,191.129 159.943,192.391 160.595 C 193.542 161.190,193.590 161.179,193.822 160.254 C 194.486 157.609,192.744 155.462,191.627 157.549 M299.478 219.856 C 298.950 220.383,299.688 220.794,300.725 220.550 C 302.462 220.141,302.702 219.600,301.147 219.600 C 300.369 219.600,299.618 219.715,299.478 219.856 M297.817 221.572 C 297.544 222.014,298.175 222.492,298.544 222.122 C 298.925 221.742,298.854 221.200,298.424 221.200 C 298.217 221.200,297.944 221.368,297.817 221.572 M139.394 231.629 C 139.192 232.545,138.571 233.212,136.962 234.242 C 135.773 235.002,134.800 235.852,134.800 236.129 C 134.800 236.406,133.990 237.428,133.000 238.400 C 132.010 239.372,131.200 240.395,131.200 240.674 C 131.200 240.953,130.772 241.462,130.249 241.805 C 129.622 242.216,129.211 242.968,129.044 244.014 C 128.719 246.050,128.000 246.074,128.000 244.049 C 128.000 242.343,127.078 241.099,126.647 242.223 C 126.256 243.240,126.360 245.928,126.800 246.200 C 127.280 246.497,127.337 248.668,126.871 248.956 C 126.691 249.068,126.196 248.763,125.771 248.280 L 125.000 247.400 124.882 250.103 C 124.768 252.706,124.729 252.797,123.837 252.574 C 122.984 252.360,122.893 252.494,122.695 254.255 C 122.558 255.471,122.196 256.398,121.703 256.797 C 121.200 257.204,120.825 258.188,120.640 259.584 C 120.482 260.771,120.026 262.205,119.627 262.771 C 119.227 263.337,118.767 264.430,118.605 265.200 C 118.443 265.970,118.050 266.896,117.731 267.259 C 116.423 268.743,116.564 272.178,117.974 273.181 C 118.673 273.680,119.288 274.023,119.340 273.944 C 119.392 273.865,119.647 272.960,119.907 271.933 C 120.167 270.906,120.834 269.396,121.390 268.577 C 121.945 267.758,122.401 266.798,122.402 266.444 C 122.403 266.090,122.942 264.990,123.600 264.000 C 124.258 263.010,124.797 261.727,124.798 261.149 C 124.799 260.571,125.070 259.874,125.400 259.600 C 125.730 259.326,126.000 258.882,126.000 258.613 C 126.000 258.344,126.339 257.817,126.754 257.442 C 127.168 257.067,127.732 255.959,128.006 254.980 C 128.280 254.001,128.717 253.200,128.978 253.200 C 129.239 253.200,129.758 252.615,130.132 251.900 C 130.505 251.185,131.353 249.610,132.015 248.400 C 132.677 247.190,133.429 245.480,133.685 244.600 C 133.942 243.720,134.477 242.571,134.876 242.046 C 135.274 241.521,135.600 240.857,135.600 240.569 C 135.600 240.282,136.500 239.018,137.600 237.761 C 138.700 236.504,139.600 235.264,139.600 235.005 C 139.600 234.747,140.050 234.294,140.600 234.000 C 141.850 233.331,141.985 231.434,140.826 230.814 C 139.738 230.232,139.695 230.257,139.394 231.629 M145.000 230.800 C 144.708 231.272,145.087 232.000,145.624 232.000 C 145.831 232.000,146.000 231.640,146.000 231.200 C 146.000 230.356,145.418 230.124,145.000 230.800 M161.767 233.043 C 162.115 233.176,162.400 233.532,162.400 233.834 C 162.400 235.274,165.592 235.988,168.385 235.171 C 168.791 235.052,169.170 235.611,169.625 237.000 C 170.390 239.331,169.644 240.301,167.664 239.548 C 167.131 239.346,166.354 239.288,165.938 239.420 C 164.489 239.880,162.818 239.214,162.544 238.068 C 161.984 235.720,161.206 235.530,158.200 237.009 C 154.952 238.607,150.381 238.119,153.425 236.500 C 155.519 235.386,157.265 234.514,158.000 234.214 C 158.330 234.079,159.050 233.708,159.600 233.390 C 160.737 232.732,160.893 232.707,161.767 233.043 M292.687 240.012 C 289.356 240.534,287.608 241.462,287.329 242.856 C 287.091 244.044,286.826 244.231,286.180 243.670 C 285.624 243.186,282.432 242.235,282.187 242.480 C 281.730 242.936,282.829 244.795,283.883 245.349 C 284.497 245.672,285.802 246.760,286.783 247.768 C 289.189 250.239,290.559 250.299,291.258 247.963 C 291.919 245.758,291.422 245.018,289.232 244.942 C 286.477 244.847,286.850 244.400,289.684 244.400 C 291.523 244.400,292.450 244.221,292.800 243.800 C 293.074 243.470,293.738 243.200,294.275 243.200 C 294.813 243.200,295.646 242.986,296.126 242.724 C 296.607 242.461,298.075 241.949,299.390 241.586 C 303.614 240.416,298.207 239.146,292.687 240.012 M151.229 242.400 C 151.930 242.400,151.600 243.107,150.800 243.316 C 150.360 243.431,150.000 243.812,150.000 244.163 C 150.000 244.513,149.820 244.800,149.600 244.800 C 149.139 244.800,149.099 244.203,149.446 242.468 C 149.662 241.389,149.765 241.308,150.275 241.818 C 150.595 242.138,151.024 242.400,151.229 242.400 M134.000 250.824 C 134.000 251.537,134.167 251.944,134.400 251.800 C 134.620 251.664,134.800 251.113,134.800 250.576 C 134.800 250.039,134.620 249.600,134.400 249.600 C 134.180 249.600,134.000 250.151,134.000 250.824 M152.504 256.900 C 152.287 257.175,151.990 258.178,151.845 259.128 C 151.700 260.079,151.306 261.277,150.969 261.792 C 150.505 262.500,150.367 263.782,150.401 267.064 C 150.477 274.295,150.502 274.121,149.114 275.927 C 148.407 276.847,147.630 277.600,147.388 277.600 C 146.384 277.600,144.493 280.388,144.210 282.285 C 144.053 283.338,143.729 284.438,143.490 284.728 C 143.251 285.019,142.822 286.999,142.537 289.128 C 142.253 291.258,141.730 294.260,141.375 295.800 C 140.435 299.885,140.163 304.395,140.856 304.420 C 141.155 304.431,142.967 304.519,144.882 304.616 C 147.740 304.760,148.427 304.681,148.712 304.171 C 148.903 303.830,149.887 303.067,150.899 302.475 C 153.590 300.902,155.923 297.881,156.190 295.623 C 156.308 294.620,156.661 293.011,156.972 292.046 C 157.360 290.848,157.422 289.985,157.170 289.320 C 156.704 288.096,157.256 286.998,158.810 286.053 C 160.679 284.916,161.614 283.408,161.872 281.115 C 162.203 278.175,162.573 277.577,163.908 277.829 C 165.435 278.117,167.452 276.144,168.047 273.781 C 168.416 272.313,168.658 272.000,169.424 272.000 C 170.823 272.000,170.879 271.460,169.573 270.584 C 168.929 270.153,168.398 269.620,168.392 269.400 C 168.357 268.008,166.883 267.149,163.637 266.629 C 160.092 266.062,158.448 264.911,158.414 262.975 C 158.406 262.522,157.876 261.763,157.235 261.289 C 156.594 260.815,155.950 259.884,155.804 259.219 C 155.394 257.352,153.305 255.884,152.504 256.900 M170.700 257.239 C 168.130 258.238,170.038 258.963,174.317 258.613 C 179.311 258.205,180.529 257.969,180.058 257.498 C 179.480 256.920,172.052 256.714,170.700 257.239 M181.293 262.400 C 180.961 262.931,180.357 263.201,179.497 263.204 C 177.372 263.212,175.200 263.676,175.444 264.071 C 175.569 264.273,176.707 264.402,177.972 264.356 C 182.099 264.207,182.390 265.539,178.761 267.962 C 177.420 268.858,175.958 270.054,175.513 270.619 L 174.705 271.647 175.512 272.524 C 175.957 273.006,176.383 273.741,176.460 274.157 C 176.537 274.574,176.944 275.114,177.365 275.357 C 177.786 275.601,178.451 276.106,178.844 276.479 C 179.586 277.185,180.817 277.552,185.200 278.374 C 188.905 279.070,190.000 280.309,190.000 283.811 C 190.000 285.936,190.132 286.442,190.776 286.787 C 191.801 287.336,192.793 285.986,192.817 284.011 C 192.827 283.235,192.982 281.840,193.162 280.910 C 193.607 278.608,192.921 275.249,191.745 273.978 C 191.225 273.416,190.800 272.642,190.800 272.258 C 190.800 271.874,190.555 271.074,190.256 270.480 C 189.957 269.886,189.606 268.465,189.477 267.322 C 189.021 263.281,187.329 261.600,183.716 261.600 C 182.226 261.600,181.680 261.780,181.293 262.400 M135.203 264.132 C 133.954 265.671,130.800 271.858,130.800 272.769 C 130.800 273.142,130.536 273.796,130.213 274.224 C 129.890 274.651,129.620 275.380,129.613 275.844 C 129.606 276.308,129.084 277.748,128.453 279.044 C 127.823 280.340,126.894 282.300,126.391 283.400 C 125.887 284.500,125.169 285.850,124.796 286.400 C 124.422 286.950,123.992 287.940,123.839 288.600 C 123.687 289.260,123.133 290.700,122.609 291.800 C 122.085 292.900,121.545 294.475,121.410 295.300 C 121.275 296.125,121.031 296.800,120.869 296.800 C 120.549 296.800,119.772 299.327,119.375 301.661 C 119.091 303.326,120.074 304.017,121.578 303.212 C 122.297 302.827,124.389 299.092,124.407 298.161 C 124.410 297.963,125.040 296.540,125.807 295.000 C 126.573 293.460,127.486 291.210,127.836 290.000 C 128.186 288.790,128.706 287.530,128.991 287.200 C 129.277 286.870,129.639 285.998,129.796 285.262 C 129.952 284.526,130.680 282.608,131.413 281.000 C 132.145 279.392,132.967 277.337,133.237 276.433 C 133.508 275.530,133.970 274.591,134.265 274.346 C 134.559 274.102,134.800 273.639,134.800 273.318 C 134.800 272.997,135.354 271.471,136.032 269.927 C 137.882 265.712,137.288 261.563,135.203 264.132 M115.228 275.500 C 115.213 276.435,115.269 277.200,115.353 277.200 C 115.693 277.200,115.842 275.295,115.559 274.573 C 115.345 274.026,115.248 274.297,115.228 275.500 M113.225 280.800 C 113.225 282.820,113.273 282.937,113.813 282.224 C 114.136 281.796,114.400 281.156,114.400 280.800 C 114.400 280.444,114.136 279.804,113.813 279.376 C 113.273 278.663,113.225 278.780,113.225 280.800 M111.200 286.233 C 111.200 288.594,112.147 288.455,112.323 286.069 C 112.419 284.772,112.307 284.400,111.823 284.400 C 111.350 284.400,111.200 284.840,111.200 286.233 M109.613 291.687 C 109.603 292.848,109.732 293.124,110.200 292.945 C 110.959 292.653,110.964 291.969,110.213 290.976 C 109.662 290.248,109.625 290.293,109.613 291.687 M107.628 297.076 C 107.649 298.519,107.742 298.800,108.000 298.200 C 108.478 297.088,108.478 295.695,108.000 295.400 C 107.753 295.247,107.611 295.890,107.628 297.076 M105.606 301.700 C 105.611 302.945,105.716 303.239,106.000 302.800 C 106.510 302.010,106.510 300.000,106.000 300.000 C 105.780 300.000,105.603 300.765,105.606 301.700 M111.361 303.773 C 110.911 304.087,110.330 305.056,110.070 305.925 C 109.809 306.794,109.327 307.728,108.998 308.002 C 108.148 308.707,108.146 315.456,108.996 316.395 C 109.323 316.757,109.835 317.761,110.133 318.627 C 110.742 320.394,112.538 321.004,113.703 319.840 C 114.367 319.175,114.520 304.709,113.873 303.700 C 113.447 303.036,112.368 303.067,111.361 303.773 M103.830 305.021 C 103.548 306.146,103.852 306.939,104.428 306.583 C 104.903 306.289,104.914 304.518,104.443 304.226 C 104.246 304.105,103.971 304.463,103.830 305.021 M101.867 308.667 C 101.720 308.813,101.600 309.278,101.600 309.700 C 101.600 310.737,102.566 310.368,102.728 309.269 C 102.852 308.428,102.413 308.121,101.867 308.667 M152.680 309.335 C 152.182 310.633,147.977 312.159,146.805 311.467 C 145.457 310.670,143.945 311.031,141.305 312.780 C 140.292 313.451,139.044 314.000,138.531 314.000 C 138.019 314.000,137.258 314.342,136.839 314.761 C 136.421 315.179,135.656 315.649,135.139 315.806 C 133.607 316.270,130.461 318.064,130.260 318.587 C 129.596 320.317,135.925 321.275,137.514 319.686 C 138.074 319.126,139.250 318.764,141.456 318.472 C 144.644 318.050,147.200 316.298,147.200 314.533 C 147.200 313.369,147.995 314.112,148.983 316.200 C 149.734 317.788,150.246 318.400,150.824 318.400 C 151.265 318.400,151.727 318.715,151.851 319.100 C 152.230 320.274,153.368 322.400,153.616 322.400 C 156.208 322.400,157.059 314.672,154.904 310.700 C 153.878 308.810,153.072 308.315,152.680 309.335 M100.000 312.224 C 100.000 312.804,100.173 313.140,100.400 313.000 C 100.620 312.864,100.800 312.403,100.800 311.976 C 100.800 311.549,100.620 311.200,100.400 311.200 C 100.180 311.200,100.000 311.661,100.000 312.224 M97.974 316.500 C 97.960 317.435,97.898 319.100,97.835 320.200 C 97.547 325.247,98.076 330.400,98.883 330.400 C 99.303 330.400,99.547 330.238,99.424 330.039 C 99.181 329.646,98.808 323.353,98.717 318.100 C 98.659 314.752,98.021 313.379,97.974 316.500 M149.967 330.773 C 149.178 330.927,147.918 331.424,147.167 331.878 C 146.415 332.331,145.080 332.828,144.200 332.981 C 143.320 333.134,142.210 333.510,141.734 333.816 C 141.258 334.123,139.638 334.570,138.134 334.809 C 136.630 335.048,135.015 335.495,134.543 335.803 C 134.072 336.110,132.464 336.415,130.968 336.481 L 128.249 336.600 127.771 338.483 C 127.507 339.518,127.001 340.656,126.646 341.011 C 126.291 341.367,126.000 341.931,126.000 342.267 C 126.000 342.602,125.652 343.365,125.227 343.963 C 124.801 344.560,124.331 345.535,124.182 346.128 C 124.033 346.722,123.756 347.304,123.566 347.421 C 123.231 347.628,120.400 353.341,120.400 353.810 C 120.400 353.938,119.950 354.705,119.400 355.514 C 118.113 357.408,118.138 358.502,119.500 359.984 L 120.600 361.181 136.000 361.415 C 144.470 361.544,152.614 361.801,154.097 361.987 C 159.599 362.675,172.666 361.706,171.644 360.684 C 171.426 360.466,167.951 360.121,163.923 359.919 C 159.895 359.717,155.835 359.461,154.900 359.351 L 153.200 359.151 153.200 356.824 C 153.200 355.170,153.387 354.343,153.846 353.962 C 154.362 353.533,154.447 352.939,154.267 351.013 C 154.143 349.686,154.189 345.180,154.370 341.000 C 154.713 333.062,154.421 330.800,153.053 330.800 C 152.730 330.800,152.226 330.731,151.933 330.647 C 151.640 330.563,150.755 330.620,149.967 330.773 M100.006 332.676 C 100.011 334.066,100.120 334.433,100.400 334.000 C 100.909 333.213,100.909 331.314,100.400 331.000 C 100.154 330.848,100.002 331.494,100.006 332.676 M101.429 335.468 C 101.150 336.194,101.798 336.784,102.886 336.794 C 103.263 336.797,103.765 337.160,104.000 337.600 C 104.352 338.258,104.834 338.399,106.714 338.394 C 110.815 338.383,111.009 337.382,106.987 336.992 C 104.395 336.740,104.000 336.586,104.000 335.823 C 104.000 335.532,103.595 335.185,103.100 335.052 C 101.806 334.705,101.713 334.728,101.429 335.468 M117.132 335.575 C 109.755 335.931,111.128 336.403,119.433 336.368 C 126.181 336.339,126.870 336.276,125.800 335.786 C 125.140 335.483,123.970 335.262,123.200 335.293 C 122.430 335.324,119.699 335.451,117.132 335.575 M173.400 360.800 C 173.264 361.020,173.523 361.200,173.976 361.200 C 174.429 361.200,174.800 361.020,174.800 360.800 C 174.800 360.580,174.541 360.400,174.224 360.400 C 173.907 360.400,173.536 360.580,173.400 360.800 " stroke="none" fill="#271a34" fill-rule="evenodd"></path><path id="path1" d="M0.000 219.000 L 0.000 438.000 200.000 438.000 L 400.000 438.000 400.000 219.000 L 400.000 0.000 200.000 0.000 L 0.000 0.000 0.000 219.000 M195.073 77.100 C 198.002 78.282,201.318 81.120,202.548 83.500 C 202.918 84.215,203.368 84.800,203.548 84.800 C 204.241 84.800,207.335 88.280,208.054 89.868 C 208.469 90.786,208.968 91.596,209.162 91.668 C 209.798 91.906,210.762 100.085,210.524 103.230 C 210.338 105.690,210.413 106.313,210.949 106.758 C 211.307 107.055,211.600 107.559,211.600 107.878 C 211.600 108.197,212.029 109.210,212.553 110.129 C 213.379 111.577,213.537 112.507,213.740 117.098 C 213.941 121.656,214.093 122.558,214.827 123.550 C 215.537 124.511,215.601 124.850,215.212 125.577 C 214.866 126.223,214.856 126.970,215.172 128.445 C 215.408 129.542,215.600 131.317,215.600 132.390 L 215.600 134.341 217.900 135.402 C 219.165 135.985,221.137 136.617,222.281 136.807 C 223.426 136.997,224.738 137.353,225.197 137.598 C 225.655 137.844,227.418 138.304,229.115 138.621 C 230.812 138.938,232.920 139.452,233.800 139.763 C 234.680 140.074,236.120 140.446,237.000 140.590 C 243.249 141.609,249.756 143.799,251.736 145.549 C 255.105 148.528,258.777 154.488,259.470 158.104 C 259.607 158.817,260.028 159.850,260.407 160.400 C 260.785 160.950,261.234 161.847,261.404 162.392 C 261.574 162.938,262.047 163.883,262.456 164.492 C 262.865 165.102,263.560 166.133,264.000 166.784 C 264.440 167.435,264.800 168.088,264.800 168.235 C 264.800 168.383,265.439 169.245,266.220 170.152 C 267.001 171.058,267.766 171.980,267.920 172.200 C 268.074 172.421,268.695 173.264,269.300 174.074 C 269.905 174.884,270.400 175.677,270.400 175.836 C 270.400 175.994,270.815 176.681,271.322 177.362 C 273.514 180.305,274.404 182.373,274.811 185.471 C 275.358 189.636,276.028 191.916,277.008 192.949 C 278.466 194.485,285.860 201.227,286.838 201.912 C 288.294 202.931,289.532 204.458,290.073 205.900 C 290.341 206.615,290.692 207.200,290.853 207.200 C 291.014 207.200,291.262 207.605,291.404 208.100 C 291.546 208.595,292.176 210.080,292.803 211.400 C 293.431 212.720,294.042 214.118,294.162 214.506 C 294.417 215.334,296.671 215.166,299.400 214.116 C 307.832 210.871,314.060 215.692,306.451 219.574 C 305.573 220.022,304.741 220.571,304.604 220.794 C 304.466 221.017,303.731 221.200,302.971 221.200 C 300.773 221.200,299.800 223.067,300.816 225.335 C 301.745 227.410,306.770 231.853,308.809 232.402 C 310.455 232.846,311.165 233.541,312.133 235.660 C 313.849 239.419,311.233 241.267,307.345 239.044 C 305.437 237.953,304.815 238.156,304.689 239.911 C 304.591 241.285,303.897 241.764,301.336 242.229 C 300.491 242.382,299.271 242.775,298.624 243.103 C 297.976 243.431,296.661 243.902,295.701 244.150 C 294.051 244.575,293.885 244.754,292.675 247.400 C 291.971 248.940,291.250 250.425,291.074 250.700 C 290.709 251.269,288.536 251.384,288.333 250.846 C 288.222 250.549,285.383 248.148,281.314 244.906 C 280.827 244.518,280.212 243.796,279.947 243.300 C 279.682 242.805,279.260 242.400,279.011 242.400 C 278.393 242.400,276.078 240.111,274.524 237.963 C 273.822 236.993,272.562 235.447,271.724 234.527 C 270.886 233.607,269.587 232.102,268.839 231.181 C 268.090 230.261,266.882 229.259,266.153 228.955 C 264.573 228.294,264.000 227.353,264.000 225.416 C 264.000 224.211,263.823 223.918,262.900 223.590 C 262.295 223.376,261.530 223.016,261.200 222.790 C 260.870 222.565,259.880 222.028,259.000 221.598 C 254.502 219.401,253.561 217.204,256.223 215.110 C 257.449 214.146,257.254 213.227,255.436 211.409 C 252.725 208.698,252.133 209.147,252.027 213.994 C 251.991 215.640,251.795 217.731,251.591 218.640 C 251.142 220.645,251.798 230.875,252.455 232.102 C 252.702 232.565,253.228 234.756,253.622 236.971 C 254.942 244.379,256.041 249.391,256.569 250.400 C 256.856 250.950,257.219 251.934,257.375 252.586 C 257.531 253.238,257.986 254.498,258.385 255.386 C 258.785 256.274,259.234 258.350,259.382 260.000 C 259.530 261.650,259.829 264.043,260.047 265.317 C 261.967 276.586,262.014 287.721,260.202 302.000 C 259.881 304.530,259.425 309.210,259.189 312.400 C 258.952 315.590,258.625 318.830,258.461 319.600 C 258.298 320.370,258.303 321.990,258.473 323.200 C 258.642 324.410,258.968 328.370,259.197 332.000 C 259.426 335.630,259.878 340.670,260.202 343.200 C 260.526 345.730,260.971 350.500,261.190 353.800 C 261.876 364.151,262.320 363.503,254.800 363.137 C 245.450 362.683,216.397 361.955,216.055 362.166 C 213.829 363.541,153.783 364.514,152.201 363.200 C 151.592 362.695,149.078 362.582,136.239 362.485 C 126.077 362.408,120.617 362.219,119.851 361.916 C 117.614 361.033,116.903 357.139,118.538 354.729 C 119.054 353.969,119.605 352.833,119.763 352.205 C 119.921 351.577,120.398 350.620,120.825 350.078 C 121.251 349.536,121.600 348.796,121.600 348.435 C 121.600 348.074,121.847 347.423,122.149 346.989 C 124.129 344.143,126.025 339.594,125.578 338.759 C 125.058 337.788,125.525 337.777,114.800 339.015 C 104.683 340.183,104.725 340.182,102.906 339.254 C 96.292 335.880,92.026 318.717,96.652 314.091 C 96.953 313.790,97.200 313.389,97.200 313.200 C 97.200 313.011,97.432 312.619,97.716 312.329 C 98.370 311.659,102.800 303.719,102.800 303.217 C 102.800 303.011,103.250 301.996,103.800 300.962 C 104.350 299.927,104.800 298.788,104.800 298.429 C 104.800 298.071,105.054 297.415,105.365 296.972 C 105.675 296.528,106.237 295.093,106.613 293.783 C 106.989 292.472,107.460 291.196,107.659 290.946 C 107.858 290.697,108.273 289.617,108.581 288.546 C 109.276 286.131,110.665 282.194,111.383 280.600 C 111.681 279.940,112.156 278.590,112.439 277.600 C 112.723 276.610,113.172 275.440,113.438 275.000 C 113.704 274.560,114.047 273.570,114.200 272.800 C 114.353 272.030,114.712 271.030,114.997 270.578 C 115.283 270.126,115.793 268.776,116.131 267.578 C 116.777 265.289,118.462 260.465,119.113 259.039 C 119.324 258.578,119.775 257.300,120.116 256.200 C 120.457 255.100,121.299 252.670,121.986 250.800 C 122.673 248.930,123.954 245.242,124.833 242.604 C 125.713 239.966,126.605 237.635,126.816 237.424 C 127.389 236.851,127.280 234.074,126.637 232.862 C 124.676 229.161,124.398 218.673,126.152 214.512 C 126.728 213.144,127.200 211.591,127.200 211.062 C 127.200 210.533,127.497 209.313,127.861 208.350 C 128.339 207.084,128.649 204.040,128.985 197.346 C 129.346 190.129,129.589 187.877,130.087 187.117 C 130.438 186.581,130.954 185.345,131.233 184.371 C 131.512 183.397,131.871 182.420,132.030 182.200 C 133.718 179.874,135.875 171.629,135.213 170.031 C 134.714 168.826,134.557 162.589,134.992 161.232 C 135.268 160.370,140.167 157.391,146.400 154.294 C 147.390 153.802,148.296 153.272,148.414 153.116 C 148.532 152.959,149.252 152.569,150.014 152.248 C 150.776 151.928,153.357 150.571,155.749 149.233 C 158.141 147.895,160.284 146.800,160.511 146.800 C 160.739 146.800,161.514 146.350,162.236 145.800 C 162.957 145.250,163.717 144.800,163.924 144.800 C 165.571 144.800,165.160 143.317,162.728 140.486 C 161.123 138.616,161.254 137.167,163.400 133.065 C 165.378 129.284,165.999 123.970,164.644 122.431 C 163.958 121.653,161.600 115.791,161.600 114.864 C 161.600 114.492,161.248 113.532,160.819 112.730 C 160.389 111.928,159.922 110.311,159.782 109.136 C 159.641 107.961,159.163 105.656,158.718 104.014 C 157.832 100.739,157.938 97.654,159.008 95.585 C 159.333 94.955,159.603 94.116,159.607 93.720 C 159.623 92.133,165.428 85.348,168.566 83.248 C 171.221 81.471,172.941 80.455,174.400 79.802 C 175.170 79.457,176.278 78.911,176.862 78.587 C 177.446 78.264,178.256 77.992,178.662 77.981 C 179.068 77.971,180.660 77.532,182.200 77.007 C 186.376 75.581,191.397 75.617,195.073 77.100 M202.800 91.373 C 202.800 92.007,203.090 92.438,203.630 92.610 C 204.628 92.926,205.194 92.526,204.257 92.167 C 203.896 92.028,203.600 91.574,203.600 91.157 C 203.600 90.741,203.420 90.400,203.200 90.400 C 202.980 90.400,202.800 90.838,202.800 91.373 M188.428 96.374 C 187.072 97.641,186.893 98.447,187.800 99.200 C 188.548 99.820,188.548 101.092,187.800 102.400 C 186.621 104.462,187.218 107.200,188.848 107.200 C 191.065 107.200,192.541 105.202,193.046 101.517 C 193.284 99.778,193.402 99.632,195.069 98.995 C 196.043 98.623,196.779 98.138,196.706 97.917 C 196.487 97.260,193.485 96.384,192.300 96.633 C 191.695 96.760,191.200 96.713,191.200 96.528 C 191.200 95.355,189.613 95.267,188.428 96.374 M188.178 113.236 C 188.054 113.436,188.148 113.600,188.386 113.600 C 188.625 113.600,188.976 114.012,189.168 114.515 C 189.427 115.196,190.422 115.772,193.058 116.764 C 195.006 117.497,196.884 118.345,197.231 118.648 C 198.006 119.325,200.069 119.371,200.715 118.725 C 201.081 118.359,201.402 118.450,202.120 119.125 C 203.790 120.694,205.829 119.898,204.628 118.146 C 204.347 117.736,204.015 116.613,203.890 115.652 C 203.582 113.281,203.279 113.085,201.074 113.837 C 199.496 114.374,198.871 114.401,197.202 114.000 C 195.631 113.624,194.792 113.631,193.218 114.034 C 191.406 114.498,191.147 114.476,190.393 113.793 C 189.446 112.937,188.509 112.701,188.178 113.236 M206.278 122.656 C 205.475 123.459,207.500 123.884,209.534 123.339 C 210.231 123.152,210.333 123.003,209.934 122.751 C 209.307 122.354,206.649 122.285,206.278 122.656 M207.336 140.367 C 206.641 140.795,205.201 142.248,204.136 143.597 C 201.018 147.548,198.505 150.210,197.312 150.826 C 196.700 151.142,195.962 151.625,195.671 151.900 C 194.564 152.948,190.173 152.521,187.678 151.124 C 186.425 150.422,184.680 149.498,183.800 149.071 C 182.920 148.643,181.609 147.778,180.886 147.147 C 180.163 146.516,179.330 146.000,179.035 146.000 C 178.740 146.000,178.266 145.720,177.982 145.378 C 173.416 139.876,174.556 151.901,179.227 158.510 C 179.885 159.439,181.032 161.125,181.778 162.256 C 182.524 163.387,183.329 164.432,183.567 164.579 C 184.271 165.014,184.066 165.587,183.040 166.054 C 182.173 166.449,181.883 166.293,180.029 164.429 C 177.245 161.631,176.308 162.675,178.430 166.212 C 178.829 166.879,179.332 168.139,179.546 169.012 C 180.117 171.336,181.591 175.640,182.229 176.847 C 182.533 177.423,183.051 178.863,183.378 180.047 C 183.706 181.231,184.498 183.640,185.139 185.400 C 185.780 187.160,186.532 189.230,186.811 190.000 C 187.089 190.770,187.741 192.303,188.259 193.406 C 188.776 194.509,189.200 195.644,189.200 195.928 C 189.200 196.212,189.540 197.199,189.955 198.122 C 190.370 199.045,190.837 200.398,190.993 201.129 C 191.635 204.141,191.810 201.037,192.009 183.067 C 192.124 172.690,192.367 163.888,192.550 163.506 C 192.805 162.972,192.646 162.722,191.865 162.425 C 190.251 161.811,189.295 157.083,190.570 156.025 C 193.319 153.744,195.795 157.001,194.428 161.099 C 193.815 162.936,193.822 163.004,194.717 163.890 L 195.634 164.798 195.442 185.299 C 195.337 196.574,195.134 207.011,194.991 208.491 C 194.790 210.581,194.879 211.475,195.389 212.491 C 196.576 214.856,198.279 219.371,198.560 220.900 C 199.040 223.509,201.200 223.134,201.200 220.442 C 201.200 217.452,201.939 210.530,202.593 207.400 C 202.914 205.860,203.373 202.260,203.612 199.400 C 203.851 196.540,204.211 193.660,204.411 193.000 C 204.612 192.340,205.058 188.830,205.404 185.200 C 205.749 181.570,206.202 178.084,206.411 177.454 C 206.889 176.010,207.729 165.712,207.431 164.938 C 207.269 164.514,206.842 164.431,205.811 164.624 C 204.599 164.852,204.236 164.717,203.106 163.620 C 202.388 162.923,200.521 161.125,198.957 159.625 C 196.765 157.523,196.195 156.752,196.469 156.263 C 196.882 155.524,198.408 155.998,199.800 157.298 C 204.833 162.001,205.079 162.116,206.610 160.500 C 208.509 158.496,208.861 157.331,209.225 151.845 C 209.416 148.960,209.687 145.428,209.828 143.996 C 210.044 141.806,209.967 141.250,209.342 140.492 L 208.600 139.590 207.336 140.367 M188.512 159.126 C 188.364 162.653,185.222 165.721,184.872 162.681 C 184.781 161.892,185.100 161.164,185.972 160.171 C 186.653 159.395,187.200 158.320,187.200 157.757 C 187.200 157.002,187.379 156.778,187.900 156.885 C 188.474 157.003,188.584 157.408,188.512 159.126 M177.000 236.099 C 173.284 236.689,173.458 236.532,173.751 239.024 C 174.022 241.327,173.734 242.302,172.329 243.848 C 171.561 244.693,171.564 244.700,172.879 245.546 C 173.606 246.013,174.740 246.756,175.400 247.196 C 176.060 247.636,177.050 247.996,177.600 247.997 C 180.368 248.000,184.070 249.317,184.909 250.598 C 186.038 252.320,188.400 250.303,188.400 247.618 C 188.400 247.167,188.760 246.125,189.200 245.304 C 189.640 244.484,190.004 243.089,190.010 242.206 C 190.015 241.323,190.198 239.825,190.417 238.877 C 191.086 235.976,190.867 235.856,184.741 235.783 C 181.804 235.747,178.320 235.890,177.000 236.099 " stroke="none" fill="#fbfbfa" fill-opacity="0.0" fill-rule="evenodd"></path><path id="path2" d="M201.995 90.605 C 200.933 91.736,199.894 91.828,196.982 91.053 C 194.123 90.292,191.745 91.088,189.479 93.565 C 188.555 94.574,187.034 95.920,186.099 96.555 C 182.273 99.153,182.281 99.138,182.598 103.575 C 182.825 106.746,182.758 107.772,182.254 108.855 C 180.808 111.962,180.805 113.239,182.238 116.849 C 184.113 121.575,183.992 123.528,181.750 124.722 C 180.808 125.223,180.200 126.791,180.937 126.815 C 181.847 126.846,187.600 132.673,187.600 133.564 C 187.600 134.039,187.852 134.827,188.161 135.314 C 189.006 136.649,188.359 140.453,186.980 142.262 L 185.896 143.683 185.048 142.676 C 184.582 142.122,183.820 141.559,183.355 141.425 C 182.890 141.291,182.350 140.666,182.155 140.037 C 181.851 139.056,181.671 138.941,180.900 139.233 C 179.853 139.630,179.616 141.767,180.578 142.136 C 180.896 142.258,181.277 143.006,181.426 143.799 C 181.650 144.992,181.902 145.280,182.897 145.479 L 184.098 145.720 183.149 146.232 C 182.562 146.549,182.055 146.603,181.820 146.372 C 181.611 146.168,181.020 146.000,180.506 146.000 C 179.298 146.000,181.279 147.847,183.800 149.071 C 184.680 149.498,186.425 150.422,187.678 151.124 C 190.173 152.521,194.564 152.948,195.671 151.900 C 195.962 151.625,196.678 151.154,197.261 150.853 C 197.845 150.552,199.195 149.410,200.261 148.314 L 202.200 146.322 200.644 147.361 C 199.788 147.933,198.856 148.400,198.571 148.400 C 198.287 148.400,197.946 148.740,197.814 149.157 C 197.666 149.624,197.081 149.990,196.287 150.114 C 194.538 150.386,193.930 149.720,195.149 148.865 C 196.820 147.693,201.600 142.127,201.600 141.353 C 201.600 141.211,202.275 140.486,203.100 139.742 C 203.925 138.998,204.752 138.228,204.937 138.031 C 208.493 134.252,208.207 134.758,207.500 133.497 C 207.225 133.007,206.684 132.174,206.298 131.646 C 205.318 130.307,206.013 129.606,208.349 129.576 C 209.367 129.563,211.100 129.398,212.200 129.210 C 214.595 128.800,215.168 129.280,215.260 131.776 C 215.310 133.123,215.350 133.197,215.495 132.213 C 215.591 131.560,215.466 129.989,215.216 128.721 C 214.877 126.995,214.878 126.202,215.221 125.560 C 215.599 124.855,215.529 124.501,214.827 123.550 C 214.093 122.558,213.941 121.656,213.740 117.098 C 213.537 112.507,213.379 111.577,212.553 110.129 C 212.029 109.210,211.600 108.197,211.600 107.878 C 211.600 107.559,211.307 107.055,210.949 106.758 C 210.413 106.313,210.338 105.690,210.524 103.230 C 210.784 99.790,209.786 92.045,209.000 91.411 C 208.721 91.185,208.396 90.730,208.278 90.400 C 208.159 90.068,208.049 90.292,208.032 90.900 C 208.014 91.505,208.180 92.000,208.400 92.000 C 208.620 92.000,208.800 92.161,208.800 92.358 C 208.800 92.926,206.017 92.149,205.061 91.314 C 203.053 89.560,202.990 89.546,201.995 90.605 M203.600 91.157 C 203.600 91.574,203.896 92.028,204.257 92.167 C 205.194 92.526,204.628 92.926,203.630 92.610 C 202.779 92.339,202.402 90.400,203.200 90.400 C 203.420 90.400,203.600 90.741,203.600 91.157 M191.200 96.528 C 191.200 96.713,191.695 96.760,192.300 96.633 C 193.485 96.384,196.487 97.260,196.706 97.917 C 196.779 98.138,196.043 98.623,195.069 98.995 C 193.402 99.632,193.284 99.778,193.046 101.517 C 192.541 105.202,191.065 107.200,188.848 107.200 C 187.218 107.200,186.621 104.462,187.800 102.400 C 188.548 101.092,188.548 99.820,187.800 99.200 C 186.893 98.447,187.072 97.641,188.428 96.374 C 189.613 95.267,191.200 95.355,191.200 96.528 M181.600 96.576 C 181.600 97.423,182.277 97.697,182.558 96.965 C 182.900 96.073,182.873 96.000,182.200 96.000 C 181.870 96.000,181.600 96.259,181.600 96.576 M190.393 113.793 C 191.147 114.476,191.406 114.498,193.218 114.034 C 194.792 113.631,195.631 113.624,197.202 114.000 C 198.871 114.401,199.496 114.374,201.074 113.837 C 203.279 113.085,203.582 113.281,203.890 115.652 C 204.015 116.613,204.347 117.736,204.628 118.146 C 205.829 119.898,203.790 120.694,202.120 119.125 C 201.402 118.450,201.081 118.359,200.715 118.725 C 200.069 119.371,198.006 119.325,197.231 118.648 C 196.884 118.345,195.006 117.497,193.058 116.764 C 190.422 115.772,189.427 115.196,189.168 114.515 C 188.976 114.012,188.625 113.600,188.386 113.600 C 188.148 113.600,188.054 113.436,188.178 113.236 C 188.509 112.701,189.446 112.937,190.393 113.793 M211.779 118.792 C 214.399 119.788,213.841 122.981,211.208 122.063 C 209.047 121.309,207.645 119.056,209.100 118.676 C 210.282 118.367,210.709 118.385,211.779 118.792 M175.858 120.111 C 175.733 120.609,175.264 121.410,174.815 121.891 C 172.361 124.526,175.968 128.530,179.226 126.786 C 180.207 126.261,180.202 125.573,179.200 123.704 C 178.760 122.884,178.400 121.843,178.400 121.392 C 178.400 120.050,176.157 118.919,175.858 120.111 M209.934 122.751 C 210.333 123.003,210.231 123.152,209.534 123.339 C 207.500 123.884,205.475 123.459,206.278 122.656 C 206.649 122.285,209.307 122.354,209.934 122.751 M214.533 124.373 C 215.211 125.051,214.347 125.600,212.600 125.600 C 210.604 125.600,209.975 125.016,211.060 124.169 C 211.820 123.575,213.854 123.694,214.533 124.373 M293.640 214.070 C 293.614 214.775,293.173 215.456,292.347 216.070 C 290.878 217.159,286.007 222.075,286.003 222.471 C 286.001 222.621,285.766 222.981,285.481 223.271 C 282.233 226.579,280.080 232.949,280.348 238.460 C 280.454 240.635,283.270 241.625,285.828 240.386 C 289.485 238.616,301.367 238.072,303.292 239.587 C 304.357 240.425,304.800 240.301,304.800 239.167 C 304.800 238.087,305.617 238.056,307.385 239.067 C 311.235 241.269,313.840 239.399,312.133 235.660 C 311.165 233.541,310.455 232.846,308.809 232.402 C 304.576 231.263,299.406 224.788,300.843 222.426 C 301.733 220.962,300.824 221.195,299.504 222.770 C 298.549 223.909,297.668 223.810,297.346 222.528 C 296.982 221.076,297.931 219.493,299.412 219.079 C 300.066 218.897,301.680 218.400,303.000 217.974 C 305.765 217.082,307.236 216.996,307.925 217.685 C 308.793 218.553,310.538 216.415,310.037 215.097 C 309.254 213.038,303.395 212.488,299.540 214.111 C 296.886 215.228,294.297 215.177,293.964 214.000 L 293.680 213.000 293.640 214.070 M170.107 243.213 C 164.141 243.840,161.973 244.620,159.231 247.127 L 157.481 248.726 158.132 250.663 C 158.778 252.587,158.776 252.606,157.817 253.400 C 156.433 254.546,155.964 256.035,156.442 257.766 C 156.920 259.499,156.943 259.501,159.200 258.000 C 160.190 257.342,161.180 256.800,161.400 256.796 C 162.666 256.771,162.975 256.038,162.108 255.115 C 160.371 253.266,161.887 252.867,168.600 253.410 C 173.599 253.813,174.905 253.261,175.628 250.440 C 175.975 249.088,176.362 248.398,176.776 248.393 C 177.119 248.390,176.753 247.985,175.963 247.493 C 175.172 247.002,173.858 246.172,173.042 245.648 L 171.558 244.696 172.449 243.748 C 172.939 243.227,173.263 242.824,173.170 242.854 C 173.076 242.884,171.698 243.045,170.107 243.213 M182.000 249.200 C 183.368 249.638,184.419 249.638,183.400 249.200 C 182.960 249.011,182.240 248.862,181.800 248.868 C 181.157 248.877,181.196 248.943,182.000 249.200 M170.857 260.203 C 165.843 261.321,165.467 261.606,167.458 262.781 C 169.929 264.239,180.800 261.978,180.800 260.007 C 180.800 258.926,176.171 259.018,170.857 260.203 " stroke="none" fill="#e9ca36" fill-rule="evenodd"></path><path id="path3" d="M182.200 77.007 C 180.660 77.532,179.068 77.971,178.662 77.981 C 178.256 77.992,177.446 78.264,176.862 78.587 C 176.278 78.911,175.170 79.457,174.400 79.802 C 172.941 80.455,171.221 81.471,168.566 83.248 C 165.428 85.348,159.623 92.133,159.607 93.720 C 159.603 94.116,159.333 94.955,159.008 95.585 C 157.938 97.654,157.832 100.739,158.718 104.014 C 159.163 105.656,159.641 107.961,159.782 109.136 C 159.922 110.311,160.389 111.928,160.819 112.730 C 161.248 113.532,161.600 114.533,161.600 114.955 C 161.600 115.378,162.037 116.646,162.571 117.774 C 163.104 118.903,163.662 120.308,163.810 120.897 C 163.958 121.485,164.331 122.177,164.639 122.433 C 166.026 123.584,165.375 129.199,163.400 133.115 C 161.283 137.312,161.160 138.660,162.728 140.486 C 165.160 143.317,165.571 144.800,163.924 144.800 C 163.717 144.800,162.957 145.250,162.236 145.800 C 161.514 146.350,160.739 146.800,160.511 146.800 C 160.284 146.800,158.141 147.895,155.749 149.233 C 153.357 150.571,150.776 151.928,150.014 152.248 C 149.252 152.569,148.532 152.959,148.414 153.116 C 148.296 153.272,147.390 153.802,146.400 154.294 C 140.167 157.391,135.268 160.370,134.992 161.232 C 134.557 162.589,134.714 168.826,135.213 170.031 C 135.875 171.629,133.718 179.874,132.030 182.200 C 131.871 182.420,131.512 183.397,131.233 184.371 C 130.954 185.345,130.438 186.581,130.087 187.117 C 129.589 187.877,129.346 190.129,128.985 197.346 C 128.649 204.040,128.339 207.084,127.861 208.350 C 127.497 209.313,127.200 210.533,127.200 211.062 C 127.200 211.591,126.728 213.144,126.152 214.512 C 124.398 218.673,124.676 229.161,126.637 232.862 C 127.280 234.074,127.389 236.851,126.816 237.424 C 126.605 237.635,125.713 239.966,124.833 242.604 C 123.954 245.242,122.673 248.930,121.986 250.800 C 121.299 252.670,120.457 255.100,120.116 256.200 C 119.775 257.300,119.324 258.578,119.113 259.039 C 118.462 260.465,116.777 265.289,116.131 267.578 C 115.793 268.776,115.283 270.126,114.997 270.578 C 114.712 271.030,114.353 272.030,114.200 272.800 C 114.047 273.570,113.704 274.560,113.438 275.000 C 113.172 275.440,112.723 276.610,112.439 277.600 C 112.156 278.590,111.681 279.940,111.383 280.600 C 110.665 282.194,109.276 286.131,108.581 288.546 C 108.273 289.617,107.858 290.697,107.659 290.946 C 107.460 291.196,106.989 292.472,106.613 293.783 C 106.237 295.093,105.675 296.528,105.365 296.972 C 105.054 297.415,104.800 298.071,104.800 298.429 C 104.800 298.788,104.350 299.927,103.800 300.962 C 103.250 301.996,102.800 303.011,102.800 303.217 C 102.800 303.719,98.370 311.659,97.716 312.329 C 97.432 312.619,97.200 313.011,97.200 313.200 C 97.200 313.389,96.953 313.790,96.652 314.091 C 92.026 318.717,96.292 335.880,102.906 339.254 C 104.725 340.182,104.683 340.183,114.800 339.015 C 125.525 337.777,125.058 337.788,125.578 338.759 C 126.025 339.594,124.129 344.143,122.149 346.989 C 121.847 347.423,121.600 348.074,121.600 348.435 C 121.600 348.796,121.251 349.536,120.825 350.078 C 120.398 350.620,119.921 351.577,119.763 352.205 C 119.605 352.833,119.054 353.969,118.538 354.729 C 116.903 357.139,117.614 361.033,119.851 361.916 C 120.617 362.219,126.077 362.408,136.239 362.485 C 149.078 362.582,151.592 362.695,152.201 363.200 C 153.783 364.514,213.829 363.541,216.055 362.166 C 216.397 361.955,245.450 362.683,254.800 363.137 C 262.320 363.503,261.876 364.151,261.190 353.800 C 260.971 350.500,260.526 345.730,260.202 343.200 C 259.878 340.670,259.426 335.630,259.197 332.000 C 258.968 328.370,258.642 324.410,258.473 323.200 C 258.303 321.990,258.298 320.370,258.461 319.600 C 258.625 318.830,258.952 315.590,259.189 312.400 C 259.425 309.210,259.881 304.530,260.202 302.000 C 262.014 287.721,261.967 276.586,260.047 265.317 C 259.829 264.043,259.530 261.650,259.382 260.000 C 259.234 258.350,258.785 256.274,258.385 255.386 C 257.986 254.498,257.531 253.238,257.375 252.586 C 257.219 251.934,256.856 250.950,256.569 250.400 C 256.041 249.391,254.942 244.379,253.622 236.971 C 253.228 234.756,252.702 232.565,252.455 232.102 C 251.798 230.875,251.142 220.645,251.591 218.640 C 251.795 217.731,251.991 215.640,252.027 213.994 C 252.133 209.147,252.725 208.698,255.436 211.409 C 257.254 213.227,257.449 214.146,256.223 215.110 C 253.561 217.204,254.502 219.401,259.000 221.598 C 259.880 222.028,260.870 222.565,261.200 222.790 C 261.530 223.016,262.295 223.376,262.900 223.590 C 263.823 223.918,264.000 224.211,264.000 225.416 C 264.000 227.353,264.573 228.294,266.153 228.955 C 266.882 229.259,268.090 230.261,268.839 231.181 C 269.587 232.102,270.886 233.607,271.724 234.527 C 272.562 235.447,273.822 236.993,274.524 237.963 C 276.078 240.111,278.393 242.400,279.011 242.400 C 279.260 242.400,279.682 242.805,279.947 243.300 C 280.212 243.796,280.827 244.518,281.314 244.906 C 285.383 248.148,288.222 250.549,288.333 250.846 C 288.536 251.384,290.709 251.269,291.074 250.700 C 291.250 250.425,291.971 248.940,292.675 247.400 C 293.885 244.754,294.051 244.575,295.701 244.150 C 296.661 243.902,297.976 243.428,298.624 243.097 C 299.271 242.766,300.548 242.370,301.463 242.218 C 304.234 241.758,304.847 241.022,303.478 239.801 C 301.536 238.069,289.812 238.458,285.828 240.386 C 281.797 242.338,279.785 240.172,280.456 234.603 C 280.629 233.166,280.621 231.587,280.438 231.095 C 279.960 229.809,279.440 233.631,279.506 237.943 C 279.554 241.120,279.522 241.253,278.847 240.643 C 278.456 240.289,277.933 240.000,277.683 240.000 C 277.433 240.000,277.017 239.595,276.760 239.100 C 276.502 238.605,275.461 237.211,274.446 236.001 C 273.430 234.792,272.150 233.263,271.600 232.602 C 269.303 229.846,267.254 228.000,266.492 228.000 C 265.593 228.000,264.800 226.292,264.800 224.354 C 264.800 223.156,263.882 222.400,262.426 222.400 C 261.972 222.400,261.600 222.210,261.600 221.978 C 261.600 221.745,260.797 221.200,259.817 220.766 C 258.836 220.332,257.918 219.791,257.778 219.564 C 257.637 219.337,257.078 218.982,256.534 218.775 C 255.274 218.296,255.577 217.045,257.309 215.580 C 258.640 214.453,258.344 211.720,256.847 211.328 C 256.486 211.234,255.905 210.671,255.557 210.078 C 253.236 206.120,251.484 207.237,251.165 212.879 C 251.002 215.759,250.656 218.001,250.211 219.055 C 249.542 220.644,249.546 220.908,250.328 225.655 C 250.776 228.375,251.257 231.500,251.397 232.600 C 251.537 233.700,251.900 235.500,252.203 236.600 C 252.507 237.700,253.033 240.040,253.372 241.800 C 254.488 247.592,255.459 251.549,255.895 252.078 C 256.131 252.365,256.631 253.680,257.006 255.000 C 257.382 256.320,257.849 257.571,258.044 257.780 C 258.240 257.989,258.403 259.159,258.408 260.380 C 258.412 261.601,258.805 265.300,259.281 268.600 C 260.521 277.189,260.638 285.993,259.634 294.990 C 259.191 298.955,258.716 304.090,258.580 306.400 C 258.443 308.710,258.069 312.040,257.747 313.800 C 256.991 317.945,257.000 325.108,257.768 330.182 C 258.102 332.392,258.569 337.170,258.806 340.800 C 259.043 344.430,259.495 349.560,259.810 352.200 C 260.677 359.461,260.613 361.449,259.500 361.749 C 259.005 361.882,251.310 361.793,242.400 361.550 C 233.490 361.307,222.150 361.225,217.200 361.368 C 204.427 361.738,190.906 362.346,186.000 362.771 C 181.262 363.182,180.007 363.039,178.844 361.956 C 178.398 361.540,177.825 361.200,177.570 361.200 C 177.268 361.200,177.210 360.886,177.403 360.300 C 178.150 358.026,177.696 346.909,176.556 339.600 C 176.196 337.290,175.849 334.226,175.784 332.790 C 175.720 331.355,175.482 329.105,175.255 327.790 C 175.027 326.476,174.723 323.330,174.579 320.800 C 174.435 318.270,174.067 314.490,173.761 312.400 C 172.981 307.073,173.030 305.478,174.000 304.600 C 174.440 304.202,174.804 303.499,174.809 303.038 C 174.814 302.577,175.184 301.393,175.631 300.407 C 176.078 299.421,176.702 296.631,177.016 294.207 C 177.653 289.296,178.331 286.020,178.846 285.367 C 179.034 285.128,179.327 283.958,179.497 282.767 C 179.962 279.510,183.011 279.265,182.835 282.499 C 182.809 282.994,182.728 285.470,182.657 288.000 C 182.586 290.530,182.319 293.570,182.064 294.755 C 181.809 295.940,181.600 298.910,181.599 301.355 C 181.599 305.495,180.966 310.443,180.046 313.502 C 178.986 317.027,179.035 321.085,180.151 322.119 C 180.951 322.861,181.200 323.477,181.200 324.713 C 181.200 326.535,181.511 327.600,182.043 327.600 C 182.239 327.600,182.400 326.612,182.400 325.403 C 182.400 323.640,182.558 323.108,183.200 322.707 C 183.640 322.432,184.000 321.919,184.000 321.566 C 184.000 320.516,185.271 319.724,187.400 319.449 C 188.665 319.285,189.621 318.908,190.000 318.422 C 190.330 318.000,191.241 317.539,192.025 317.397 C 194.057 317.029,195.121 315.047,194.463 312.853 C 192.922 307.708,194.699 306.287,202.063 306.776 C 208.496 307.204,210.770 305.681,208.053 302.765 C 207.564 302.240,207.230 301.109,207.083 299.482 C 206.960 298.117,206.469 296.240,205.993 295.310 C 205.516 294.381,205.029 292.851,204.909 291.910 C 204.790 290.970,204.560 290.020,204.398 289.800 C 204.237 289.580,203.881 288.140,203.609 286.600 C 203.336 285.060,202.786 282.810,202.387 281.600 C 201.988 280.390,201.560 278.410,201.437 277.200 C 201.304 275.888,200.963 274.816,200.592 274.545 C 200.250 274.295,199.800 273.034,199.592 271.744 C 199.384 270.453,198.851 268.685,198.407 267.814 C 197.963 266.943,197.600 265.581,197.600 264.787 C 197.600 263.749,197.263 262.967,196.400 262.000 C 195.740 261.261,195.200 260.353,195.200 259.982 C 195.200 259.611,194.840 258.850,194.400 258.291 C 193.960 257.731,193.600 257.045,193.600 256.765 C 193.600 255.620,191.369 251.623,190.512 251.233 C 189.396 250.724,189.390 250.369,190.416 245.819 C 193.204 233.457,193.435 234.184,186.785 234.383 C 183.505 234.482,178.769 233.730,178.317 233.039 C 178.118 232.736,177.884 232.756,177.537 233.103 C 177.263 233.377,176.453 233.600,175.735 233.600 C 172.876 233.600,170.166 237.481,171.174 240.132 C 171.532 241.072,171.464 241.130,169.684 241.397 C 168.658 241.550,167.185 241.995,166.409 242.384 C 165.634 242.773,164.084 243.307,162.963 243.570 C 161.068 244.016,156.377 247.687,156.410 248.700 C 156.415 248.865,156.582 249.701,156.780 250.558 C 157.100 251.936,157.020 252.269,156.084 253.441 C 154.915 254.907,154.669 254.774,153.984 252.300 C 153.752 251.461,153.317 250.800,152.998 250.800 C 152.684 250.800,151.800 250.501,151.033 250.135 C 149.091 249.209,148.404 249.836,148.387 252.549 C 148.380 253.714,148.121 254.935,147.787 255.376 C 147.353 255.951,147.200 257.310,147.200 260.607 C 147.200 265.582,146.717 266.591,144.201 266.868 C 143.293 266.968,142.848 267.328,142.364 268.357 L 141.726 269.713 141.473 267.002 C 141.303 265.180,141.400 263.684,141.769 262.445 C 142.070 261.430,142.529 258.710,142.787 256.400 C 143.046 254.090,143.424 252.029,143.628 251.820 C 143.833 251.611,143.982 250.531,143.960 249.420 L 143.921 247.400 143.372 249.147 C 143.070 250.108,142.578 251.098,142.277 251.347 C 141.977 251.596,141.505 252.597,141.228 253.571 C 140.952 254.545,140.382 255.983,139.963 256.765 C 139.543 257.548,139.194 258.461,139.186 258.794 C 139.153 260.182,138.137 261.408,137.716 260.567 C 135.883 256.905,136.149 254.077,138.840 248.600 C 139.705 246.840,140.410 245.205,140.407 244.966 C 140.403 244.727,140.895 244.057,141.500 243.475 C 142.105 242.894,143.050 241.869,143.600 241.197 C 144.150 240.526,144.906 239.632,145.279 239.210 C 145.652 238.787,146.143 237.753,146.370 236.911 C 147.114 234.147,150.512 230.598,152.862 230.128 C 153.457 230.009,154.348 229.481,154.842 228.956 C 155.335 228.430,155.900 228.000,156.096 228.000 C 156.293 228.000,157.043 227.550,157.764 227.000 C 159.427 225.732,159.390 225.726,160.963 227.443 C 162.492 229.113,164.380 229.695,168.600 229.801 C 170.140 229.839,171.711 229.900,172.092 229.935 C 172.472 229.971,173.148 230.714,173.593 231.587 C 174.404 233.175,175.281 233.408,175.759 232.162 C 176.037 231.438,174.809 228.800,174.195 228.800 C 173.562 228.800,170.130 224.519,169.333 222.738 C 168.544 220.972,166.739 220.369,165.528 221.465 C 164.828 222.098,164.723 222.076,163.671 221.068 C 162.409 219.859,161.497 219.750,159.532 220.571 C 158.780 220.885,157.042 221.269,155.668 221.424 C 153.831 221.632,153.065 221.904,152.771 222.453 C 152.321 223.296,149.227 223.496,146.913 222.832 C 145.825 222.521,145.397 222.627,144.094 223.532 C 143.249 224.120,142.207 224.801,141.779 225.048 C 141.291 225.328,141.000 225.926,141.000 226.648 C 141.000 227.728,140.907 227.795,139.500 227.712 C 138.417 227.648,138.000 227.785,138.000 228.203 C 138.000 228.521,137.550 229.076,137.000 229.437 C 136.450 229.797,136.000 230.252,136.000 230.447 C 136.000 230.642,135.281 231.452,134.402 232.246 C 132.604 233.870,129.600 238.250,129.600 239.248 C 129.600 240.216,128.557 240.987,128.268 240.233 C 127.904 239.285,128.479 236.643,129.166 236.100 C 129.744 235.645,129.744 235.555,129.168 235.100 C 128.512 234.580,127.200 231.165,127.200 229.974 C 127.200 229.599,126.931 228.776,126.602 228.146 C 125.512 226.054,125.798 219.956,127.200 215.400 C 127.860 213.256,128.400 211.245,128.400 210.931 C 128.400 210.617,128.695 209.790,129.055 209.093 C 129.571 208.096,129.779 205.910,130.031 198.813 L 130.352 189.800 131.807 186.400 C 133.375 182.733,134.486 179.764,135.472 176.600 C 135.814 175.500,136.343 174.122,136.647 173.538 C 137.383 172.125,137.345 170.785,136.536 169.631 C 136.058 168.948,135.863 167.763,135.836 165.387 C 135.793 161.472,135.959 161.219,139.881 159.200 C 141.376 158.430,142.690 157.688,142.800 157.552 C 142.910 157.415,145.366 156.065,148.259 154.552 C 151.151 153.038,154.391 151.311,155.459 150.714 C 156.526 150.117,158.862 148.901,160.648 148.012 C 167.137 144.784,167.385 143.946,163.240 139.232 C 162.350 138.220,162.406 137.326,163.454 135.811 C 163.754 135.377,164.000 134.727,164.000 134.367 C 164.000 134.006,164.476 133.012,165.058 132.156 C 166.681 129.768,166.704 123.442,165.100 120.765 C 164.495 119.756,164.000 118.607,164.000 118.212 C 164.000 117.817,163.659 116.933,163.243 116.247 C 162.827 115.561,162.356 114.370,162.198 113.600 C 162.039 112.830,161.570 111.445,161.155 110.522 C 160.740 109.599,160.400 108.318,160.400 107.674 C 160.400 107.031,160.138 104.996,159.818 103.152 C 159.074 98.864,159.895 94.469,162.022 91.352 C 163.341 89.419,168.663 84.000,169.242 84.000 C 169.408 84.000,169.781 83.768,170.071 83.485 C 170.362 83.201,171.316 82.634,172.190 82.223 C 173.065 81.813,174.022 81.235,174.319 80.938 C 174.615 80.642,175.121 80.400,175.445 80.400 C 175.768 80.400,176.722 80.048,177.566 79.617 C 186.099 75.264,199.616 77.602,201.426 83.744 C 201.565 84.215,202.650 85.500,203.837 86.600 C 206.282 88.865,206.444 90.508,204.086 89.115 C 202.971 88.456,202.897 88.467,201.452 89.495 C 200.020 90.513,199.879 90.535,197.658 90.076 C 193.750 89.269,192.142 89.785,188.369 93.053 C 187.486 93.817,187.325 93.751,187.011 92.502 C 186.367 89.937,184.774 90.206,181.916 93.362 C 180.179 95.281,180.110 95.921,181.005 101.903 C 181.599 105.876,181.592 106.012,180.637 109.673 C 180.044 111.949,179.808 113.548,180.033 113.780 C 180.235 113.989,180.400 114.403,180.400 114.700 C 180.400 114.997,180.950 116.633,181.623 118.335 C 183.091 122.050,182.855 123.752,180.901 123.527 C 179.921 123.414,179.738 123.142,179.200 121.009 C 178.495 118.210,177.021 117.182,175.694 118.564 C 175.032 119.252,175.041 119.274,175.869 119.026 C 176.909 118.715,178.400 120.102,178.400 121.381 C 178.400 121.838,178.760 122.884,179.200 123.704 C 179.640 124.525,180.000 125.468,180.000 125.799 C 180.000 126.129,180.180 126.400,180.400 126.400 C 180.620 126.400,180.800 126.136,180.800 125.814 C 180.800 125.492,181.205 125.012,181.700 124.749 C 183.996 123.526,184.127 121.609,182.238 116.849 C 180.805 113.239,180.808 111.962,182.254 108.855 C 182.758 107.772,182.825 106.746,182.598 103.575 C 182.281 99.138,182.273 99.153,186.099 96.555 C 187.034 95.920,188.555 94.574,189.479 93.565 C 191.745 91.088,194.123 90.292,196.982 91.053 C 199.859 91.819,200.817 91.734,201.994 90.606 L 203.032 89.612 204.538 90.853 C 206.023 92.077,208.800 93.058,208.800 92.358 C 208.800 92.161,208.620 92.000,208.400 92.000 C 208.180 92.000,208.000 91.484,208.000 90.854 C 208.000 89.575,205.378 86.045,203.803 85.201 C 203.285 84.924,202.753 84.266,202.620 83.739 C 201.165 77.939,190.127 74.300,182.200 77.007 M206.830 90.510 C 206.781 90.988,206.232 90.896,206.060 90.380 C 205.972 90.116,206.116 89.972,206.380 90.060 C 206.644 90.148,206.847 90.351,206.830 90.510 M182.800 96.167 C 182.800 96.777,182.255 97.558,181.958 97.374 C 181.373 97.012,181.551 96.000,182.200 96.000 C 182.530 96.000,182.800 96.075,182.800 96.167 M209.100 118.676 C 208.203 118.910,208.231 119.565,209.187 120.712 C 211.086 122.989,214.359 122.584,213.276 120.207 C 212.629 118.787,210.983 118.184,209.100 118.676 M211.060 124.169 C 210.653 124.487,210.439 124.939,210.584 125.173 C 210.929 125.733,214.275 125.726,214.622 125.165 C 215.295 124.075,212.265 123.227,211.060 124.169 M184.800 130.616 C 184.800 130.735,185.182 131.580,185.648 132.494 C 187.741 136.597,185.241 141.415,182.896 137.795 C 180.926 134.754,178.776 136.467,178.838 141.029 C 178.859 142.553,178.749 144.295,178.594 144.900 C 178.323 145.960,178.370 146.000,179.877 146.000 C 180.736 146.000,181.611 146.168,181.820 146.372 C 182.055 146.603,182.562 146.549,183.149 146.232 L 184.098 145.720 182.897 145.479 C 181.902 145.280,181.650 144.992,181.426 143.799 C 181.277 143.006,180.896 142.258,180.578 142.136 C 179.616 141.767,179.853 139.630,180.900 139.233 C 181.671 138.941,181.851 139.056,182.155 140.037 C 182.350 140.666,182.890 141.291,183.355 141.425 C 183.820 141.559,184.582 142.122,185.048 142.676 L 185.896 143.683 186.980 142.262 C 188.359 140.453,189.006 136.649,188.161 135.314 C 187.852 134.827,187.600 134.012,187.600 133.503 C 187.600 132.969,187.075 132.118,186.359 131.489 C 185.109 130.392,184.800 130.219,184.800 130.616 M205.681 137.197 C 205.307 137.856,204.878 138.396,204.728 138.397 C 204.291 138.402,201.600 141.057,201.600 141.485 C 201.600 141.700,201.237 142.204,200.794 142.605 C 200.351 143.006,199.365 144.274,198.602 145.423 C 197.840 146.572,196.568 147.894,195.776 148.361 C 194.985 148.828,194.414 149.433,194.508 149.705 C 194.704 150.272,197.321 150.144,197.536 149.557 C 197.610 149.353,197.902 148.956,198.183 148.674 C 198.464 148.393,198.822 147.759,198.979 147.266 C 199.135 146.773,199.953 145.935,200.796 145.402 C 201.799 144.769,202.417 144.031,202.585 143.268 C 202.726 142.626,203.299 141.673,203.859 141.150 C 204.418 140.628,205.150 139.660,205.485 139.000 C 205.820 138.340,206.464 137.395,206.917 136.900 C 207.647 136.101,207.662 136.000,207.051 136.000 C 206.673 136.000,206.056 136.539,205.681 137.197 M218.400 136.709 C 218.400 136.922,219.518 137.316,220.885 137.585 C 222.252 137.854,223.732 138.327,224.174 138.637 C 224.616 138.947,225.559 139.200,226.268 139.200 C 226.978 139.200,228.963 139.633,230.679 140.162 C 232.396 140.691,234.700 141.249,235.800 141.401 C 236.900 141.554,238.121 141.851,238.513 142.060 C 238.905 142.270,240.686 142.699,242.470 143.012 C 244.254 143.326,246.093 143.828,246.557 144.128 C 247.021 144.428,247.861 144.787,248.424 144.925 C 249.861 145.279,254.781 149.614,254.795 150.538 C 254.798 150.724,255.168 151.393,255.617 152.025 C 256.067 152.656,256.702 154.071,257.028 155.169 C 257.354 156.267,257.796 157.274,258.010 157.406 C 258.225 157.539,258.400 157.952,258.400 158.325 C 258.400 159.303,262.449 167.257,263.423 168.193 C 263.656 168.417,264.466 169.458,265.223 170.507 C 265.980 171.556,267.337 173.387,268.239 174.576 C 269.140 175.765,270.107 177.292,270.387 177.969 C 270.668 178.646,271.024 179.200,271.178 179.200 C 271.971 179.200,273.605 184.058,274.003 187.600 C 274.565 192.602,274.801 192.948,281.763 199.000 C 282.270 199.440,283.440 200.430,284.364 201.200 C 287.353 203.690,289.217 205.727,289.465 206.775 C 289.598 207.339,289.931 208.070,290.203 208.400 C 290.476 208.730,290.925 209.720,291.201 210.600 C 291.477 211.480,291.987 212.692,292.333 213.293 C 292.989 214.428,291.522 216.800,290.165 216.800 C 289.897 216.800,289.166 217.426,288.539 218.192 C 287.913 218.958,286.710 220.353,285.868 221.292 C 285.025 222.231,284.003 223.642,283.597 224.427 C 283.191 225.211,282.575 226.089,282.229 226.376 C 281.883 226.663,281.600 227.047,281.600 227.229 C 281.600 227.628,284.013 225.185,285.056 223.730 C 286.502 221.713,290.476 217.200,290.805 217.200 C 291.923 217.200,293.663 215.012,293.482 213.834 C 293.281 212.527,291.284 207.538,290.825 207.200 C 290.676 207.090,290.332 206.460,290.059 205.800 C 289.487 204.414,288.210 202.873,286.838 201.912 C 285.860 201.227,278.466 194.485,277.008 192.949 C 276.028 191.916,275.358 189.636,274.811 185.471 C 274.404 182.373,273.514 180.305,271.322 177.362 C 270.815 176.681,270.400 175.994,270.400 175.836 C 270.400 175.677,269.905 174.884,269.300 174.074 C 268.695 173.264,268.074 172.421,267.920 172.200 C 267.766 171.980,267.001 171.058,266.220 170.152 C 265.439 169.245,264.800 168.383,264.800 168.235 C 264.800 167.983,264.504 167.508,262.530 164.592 C 262.080 163.928,261.574 162.938,261.404 162.392 C 261.234 161.847,260.785 160.950,260.407 160.400 C 260.028 159.850,259.607 158.817,259.470 158.104 C 258.777 154.488,255.105 148.528,251.736 145.549 C 249.755 143.797,243.181 141.587,237.000 140.593 C 236.120 140.452,234.742 140.089,233.937 139.786 C 233.133 139.484,231.243 139.025,229.737 138.766 C 228.232 138.507,226.190 137.981,225.200 137.596 C 223.031 136.753,218.400 136.149,218.400 136.709 M210.500 143.531 C 209.720 144.395,209.600 144.966,209.600 147.834 C 209.600 152.186,208.899 157.079,208.067 158.534 C 206.560 161.169,206.347 161.658,206.243 162.705 C 206.175 163.401,206.417 164.030,206.907 164.431 C 207.729 165.104,207.371 174.557,206.414 177.445 C 206.203 178.080,205.749 181.570,205.404 185.200 C 205.058 188.830,204.612 192.340,204.411 193.000 C 204.211 193.660,203.851 196.540,203.612 199.400 C 203.373 202.260,202.914 205.860,202.593 207.400 C 201.939 210.530,201.200 217.452,201.200 220.442 C 201.200 223.134,199.040 223.509,198.560 220.900 C 198.277 219.361,196.574 214.852,195.369 212.451 C 194.814 211.345,194.744 210.516,194.981 207.851 C 195.413 202.979,195.295 200.600,194.481 197.800 C 193.977 196.063,193.630 200.746,193.785 207.200 C 193.911 212.405,193.994 212.734,196.778 219.000 C 197.169 219.880,197.778 221.590,198.133 222.800 C 198.621 224.467,199.064 225.161,199.959 225.665 C 201.498 226.530,201.526 226.457,202.233 219.800 C 202.537 216.940,203.046 212.980,203.363 211.000 C 203.681 209.020,204.059 205.690,204.204 203.600 C 204.348 201.510,204.718 198.720,205.026 197.400 C 205.334 196.080,205.779 192.570,206.015 189.600 C 206.251 186.630,206.610 183.750,206.812 183.200 C 207.014 182.650,207.453 179.500,207.788 176.200 C 208.123 172.900,208.658 168.940,208.977 167.400 C 209.296 165.860,209.760 160.910,210.009 156.400 C 210.257 151.890,210.726 147.147,211.051 145.859 C 211.805 142.877,211.657 142.251,210.500 143.531 M173.618 146.814 C 173.627 147.576,173.895 148.920,174.212 149.800 C 174.529 150.680,174.791 151.690,174.794 152.044 C 174.797 152.398,175.338 153.748,175.995 155.044 C 176.652 156.340,177.192 157.631,177.195 157.913 C 177.198 158.194,177.470 158.529,177.800 158.655 C 178.130 158.782,178.400 159.318,178.400 159.846 C 178.400 160.684,178.304 160.747,177.653 160.340 C 175.119 158.758,175.449 165.439,178.041 168.180 C 178.238 168.389,178.400 168.879,178.400 169.268 C 178.400 169.657,179.227 172.186,180.237 174.888 C 181.247 177.590,182.346 180.790,182.679 182.000 C 183.012 183.210,183.413 184.380,183.570 184.600 C 183.727 184.820,184.084 185.810,184.363 186.800 C 184.642 187.790,185.118 189.140,185.420 189.800 C 186.433 192.009,188.650 197.849,190.205 202.400 C 191.722 206.841,193.184 205.345,193.194 199.343 C 193.199 196.457,193.073 195.637,192.600 195.455 C 192.099 195.263,191.999 195.734,191.994 198.313 C 191.987 201.824,191.461 203.323,190.998 201.153 C 190.839 200.409,190.370 199.045,189.955 198.122 C 189.540 197.199,189.200 196.212,189.200 195.928 C 189.200 195.644,188.776 194.509,188.259 193.406 C 187.295 191.353,186.921 190.393,185.446 186.192 C 184.980 184.868,184.216 183.158,183.747 182.392 C 183.278 181.627,182.768 180.119,182.614 179.041 C 182.460 177.964,182.184 176.794,182.002 176.441 C 181.546 175.558,180.021 170.943,179.546 169.012 C 179.332 168.139,178.829 166.879,178.430 166.212 C 176.706 163.337,177.250 161.212,179.104 163.581 C 180.185 164.962,181.134 164.571,180.332 163.073 C 180.032 162.512,180.044 162.380,180.376 162.585 C 180.933 162.929,180.517 160.888,179.862 160.060 C 179.627 159.762,179.396 159.252,179.348 158.925 C 179.300 158.597,178.998 158.031,178.677 157.665 C 177.555 156.387,176.005 152.519,175.461 149.641 C 174.832 146.318,173.587 144.408,173.618 146.814 M190.498 156.062 C 189.321 157.239,190.297 161.829,191.851 162.419 C 192.675 162.733,192.797 162.961,192.535 163.700 C 192.112 164.895,192.345 179.011,192.806 180.127 C 193.040 180.693,193.167 178.539,193.167 174.000 C 193.166 164.116,193.147 164.499,193.600 165.200 C 193.815 165.532,193.990 169.149,193.994 173.300 C 193.997 177.430,194.161 180.800,194.357 180.800 C 195.464 180.800,195.618 164.268,194.517 163.580 C 193.788 163.125,193.784 163.021,194.408 161.177 C 195.572 157.739,195.012 155.827,192.798 155.682 C 191.742 155.613,190.790 155.770,190.498 156.062 M193.931 158.148 C 194.206 160.554,193.741 161.293,192.391 160.595 C 191.129 159.943,190.879 158.946,191.627 157.549 C 192.281 156.328,193.767 156.714,193.931 158.148 M302.800 218.007 C 301.590 218.415,300.066 218.898,299.412 219.080 C 297.931 219.492,296.982 221.076,297.346 222.528 C 297.685 223.877,298.497 223.892,299.721 222.572 C 300.246 222.006,301.378 221.384,302.237 221.190 C 304.902 220.588,308.518 218.424,307.968 217.761 C 307.348 217.014,305.485 217.103,302.800 218.007 M302.180 219.948 C 301.591 220.488,299.674 220.844,299.435 220.457 C 299.082 219.886,299.653 219.600,301.147 219.600 C 301.973 219.600,302.402 219.745,302.180 219.948 M298.800 221.533 C 298.800 222.054,298.324 222.401,297.938 222.161 C 297.524 221.906,297.881 221.200,298.424 221.200 C 298.631 221.200,298.800 221.350,298.800 221.533 M140.826 230.814 C 141.985 231.434,141.850 233.331,140.600 234.000 C 140.050 234.294,139.600 234.747,139.600 235.005 C 139.600 235.264,138.700 236.504,137.600 237.761 C 136.500 239.018,135.600 240.282,135.600 240.569 C 135.600 240.857,135.274 241.521,134.876 242.046 C 134.477 242.571,133.942 243.720,133.685 244.600 C 133.429 245.480,132.677 247.190,132.015 248.400 C 131.353 249.610,130.505 251.185,130.132 251.900 C 129.758 252.615,129.239 253.200,128.978 253.200 C 128.717 253.200,128.280 254.001,128.006 254.980 C 127.732 255.959,127.168 257.067,126.754 257.442 C 126.339 257.817,126.000 258.344,126.000 258.613 C 126.000 258.882,125.730 259.326,125.400 259.600 C 125.070 259.874,124.799 260.571,124.798 261.149 C 124.797 261.727,124.258 263.010,123.600 264.000 C 122.942 264.990,122.403 266.090,122.402 266.444 C 122.401 266.798,121.945 267.758,121.390 268.577 C 120.834 269.396,120.167 270.906,119.907 271.933 C 119.647 272.960,119.392 273.865,119.340 273.944 C 119.288 274.023,118.673 273.680,117.974 273.181 C 116.564 272.178,116.423 268.743,117.731 267.259 C 118.050 266.896,118.443 265.970,118.605 265.200 C 118.767 264.430,119.227 263.337,119.627 262.771 C 120.026 262.205,120.482 260.771,120.640 259.584 C 120.825 258.188,121.200 257.204,121.703 256.797 C 122.196 256.398,122.558 255.471,122.695 254.255 C 122.893 252.494,122.984 252.360,123.837 252.574 C 124.729 252.797,124.768 252.706,124.882 250.103 L 125.000 247.400 125.771 248.280 C 126.196 248.763,126.691 249.068,126.871 248.956 C 127.337 248.668,127.280 246.497,126.800 246.200 C 126.360 245.928,126.256 243.240,126.647 242.223 C 127.078 241.099,128.000 242.343,128.000 244.049 C 128.000 246.074,128.719 246.050,129.044 244.014 C 129.211 242.968,129.622 242.216,130.249 241.805 C 130.772 241.462,131.200 240.953,131.200 240.674 C 131.200 240.395,132.010 239.372,133.000 238.400 C 133.990 237.428,134.800 236.406,134.800 236.129 C 134.800 235.852,135.773 235.002,136.962 234.242 C 138.571 233.212,139.192 232.545,139.394 231.629 C 139.695 230.257,139.738 230.232,140.826 230.814 M146.000 231.200 C 146.000 231.640,145.831 232.000,145.624 232.000 C 145.087 232.000,144.708 231.272,145.000 230.800 C 145.418 230.124,146.000 230.356,146.000 231.200 M159.600 233.390 C 159.050 233.708,158.330 234.079,158.000 234.214 C 157.265 234.514,155.519 235.386,153.425 236.500 C 150.381 238.119,154.952 238.607,158.200 237.009 C 161.206 235.530,161.984 235.720,162.544 238.068 C 162.818 239.214,164.489 239.880,165.938 239.420 C 166.354 239.288,167.131 239.346,167.664 239.548 C 169.644 240.301,170.390 239.331,169.625 237.000 C 169.170 235.611,168.791 235.052,168.385 235.171 C 165.592 235.988,162.400 235.274,162.400 233.834 C 162.400 233.343,161.576 232.790,160.867 232.806 C 160.720 232.809,160.150 233.072,159.600 233.390 M190.448 236.501 C 190.672 236.901,190.660 237.823,190.417 238.877 C 190.198 239.825,190.015 241.323,190.010 242.206 C 190.004 243.089,189.640 244.484,189.200 245.304 C 188.760 246.125,188.400 247.167,188.400 247.618 C 188.400 250.082,186.001 252.387,185.073 250.816 C 184.578 249.977,183.915 249.620,182.117 249.222 C 180.843 248.939,179.474 248.537,179.077 248.328 C 177.477 247.485,176.181 248.285,175.624 250.456 C 174.906 253.260,173.591 253.813,168.600 253.410 C 163.944 253.034,161.898 253.118,161.537 253.703 C 160.837 254.834,162.083 255.130,168.119 255.264 C 172.957 255.372,174.481 255.545,175.577 256.108 C 176.334 256.497,177.643 256.925,178.485 257.060 C 180.587 257.396,180.721 257.875,178.804 258.199 C 176.903 258.521,176.279 259.198,177.876 259.205 C 180.942 259.220,181.465 259.929,179.337 261.184 C 177.870 262.049,176.451 262.428,171.600 263.250 C 168.755 263.731,168.415 264.005,168.406 265.820 C 168.403 266.491,168.220 267.220,168.000 267.440 C 167.430 268.010,168.332 269.748,169.661 270.641 C 170.887 271.465,170.794 272.000,169.424 272.000 C 168.658 272.000,168.416 272.313,168.047 273.781 C 167.452 276.144,165.435 278.117,163.908 277.829 C 162.573 277.577,162.203 278.175,161.872 281.115 C 161.614 283.408,160.679 284.916,158.810 286.053 C 157.256 286.998,156.704 288.096,157.170 289.320 C 157.422 289.985,157.360 290.848,156.972 292.046 C 156.661 293.011,156.308 294.620,156.190 295.623 C 155.923 297.881,153.590 300.902,150.899 302.475 C 149.887 303.067,148.903 303.830,148.712 304.171 C 148.427 304.681,147.740 304.760,144.882 304.616 C 142.967 304.519,141.155 304.431,140.856 304.420 C 140.163 304.395,140.435 299.885,141.375 295.800 C 141.730 294.260,142.253 291.258,142.537 289.128 C 142.822 286.999,143.251 285.019,143.490 284.728 C 143.729 284.438,144.053 283.338,144.210 282.285 C 144.493 280.388,146.384 277.600,147.388 277.600 C 147.630 277.600,148.407 276.847,149.114 275.927 C 150.503 274.121,150.473 274.327,150.404 267.000 C 150.372 263.641,150.506 262.411,150.968 261.800 C 151.301 261.360,151.692 260.148,151.837 259.107 C 152.226 256.322,154.556 255.680,155.410 258.123 C 156.602 261.534,156.945 261.622,156.433 258.386 C 156.039 255.888,156.405 254.569,157.817 253.400 C 158.776 252.606,158.778 252.587,158.132 250.663 L 157.481 248.726 159.231 247.127 C 161.966 244.626,166.227 243.200,170.960 243.200 C 173.446 243.200,174.110 242.228,173.757 239.107 C 173.557 237.338,173.624 236.776,174.049 236.647 C 177.756 235.524,189.842 235.417,190.448 236.501 M300.887 240.447 C 301.714 240.889,301.605 240.972,299.390 241.586 C 298.075 241.949,296.607 242.461,296.126 242.724 C 295.646 242.986,294.813 243.200,294.275 243.200 C 293.738 243.200,293.074 243.470,292.800 243.800 C 292.450 244.221,291.523 244.400,289.684 244.400 C 286.850 244.400,286.477 244.847,289.232 244.942 C 291.422 245.018,291.919 245.758,291.258 247.963 C 290.559 250.299,289.189 250.239,286.783 247.768 C 285.802 246.760,284.497 245.672,283.883 245.349 C 282.829 244.795,281.730 242.936,282.187 242.480 C 282.432 242.235,285.624 243.186,286.180 243.670 C 286.826 244.231,287.091 244.044,287.329 242.856 C 287.843 240.284,297.408 238.584,300.887 240.447 M149.446 242.468 C 149.099 244.203,149.139 244.800,149.600 244.800 C 149.820 244.800,150.000 244.513,150.000 244.163 C 150.000 243.812,150.360 243.431,150.800 243.316 C 151.600 243.107,151.930 242.400,151.229 242.400 C 151.024 242.400,150.595 242.138,150.275 241.818 C 149.765 241.308,149.662 241.389,149.446 242.468 M134.800 250.576 C 134.800 251.113,134.620 251.664,134.400 251.800 C 134.167 251.944,134.000 251.537,134.000 250.824 C 134.000 250.151,134.180 249.600,134.400 249.600 C 134.620 249.600,134.800 250.039,134.800 250.576 M186.813 262.207 C 188.296 262.973,189.178 264.667,189.477 267.322 C 189.606 268.465,189.957 269.886,190.256 270.480 C 190.555 271.074,190.800 271.874,190.800 272.258 C 190.800 272.642,191.225 273.416,191.745 273.978 C 192.921 275.249,193.607 278.608,193.162 280.910 C 192.982 281.840,192.827 283.235,192.817 284.011 C 192.793 285.986,191.801 287.336,190.776 286.787 C 190.132 286.442,190.000 285.936,190.000 283.811 C 190.000 280.309,188.905 279.070,185.200 278.374 C 180.817 277.552,179.586 277.185,178.844 276.479 C 178.451 276.106,177.786 275.601,177.365 275.357 C 176.944 275.114,176.537 274.574,176.460 274.157 C 176.383 273.741,175.957 273.006,175.512 272.524 L 174.705 271.647 175.513 270.619 C 175.958 270.054,177.420 268.858,178.761 267.962 C 182.390 265.539,182.099 264.207,177.972 264.356 C 176.707 264.402,175.569 264.273,175.444 264.071 C 175.200 263.676,177.372 263.212,179.497 263.204 C 180.357 263.201,180.961 262.931,181.293 262.400 C 181.916 261.402,185.045 261.293,186.813 262.207 M136.995 265.160 C 137.224 266.829,137.081 267.537,136.032 269.927 C 135.354 271.471,134.800 272.997,134.800 273.318 C 134.800 273.639,134.559 274.102,134.265 274.346 C 133.970 274.591,133.508 275.530,133.237 276.433 C 132.967 277.337,132.145 279.392,131.413 281.000 C 130.680 282.608,129.952 284.526,129.796 285.262 C 129.639 285.998,129.277 286.870,128.991 287.200 C 128.706 287.530,128.186 288.790,127.836 290.000 C 127.486 291.210,126.573 293.460,125.807 295.000 C 125.040 296.540,124.410 297.963,124.407 298.161 C 124.389 299.092,122.297 302.827,121.578 303.212 C 120.074 304.017,119.091 303.326,119.375 301.661 C 119.772 299.327,120.549 296.800,120.869 296.800 C 121.031 296.800,121.275 296.125,121.410 295.300 C 121.545 294.475,122.085 292.900,122.609 291.800 C 123.133 290.700,123.687 289.260,123.839 288.600 C 123.992 287.940,124.422 286.950,124.796 286.400 C 125.169 285.850,125.887 284.500,126.391 283.400 C 126.894 282.300,127.823 280.340,128.453 279.044 C 129.084 277.748,129.606 276.308,129.613 275.844 C 129.620 275.380,129.890 274.651,130.213 274.224 C 130.536 273.796,130.800 273.142,130.800 272.769 C 130.800 271.118,135.739 262.643,136.463 263.052 C 136.607 263.134,136.846 264.083,136.995 265.160 M115.684 276.273 C 115.407 277.721,115.197 277.366,115.228 275.500 C 115.248 274.297,115.345 274.026,115.559 274.573 C 115.725 274.997,115.782 275.762,115.684 276.273 M114.400 280.800 C 114.400 281.156,114.136 281.796,113.813 282.224 C 113.273 282.937,113.225 282.820,113.225 280.800 C 113.225 278.780,113.273 278.663,113.813 279.376 C 114.136 279.804,114.400 280.444,114.400 280.800 M112.323 286.069 C 112.147 288.455,111.200 288.594,111.200 286.233 C 111.200 284.840,111.350 284.400,111.823 284.400 C 112.307 284.400,112.419 284.772,112.323 286.069 M110.800 292.234 C 110.800 292.498,110.530 292.818,110.200 292.945 C 109.732 293.124,109.603 292.848,109.613 291.687 C 109.625 290.293,109.662 290.248,110.213 290.976 C 110.536 291.404,110.800 291.969,110.800 292.234 M108.372 296.524 C 108.307 298.538,107.657 299.022,107.628 297.076 C 107.611 295.890,107.753 295.247,108.000 295.400 C 108.220 295.536,108.387 296.042,108.372 296.524 M106.394 301.100 C 106.391 301.705,106.213 302.470,106.000 302.800 C 105.716 303.239,105.611 302.945,105.606 301.700 C 105.603 300.765,105.780 300.000,106.000 300.000 C 106.220 300.000,106.397 300.495,106.394 301.100 M113.873 303.700 C 114.520 304.709,114.367 319.175,113.703 319.840 C 112.538 321.004,110.742 320.394,110.133 318.627 C 109.835 317.761,109.323 316.757,108.996 316.395 C 108.146 315.456,108.148 308.707,108.998 308.002 C 109.327 307.728,109.809 306.794,110.070 305.925 C 110.747 303.664,113.004 302.344,113.873 303.700 M104.800 305.400 C 104.800 306.432,104.203 307.053,103.815 306.425 C 103.472 305.869,104.016 303.962,104.443 304.226 C 104.639 304.348,104.800 304.876,104.800 305.400 M102.728 309.269 C 102.566 310.368,101.600 310.737,101.600 309.700 C 101.600 308.870,101.923 308.400,102.494 308.400 C 102.693 308.400,102.798 308.791,102.728 309.269 M154.904 310.700 C 157.059 314.672,156.208 322.400,153.616 322.400 C 153.368 322.400,152.230 320.274,151.851 319.100 C 151.727 318.715,151.265 318.400,150.824 318.400 C 150.246 318.400,149.734 317.788,148.983 316.200 C 147.995 314.112,147.200 313.369,147.200 314.533 C 147.200 316.298,144.644 318.050,141.456 318.472 C 139.250 318.764,138.074 319.126,137.514 319.686 C 135.925 321.275,129.596 320.317,130.260 318.587 C 130.461 318.064,133.607 316.270,135.139 315.806 C 135.656 315.649,136.421 315.179,136.839 314.761 C 137.258 314.342,138.019 314.000,138.531 314.000 C 139.044 314.000,140.292 313.451,141.305 312.780 C 143.945 311.031,145.457 310.670,146.805 311.467 C 147.977 312.159,152.182 310.633,152.680 309.335 C 153.072 308.315,153.878 308.810,154.904 310.700 M100.800 311.976 C 100.800 312.403,100.620 312.864,100.400 313.000 C 100.173 313.140,100.000 312.804,100.000 312.224 C 100.000 311.661,100.180 311.200,100.400 311.200 C 100.620 311.200,100.800 311.549,100.800 311.976 M98.717 318.100 C 98.808 323.353,99.181 329.646,99.424 330.039 C 99.547 330.238,99.303 330.400,98.883 330.400 C 98.076 330.400,97.547 325.247,97.835 320.200 C 97.898 319.100,97.960 317.435,97.974 316.500 C 98.021 313.379,98.659 314.752,98.717 318.100 M153.053 330.800 C 154.421 330.800,154.713 333.062,154.370 341.000 C 154.189 345.180,154.143 349.686,154.267 351.013 C 154.447 352.939,154.362 353.533,153.846 353.962 C 153.387 354.343,153.200 355.170,153.200 356.824 L 153.200 359.151 154.900 359.351 C 155.835 359.461,159.895 359.717,163.923 359.919 C 167.951 360.121,171.426 360.466,171.644 360.684 C 172.666 361.706,159.599 362.675,154.097 361.987 C 152.614 361.801,144.470 361.544,136.000 361.415 L 120.600 361.181 119.500 359.984 C 118.138 358.502,118.113 357.408,119.400 355.514 C 119.950 354.705,120.400 353.938,120.400 353.810 C 120.400 353.341,123.231 347.628,123.566 347.421 C 123.756 347.304,124.033 346.722,124.182 346.128 C 124.331 345.535,124.801 344.560,125.227 343.963 C 125.652 343.365,126.000 342.602,126.000 342.267 C 126.000 341.931,126.291 341.367,126.646 341.011 C 127.001 340.656,127.507 339.518,127.771 338.483 L 128.249 336.600 130.968 336.481 C 132.464 336.415,134.072 336.110,134.543 335.803 C 135.015 335.495,136.630 335.048,138.134 334.809 C 139.638 334.570,141.258 334.123,141.734 333.816 C 142.210 333.510,143.320 333.134,144.200 332.981 C 145.080 332.828,146.415 332.331,147.167 331.878 C 148.599 331.013,151.025 330.387,151.933 330.647 C 152.226 330.731,152.730 330.800,153.053 330.800 M100.794 332.324 C 100.791 332.916,100.613 333.670,100.400 334.000 C 100.120 334.433,100.011 334.066,100.006 332.676 C 100.002 331.494,100.154 330.848,100.400 331.000 C 100.620 331.136,100.797 331.732,100.794 332.324 M103.100 335.052 C 103.595 335.185,104.000 335.532,104.000 335.823 C 104.000 336.586,104.395 336.740,106.987 336.992 C 111.009 337.382,110.815 338.383,106.714 338.394 C 104.834 338.399,104.352 338.258,104.000 337.600 C 103.765 337.160,103.263 336.797,102.886 336.794 C 101.798 336.784,101.150 336.194,101.429 335.468 C 101.713 334.728,101.806 334.705,103.100 335.052 M125.800 335.786 C 126.870 336.276,126.181 336.339,119.433 336.368 C 108.208 336.416,110.305 335.817,123.200 335.293 C 123.970 335.262,125.140 335.483,125.800 335.786 M174.800 360.800 C 174.800 361.020,174.429 361.200,173.976 361.200 C 173.523 361.200,173.264 361.020,173.400 360.800 C 173.536 360.580,173.907 360.400,174.224 360.400 C 174.541 360.400,174.800 360.580,174.800 360.800 " stroke="none" fill="#975858" fill-rule="evenodd"></path><path id="path4" d="M175.500 119.232 C 175.115 119.456,174.800 119.846,174.800 120.098 C 174.800 120.350,174.342 121.034,173.783 121.618 C 172.386 123.076,171.568 129.681,172.533 131.715 C 174.259 135.355,174.605 137.897,173.615 139.658 C 172.766 141.170,172.731 141.461,173.169 143.418 C 173.712 145.844,174.582 146.918,174.982 145.657 C 175.446 144.194,176.192 143.922,177.315 144.804 L 178.342 145.613 178.614 144.755 C 178.764 144.284,178.867 142.629,178.843 141.078 C 178.773 136.468,180.914 134.734,182.896 137.795 C 185.332 141.555,187.631 136.829,185.580 132.278 C 183.963 128.692,180.798 125.945,179.242 126.777 C 177.006 127.974,174.000 126.363,174.000 123.967 C 174.000 123.105,174.161 122.400,174.358 122.400 C 174.555 122.400,175.068 121.689,175.498 120.820 C 176.242 119.317,176.321 119.270,177.140 119.843 C 178.147 120.548,178.270 120.328,177.371 119.429 C 176.643 118.700,176.449 118.680,175.500 119.232 M212.000 129.220 C 211.010 129.397,209.367 129.554,208.349 129.570 C 206.013 129.608,205.320 130.310,206.298 131.646 C 207.776 133.666,208.037 134.383,207.595 135.209 C 207.362 135.644,207.300 136.000,207.456 136.000 C 207.612 136.000,207.369 136.405,206.917 136.900 C 206.464 137.395,205.820 138.340,205.485 139.000 C 205.150 139.660,204.418 140.628,203.859 141.150 C 203.299 141.673,202.724 142.635,202.581 143.287 C 202.411 144.059,201.841 144.757,200.950 145.283 C 199.627 146.063,198.800 147.095,198.800 147.965 C 198.800 148.975,200.919 147.283,203.561 144.164 C 207.772 139.193,210.000 138.613,210.000 142.489 C 210.000 143.100,210.174 143.600,210.386 143.600 C 210.951 143.600,211.600 142.211,211.600 141.003 C 211.600 138.716,215.320 135.564,216.945 136.473 C 217.356 136.703,218.051 136.716,218.682 136.506 C 219.705 136.165,219.680 136.133,217.716 135.288 C 215.637 134.394,215.217 133.755,215.205 131.474 C 215.200 130.271,214.558 128.767,214.086 128.850 C 213.929 128.878,212.990 129.044,212.000 129.220 M209.314 150.600 C 209.317 151.700,209.395 152.103,209.487 151.495 C 209.579 150.886,209.577 149.986,209.482 149.495 C 209.387 149.003,209.311 149.500,209.314 150.600 M196.469 156.263 C 196.195 156.752,196.765 157.523,198.957 159.625 C 200.521 161.125,202.382 162.916,203.092 163.605 C 204.767 165.228,206.162 165.137,206.232 163.400 C 206.258 162.740,206.421 161.758,206.593 161.219 C 206.887 160.294,206.866 160.277,206.224 160.919 C 205.094 162.049,204.568 161.753,199.800 157.298 C 198.408 155.998,196.882 155.524,196.469 156.263 M187.200 157.757 C 187.200 158.320,186.653 159.395,185.972 160.171 C 185.100 161.164,184.781 161.892,184.872 162.681 C 185.222 165.721,188.364 162.653,188.512 159.126 C 188.584 157.408,188.474 157.003,187.900 156.885 C 187.379 156.778,187.200 157.002,187.200 157.757 M179.944 160.058 C 180.243 160.444,180.519 161.624,180.557 162.680 C 180.665 165.716,181.809 167.013,183.371 165.870 C 184.140 165.308,183.147 163.500,180.400 160.462 C 179.850 159.853,179.645 159.672,179.944 160.058 M195.125 170.900 C 195.008 180.415,195.001 180.533,194.485 180.705 C 193.862 180.913,193.805 195.556,194.419 197.603 C 194.650 198.371,194.927 199.892,195.036 200.983 C 195.144 202.074,195.316 203.049,195.417 203.150 C 195.517 203.251,195.600 194.663,195.600 184.067 C 195.600 173.470,195.510 164.800,195.400 164.800 C 195.290 164.800,195.166 167.545,195.125 170.900 M192.173 182.767 C 192.194 192.755,192.308 195.369,192.724 195.508 C 193.291 195.697,193.169 185.526,192.479 175.200 C 192.207 171.120,192.151 172.512,192.173 182.767 M182.583 178.400 C 182.696 178.950,182.792 179.771,182.795 180.224 C 182.798 180.676,183.059 181.396,183.375 181.824 C 184.035 182.715,183.629 180.264,182.804 178.375 L 182.377 177.400 182.583 178.400 M282.758 226.298 C 281.190 228.228,280.400 229.664,280.400 230.584 C 280.400 232.198,281.050 231.765,281.605 229.781 C 281.885 228.781,282.469 227.511,282.903 226.960 C 283.336 226.409,283.610 225.876,283.510 225.776 C 283.410 225.677,283.072 225.911,282.758 226.298 M162.627 255.727 C 162.779 256.122,162.539 256.423,161.929 256.607 C 161.418 256.760,160.129 257.436,159.064 258.108 C 157.464 259.118,157.060 259.232,156.739 258.765 C 156.473 258.378,156.433 258.640,156.610 259.600 C 156.752 260.370,157.213 261.247,157.634 261.549 C 158.055 261.851,158.400 262.486,158.400 262.960 C 158.400 264.732,160.408 266.252,163.160 266.564 C 164.543 266.720,166.137 267.024,166.702 267.239 C 168.944 268.091,169.499 263.985,167.317 262.698 C 165.385 261.558,165.948 261.228,171.840 260.044 C 177.552 258.896,178.754 258.190,174.317 258.588 C 171.273 258.862,169.600 258.659,169.600 258.016 C 169.600 257.462,170.866 257.102,173.800 256.820 C 176.566 256.555,176.585 256.545,175.400 256.000 C 173.554 255.150,162.314 254.911,162.627 255.727 " stroke="none" fill="#52ae4a" fill-rule="evenodd"></path></g></svg>