<?xml version="1.0" standalone="no"?>
<!DOCTYPE svg PUBLIC "-//W3C//DTD SVG 20010904//EN"
 "http://www.w3.org/TR/2001/REC-SVG-20010904/DTD/svg10.dtd">
<svg version="1.0" xmlns="http://www.w3.org/2000/svg"
 width="700.000000pt" height="700.000000pt" viewBox="0 0 700.000000 700.000000"
 preserveAspectRatio="xMidYMid meet">
<metadata>
Created by potrace 1.14, written by Peter Selinger 2001-2017
</metadata>
<g transform="translate(0.000000,700.000000) scale(0.100000,-0.100000)"
fill="#000000" stroke="none">
<path d="M6323 6765 c-112 -31 -190 -88 -239 -178 -23 -43 -29 -67 -32 -139
-4 -80 -2 -91 22 -132 27 -46 111 -126 162 -153 25 -13 117 -43 136 -43 18 0
25 83 27 358 2 243 0 302 -11 301 -7 0 -37 -7 -65 -14z"/>
<path d="M6279 5917 c-97 -27 -179 -96 -214 -181 -25 -60 -28 -259 -27 -2081
1 -2134 2 -2265 29 -2326 34 -77 127 -162 190 -174 10 -2 18 -4 18 -5 0 -5 48
-10 98 -11 118 0 222 50 289 140 23 31 31 56 37 113 5 40 9 1028 10 2195 l1
2121 -35 60 c-42 71 -95 117 -167 141 -63 22 -165 25 -229 8z"/>
<path d="M1363 3742 c-92 -33 -179 -107 -209 -178 -7 -18 -16 -76 -19 -131 -6
-120 -6 -1905 0 -1987 9 -116 38 -175 112 -232 105 -80 254 -80 413 1 103 53
104 63 103 1220 0 839 -6 1114 -22 1157 -22 59 -190 158 -280 165 -28 2 -66
-4 -98 -15z"/>
<path d="M5226 3749 c-88 -14 -157 -53 -234 -132 l-43 -44 -2 -1024 c-1 -563
2 -1062 6 -1108 9 -103 31 -154 87 -205 84 -76 197 -100 319 -69 117 31 182
83 200 161 22 95 28 429 32 1583 l2 616 -41 60 c-88 130 -195 183 -326 162z"/>
<path d="M580 2992 c-47 -7 -147 -62 -182 -100 -45 -48 -66 -89 -73 -139 -23
-179 -24 -1280 -1 -1388 18 -84 109 -180 198 -209 58 -19 141 -21 219 -5 96
19 205 112 223 189 15 63 21 273 21 735 0 687 -6 748 -86 820 -79 71 -217 114
-319 97z"/>
<path d="M2442 2962 c-59 -21 -91 -48 -163 -138 l-49 -62 0 -1072 0 -1071 27
-55 c30 -62 96 -128 151 -151 51 -21 178 -28 243 -13 81 19 136 56 197 132
l27 34 -1 1123 0 1122 -53 53 c-81 82 -136 108 -240 113 -66 3 -98 -1 -139
-15z"/>
<path d="M3226 2956 c-63 -27 -112 -67 -156 -131 l-27 -40 4 -724 c3 -481 8
-731 15 -744 18 -34 91 -108 122 -124 85 -44 211 -50 308 -13 36 13 75 39 111
73 94 90 86 10 85 819 l0 716 -39 47 c-80 97 -157 136 -278 142 -75 3 -94 1
-145 -21z"/>
<path d="M4417 2959 c-69 -16 -142 -62 -227 -143 l-45 -43 0 -1085 0 -1085 45
-55 c76 -94 148 -129 267 -129 114 0 197 34 263 108 70 80 68 71 65 343 -17
1403 -24 1908 -25 1922 0 11 -92 102 -125 125 -60 40 -147 57 -218 42z"/>
</g>
</svg>
