<?xml version="1.0" standalone="no"?>
<!DOCTYPE svg PUBLIC "-//W3C//DTD SVG 1.1//EN" "http://www.w3.org/Graphics/SVG/1.1/DTD/svg11.dtd" >
<svg>
<metadata>
Created by FontForge 20090622 at Mon Jul 16 12:57:55 2018
 By deploy user
Copyright &#194;&#169; 2009 - 2012 Linotype Corp., www.linotype.com. All rights reserved. This font software may not be reproduced, modified, disclosed or transferred without the express written approval of Linotype Corp. Neue Helvetica is a trademark of Linotype Corp. registered in the U.S. Patent and Trademark Office and may be registered in certain other jurisdictions in the name of Linotype Corp. or its licensee Linotype GmbH. This typeface is original artwork of Linotype Design Stuf. The design may be protected in certain jurisdictions.
</metadata>
<defs>
<font id="HelveticaNeueLTArabic-Light" horiz-adv-x="1139" >
  <font-face 
    font-family="HelveticaNeueLT Arabic 45 Light"
    font-weight="300"
    font-stretch="normal"
    units-per-em="2048"
    panose-1="2 11 4 3 2 2 2 2 2 4"
    ascent="1462"
    descent="-586"
    x-height="1057"
    cap-height="1462"
    bbox="-389 -960 2875 2890"
    underline-thickness="102"
    underline-position="-103"
    unicode-range="U+000D-U+FEFC"
  />
<missing-glyph horiz-adv-x="1049" 
d="M1049 1470v-1470h-1049v1470h1049zM946 102v1264h-844v-1264h844zM530 1247q109 0 181.5 -73.5t72.5 -194.5q0 -70 -28 -125t-102 -122q-75 -68 -87 -106t-12 -147h-94l-4 40q0 104 26.5 160t109.5 137q52 51 69.5 84t17.5 71q0 73 -46 123.5t-110 50.5q-63 0 -109 -45
t-59 -150l-102 17q14 144 90 212t186 68zM455 377h114v-137h-114v137z" />
    <glyph glyph-name="uniFEFB" unicode="&#xfedf;&#xfe8e;" horiz-adv-x="1233" arabic-form="isolated" 
d="M1093 1462v-1462h-1023v129h396v1006h129v-1006h369v1333h129z" />
    <glyph glyph-name="uniFEFC" unicode="&#xfee0;&#xfe8e;" horiz-adv-x="1277" arabic-form="final" 
d="M1277 0q-36 0 -68.5 6t-60.5 20.5t-49.5 37.5t-36.5 57q-25 -37 -53.5 -60.5t-64.5 -37t-81 -18.5t-102 -5h-691v129h396v1006h129v-1006h147q43 0 83 3t71 19.5t49.5 50t18.5 95.5v1165h129v-1071q0 -61 9.5 -109.5t31 -82.5t56.5 -52t87 -18q35 0 53.5 -12t18.5 -49
q0 -22 -4.5 -35t-13.5 -20.5t-22.5 -10t-31.5 -2.5z" />
    <glyph glyph-name="uniFEF5" unicode="&#xfedf;&#xfe82;" horiz-adv-x="1233" arabic-form="isolated" 
d="M1093 1462v-1462h-1023v129h396v1006h129v-1006h369v1333h129zM164 1349q42 35 83.5 48t76.5 13q19 0 43 -4.5t49.5 -12.5t52 -18.5t50.5 -21.5q54 -25 102.5 -41.5t83.5 -16.5q27 0 48 7.5t37 20t28 28t20 30.5l51 -24q-29 -66 -73.5 -107t-110.5 -41q-54 0 -104.5 18.5
t-98.5 41.5q-51 23 -101 41t-93 18q-35 0 -61.5 -6.5t-55.5 -26.5z" />
    <glyph glyph-name="uniFEF6" unicode="&#xfee0;&#xfe82;" horiz-adv-x="1277" arabic-form="final" 
d="M1277 0q-36 0 -68.5 6t-60.5 20.5t-49.5 37.5t-36.5 57q-25 -37 -53.5 -60.5t-64.5 -37t-81 -18.5t-102 -5h-691v129h396v1006h129v-1006h147q43 0 83 3t71 19.5t49.5 50t18.5 95.5v1165h129v-1071q0 -61 9.5 -109.5t31 -82.5t56.5 -52t87 -18q35 0 53.5 -12t18.5 -49
q0 -22 -4.5 -35t-13.5 -20.5t-22.5 -10t-31.5 -2.5zM164 1349q42 35 83.5 48t76.5 13q19 0 43 -4.5t49.5 -12.5t52 -18.5t50.5 -21.5q54 -25 102.5 -41.5t83.5 -16.5q27 0 48 7.5t37 20t28 28t20 30.5l51 -24q-29 -66 -73.5 -107t-110.5 -41q-54 0 -104.5 18.5t-98.5 41.5
q-51 23 -101 41t-93 18q-35 0 -61.5 -6.5t-55.5 -26.5z" />
    <glyph glyph-name="uniFEF7" unicode="&#xfedf;&#xfe84;" horiz-adv-x="1233" arabic-form="isolated" 
d="M1093 1462v-1462h-1023v129h396v1006h129v-1006h369v1333h129zM699 1315h-350v76h98q-49 55 -49 123q0 43 14.5 76.5t39.5 56t57.5 34t68.5 11.5q23 0 44.5 -1.5t35.5 -6.5v-82q-23 6 -39 8t-33 2q-34 0 -56.5 -9t-36 -23.5t-19 -33t-5.5 -36.5q0 -56 39 -87.5t111 -31.5
h80v-76z" />
    <glyph glyph-name="uniFEF8" unicode="&#xfee0;&#xfe84;" horiz-adv-x="1277" arabic-form="final" 
d="M1277 0q-36 0 -68.5 6t-60.5 20.5t-49.5 37.5t-36.5 57q-25 -37 -53.5 -60.5t-64.5 -37t-81 -18.5t-102 -5h-691v129h396v1006h129v-1006h147q43 0 83 3t71 19.5t49.5 50t18.5 95.5v1165h129v-1071q0 -61 9.5 -109.5t31 -82.5t56.5 -52t87 -18q35 0 53.5 -12t18.5 -49
q0 -22 -4.5 -35t-13.5 -20.5t-22.5 -10t-31.5 -2.5zM699 1315h-350v76h98q-49 55 -49 123q0 43 14.5 76.5t39.5 56t57.5 34t68.5 11.5q23 0 44.5 -1.5t35.5 -6.5v-82q-23 6 -39 8t-33 2q-34 0 -56.5 -9t-36 -23.5t-19 -33t-5.5 -36.5q0 -56 39 -87.5t111 -31.5h80v-76z" />
    <glyph glyph-name="uniFEF9" unicode="&#xfedf;&#xfe88;" horiz-adv-x="1233" arabic-form="isolated" 
d="M1093 1462v-1462h-1023v129h396v1006h129v-1006h369v1333h129zM702 -555h-350v76h98q-49 55 -49 123q0 43 14.5 76t39.5 55.5t57.5 34.5t68.5 12q23 0 44.5 -1.5t35.5 -6.5v-82q-23 6 -39 8t-33 2q-34 0 -56.5 -9t-36 -23.5t-19 -33t-5.5 -36.5q0 -56 39 -87.5t111 -31.5
h80v-76z" />
    <glyph glyph-name="uniFEFA" unicode="&#xfee0;&#xfe88;" horiz-adv-x="1277" arabic-form="final" 
d="M1277 0q-36 0 -68.5 6t-60.5 20.5t-49.5 37.5t-36.5 57q-25 -37 -53.5 -60.5t-64.5 -37t-81 -18.5t-102 -5h-691v129h396v1006h129v-1006h147q43 0 83 3t71 19.5t49.5 50t18.5 95.5v1165h129v-1071q0 -61 9.5 -109.5t31 -82.5t56.5 -52t87 -18q35 0 53.5 -12t18.5 -49
q0 -22 -4.5 -35t-13.5 -20.5t-22.5 -10t-31.5 -2.5zM702 -555h-350v76h98q-49 55 -49 123q0 43 14.5 76t39.5 55.5t57.5 34.5t68.5 12q23 0 44.5 -1.5t35.5 -6.5v-82q-23 6 -39 8t-33 2q-34 0 -56.5 -9t-36 -23.5t-19 -33t-5.5 -36.5q0 -56 39 -87.5t111 -31.5h80v-76z" />
    <glyph glyph-name="uni06440671" unicode="&#xfedf;&#xfb51;" horiz-adv-x="1233" 
d="M1093 1462v-1462h-1023v129h396v1006h129v-1006h369v1333h129zM659 1365v31q0 18 -3 34t-12 28.5t-24 20t-39 7.5q-21 0 -41.5 -10t-38.5 -26.5t-33.5 -38.5t-25.5 -46h217zM440 1461q66 88 152 88q60 0 92 -36.5t32 -104.5v-106h-411v63h74v164h61v-68z" />
    <glyph glyph-name="uni06440671.fina" unicode="&#xfee0;&#xfb51;" horiz-adv-x="1277" 
d="M1277 0q-36 0 -68.5 6t-60.5 20.5t-49.5 37.5t-36.5 57q-25 -37 -53.5 -60.5t-64.5 -37t-81 -18.5t-102 -5h-691v129h396v1006h129v-1006h147q43 0 83 3t71 19.5t49.5 50t18.5 95.5v1165h129v-1071q0 -61 9.5 -109.5t31 -82.5t56.5 -52t87 -18q35 0 53.5 -12t18.5 -49
q0 -22 -4.5 -35t-13.5 -20.5t-22.5 -10t-31.5 -2.5zM659 1365v31q0 18 -3 34t-12 28.5t-24 20t-39 7.5q-21 0 -41.5 -10t-38.5 -26.5t-33.5 -38.5t-25.5 -46h217zM440 1461q66 88 152 88q60 0 92 -36.5t32 -104.5v-106h-411v63h74v164h61v-68z" />
    <glyph glyph-name="uni0621" unicode="&#x621;" horiz-adv-x="733" arabic-form="isolated" 
d="M668 0h-588v113h182q-96 96 -96 215q0 74 24.5 130t65.5 93.5t95.5 56.5t113.5 19q35 0 70.5 -5t58.5 -10v-118q-28 8 -56 11t-57 3q-61 0 -101 -17t-64 -44t-34 -60t-10 -65q0 -105 71 -157t194 -52h131v-113z" />
    <glyph glyph-name="uni0622" unicode="&#x622;" horiz-adv-x="409" arabic-form="isolated" 
d="M269 1462v-1462h-129v1462h129zM-155 1694q42 35 83.5 48t76.5 13q19 0 43 -4.5t49.5 -12.5t52 -18.5t50.5 -21.5q54 -25 102.5 -41.5t83.5 -16.5q27 0 48 7.5t37 20t28 28t20 30.5l51 -24q-29 -66 -73.5 -107t-110.5 -41q-54 0 -104.5 18.5t-98.5 41.5q-51 23 -101 41
t-93 18q-35 0 -61.5 -6.5t-55.5 -26.5z" />
    <glyph glyph-name="uniFE82" unicode="&#x622;" horiz-adv-x="464" arabic-form="final" 
d="M536 68q0 -22 -4.5 -35t-13.5 -20.5t-22.5 -10t-31.5 -2.5h-41q-64 0 -116 13.5t-89 45t-57.5 84t-20.5 129.5v1190h129v-1143q0 -51 7 -87.5t27 -59t54.5 -33t90.5 -10.5h16q35 0 53.5 -12t18.5 -49zM-151 1692q42 35 83.5 48t76.5 13q19 0 43 -4.5t49.5 -12.5t52 -18.5
t50.5 -21.5q54 -25 102.5 -41.5t83.5 -16.5q27 0 48 7.5t37 20t28 28t20 30.5l51 -24q-29 -66 -73.5 -107t-110.5 -41q-54 0 -104.5 18.5t-98.5 41.5q-51 23 -101 41t-93 18q-35 0 -61.5 -6.5t-55.5 -26.5z" />
    <glyph glyph-name="uni0623" unicode="&#x623;" horiz-adv-x="409" arabic-form="isolated" 
d="M269 1462v-1462h-129v1462h129zM376 1564h-350v76h98q-49 55 -49 123q0 43 14.5 76.5t39.5 56t57.5 34t68.5 11.5q23 0 44.5 -1.5t35.5 -6.5v-82q-23 6 -39 8t-33 2q-34 0 -56.5 -9t-36 -23.5t-19 -33t-5.5 -36.5q0 -56 39 -87.5t111 -31.5h80v-76z" />
    <glyph glyph-name="uniFE84" unicode="&#x623;" horiz-adv-x="464" arabic-form="final" 
d="M536 68q0 -22 -4.5 -35t-13.5 -20.5t-22.5 -10t-31.5 -2.5h-41q-64 0 -116 13.5t-89 45t-57.5 84t-20.5 129.5v1190h129v-1143q0 -51 7 -87.5t27 -59t54.5 -33t90.5 -10.5h16q35 0 53.5 -12t18.5 -49zM384 1564h-350v76h98q-49 55 -49 123q0 43 14.5 76.5t39.5 56
t57.5 34t68.5 11.5q23 0 44.5 -1.5t35.5 -6.5v-82q-23 6 -39 8t-33 2q-34 0 -56.5 -9t-36 -23.5t-19 -33t-5.5 -36.5q0 -56 39 -87.5t111 -31.5h80v-76z" />
    <glyph glyph-name="uni0624" unicode="&#x624;" horiz-adv-x="1023" arabic-form="isolated" 
d="M489 0q-67 0 -133 18.5t-118.5 62t-85 115t-32.5 177.5q0 84 26.5 162.5t77.5 139.5t125.5 97.5t171.5 36.5q107 0 179.5 -42.5t117 -114t63.5 -166t19 -197.5v-236q0 -147 -40 -249t-113.5 -165.5t-177.5 -92.5t-232 -29h-96v132h83q92 0 173.5 17t142 57.5t96 107.5
t35.5 167v80q-57 -37 -124 -57.5t-158 -20.5zM245 391q0 -74 21 -124t56.5 -80.5t83 -44t101.5 -13.5q88 0 154.5 27t109.5 62v79q0 80 -13.5 151t-44.5 124t-80 84t-121 31t-122.5 -27t-83 -70t-47 -95.5t-14.5 -103.5zM655 1021h-350v76h98q-49 55 -49 123q0 43 14.5 76.5
t39.5 56t57.5 34t68.5 11.5q23 0 44.5 -1.5t35.5 -6.5v-82q-23 6 -39 8t-33 2q-34 0 -56.5 -9t-36 -23.5t-19 -33t-5.5 -36.5q0 -56 39 -87.5t111 -31.5h80v-76z" />
    <glyph glyph-name="uniFE86" unicode="&#x624;" horiz-adv-x="1046" arabic-form="final" 
d="M898 0q-8 -134 -51 -226t-116 -149t-172.5 -82.5t-220.5 -25.5h-97v132h87q90 0 170.5 17t141 57.5t96 108t35.5 168.5h-270q-81 0 -151 21.5t-121 67t-80 116t-29 168.5q0 84 26.5 162.5t77 139.5t124 97.5t167.5 36.5q104 0 177.5 -38t119.5 -106.5t67 -164.5t21 -211
v-160h146q35 0 53 -12t18 -49q0 -22 -4.5 -35t-13.5 -20.5t-22 -10t-31 -2.5h-148zM245 391q0 -130 68.5 -196t199.5 -66h258v178q0 79 -14 148.5t-46 121t-83.5 81t-125.5 29.5q-65 0 -113 -26.5t-80 -68.5t-48 -95t-16 -106zM655 1021h-350v76h98q-49 55 -49 123
q0 43 14.5 76.5t39.5 56t57.5 34t68.5 11.5q23 0 44.5 -1.5t35.5 -6.5v-82q-23 6 -39 8t-33 2q-34 0 -56.5 -9t-36 -23.5t-19 -33t-5.5 -36.5q0 -56 39 -87.5t111 -31.5h80v-76z" />
    <glyph glyph-name="uni0625" unicode="&#x625;" horiz-adv-x="409" arabic-form="isolated" 
d="M269 1462v-1462h-129v1462h129zM372 -555h-350v76h98q-49 55 -49 123q0 43 14.5 76t39.5 55.5t57.5 34.5t68.5 12q23 0 44.5 -1.5t35.5 -6.5v-82q-23 6 -39 8t-33 2q-34 0 -56.5 -9t-36 -23.5t-19 -33t-5.5 -36.5q0 -56 39 -87.5t111 -31.5h80v-76z" />
    <glyph glyph-name="uniFE88" unicode="&#x625;" horiz-adv-x="464" arabic-form="final" 
d="M536 68q0 -22 -4.5 -35t-13.5 -20.5t-22.5 -10t-31.5 -2.5h-41q-64 0 -116 13.5t-89 45t-57.5 84t-20.5 129.5v1190h129v-1143q0 -51 7 -87.5t27 -59t54.5 -33t90.5 -10.5h16q35 0 53.5 -12t18.5 -49zM397 -555h-350v76h98q-49 55 -49 123q0 43 14.5 76t39.5 55.5
t57.5 34.5t68.5 12q23 0 44.5 -1.5t35.5 -6.5v-82q-23 6 -39 8t-33 2q-34 0 -56.5 -9t-36 -23.5t-19 -33t-5.5 -36.5q0 -56 39 -87.5t111 -31.5h80v-76z" />
    <glyph glyph-name="uni0626" unicode="&#x626;" horiz-adv-x="1589" arabic-form="isolated" 
d="M179 56q0 -89 27.5 -163t93 -127.5t174 -83.5t270.5 -30q115 0 221 13t187 40.5t129.5 71.5t48.5 107q0 22 -8.5 41t-28 38t-52.5 39.5t-81 44.5q-59 29 -110.5 62t-90.5 73.5t-61.5 90.5t-22.5 114q0 77 28 152.5t84 135.5t140 97t197 37q62 0 107 -10t68 -18v-136
q-23 5 -47.5 9.5t-48.5 7.5t-45.5 4.5t-37.5 1.5q-78 0 -136.5 -21.5t-97.5 -56.5t-58.5 -81t-19.5 -94q0 -46 17 -80.5t47 -63t69.5 -52.5l84.5 -49l103 -60.5t76 -55.5t46.5 -59t15.5 -70q0 -90 -39.5 -165t-126 -129t-224 -84t-333.5 -30q-195 0 -328 38t-214 104.5
t-116.5 158t-35.5 199.5v297h129v-258zM382 513h-350v76h98q-49 55 -49 123q0 43 14.5 76.5t39.5 56t57.5 34t68.5 11.5q23 0 44.5 -1.5t35.5 -6.5v-82q-23 6 -39 8t-33 2q-34 0 -56.5 -9t-36 -23.5t-19 -33t-5.5 -36.5q0 -56 39 -87.5t111 -31.5h80v-76z" />
    <glyph glyph-name="uniFE8B" unicode="&#x626;" horiz-adv-x="621" arabic-form="initial" 
d="M0 0q-35 0 -53.5 13t-18.5 50q0 22 4.5 35t13.5 20t22.5 9t31.5 2h352v649h129v-778h-481zM605 954h-406v78h127q-68 65 -68 148q0 52 16.5 91t45 65.5t66 39.5t79.5 13q23 0 47 -3t41 -8v-80q-20 5 -38.5 8t-38.5 3q-41 0 -68.5 -12.5t-44.5 -32t-24 -43t-7 -45.5
q0 -73 48 -108.5t134 -35.5h91v-78z" />
    <glyph glyph-name="uniFE8C" unicode="&#x626;" horiz-adv-x="669" arabic-form="medial" 
d="M0 0q-35 0 -53.5 13t-18.5 50q0 22 4.5 35t13.5 20t22.5 9t31.5 2h135q43 0 83 3t70.5 18.5t49 49t18.5 95.5v483h129v-389q0 -61 9.5 -109t31 -81.5t56.5 -51.5t87 -18q35 0 53 -12t18 -49q0 -22 -4.5 -35t-13.5 -20.5t-22 -10t-31 -2.5q-36 0 -68.5 6t-60 20.5
t-49 37.5t-36.5 57q-25 -37 -53.5 -60.5t-64.5 -37t-81 -18.5t-102 -5h-154zM605 954h-406v78h127q-68 65 -68 148q0 52 16.5 91t45 65.5t66 39.5t79.5 13q23 0 47 -3t41 -8v-80q-20 5 -38.5 8t-38.5 3q-41 0 -68.5 -12.5t-44.5 -32t-24 -43t-7 -45.5q0 -73 48 -108.5
t134 -35.5h91v-78z" />
    <glyph glyph-name="uniFE8A" unicode="&#x626;" horiz-adv-x="1500" arabic-form="final" 
d="M1344 0q51 -48 70.5 -97t19.5 -87q0 -61 -36 -115t-117 -95t-211 -65t-318 -24q-208 0 -344 37.5t-215.5 103.5t-111 155.5t-31.5 193.5v307h129v-277q0 -101 32.5 -175t102.5 -122t179.5 -71t263.5 -23q114 0 216.5 9t179.5 31t122 57.5t45 88.5q0 31 -18.5 58
t-49.5 50.5t-72.5 44t-87 38t-93 32t-91.5 25.5l-61 16v129q136 -38 258.5 -67t228.5 -29h164q35 0 53.5 -12t18.5 -49q0 -22 -4.5 -35t-13.5 -20.5t-22.5 -10t-31.5 -2.5h-154zM429 486h-350v76h98q-49 55 -49 123q0 43 14.5 76.5t39.5 56t57.5 34t68.5 11.5
q23 0 44.5 -1.5t35.5 -6.5v-82q-23 6 -39 8t-33 2q-34 0 -56.5 -9t-36 -23.5t-19 -33t-5.5 -36.5q0 -56 39 -87.5t111 -31.5h80v-76z" />
    <glyph glyph-name="uni0627" unicode="&#x627;" horiz-adv-x="409" arabic-form="isolated" 
d="M269 1462v-1462h-129v1462h129z" />
    <glyph glyph-name="uniFE8E" unicode="&#x627;" horiz-adv-x="464" arabic-form="final" 
d="M536 68q0 -22 -4.5 -35t-13.5 -20.5t-22.5 -10t-31.5 -2.5h-41q-64 0 -116 13.5t-89 45t-57.5 84t-20.5 129.5v1190h129v-1143q0 -51 7 -87.5t27 -59t54.5 -33t90.5 -10.5h16q35 0 53.5 -12t18.5 -49z" />
    <glyph glyph-name="uni0628" unicode="&#x628;" horiz-adv-x="1873" arabic-form="isolated" 
d="M460 0q-94 0 -169.5 13.5t-129 47t-82.5 89.5t-29 141v307h129v-244q0 -74 17 -118.5t59 -68t113.5 -31t179.5 -7.5h1056v649h129v-778h-1273zM814 -279q0 38 26.5 64.5t63.5 26.5t63.5 -26.5t26.5 -64.5q0 -37 -26.5 -63.5t-63.5 -26.5t-63.5 26.5t-26.5 63.5z" />
    <glyph glyph-name="uniFE91" unicode="&#x628;" horiz-adv-x="621" arabic-form="initial" 
d="M0 0q-35 0 -53.5 13t-18.5 50q0 22 4.5 35t13.5 20t22.5 9t31.5 2h352v649h129v-778h-481zM320 -273q0 38 26.5 64.5t63.5 26.5t63.5 -26.5t26.5 -64.5q0 -37 -26.5 -63.5t-63.5 -26.5t-63.5 26.5t-26.5 63.5z" />
    <glyph glyph-name="uniFE92" unicode="&#x628;" horiz-adv-x="669" arabic-form="medial" 
d="M0 0q-35 0 -53.5 13t-18.5 50q0 22 4.5 35t13.5 20t22.5 9t31.5 2h135q43 0 83 3t70.5 18.5t49 49t18.5 95.5v483h129v-389q0 -61 9.5 -109t31 -81.5t56.5 -51.5t87 -18q35 0 53 -12t18 -49q0 -22 -4.5 -35t-13.5 -20.5t-22 -10t-31 -2.5q-36 0 -68.5 6t-60 20.5
t-49 37.5t-36.5 57q-25 -37 -53.5 -60.5t-64.5 -37t-81 -18.5t-102 -5h-154zM328 -273q0 38 26.5 64.5t63.5 26.5t63.5 -26.5t26.5 -64.5q0 -37 -26.5 -63.5t-63.5 -26.5t-63.5 26.5t-26.5 63.5z" />
    <glyph glyph-name="uniFE90" unicode="&#x628;" horiz-adv-x="1864" arabic-form="final" 
d="M460 0q-94 0 -169.5 13.5t-129 47t-82.5 89.5t-29 141v307h129v-244q0 -74 17 -118.5t59 -68t113.5 -31t179.5 -7.5h784q43 0 83 3t70.5 18.5t49 49t18.5 95.5v483h127v-387q0 -59 9 -107t31 -82t58.5 -52.5t92.5 -18.5q35 0 53 -13t18 -50q0 -22 -4.5 -35t-13.5 -20.5
t-22 -10t-31 -2.5q-37 0 -71 6t-62.5 20.5t-51 37.5t-37.5 57q-24 -37 -52.5 -60.5t-64 -37t-80 -18.5t-102.5 -5h-890zM785 -280q0 38 26.5 64.5t63.5 26.5t63.5 -26.5t26.5 -64.5q0 -37 -26.5 -63.5t-63.5 -26.5t-63.5 26.5t-26.5 63.5z" />
    <glyph glyph-name="uni0629" unicode="&#x629;" horiz-adv-x="902" arabic-form="isolated" 
d="M411 680q-59 0 -106 -26t-79.5 -69.5t-50 -102t-17.5 -122.5q0 -65 19.5 -111.5t53 -75.5t79.5 -42.5t99 -13.5q49 0 95 11t81.5 37.5t57 72t21.5 114.5q0 80 -19.5 141t-54 102.5t-80.5 63t-99 21.5zM30 344q0 91 26.5 175t77 148.5t122 103t161.5 38.5q81 0 149.5 -32
t119 -92t78.5 -146.5t28 -194.5q0 -71 -21.5 -135t-68.5 -113.5t-120.5 -78.5t-176.5 -29q-83 0 -152 22t-118.5 66t-77 111t-27.5 157zM168 1161q0 37 26 62.5t64 25.5q37 0 63.5 -25.5t26.5 -62.5t-26.5 -63.5t-63.5 -26.5q-38 0 -64 26.5t-26 63.5zM446 1161
q0 37 26.5 62.5t63.5 25.5t63.5 -25.5t26.5 -62.5t-26.5 -63.5t-63.5 -26.5t-63.5 26.5t-26.5 63.5z" />
    <glyph glyph-name="uniFE94" unicode="&#x629;" horiz-adv-x="925" arabic-form="final" 
d="M159 535q0 -112 67.5 -173t198.5 -61q47 0 96 10t91 27v448h-166q-61 0 -113.5 -15t-91 -45.5t-60.5 -78t-22 -112.5zM401 168q-36 0 -77.5 5.5t-82.5 20.5t-79 40t-67.5 64.5t-47 94t-17.5 127.5q0 110 36 185.5t95.5 122t136 67t156.5 20.5h287v-587q0 -43 5.5 -79.5
t21.5 -63t45 -41.5t75 -15h37q42 0 57 -11.5t15 -49.5t-14 -53t-58 -15h-59q-53 0 -97 14t-77 40t-52.5 64.5t-21.5 86.5q-45 -17 -101.5 -27t-115.5 -10zM221 1317q0 37 26 62.5t64 25.5q37 0 63.5 -25.5t26.5 -62.5t-26.5 -63.5t-63.5 -26.5q-38 0 -64 26.5t-26 63.5z
M499 1317q0 37 26.5 62.5t63.5 25.5t63.5 -25.5t26.5 -62.5t-26.5 -63.5t-63.5 -26.5t-63.5 26.5t-26.5 63.5z" />
    <glyph glyph-name="uni062A" unicode="&#x62a;" horiz-adv-x="1873" arabic-form="isolated" 
d="M460 0q-94 0 -169.5 13.5t-129 47t-82.5 89.5t-29 141v307h129v-244q0 -74 17 -118.5t59 -68t113.5 -31t179.5 -7.5h1056v649h129v-778h-1273zM671 1039q0 37 26 62.5t64 25.5q37 0 63.5 -25.5t26.5 -62.5t-26.5 -63.5t-63.5 -26.5q-38 0 -64 26.5t-26 63.5zM949 1039
q0 37 26.5 62.5t63.5 25.5t63.5 -25.5t26.5 -62.5t-26.5 -63.5t-63.5 -26.5t-63.5 26.5t-26.5 63.5z" />
    <glyph glyph-name="uniFE97" unicode="&#x62a;" horiz-adv-x="621" arabic-form="initial" 
d="M0 0q-35 0 -53.5 13t-18.5 50q0 22 4.5 35t13.5 20t22.5 9t31.5 2h352v649h129v-778h-481zM158 1161q0 37 26 62.5t64 25.5q37 0 63.5 -25.5t26.5 -62.5t-26.5 -63.5t-63.5 -26.5q-38 0 -64 26.5t-26 63.5zM436 1161q0 37 26.5 62.5t63.5 25.5t63.5 -25.5t26.5 -62.5
t-26.5 -63.5t-63.5 -26.5t-63.5 26.5t-26.5 63.5z" />
    <glyph glyph-name="uniFE98" unicode="&#x62a;" horiz-adv-x="669" arabic-form="medial" 
d="M0 0q-35 0 -53.5 13t-18.5 50q0 22 4.5 35t13.5 20t22.5 9t31.5 2h135q43 0 83 3t70.5 18.5t49 49t18.5 95.5v483h129v-389q0 -61 9.5 -109t31 -81.5t56.5 -51.5t87 -18q35 0 53 -12t18 -49q0 -22 -4.5 -35t-13.5 -20.5t-22 -10t-31 -2.5q-36 0 -68.5 6t-60 20.5
t-49 37.5t-36.5 57q-25 -37 -53.5 -60.5t-64.5 -37t-81 -18.5t-102 -5h-154zM183 1161q0 37 26 62.5t64 25.5q37 0 63.5 -25.5t26.5 -62.5t-26.5 -63.5t-63.5 -26.5q-38 0 -64 26.5t-26 63.5zM461 1161q0 37 26.5 62.5t63.5 25.5t63.5 -25.5t26.5 -62.5t-26.5 -63.5
t-63.5 -26.5t-63.5 26.5t-26.5 63.5z" />
    <glyph glyph-name="uniFE96" unicode="&#x62a;" horiz-adv-x="1864" arabic-form="final" 
d="M460 0q-94 0 -169.5 13.5t-129 47t-82.5 89.5t-29 141v307h129v-244q0 -74 17 -118.5t59 -68t113.5 -31t179.5 -7.5h784q43 0 83 3t70.5 18.5t49 49t18.5 95.5v483h127v-387q0 -59 9 -107t31 -82t58.5 -52.5t92.5 -18.5q35 0 53 -13t18 -50q0 -22 -4.5 -35t-13.5 -20.5
t-22 -10t-31 -2.5q-37 0 -71 6t-62.5 20.5t-51 37.5t-37.5 57q-24 -37 -52.5 -60.5t-64 -37t-80 -18.5t-102.5 -5h-890zM663 1039q0 37 26 62.5t64 25.5q37 0 63.5 -25.5t26.5 -62.5t-26.5 -63.5t-63.5 -26.5q-38 0 -64 26.5t-26 63.5zM941 1039q0 37 26.5 62.5t63.5 25.5
t63.5 -25.5t26.5 -62.5t-26.5 -63.5t-63.5 -26.5t-63.5 26.5t-26.5 63.5z" />
    <glyph glyph-name="uni062B" unicode="&#x62b;" horiz-adv-x="1873" arabic-form="isolated" 
d="M460 0q-94 0 -169.5 13.5t-129 47t-82.5 89.5t-29 141v307h129v-244q0 -74 17 -118.5t59 -68t113.5 -31t179.5 -7.5h1056v649h129v-778h-1273zM657 1039q0 37 26 62.5t64 25.5q37 0 63.5 -25.5t26.5 -62.5t-26.5 -63.5t-63.5 -26.5q-38 0 -64 26.5t-26 63.5zM935 1039
q0 37 26.5 62.5t63.5 25.5t63.5 -25.5t26.5 -62.5t-26.5 -63.5t-63.5 -26.5t-63.5 26.5t-26.5 63.5zM800 1297q0 37 26.5 62.5t63.5 25.5q18 0 35 -7t29.5 -19t20 -28t7.5 -34t-7.5 -34.5t-20 -29t-29.5 -19.5t-35 -7q-37 0 -63.5 26.5t-26.5 63.5z" />
    <glyph glyph-name="uniFE9B" unicode="&#x62b;" horiz-adv-x="621" arabic-form="initial" 
d="M0 0q-35 0 -53.5 13t-18.5 50q0 22 4.5 35t13.5 20t22.5 9t31.5 2h352v649h129v-778h-481zM160 1161q0 37 26 62.5t64 25.5q37 0 63.5 -25.5t26.5 -62.5t-26.5 -63.5t-63.5 -26.5q-38 0 -64 26.5t-26 63.5zM438 1161q0 37 26.5 62.5t63.5 25.5t63.5 -25.5t26.5 -62.5
t-26.5 -63.5t-63.5 -26.5t-63.5 26.5t-26.5 63.5zM303 1419q0 37 26.5 62.5t63.5 25.5q18 0 35 -7t29.5 -19t20 -28t7.5 -34t-7.5 -34.5t-20 -29t-29.5 -19.5t-35 -7q-37 0 -63.5 26.5t-26.5 63.5z" />
    <glyph glyph-name="uniFE9C" unicode="&#x62b;" horiz-adv-x="669" arabic-form="medial" 
d="M0 0q-35 0 -53.5 13t-18.5 50q0 22 4.5 35t13.5 20t22.5 9t31.5 2h135q43 0 83 3t70.5 18.5t49 49t18.5 95.5v483h129v-389q0 -61 9.5 -109t31 -81.5t56.5 -51.5t87 -18q35 0 53 -12t18 -49q0 -22 -4.5 -35t-13.5 -20.5t-22 -10t-31 -2.5q-36 0 -68.5 6t-60 20.5
t-49 37.5t-36.5 57q-25 -37 -53.5 -60.5t-64.5 -37t-81 -18.5t-102 -5h-154zM187 1161q0 37 26 62.5t64 25.5q37 0 63.5 -25.5t26.5 -62.5t-26.5 -63.5t-63.5 -26.5q-38 0 -64 26.5t-26 63.5zM465 1161q0 37 26.5 62.5t63.5 25.5t63.5 -25.5t26.5 -62.5t-26.5 -63.5
t-63.5 -26.5t-63.5 26.5t-26.5 63.5zM330 1419q0 37 26.5 62.5t63.5 25.5q18 0 35 -7t29.5 -19t20 -28t7.5 -34t-7.5 -34.5t-20 -29t-29.5 -19.5t-35 -7q-37 0 -63.5 26.5t-26.5 63.5z" />
    <glyph glyph-name="uniFE9A" unicode="&#x62b;" horiz-adv-x="1864" arabic-form="final" 
d="M460 0q-94 0 -169.5 13.5t-129 47t-82.5 89.5t-29 141v307h129v-244q0 -74 17 -118.5t59 -68t113.5 -31t179.5 -7.5h784q43 0 83 3t70.5 18.5t49 49t18.5 95.5v483h127v-387q0 -59 9 -107t31 -82t58.5 -52.5t92.5 -18.5q35 0 53 -13t18 -50q0 -22 -4.5 -35t-13.5 -20.5
t-22 -10t-31 -2.5q-37 0 -71 6t-62.5 20.5t-51 37.5t-37.5 57q-24 -37 -52.5 -60.5t-64 -37t-80 -18.5t-102.5 -5h-890zM665 1039q0 37 26 62.5t64 25.5q37 0 63.5 -25.5t26.5 -62.5t-26.5 -63.5t-63.5 -26.5q-38 0 -64 26.5t-26 63.5zM943 1039q0 37 26.5 62.5t63.5 25.5
t63.5 -25.5t26.5 -62.5t-26.5 -63.5t-63.5 -26.5t-63.5 26.5t-26.5 63.5zM808 1297q0 37 26.5 62.5t63.5 25.5q18 0 35 -7t29.5 -19t20 -28t7.5 -34t-7.5 -34.5t-20 -29t-29.5 -19.5t-35 -7q-37 0 -63.5 26.5t-26.5 63.5z" />
    <glyph glyph-name="uni062C" unicode="&#x62c;" horiz-adv-x="1316" arabic-form="isolated" 
d="M1206 0h-611q-47 0 -97.5 -4t-99 -16t-92 -35t-76.5 -60t-52 -91.5t-19 -130.5q0 -92 38 -158.5t102.5 -110t149.5 -64.5t180 -21q75 0 167.5 18.5t202.5 69.5l50 -107q-57 -34 -120 -55.5t-120.5 -33.5t-104 -16.5t-71.5 -4.5q-133 0 -243.5 30t-190.5 90t-124.5 149
t-44.5 208q0 100 23.5 173.5t64 126t95.5 86t118 52.5t131 26.5t135 7.5h480q0 150 -35 255t-98 171t-151 96t-195 30q-56 0 -114.5 -8t-106.5 -19v116q43 12 107 25.5t137 13.5q157 0 268.5 -54t181.5 -146.5t102.5 -215t32.5 -260.5v-133zM554 -368q0 38 26.5 64.5
t63.5 26.5t63.5 -26.5t26.5 -64.5q0 -37 -26.5 -63.5t-63.5 -26.5t-63.5 26.5t-26.5 63.5z" />
    <glyph glyph-name="uniFE9F" unicode="&#x62c;" horiz-adv-x="1109" arabic-form="initial" 
d="M0 0q-35 0 -53.5 13t-18.5 50q0 22 4.5 35t13.5 20t22.5 9t31.5 2h870q0 150 -35 255t-98 171t-151 96t-195 30q-56 0 -114.5 -8t-106.5 -19v116q43 12 107 25.5t137 13.5q157 0 268.5 -54t181.5 -146.5t102.5 -215t32.5 -260.5v-133h-999zM453 -275q0 38 26.5 64.5
t63.5 26.5t63.5 -26.5t26.5 -64.5q0 -37 -26.5 -63.5t-63.5 -26.5t-63.5 26.5t-26.5 63.5z" />
    <glyph glyph-name="uniFEA0" unicode="&#x62c;" horiz-adv-x="1110" arabic-form="medial" 
d="M0 0q-35 0 -53.5 13t-18.5 50q0 22 4.5 35t13.5 20t22.5 9t31.5 2h870q0 150 -35 255t-98.5 171t-152 96t-195.5 30q-56 0 -114 -8t-106 -19v116q43 12 106.5 25.5t136.5 13.5q106 0 190.5 -24.5t150 -69.5t112 -107.5t76.5 -138t44 -162t14 -178.5h111q35 0 53 -12
t18 -49q0 -22 -4.5 -35t-13.5 -20.5t-22 -10t-31 -2.5h-1110zM453 -275q0 38 26.5 64.5t63.5 26.5t63.5 -26.5t26.5 -64.5q0 -37 -26.5 -63.5t-63.5 -26.5t-63.5 26.5t-26.5 63.5z" />
    <glyph glyph-name="uniFE9E" unicode="&#x62c;" horiz-adv-x="1315" arabic-form="final" 
d="M1318 0h-723q-47 0 -97.5 -4t-99 -16t-92 -35t-76.5 -60t-52 -91.5t-19 -130.5q0 -92 38 -158.5t102.5 -110t149.5 -64.5t180 -21q75 0 167.5 18.5t202.5 69.5l50 -107q-57 -34 -120 -55.5t-120.5 -33.5t-104 -16.5t-71.5 -4.5q-133 0 -243.5 30t-190.5 90t-124.5 149
t-44.5 208q0 100 23.5 173.5t64 126t95.5 86t118 52.5t131 26.5t135 7.5h480q0 150 -35 255t-98.5 171t-152 96t-195.5 30q-56 0 -114 -8t-106 -19v116q43 12 106.5 25.5t136.5 13.5q106 0 190.5 -24.5t150 -69.5t112 -107.5t76.5 -138t44 -162t14 -178.5h109q35 0 53 -12
t18 -49q0 -22 -4.5 -35t-13 -20.5t-21.5 -10t-29 -2.5zM554 -368q0 38 26.5 64.5t63.5 26.5t63.5 -26.5t26.5 -64.5q0 -37 -26.5 -63.5t-63.5 -26.5t-63.5 26.5t-26.5 63.5z" />
    <glyph glyph-name="uni062D" unicode="&#x62d;" horiz-adv-x="1316" arabic-form="isolated" 
d="M1206 0h-611q-47 0 -97.5 -4t-99 -16t-92 -35t-76.5 -60t-52 -91.5t-19 -130.5q0 -92 38 -158.5t102.5 -110t149.5 -64.5t180 -21q75 0 167.5 18.5t202.5 69.5l50 -107q-57 -34 -120 -55.5t-120.5 -33.5t-104 -16.5t-71.5 -4.5q-133 0 -243.5 30t-190.5 90t-124.5 149
t-44.5 208q0 100 23.5 173.5t64 126t95.5 86t118 52.5t131 26.5t135 7.5h480q0 150 -35 255t-98 171t-151 96t-195 30q-56 0 -114.5 -8t-106.5 -19v116q43 12 107 25.5t137 13.5q157 0 268.5 -54t181.5 -146.5t102.5 -215t32.5 -260.5v-133z" />
    <glyph glyph-name="uniFEA3" unicode="&#x62d;" horiz-adv-x="1109" arabic-form="initial" 
d="M0 0q-35 0 -53.5 13t-18.5 50q0 22 4.5 35t13.5 20t22.5 9t31.5 2h870q0 150 -35 255t-98 171t-151 96t-195 30q-56 0 -114.5 -8t-106.5 -19v116q43 12 107 25.5t137 13.5q157 0 268.5 -54t181.5 -146.5t102.5 -215t32.5 -260.5v-133h-999z" />
    <glyph glyph-name="uniFEA4" unicode="&#x62d;" horiz-adv-x="1110" arabic-form="medial" 
d="M0 0q-35 0 -53.5 13t-18.5 50q0 22 4.5 35t13.5 20t22.5 9t31.5 2h870q0 150 -35 255t-98.5 171t-152 96t-195.5 30q-56 0 -114 -8t-106 -19v116q43 12 106.5 25.5t136.5 13.5q106 0 190.5 -24.5t150 -69.5t112 -107.5t76.5 -138t44 -162t14 -178.5h111q35 0 53 -12
t18 -49q0 -22 -4.5 -35t-13.5 -20.5t-22 -10t-31 -2.5h-1110z" />
    <glyph glyph-name="uniFEA2" unicode="&#x62d;" horiz-adv-x="1315" arabic-form="final" 
d="M1318 0h-723q-47 0 -97.5 -4t-99 -16t-92 -35t-76.5 -60t-52 -91.5t-19 -130.5q0 -92 38 -158.5t102.5 -110t149.5 -64.5t180 -21q75 0 167.5 18.5t202.5 69.5l50 -107q-57 -34 -120 -55.5t-120.5 -33.5t-104 -16.5t-71.5 -4.5q-133 0 -243.5 30t-190.5 90t-124.5 149
t-44.5 208q0 100 23.5 173.5t64 126t95.5 86t118 52.5t131 26.5t135 7.5h480q0 150 -35 255t-98.5 171t-152 96t-195.5 30q-56 0 -114 -8t-106 -19v116q43 12 106.5 25.5t136.5 13.5q106 0 190.5 -24.5t150 -69.5t112 -107.5t76.5 -138t44 -162t14 -178.5h109q35 0 53 -12
t18 -49q0 -22 -4.5 -35t-13 -20.5t-21.5 -10t-29 -2.5z" />
    <glyph glyph-name="uni062E" unicode="&#x62e;" horiz-adv-x="1316" arabic-form="isolated" 
d="M1206 0h-611q-47 0 -97.5 -4t-99 -16t-92 -35t-76.5 -60t-52 -91.5t-19 -130.5q0 -92 38 -158.5t102.5 -110t149.5 -64.5t180 -21q75 0 167.5 18.5t202.5 69.5l50 -107q-57 -34 -120 -55.5t-120.5 -33.5t-104 -16.5t-71.5 -4.5q-133 0 -243.5 30t-190.5 90t-124.5 149
t-44.5 208q0 100 23.5 173.5t64 126t95.5 86t118 52.5t131 26.5t135 7.5h480q0 150 -35 255t-98 171t-151 96t-195 30q-56 0 -114.5 -8t-106.5 -19v116q43 12 107 25.5t137 13.5q157 0 268.5 -54t181.5 -146.5t102.5 -215t32.5 -260.5v-133zM540 1161q0 37 25.5 62.5
t62.5 25.5q18 0 35 -7t29.5 -19t20 -28t7.5 -34t-7.5 -34.5t-20 -29t-29.5 -19.5t-35 -7q-37 0 -62.5 26.5t-25.5 63.5z" />
    <glyph glyph-name="uniFEA7" unicode="&#x62e;" horiz-adv-x="1109" arabic-form="initial" 
d="M0 0q-35 0 -53.5 13t-18.5 50q0 22 4.5 35t13.5 20t22.5 9t31.5 2h870q0 150 -35 255t-98 171t-151 96t-195 30q-56 0 -114.5 -8t-106.5 -19v116q43 12 107 25.5t137 13.5q157 0 268.5 -54t181.5 -146.5t102.5 -215t32.5 -260.5v-133h-999zM336 1158q0 37 25.5 62.5
t62.5 25.5q18 0 35 -7t29.5 -19t20 -28t7.5 -34t-7.5 -34.5t-20 -29t-29.5 -19.5t-35 -7q-37 0 -62.5 26.5t-25.5 63.5z" />
    <glyph glyph-name="uniFEA8" unicode="&#x62e;" horiz-adv-x="1110" arabic-form="medial" 
d="M0 0q-35 0 -53.5 13t-18.5 50q0 22 4.5 35t13.5 20t22.5 9t31.5 2h870q0 150 -35 255t-98.5 171t-152 96t-195.5 30q-56 0 -114 -8t-106 -19v116q43 12 106.5 25.5t136.5 13.5q106 0 190.5 -24.5t150 -69.5t112 -107.5t76.5 -138t44 -162t14 -178.5h111q35 0 53 -12
t18 -49q0 -22 -4.5 -35t-13.5 -20.5t-22 -10t-31 -2.5h-1110zM336 1158q0 37 25.5 62.5t62.5 25.5q18 0 35 -7t29.5 -19t20 -28t7.5 -34t-7.5 -34.5t-20 -29t-29.5 -19.5t-35 -7q-37 0 -62.5 26.5t-25.5 63.5z" />
    <glyph glyph-name="uniFEA6" unicode="&#x62e;" horiz-adv-x="1315" arabic-form="final" 
d="M1318 0h-723q-47 0 -97.5 -4t-99 -16t-92 -35t-76.5 -60t-52 -91.5t-19 -130.5q0 -92 38 -158.5t102.5 -110t149.5 -64.5t180 -21q75 0 167.5 18.5t202.5 69.5l50 -107q-57 -34 -120 -55.5t-120.5 -33.5t-104 -16.5t-71.5 -4.5q-133 0 -243.5 30t-190.5 90t-124.5 149
t-44.5 208q0 100 23.5 173.5t64 126t95.5 86t118 52.5t131 26.5t135 7.5h480q0 150 -35 255t-98.5 171t-152 96t-195.5 30q-56 0 -114 -8t-106 -19v116q43 12 106.5 25.5t136.5 13.5q106 0 190.5 -24.5t150 -69.5t112 -107.5t76.5 -138t44 -162t14 -178.5h109q35 0 53 -12
t18 -49q0 -22 -4.5 -35t-13 -20.5t-21.5 -10t-29 -2.5zM505 1160q0 37 25.5 62.5t62.5 25.5q18 0 35 -7t29.5 -19t20 -28t7.5 -34t-7.5 -34.5t-20 -29t-29.5 -19.5t-35 -7q-37 0 -62.5 26.5t-25.5 63.5z" />
    <glyph glyph-name="uni062F" unicode="&#x62f;" horiz-adv-x="911" arabic-form="isolated" 
d="M801 211q0 -45 -16.5 -84t-49 -67t-81.5 -44t-113 -16h-480v129h474q43 0 69.5 8.5t41 21t19.5 27.5t5 28q0 26 -8.5 52t-34 70t-72.5 114.5l-125 184.5l-70 104l117 76l123 -194l58.5 -91.5t66 -108.5t54 -111t22.5 -99z" />
    <glyph glyph-name="uniFEAA" unicode="&#x62f;" horiz-adv-x="973" arabic-form="final" 
d="M965 0q-33 0 -62 12.5t-52.5 30.5t-41 38.5t-28.5 36.5q-23 -42 -56 -65.5t-68.5 -35.5t-70.5 -14.5t-62 -2.5h-463v129h464q21 0 46 2t47 10.5t37 25.5t15 47q0 26 -11 56t-30.5 64.5t-45.5 74l-56 83.5l-167 247l117 76l171 -268l54 -87.5l56 -93l56 -89.5t54.5 -76
t51 -52.5t45.5 -19.5h8q35 0 53 -12t18 -49q0 -22 -4.5 -35t-13.5 -20.5t-22 -10t-31 -2.5h-8z" />
    <glyph glyph-name="uni0630" unicode="&#x630;" horiz-adv-x="911" arabic-form="isolated" 
d="M801 211q0 -45 -16.5 -84t-49 -67t-81.5 -44t-113 -16h-480v129h474q43 0 69.5 8.5t41 21t19.5 27.5t5 28q0 26 -8.5 52t-34 70t-72.5 114.5l-125 184.5l-70 104l117 76l123 -194l58.5 -91.5t66 -108.5t54 -111t22.5 -99zM330 1161q0 37 25.5 62.5t62.5 25.5q18 0 35 -7
t29.5 -19t20 -28t7.5 -34t-7.5 -34.5t-20 -29t-29.5 -19.5t-35 -7q-37 0 -62.5 26.5t-25.5 63.5z" />
    <glyph glyph-name="uniFEAC" unicode="&#x630;" horiz-adv-x="973" arabic-form="final" 
d="M965 0q-33 0 -62 12.5t-52.5 30.5t-41 38.5t-28.5 36.5q-23 -42 -56 -65.5t-68.5 -35.5t-70.5 -14.5t-62 -2.5h-463v129h464q21 0 46 2t47 10.5t37 25.5t15 47q0 26 -11 56t-30.5 64.5t-45.5 74l-56 83.5l-167 247l117 76l171 -268l54 -87.5l56 -93l56 -89.5t54.5 -76
t51 -52.5t45.5 -19.5h8q35 0 53 -12t18 -49q0 -22 -4.5 -35t-13.5 -20.5t-22 -10t-31 -2.5h-8zM311 1160q0 37 25.5 62.5t62.5 25.5q18 0 35 -7t29.5 -19t20 -28t7.5 -34t-7.5 -34.5t-20 -29t-29.5 -19.5t-35 -7q-37 0 -62.5 26.5t-25.5 63.5z" />
    <glyph glyph-name="uni0631" unicode="&#x631;" horiz-adv-x="600" arabic-form="isolated" 
d="M331 778h129v-716q0 -143 -16.5 -246t-58 -169.5t-111.5 -98t-177 -31.5h-57v132h57q80 0 126.5 27.5t70.5 82.5t30.5 136.5t6.5 189.5v693z" />
    <glyph glyph-name="uniFEAE" unicode="&#x631;" horiz-adv-x="642" arabic-form="final" 
d="M458 53q0 -141 -16.5 -242t-57.5 -166.5t-111 -96.5t-176 -31h-57v132h57q80 0 126.5 27.5t70.5 82.5t30.5 136.5t6.5 189.5v693h129v-387q0 -61 7.5 -109.5t28 -82.5t55.5 -52t91 -18q35 0 53.5 -12t18.5 -49q0 -22 -4.5 -35t-13.5 -20.5t-22.5 -10t-31.5 -2.5
q-72 0 -116.5 21.5t-67.5 67.5v-36z" />
    <glyph glyph-name="uni0632" unicode="&#x632;" horiz-adv-x="600" arabic-form="isolated" 
d="M331 778h129v-716q0 -143 -16.5 -246t-58 -169.5t-111.5 -98t-177 -31.5h-57v132h57q80 0 126.5 27.5t70.5 82.5t30.5 136.5t6.5 189.5v693zM302 1161q0 37 25.5 62.5t62.5 25.5q18 0 35 -7t29.5 -19t20 -28t7.5 -34t-7.5 -34.5t-20 -29t-29.5 -19.5t-35 -7
q-37 0 -62.5 26.5t-25.5 63.5z" />
    <glyph glyph-name="uniFEB0" unicode="&#x632;" horiz-adv-x="642" arabic-form="final" 
d="M458 53q0 -141 -16.5 -242t-57.5 -166.5t-111 -96.5t-176 -31h-57v132h57q80 0 126.5 27.5t70.5 82.5t30.5 136.5t6.5 189.5v693h129v-387q0 -61 7.5 -109.5t28 -82.5t55.5 -52t91 -18q35 0 53.5 -12t18.5 -49q0 -22 -4.5 -35t-13.5 -20.5t-22.5 -10t-31.5 -2.5
q-72 0 -116.5 21.5t-67.5 67.5v-36zM300 1161q0 37 25.5 62.5t62.5 25.5q18 0 35 -7t29.5 -19t20 -28t7.5 -34t-7.5 -34.5t-20 -29t-29.5 -19.5t-35 -7q-37 0 -62.5 26.5t-25.5 63.5z" />
    <glyph glyph-name="uni0633" unicode="&#x633;" horiz-adv-x="2447" arabic-form="isolated" 
d="M1183 1q0 -134 -34.5 -226.5t-104.5 -149.5t-177 -82.5t-252 -25.5q-278 0 -421.5 114t-143.5 354v307h129v-273q0 -103 28 -174t83.5 -115.5t137.5 -64t191 -19.5q114 0 196.5 17t135.5 58t78 109.5t25 172.5v668h129v-282q0 -59 7 -107t32 -82t73 -52.5t129 -18.5
q55 0 95 5t66 23.5t39 54t13 97.5v361h129v-281q0 -59 8.5 -107t31.5 -82t63.5 -52.5t105.5 -18.5h203v649h129v-778h-332q-75 0 -136 26.5t-103 94.5q-30 -43 -62 -67.5t-68 -36.5t-77.5 -14.5t-89.5 -2.5q-46 0 -83 4t-67.5 14t-56 28t-49.5 45v-90z" />
    <glyph glyph-name="uniFEB3" unicode="&#x633;" horiz-adv-x="1692" arabic-form="initial" 
d="M0 0q-35 0 -53.5 13t-18.5 50q0 22 4.5 35t13.5 20t22.5 9t31.5 2h22q79 0 132 5t85.5 23.5t46 54t13.5 97.5v363h129v-283q0 -59 7 -107t32.5 -82t74.5 -52.5t132 -18.5q53 0 92.5 5t66 23.5t39.5 54t13 97.5v361h129v-281q0 -59 8.5 -107t31.5 -82t63.5 -52.5
t104.5 -18.5h201v649h129v-778h-330q-72 0 -130.5 24.5t-100.5 90.5q-29 -39 -62 -62t-72 -35t-85 -15t-100 -3q-40 0 -82 5t-79.5 18.5t-68.5 38t-49 63.5q-25 -35 -52.5 -58.5t-68.5 -38.5t-102 -21.5t-152 -6.5h-18z" />
    <glyph glyph-name="uniFEB4" unicode="&#x633;" horiz-adv-x="1736" arabic-form="medial" 
d="M1736 0q-74 0 -127 24t-88 89q-42 -60 -105.5 -87.5t-150.5 -27.5q-40 0 -81.5 5t-79 18.5t-68.5 38t-49 63.5q-27 -40 -59 -64.5t-70.5 -37.5t-84.5 -17t-101 -4q-40 0 -82 5t-79.5 18.5t-68.5 38t-49 63.5q-25 -35 -52.5 -58.5t-68.5 -38.5t-102 -21.5t-152 -6.5h-18
q-35 0 -53.5 13t-18.5 50q0 22 4.5 35t13.5 20t22.5 9t31.5 2h22q79 0 132 5t85.5 23.5t46 54t13.5 97.5v363h129v-283q0 -59 7 -107t32.5 -82t74.5 -52.5t132 -18.5q53 0 92.5 5t66 23.5t39.5 54t13 97.5v361h129v-281q0 -59 8.5 -107t31 -82t62.5 -52.5t104 -18.5
q43 0 80 5t64.5 23.5t43 54t15.5 97.5v469h129v-389q0 -59 7.5 -107t28 -82t56.5 -52.5t92 -18.5q35 0 53.5 -12t18.5 -49q0 -22 -4.5 -35t-13.5 -20.5t-22.5 -10t-31.5 -2.5z" />
    <glyph glyph-name="uniFEB2" unicode="&#x633;" horiz-adv-x="2491" arabic-form="final" 
d="M1182 1q0 -134 -34 -226.5t-104 -149.5t-177 -82.5t-252 -25.5q-278 0 -421.5 114t-143.5 354v307h129v-273q0 -103 28 -174t83.5 -115.5t137.5 -64t191 -19.5q114 0 196.5 17t135.5 58t78 109.5t25 172.5v668h128v-282q0 -59 7 -107t32.5 -82t74 -52.5t132.5 -18.5
q53 0 93 5t66.5 23.5t40 54t13.5 97.5v361h127v-281q0 -59 8.5 -107t32 -82t64 -52.5t104.5 -18.5q43 0 80 5t64.5 23.5t43 54t15.5 97.5v469h127v-389q0 -59 9 -107t30.5 -82t56.5 -52.5t88 -18.5q35 0 53 -12t18 -49q0 -22 -4.5 -35t-13.5 -20.5t-22 -10t-31 -2.5
q-74 0 -127.5 25.5t-87.5 93.5q-38 -63 -102.5 -92t-151.5 -29q-40 0 -81.5 5t-79 18.5t-68.5 38t-49 63.5q-26 -40 -56.5 -64.5t-67.5 -37.5t-82 -17t-100 -4q-46 0 -83 6t-68 18.5t-57 31t-48 42.5v-97z" />
    <glyph glyph-name="uni0634" unicode="&#x634;" horiz-adv-x="2447" arabic-form="isolated" 
d="M1183 1q0 -134 -34.5 -226.5t-104.5 -149.5t-177 -82.5t-252 -25.5q-278 0 -421.5 114t-143.5 354v307h129v-273q0 -103 28 -174t83.5 -115.5t137.5 -64t191 -19.5q114 0 196.5 17t135.5 58t78 109.5t25 172.5v668h129v-282q0 -59 7 -107t32 -82t73 -52.5t129 -18.5
q55 0 95 5t66 23.5t39 54t13 97.5v361h129v-281q0 -59 8.5 -107t31.5 -82t63.5 -52.5t105.5 -18.5h203v649h129v-778h-332q-75 0 -136 26.5t-103 94.5q-30 -43 -62 -67.5t-68 -36.5t-77.5 -14.5t-89.5 -2.5q-46 0 -83 4t-67.5 14t-56 28t-49.5 45v-90zM1470 1161
q0 37 26 62.5t64 25.5q37 0 63.5 -25.5t26.5 -62.5t-26.5 -63.5t-63.5 -26.5q-38 0 -64 26.5t-26 63.5zM1748 1161q0 37 26.5 62.5t63.5 25.5t63.5 -25.5t26.5 -62.5t-26.5 -63.5t-63.5 -26.5t-63.5 26.5t-26.5 63.5zM1613 1419q0 37 26.5 62.5t63.5 25.5q18 0 35 -7
t29.5 -19t20 -28t7.5 -34t-7.5 -34.5t-20 -29t-29.5 -19.5t-35 -7q-37 0 -63.5 26.5t-26.5 63.5z" />
    <glyph glyph-name="uniFEB7" unicode="&#x634;" horiz-adv-x="1692" arabic-form="initial" 
d="M0 0q-35 0 -53.5 13t-18.5 50q0 22 4.5 35t13.5 20t22.5 9t31.5 2h22q79 0 132 5t85.5 23.5t46 54t13.5 97.5v363h129v-283q0 -59 7 -107t32.5 -82t74.5 -52.5t132 -18.5q53 0 92.5 5t66 23.5t39.5 54t13 97.5v361h129v-281q0 -59 8.5 -107t31.5 -82t63.5 -52.5
t104.5 -18.5h201v649h129v-778h-330q-72 0 -130.5 24.5t-100.5 90.5q-29 -39 -62 -62t-72 -35t-85 -15t-100 -3q-40 0 -82 5t-79.5 18.5t-68.5 38t-49 63.5q-25 -35 -52.5 -58.5t-68.5 -38.5t-102 -21.5t-152 -6.5h-18zM695 1161q0 37 26 62.5t64 25.5q37 0 63.5 -25.5
t26.5 -62.5t-26.5 -63.5t-63.5 -26.5q-38 0 -64 26.5t-26 63.5zM973 1161q0 37 26.5 62.5t63.5 25.5t63.5 -25.5t26.5 -62.5t-26.5 -63.5t-63.5 -26.5t-63.5 26.5t-26.5 63.5zM838 1419q0 37 26.5 62.5t63.5 25.5q18 0 35 -7t29.5 -19t20 -28t7.5 -34t-7.5 -34.5t-20 -29
t-29.5 -19.5t-35 -7q-37 0 -63.5 26.5t-26.5 63.5z" />
    <glyph glyph-name="uniFEB8" unicode="&#x634;" horiz-adv-x="1736" arabic-form="medial" 
d="M1736 0q-74 0 -127 24t-88 89q-42 -60 -105.5 -87.5t-150.5 -27.5q-40 0 -81.5 5t-79 18.5t-68.5 38t-49 63.5q-27 -40 -59 -64.5t-70.5 -37.5t-84.5 -17t-101 -4q-40 0 -82 5t-79.5 18.5t-68.5 38t-49 63.5q-25 -35 -52.5 -58.5t-68.5 -38.5t-102 -21.5t-152 -6.5h-18
q-35 0 -53.5 13t-18.5 50q0 22 4.5 35t13.5 20t22.5 9t31.5 2h22q79 0 132 5t85.5 23.5t46 54t13.5 97.5v363h129v-283q0 -59 7 -107t32.5 -82t74.5 -52.5t132 -18.5q53 0 92.5 5t66 23.5t39.5 54t13 97.5v361h129v-281q0 -59 8.5 -107t31 -82t62.5 -52.5t104 -18.5
q43 0 80 5t64.5 23.5t43 54t15.5 97.5v469h129v-389q0 -59 7.5 -107t28 -82t56.5 -52.5t92 -18.5q35 0 53.5 -12t18.5 -49q0 -22 -4.5 -35t-13.5 -20.5t-22.5 -10t-31.5 -2.5zM721 1161q0 37 26 62.5t64 25.5q37 0 63.5 -25.5t26.5 -62.5t-26.5 -63.5t-63.5 -26.5
q-38 0 -64 26.5t-26 63.5zM999 1161q0 37 26.5 62.5t63.5 25.5t63.5 -25.5t26.5 -62.5t-26.5 -63.5t-63.5 -26.5t-63.5 26.5t-26.5 63.5zM864 1419q0 37 26.5 62.5t63.5 25.5q18 0 35 -7t29.5 -19t20 -28t7.5 -34t-7.5 -34.5t-20 -29t-29.5 -19.5t-35 -7q-37 0 -63.5 26.5
t-26.5 63.5z" />
    <glyph glyph-name="uniFEB6" unicode="&#x634;" horiz-adv-x="2491" arabic-form="final" 
d="M1182 1q0 -134 -34 -226.5t-104 -149.5t-177 -82.5t-252 -25.5q-278 0 -421.5 114t-143.5 354v307h129v-273q0 -103 28 -174t83.5 -115.5t137.5 -64t191 -19.5q114 0 196.5 17t135.5 58t78 109.5t25 172.5v668h128v-282q0 -59 7 -107t32.5 -82t74 -52.5t132.5 -18.5
q53 0 93 5t66.5 23.5t40 54t13.5 97.5v361h127v-281q0 -59 8.5 -107t32 -82t64 -52.5t104.5 -18.5q43 0 80 5t64.5 23.5t43 54t15.5 97.5v469h127v-389q0 -59 9 -107t30.5 -82t56.5 -52.5t88 -18.5q35 0 53 -12t18 -49q0 -22 -4.5 -35t-13.5 -20.5t-22 -10t-31 -2.5
q-74 0 -127.5 25.5t-87.5 93.5q-38 -63 -102.5 -92t-151.5 -29q-40 0 -81.5 5t-79 18.5t-68.5 38t-49 63.5q-26 -40 -56.5 -64.5t-67.5 -37.5t-82 -17t-100 -4q-46 0 -83 6t-68 18.5t-57 31t-48 42.5v-97zM1472 1161q0 37 26 62.5t64 25.5q37 0 63.5 -25.5t26.5 -62.5
t-26.5 -63.5t-63.5 -26.5q-38 0 -64 26.5t-26 63.5zM1750 1161q0 37 26.5 62.5t63.5 25.5t63.5 -25.5t26.5 -62.5t-26.5 -63.5t-63.5 -26.5t-63.5 26.5t-26.5 63.5zM1615 1419q0 37 26.5 62.5t63.5 25.5q18 0 35 -7t29.5 -19t20 -28t7.5 -34t-7.5 -34.5t-20 -29t-29.5 -19.5
t-35 -7q-37 0 -63.5 26.5t-26.5 63.5z" />
    <glyph glyph-name="uni0635" unicode="&#x635;" horiz-adv-x="2782" arabic-form="isolated" 
d="M2531 129v170q0 83 -18 153.5t-57.5 121.5t-102.5 80t-154 29q-71 0 -136.5 -23t-125 -63t-111 -93.5t-94.5 -115t-76.5 -128t-54.5 -131.5h930zM1183 1q0 -134 -34.5 -226.5t-104.5 -149.5t-177 -82.5t-252 -25.5q-278 0 -421.5 114t-143.5 354v307h129v-273
q0 -103 28 -174t83.5 -115.5t137.5 -64t191 -19.5q114 0 196.5 17t135.5 58t78 109.5t25 172.5v668h129v-280q0 -59 8 -107.5t36 -83t81 -53t142 -18.5q31 81 74 163.5t97 158t119.5 141t141.5 114t162.5 76t183.5 27.5q102 0 182 -31.5t135.5 -91.5t85 -147.5t29.5 -198.5
v-340h-1175q-62 0 -109.5 3t-84 13.5t-63 30.5t-45.5 53v-99z" />
    <glyph glyph-name="uniFEBB" unicode="&#x635;" horiz-adv-x="1893" arabic-form="initial" 
d="M1643 129v170q0 83 -17.5 153.5t-56.5 121.5t-101 80t-152 29q-71 0 -137 -23t-125.5 -63t-111.5 -93.5t-95 -115t-76.5 -128t-54.5 -131.5h927zM0 0q-35 0 -53.5 13t-18.5 50q0 22 4.5 35t13.5 20t22.5 9t31.5 2h18q61 0 105.5 5t74 23.5t43.5 54t14 97.5v318h129v-238
q0 -59 5 -107t24.5 -82t57.5 -52.5t103 -18.5q26 79 67 160.5t94.5 157t119 141.5t142 115t163.5 77.5t182 28.5q102 0 182 -31.5t135 -91.5t83.5 -147.5t28.5 -198.5v-340h-1164q-104 0 -164.5 26t-89.5 95q-18 -37 -49.5 -60.5t-74.5 -37t-97 -18.5t-118 -5h-14z" />
    <glyph glyph-name="uniFEBC" unicode="&#x635;" horiz-adv-x="1918" arabic-form="medial" 
d="M608 0q-104 0 -164.5 26t-89.5 95q-20 -33 -50 -56t-72.5 -37.5t-98.5 -21t-128 -6.5h-5q-35 0 -53.5 13t-18.5 50q0 22 4.5 35t13.5 20t22.5 9t31.5 2h9q63 0 109.5 5t77 23.5t45.5 54t15 97.5v318h129v-238q0 -59 5 -107t24.5 -82t57.5 -52.5t103 -18.5q26 79 67 160.5
t94.5 157t119 141.5t142 115t163.5 77.5t182 28.5q102 0 182 -31.5t135 -91.5t84 -147.5t29 -198.5v-211h145q35 0 53 -12t18 -49q0 -22 -4.5 -35t-13.5 -20.5t-22 -10t-31 -2.5h-1310zM1644 129v170q0 83 -17.5 153.5t-56.5 121.5t-101 80t-152 29q-71 0 -137 -23
t-125.5 -63t-111.5 -93.5t-95 -115t-76.5 -128t-54.5 -131.5h927z" />
    <glyph glyph-name="uniFEBA" unicode="&#x635;" horiz-adv-x="2803" arabic-form="final" 
d="M2529 129v170q0 83 -17.5 153.5t-56.5 121.5t-102 80t-154 29q-71 0 -136.5 -23t-125 -63t-111 -93.5t-94.5 -115t-76.5 -128t-54.5 -131.5h928zM1183 1q0 -134 -34.5 -226.5t-104.5 -149.5t-177 -82.5t-252 -25.5q-278 0 -421.5 114t-143.5 354v307h129v-273
q0 -103 28 -174t83.5 -115.5t137.5 -64t191 -19.5q114 0 196.5 17t135.5 58t78 109.5t25 172.5v668h129v-280q0 -59 8 -107.5t36 -83t81 -53t142 -18.5q31 81 74 163.5t97 158t119.5 141t141.5 114t162.5 76t183.5 27.5q102 0 182 -31.5t135 -91.5t84 -147.5t29 -198.5v-211
h145q35 0 53.5 -12t18.5 -49q0 -22 -4.5 -35t-13.5 -20.5t-22.5 -10t-31.5 -2.5h-1320q-61 0 -108.5 3t-83.5 13.5t-62.5 30.5t-45.5 53v-99z" />
    <glyph glyph-name="uni0636" unicode="&#x636;" horiz-adv-x="2782" arabic-form="isolated" 
d="M2531 129v170q0 83 -18 153.5t-57.5 121.5t-102.5 80t-154 29q-71 0 -136.5 -23t-125 -63t-111 -93.5t-94.5 -115t-76.5 -128t-54.5 -131.5h930zM1183 1q0 -134 -34.5 -226.5t-104.5 -149.5t-177 -82.5t-252 -25.5q-278 0 -421.5 114t-143.5 354v307h129v-273
q0 -103 28 -174t83.5 -115.5t137.5 -64t191 -19.5q114 0 196.5 17t135.5 58t78 109.5t25 172.5v668h129v-280q0 -59 8 -107.5t36 -83t81 -53t142 -18.5q31 81 74 163.5t97 158t119.5 141t141.5 114t162.5 76t183.5 27.5q102 0 182 -31.5t135.5 -91.5t85 -147.5t29.5 -198.5
v-340h-1175q-62 0 -109.5 3t-84 13.5t-63 30.5t-45.5 53v-99zM2056 1161q0 37 25.5 62.5t62.5 25.5q18 0 35 -7t29.5 -19t20 -28t7.5 -34t-7.5 -34.5t-20 -29t-29.5 -19.5t-35 -7q-37 0 -62.5 26.5t-25.5 63.5z" />
    <glyph glyph-name="uniFEBF" unicode="&#x636;" horiz-adv-x="1893" arabic-form="initial" 
d="M1643 129v170q0 83 -17.5 153.5t-56.5 121.5t-101 80t-152 29q-71 0 -137 -23t-125.5 -63t-111.5 -93.5t-95 -115t-76.5 -128t-54.5 -131.5h927zM0 0q-35 0 -53.5 13t-18.5 50q0 22 4.5 35t13.5 20t22.5 9t31.5 2h18q61 0 105.5 5t74 23.5t43.5 54t14 97.5v318h129v-238
q0 -59 5 -107t24.5 -82t57.5 -52.5t103 -18.5q26 79 67 160.5t94.5 157t119 141.5t142 115t163.5 77.5t182 28.5q102 0 182 -31.5t135 -91.5t83.5 -147.5t28.5 -198.5v-340h-1164q-104 0 -164.5 26t-89.5 95q-18 -37 -49.5 -60.5t-74.5 -37t-97 -18.5t-118 -5h-14z
M1207 1161q0 37 25.5 62.5t62.5 25.5q18 0 35 -7t29.5 -19t20 -28t7.5 -34t-7.5 -34.5t-20 -29t-29.5 -19.5t-35 -7q-37 0 -62.5 26.5t-25.5 63.5z" />
    <glyph glyph-name="uniFEC0" unicode="&#x636;" horiz-adv-x="1918" arabic-form="medial" 
d="M608 0q-104 0 -164.5 26t-89.5 95q-20 -33 -50 -56t-72.5 -37.5t-98.5 -21t-128 -6.5h-5q-35 0 -53.5 13t-18.5 50q0 22 4.5 35t13.5 20t22.5 9t31.5 2h9q63 0 109.5 5t77 23.5t45.5 54t15 97.5v318h129v-238q0 -59 5 -107t24.5 -82t57.5 -52.5t103 -18.5q26 79 67 160.5
t94.5 157t119 141.5t142 115t163.5 77.5t182 28.5q102 0 182 -31.5t135 -91.5t84 -147.5t29 -198.5v-211h145q35 0 53 -12t18 -49q0 -22 -4.5 -35t-13.5 -20.5t-22 -10t-31 -2.5h-1310zM1644 129v170q0 83 -17.5 153.5t-56.5 121.5t-101 80t-152 29q-71 0 -137 -23
t-125.5 -63t-111.5 -93.5t-95 -115t-76.5 -128t-54.5 -131.5h927zM1204 1161q0 37 25.5 62.5t62.5 25.5q18 0 35 -7t29.5 -19t20 -28t7.5 -34t-7.5 -34.5t-20 -29t-29.5 -19.5t-35 -7q-37 0 -62.5 26.5t-25.5 63.5z" />
    <glyph glyph-name="uniFEBE" unicode="&#x636;" horiz-adv-x="2803" arabic-form="final" 
d="M2529 129v170q0 83 -17.5 153.5t-56.5 121.5t-102 80t-154 29q-71 0 -136.5 -23t-125 -63t-111 -93.5t-94.5 -115t-76.5 -128t-54.5 -131.5h928zM1183 1q0 -134 -34.5 -226.5t-104.5 -149.5t-177 -82.5t-252 -25.5q-278 0 -421.5 114t-143.5 354v307h129v-273
q0 -103 28 -174t83.5 -115.5t137.5 -64t191 -19.5q114 0 196.5 17t135.5 58t78 109.5t25 172.5v668h129v-280q0 -59 8 -107.5t36 -83t81 -53t142 -18.5q31 81 74 163.5t97 158t119.5 141t141.5 114t162.5 76t183.5 27.5q102 0 182 -31.5t135 -91.5t84 -147.5t29 -198.5v-211
h145q35 0 53.5 -12t18.5 -49q0 -22 -4.5 -35t-13.5 -20.5t-22.5 -10t-31.5 -2.5h-1320q-61 0 -108.5 3t-83.5 13.5t-62.5 30.5t-45.5 53v-99zM2058 1161q0 37 25.5 62.5t62.5 25.5q18 0 35 -7t29.5 -19t20 -28t7.5 -34t-7.5 -34.5t-20 -29t-29.5 -19.5t-35 -7
q-37 0 -62.5 26.5t-25.5 63.5z" />
    <glyph glyph-name="uni0637" unicode="&#x637;" horiz-adv-x="1592" arabic-form="isolated" 
d="M1341 129v170q0 79 -16.5 149t-55 122t-101.5 82.5t-157 30.5q-70 0 -135 -24t-123.5 -65.5t-109 -96.5t-93 -116.5t-75 -126.5t-54.5 -125h920zM429 387q58 100 128 178.5t148.5 132.5t165.5 82.5t179 28.5q99 0 177 -32.5t132 -93.5t82.5 -148t28.5 -195v-340h-1440
v129h270v1333h129v-1075z" />
    <glyph glyph-name="uniFEC3" unicode="&#x637;" horiz-adv-x="1541" arabic-form="initial" 
d="M1290 129v170q0 79 -16.5 149t-55 122t-102.5 82.5t-158 30.5q-70 0 -134 -24t-122 -65.5t-108.5 -96.5t-93 -116.5t-75 -126.5t-54.5 -125h919zM999 809q99 0 177 -32.5t132 -93.5t82.5 -148t28.5 -195v-340h-1419q-35 0 -53.5 13t-18.5 50q0 22 4.5 35t13.5 20t22.5 9
t31.5 2h250v1333h129v-1075q58 100 128 178.5t148.5 132.5t165 82.5t178.5 28.5z" />
    <glyph glyph-name="uniFEC4" unicode="&#x637;" horiz-adv-x="1564" arabic-form="medial" 
d="M999 809q99 0 177 -32.5t132 -93.5t82.5 -148t28.5 -195v-211h145q35 0 53.5 -12t18.5 -49q0 -22 -4.5 -35t-13.5 -20.5t-22.5 -10t-31.5 -2.5h-1564q-35 0 -53.5 13t-18.5 50q0 22 4.5 35t13.5 20t22.5 9t31.5 2h250v1333h129v-1075q58 100 128 178.5t148.5 132.5
t165 82.5t178.5 28.5zM1290 129v170q0 79 -16.5 149t-55 122t-102.5 82.5t-158 30.5q-70 0 -134 -24t-122 -65.5t-108.5 -96.5t-93 -116.5t-75 -126.5t-54.5 -125h919z" />
    <glyph glyph-name="uniFEC2" unicode="&#x637;" horiz-adv-x="1617" arabic-form="final" 
d="M1050 809q99 0 177 -32.5t132 -93.5t82.5 -148t28.5 -195v-211h147q35 0 53.5 -12t18.5 -49q0 -22 -4.5 -35t-13.5 -20.5t-22.5 -10t-31.5 -2.5h-1587v129h270v1333h129v-1075q58 100 128 178.5t148.5 132.5t165.5 82.5t179 28.5zM1341 129v170q0 79 -16.5 149t-55 122
t-101.5 82.5t-157 30.5q-70 0 -135 -24t-123.5 -65.5t-109 -96.5t-93 -116.5t-75 -126.5t-54.5 -125h920z" />
    <glyph glyph-name="uni0638" unicode="&#x638;" horiz-adv-x="1592" arabic-form="isolated" 
d="M1341 129v170q0 79 -16.5 149t-55 122t-101.5 82.5t-157 30.5q-70 0 -135 -24t-123.5 -65.5t-109 -96.5t-93 -116.5t-75 -126.5t-54.5 -125h920zM429 387q58 100 128 178.5t148.5 132.5t165.5 82.5t179 28.5q99 0 177 -32.5t132 -93.5t82.5 -148t28.5 -195v-340h-1440
v129h270v1333h129v-1075zM952 1161q0 37 25.5 62.5t62.5 25.5q18 0 35 -7t29.5 -19t20 -28t7.5 -34t-7.5 -34.5t-20 -29t-29.5 -19.5t-35 -7q-37 0 -62.5 26.5t-25.5 63.5z" />
    <glyph glyph-name="uniFEC7" unicode="&#x638;" horiz-adv-x="1541" arabic-form="initial" 
d="M1290 129v170q0 79 -16.5 149t-55 122t-102.5 82.5t-158 30.5q-70 0 -134 -24t-122 -65.5t-108.5 -96.5t-93 -116.5t-75 -126.5t-54.5 -125h919zM999 809q99 0 177 -32.5t132 -93.5t82.5 -148t28.5 -195v-340h-1419q-35 0 -53.5 13t-18.5 50q0 22 4.5 35t13.5 20t22.5 9
t31.5 2h250v1333h129v-1075q58 100 128 178.5t148.5 132.5t165 82.5t178.5 28.5zM887 1161q0 37 25.5 62.5t62.5 25.5q18 0 35 -7t29.5 -19t20 -28t7.5 -34t-7.5 -34.5t-20 -29t-29.5 -19.5t-35 -7q-37 0 -62.5 26.5t-25.5 63.5z" />
    <glyph glyph-name="uniFEC8" unicode="&#x638;" horiz-adv-x="1564" arabic-form="medial" 
d="M999 809q99 0 177 -32.5t132 -93.5t82.5 -148t28.5 -195v-211h145q35 0 53.5 -12t18.5 -49q0 -22 -4.5 -35t-13.5 -20.5t-22.5 -10t-31.5 -2.5h-1564q-35 0 -53.5 13t-18.5 50q0 22 4.5 35t13.5 20t22.5 9t31.5 2h250v1333h129v-1075q58 100 128 178.5t148.5 132.5
t165 82.5t178.5 28.5zM1290 129v170q0 79 -16.5 149t-55 122t-102.5 82.5t-158 30.5q-70 0 -134 -24t-122 -65.5t-108.5 -96.5t-93 -116.5t-75 -126.5t-54.5 -125h919zM877 1161q0 37 25.5 62.5t62.5 25.5q18 0 35 -7t29.5 -19t20 -28t7.5 -34t-7.5 -34.5t-20 -29
t-29.5 -19.5t-35 -7q-37 0 -62.5 26.5t-25.5 63.5z" />
    <glyph glyph-name="uniFEC6" unicode="&#x638;" horiz-adv-x="1617" arabic-form="final" 
d="M1050 809q99 0 177 -32.5t132 -93.5t82.5 -148t28.5 -195v-211h147q35 0 53.5 -12t18.5 -49q0 -22 -4.5 -35t-13.5 -20.5t-22.5 -10t-31.5 -2.5h-1587v129h270v1333h129v-1075q58 100 128 178.5t148.5 132.5t165.5 82.5t179 28.5zM1341 129v170q0 79 -16.5 149t-55 122
t-101.5 82.5t-157 30.5q-70 0 -135 -24t-123.5 -65.5t-109 -96.5t-93 -116.5t-75 -126.5t-54.5 -125h920zM940 1161q0 37 25.5 62.5t62.5 25.5q18 0 35 -7t29.5 -19t20 -28t7.5 -34t-7.5 -34.5t-20 -29t-29.5 -19.5t-35 -7q-37 0 -62.5 26.5t-25.5 63.5z" />
    <glyph glyph-name="uni0639" unicode="&#x639;" horiz-adv-x="1122" arabic-form="isolated" 
d="M429 117q-26 24 -49 55.5t-40 69t-26.5 79.5t-9.5 85q0 107 40.5 183.5t104.5 125t143 71.5t157 23q58 0 109 -6.5t77 -15.5v-131q-38 10 -78.5 16.5t-101.5 6.5q-73 0 -132 -20t-100.5 -56t-64 -87t-22.5 -113q0 -55 18.5 -105t56 -87.5t94 -59.5t132.5 -22h315v-129
h-457q-47 0 -97.5 -4t-99 -16t-92 -35t-76.5 -60t-52 -91.5t-19 -130.5q0 -92 38 -158.5t102.5 -110t149.5 -64.5t180 -21q75 0 167.5 18.5t202.5 69.5l50 -107q-57 -34 -120 -55.5t-120.5 -33.5t-104 -16.5t-71.5 -4.5q-133 0 -243.5 30t-190.5 90t-124.5 149t-44.5 208
q0 118 32.5 200.5t87.5 136t127.5 82.5t151.5 41z" />
    <glyph glyph-name="uniFECB" unicode="&#x639;" horiz-adv-x="979" arabic-form="initial" 
d="M0 0q-35 0 -53.5 13t-18.5 50q0 22 4.5 35t13.5 20t22.5 9t31.5 2h297q-51 54 -81 127.5t-30 149.5q0 104 40 180t103.5 125.5t143 73.5t158.5 24q63 0 109.5 -6.5t76.5 -15.5v-131q-35 9 -77.5 16t-102.5 7q-74 0 -133 -20t-100.5 -56t-63.5 -87t-22 -113
q0 -60 20.5 -110.5t59.5 -87t95.5 -56.5t127.5 -20h288v-129h-909z" />
    <glyph glyph-name="uniFECC" unicode="&#x639;" horiz-adv-x="1083" arabic-form="medial" 
d="M644 160q37 -17 79.5 -24t93.5 -7h266q35 0 53.5 -12t18.5 -49q0 -22 -4.5 -35t-13.5 -20.5t-22.5 -10t-31.5 -2.5h-323q-30 0 -58.5 3.5t-56.5 13.5t-56.5 27.5t-58.5 45.5q-100 -43 -211 -66.5t-229 -23.5h-90q-35 0 -53.5 13t-18.5 50q0 22 4.5 35t13.5 20t22.5 9
t31.5 2h80q91 0 179 15t173 44l-138 162.5l-140 159.5q6 21 15 43.5t19.5 43t21.5 38t20 29.5q66 66 158.5 105.5t201.5 39.5q89 0 154.5 -21t108 -55.5t63 -78.5t20.5 -89q0 -61 -20.5 -117t-58 -107t-92 -96.5t-121.5 -84.5zM580 680q-46 0 -89 -10.5t-81 -29.5t-71.5 -44
t-60.5 -53l269 -301q54 29 101.5 62.5t83.5 70.5t56.5 77.5t20.5 82.5q0 30 -13.5 56t-41.5 46t-71.5 31.5t-102.5 11.5z" />
    <glyph glyph-name="uniFECA" unicode="&#x639;" horiz-adv-x="1130" arabic-form="final" 
d="M628 680q-46 0 -89 -10.5t-81 -29.5t-71.5 -44t-60.5 -53l269 -301q54 29 101.5 62.5t83.5 70.5t56.5 77.5t20.5 82.5q0 30 -13.5 56t-41.5 46t-71.5 31.5t-102.5 11.5zM482 191l-140 160l-140 159q6 21 15 43.5t19.5 43t21.5 38t20 29.5q66 66 158.5 105.5t201.5 39.5
q89 0 154.5 -21t108 -55.5t63 -78.5t20.5 -89q0 -61 -20.5 -117t-58 -107t-92 -96.5t-121.5 -84.5q38 -19 80 -25t96 -6h264q35 0 53.5 -12t18.5 -49q0 -22 -4.5 -35t-13.5 -20.5t-22.5 -10t-31.5 -2.5h-324q-31 0 -59.5 4t-57.5 15t-59 30t-63 49q-77 -38 -151 -78.5
t-131.5 -91.5t-92.5 -115.5t-35 -149.5q0 -92 38 -158.5t102.5 -110t149.5 -64.5t180 -21q75 0 167.5 18.5t202.5 69.5l50 -107q-57 -34 -120 -55.5t-120.5 -33.5t-104 -16.5t-71.5 -4.5q-133 0 -243.5 30t-190.5 90t-124.5 149t-44.5 208q0 175 115.5 307t336.5 227z" />
    <glyph glyph-name="uni063A" unicode="&#x63a;" horiz-adv-x="1122" arabic-form="isolated" 
d="M429 117q-26 24 -49 55.5t-40 69t-26.5 79.5t-9.5 85q0 107 40.5 183.5t104.5 125t143 71.5t157 23q58 0 109 -6.5t77 -15.5v-131q-38 10 -78.5 16.5t-101.5 6.5q-73 0 -132 -20t-100.5 -56t-64 -87t-22.5 -113q0 -55 18.5 -105t56 -87.5t94 -59.5t132.5 -22h315v-129
h-457q-47 0 -97.5 -4t-99 -16t-92 -35t-76.5 -60t-52 -91.5t-19 -130.5q0 -92 38 -158.5t102.5 -110t149.5 -64.5t180 -21q75 0 167.5 18.5t202.5 69.5l50 -107q-57 -34 -120 -55.5t-120.5 -33.5t-104 -16.5t-71.5 -4.5q-133 0 -243.5 30t-190.5 90t-124.5 149t-44.5 208
q0 118 32.5 200.5t87.5 136t127.5 82.5t151.5 41zM600 1158q0 37 25.5 62.5t62.5 25.5q18 0 35 -7t29.5 -19t20 -28t7.5 -34t-7.5 -34.5t-20 -29t-29.5 -19.5t-35 -7q-37 0 -62.5 26.5t-25.5 63.5z" />
    <glyph glyph-name="uniFECF" unicode="&#x63a;" horiz-adv-x="979" arabic-form="initial" 
d="M0 0q-35 0 -53.5 13t-18.5 50q0 22 4.5 35t13.5 20t22.5 9t31.5 2h297q-51 54 -81 127.5t-30 149.5q0 104 40 180t103.5 125.5t143 73.5t158.5 24q63 0 109.5 -6.5t76.5 -15.5v-131q-35 9 -77.5 16t-102.5 7q-74 0 -133 -20t-100.5 -56t-63.5 -87t-22 -113
q0 -60 20.5 -110.5t59.5 -87t95.5 -56.5t127.5 -20h288v-129h-909zM498 1161q0 37 25.5 62.5t62.5 25.5q18 0 35 -7t29.5 -19t20 -28t7.5 -34t-7.5 -34.5t-20 -29t-29.5 -19.5t-35 -7q-37 0 -62.5 26.5t-25.5 63.5z" />
    <glyph glyph-name="uniFED0" unicode="&#x63a;" horiz-adv-x="1083" arabic-form="medial" 
d="M644 160q37 -17 79.5 -24t93.5 -7h266q35 0 53.5 -12t18.5 -49q0 -22 -4.5 -35t-13.5 -20.5t-22.5 -10t-31.5 -2.5h-323q-30 0 -58.5 3.5t-56.5 13.5t-56.5 27.5t-58.5 45.5q-100 -43 -211 -66.5t-229 -23.5h-90q-35 0 -53.5 13t-18.5 50q0 22 4.5 35t13.5 20t22.5 9
t31.5 2h80q91 0 179 15t173 44l-138 162.5l-140 159.5q6 21 15 43.5t19.5 43t21.5 38t20 29.5q66 66 158.5 105.5t201.5 39.5q89 0 154.5 -21t108 -55.5t63 -78.5t20.5 -89q0 -61 -20.5 -117t-58 -107t-92 -96.5t-121.5 -84.5zM580 680q-46 0 -89 -10.5t-81 -29.5t-71.5 -44
t-60.5 -53l269 -301q54 29 101.5 62.5t83.5 70.5t56.5 77.5t20.5 82.5q0 30 -13.5 56t-41.5 46t-71.5 31.5t-102.5 11.5zM490 1161q0 37 25.5 62.5t62.5 25.5q18 0 35 -7t29.5 -19t20 -28t7.5 -34t-7.5 -34.5t-20 -29t-29.5 -19.5t-35 -7q-37 0 -62.5 26.5t-25.5 63.5z" />
    <glyph glyph-name="uniFECE" unicode="&#x63a;" horiz-adv-x="1130" arabic-form="final" 
d="M628 680q-46 0 -89 -10.5t-81 -29.5t-71.5 -44t-60.5 -53l269 -301q54 29 101.5 62.5t83.5 70.5t56.5 77.5t20.5 82.5q0 30 -13.5 56t-41.5 46t-71.5 31.5t-102.5 11.5zM482 191l-140 160l-140 159q6 21 15 43.5t19.5 43t21.5 38t20 29.5q66 66 158.5 105.5t201.5 39.5
q89 0 154.5 -21t108 -55.5t63 -78.5t20.5 -89q0 -61 -20.5 -117t-58 -107t-92 -96.5t-121.5 -84.5q38 -19 80 -25t96 -6h264q35 0 53.5 -12t18.5 -49q0 -22 -4.5 -35t-13.5 -20.5t-22.5 -10t-31.5 -2.5h-324q-31 0 -59.5 4t-57.5 15t-59 30t-63 49q-77 -38 -151 -78.5
t-131.5 -91.5t-92.5 -115.5t-35 -149.5q0 -92 38 -158.5t102.5 -110t149.5 -64.5t180 -21q75 0 167.5 18.5t202.5 69.5l50 -107q-57 -34 -120 -55.5t-120.5 -33.5t-104 -16.5t-71.5 -4.5q-133 0 -243.5 30t-190.5 90t-124.5 149t-44.5 208q0 175 115.5 307t336.5 227z
M532 1161q0 37 25.5 62.5t62.5 25.5q18 0 35 -7t29.5 -19t20 -28t7.5 -34t-7.5 -34.5t-20 -29t-29.5 -19.5t-35 -7q-37 0 -62.5 26.5t-25.5 63.5z" />
    <glyph glyph-name="uni0641" unicode="&#x641;" horiz-adv-x="2142" arabic-form="isolated" 
d="M1372 398q0 -68 22 -118.5t61 -84t91.5 -50t114.5 -16.5h230v240q0 55 -11 110.5t-39.5 100t-77 72.5t-124.5 28q-62 0 -111.5 -21t-84 -58.5t-53 -89.5t-18.5 -113zM460 0q-94 0 -169.5 13.5t-129 47t-82.5 89.5t-29 141v307h129v-244q0 -74 17 -118.5t59 -68t113.5 -31
t179.5 -7.5h790q-22 22 -39.5 52t-29.5 64t-18.5 70.5t-6.5 73.5q0 82 27 158t78 134.5t124.5 93t166.5 34.5q76 0 134 -18.5t100.5 -50.5t70.5 -75t44.5 -91t23.5 -99.5t7 -99.5v-375h-1560zM1535 1161q0 37 25.5 62.5t62.5 25.5q18 0 35 -7t29.5 -19t20 -28t7.5 -34
t-7.5 -34.5t-20 -29t-29.5 -19.5t-35 -7q-37 0 -62.5 26.5t-25.5 63.5z" />
    <glyph glyph-name="uniFED3" unicode="&#x641;" horiz-adv-x="1089" arabic-form="initial" 
d="M319 398q0 -68 22 -118.5t61 -84t91.5 -50t114.5 -16.5h230v240q0 55 -11 110.5t-39.5 100t-77 72.5t-124.5 28q-62 0 -111.5 -21t-84 -58.5t-53 -89.5t-18.5 -113zM0 0q-35 0 -53.5 13t-18.5 50q0 22 4.5 35t13.5 20t22.5 9t31.5 2h285q-22 22 -39.5 52t-29.5 64
t-18.5 70.5t-6.5 73.5q0 82 27 158t78 134.5t124.5 93t166.5 34.5q76 0 134 -18.5t100.5 -50.5t70.5 -75t44.5 -91t23.5 -99.5t7 -99.5v-375h-967zM502 1161q0 37 25.5 62.5t62.5 25.5q18 0 35 -7t29.5 -19t20 -28t7.5 -34t-7.5 -34.5t-20 -29t-29.5 -19.5t-35 -7
q-37 0 -62.5 26.5t-25.5 63.5z" />
    <glyph glyph-name="uniFED4" unicode="&#x641;" horiz-adv-x="1112" arabic-form="medial" 
d="M0 0q-35 0 -53.5 13t-18.5 50q0 22 4.5 35t13.5 20t22.5 9t31.5 2h285q-24 24 -42 55.5t-29.5 65.5t-17 67t-5.5 62q0 80 25 157t75 138t125 98t176 37q74 0 130.5 -18.5t98 -50.5t69.5 -75t45 -91t24.5 -99.5t7.5 -99.5v-246h145q35 0 53 -12t18 -49q0 -22 -4.5 -35
t-13.5 -20.5t-22 -10t-31 -2.5h-1112zM319 398q0 -68 22 -118.5t61 -84t91.5 -50t114.5 -16.5h230v240q0 55 -11 110.5t-39.5 100t-77 72.5t-124.5 28q-66 0 -115.5 -22.5t-83.5 -61t-51 -90t-17 -108.5zM498 1161q0 37 25.5 62.5t62.5 25.5q18 0 35 -7t29.5 -19t20 -28
t7.5 -34t-7.5 -34.5t-20 -29t-29.5 -19.5t-35 -7q-37 0 -62.5 26.5t-25.5 63.5z" />
    <glyph glyph-name="uniFED2" unicode="&#x641;" horiz-adv-x="2168" arabic-form="final" 
d="M1376 398q0 -68 22 -118.5t61 -84t91.5 -50t114.5 -16.5h230v240q0 55 -11 110.5t-39.5 100t-77 72.5t-124.5 28q-66 0 -115.5 -22.5t-83.5 -61t-51 -90t-17 -108.5zM460 0q-94 0 -169.5 13.5t-129 47t-82.5 89.5t-29 141v307h129v-244q0 -74 17 -118.5t59 -68t113.5 -31
t179.5 -7.5h794q-24 24 -42 55.5t-29.5 65.5t-17 67t-5.5 62q0 80 25 157t75 138t125 98t176 37q74 0 130.5 -18.5t98 -50.5t69.5 -75t45 -91t24.5 -99.5t7.5 -99.5v-246h144q35 0 53 -12t18 -49q0 -22 -4.5 -35t-13.5 -20.5t-22 -10t-31 -2.5h-1708zM1535 1161
q0 37 25.5 62.5t62.5 25.5q18 0 35 -7t29.5 -19t20 -28t7.5 -34t-7.5 -34.5t-20 -29t-29.5 -19.5t-35 -7q-37 0 -62.5 26.5t-25.5 63.5z" />
    <glyph glyph-name="uni0642" unicode="&#x642;" horiz-adv-x="1552" arabic-form="isolated" 
d="M1430 174q0 -151 -47.5 -257t-136 -172.5t-215.5 -97t-287 -30.5q-194 0 -326.5 35.5t-214 102.5t-117.5 164t-36 220v254h129v-232q0 -111 33.5 -189.5t103.5 -128t176 -72.5t252 -23q101 0 200.5 16t179 56t128.5 109t49 175v74q-57 -37 -124 -57.5t-158 -20.5
q-67 0 -133 18.5t-118.5 62t-85 115t-32.5 177.5q0 84 26.5 162.5t77.5 139.5t125.5 97.5t171.5 36.5q107 0 179.5 -42.5t117 -114t63.5 -166t19 -197.5v-215zM775 491q0 -74 21 -124t56.5 -80.5t83 -44t101.5 -13.5q88 0 154.5 27t109.5 62v79q0 80 -13.5 151t-44.5 124
t-80 84t-121 31t-122.5 -27t-83 -70t-47 -95.5t-14.5 -103.5zM821 1263q0 37 26 62.5t64 25.5q37 0 63.5 -25.5t26.5 -62.5t-26.5 -63.5t-63.5 -26.5q-38 0 -64 26.5t-26 63.5zM1099 1263q0 37 26.5 62.5t63.5 25.5t63.5 -25.5t26.5 -62.5t-26.5 -63.5t-63.5 -26.5
t-63.5 26.5t-26.5 63.5z" />
    <glyph glyph-name="uniFED7" unicode="&#x642;" horiz-adv-x="1098" arabic-form="initial" 
d="M396 1161q0 37 26 62.5t64 25.5q37 0 63.5 -25.5t26.5 -62.5t-26.5 -63.5t-63.5 -26.5q-38 0 -64 26.5t-26 63.5zM674 1161q0 37 26.5 62.5t63.5 25.5t63.5 -25.5t26.5 -62.5t-26.5 -63.5t-63.5 -26.5t-63.5 26.5t-26.5 63.5zM344 398q0 -68 22 -118.5t61 -84t91.5 -50
t114.5 -16.5h230v240q0 55 -11 110.5t-39.5 100t-77 72.5t-124.5 28q-62 0 -111.5 -21t-84 -58.5t-53 -89.5t-18.5 -113zM25 0q-35 0 -53.5 13t-18.5 50q0 22 4.5 35t13.5 20t22.5 9t31.5 2h285q-22 22 -39.5 52t-29.5 64t-18.5 70.5t-6.5 73.5q0 82 27 158t78 134.5
t124.5 93t166.5 34.5q76 0 134 -18.5t100.5 -50.5t70.5 -75t44.5 -91t23.5 -99.5t7 -99.5v-375h-967z" />
    <glyph glyph-name="uniFED8" unicode="&#x642;" horiz-adv-x="1112" arabic-form="medial" 
d="M0 0q-35 0 -53.5 13t-18.5 50q0 22 4.5 35t13.5 20t22.5 9t31.5 2h285q-24 24 -42 55.5t-29.5 65.5t-17 67t-5.5 62q0 80 25 157t75 138t125 98t176 37q74 0 130.5 -18.5t98 -50.5t69.5 -75t45 -91t24.5 -99.5t7.5 -99.5v-246h145q35 0 53 -12t18 -49q0 -22 -4.5 -35
t-13.5 -20.5t-22 -10t-31 -2.5h-1112zM319 398q0 -68 22 -118.5t61 -84t91.5 -50t114.5 -16.5h230v240q0 55 -11 110.5t-39.5 100t-77 72.5t-124.5 28q-66 0 -115.5 -22.5t-83.5 -61t-51 -90t-17 -108.5zM369 1161q0 37 26 62.5t64 25.5q37 0 63.5 -25.5t26.5 -62.5
t-26.5 -63.5t-63.5 -26.5q-38 0 -64 26.5t-26 63.5zM647 1161q0 37 26.5 62.5t63.5 25.5t63.5 -25.5t26.5 -62.5t-26.5 -63.5t-63.5 -26.5t-63.5 26.5t-26.5 63.5z" />
    <glyph glyph-name="uniFED6" unicode="&#x642;" horiz-adv-x="1573" arabic-form="final" 
d="M1029 0q-81 0 -151 21.5t-121 67t-80 116t-29 168.5q0 84 26.5 162.5t77 139.5t124 97.5t167.5 36.5q104 0 177.5 -38t119.5 -106.5t67 -164.5t21 -211v-160h145q35 0 53 -12t18 -49q0 -22 -4.5 -35t-13.5 -20.5t-22 -10t-31 -2.5h-147q-12 -130 -64 -221.5
t-139.5 -149.5t-208 -85t-270.5 -27q-194 0 -326.5 35.5t-214 102.5t-117.5 164t-36 220v254h129v-232q0 -114 34 -193t104 -128t176.5 -70.5t250.5 -21.5q108 0 208 17.5t177 58t123.5 108t46.5 168.5h-270zM773 391q0 -130 68.5 -196t199.5 -66h258v178q0 79 -14 148.5
t-46 121t-83.5 81t-125.5 29.5q-65 0 -113 -26.5t-80 -68.5t-48 -95t-16 -106zM818 1161q0 37 26 62.5t64 25.5q37 0 63.5 -25.5t26.5 -62.5t-26.5 -63.5t-63.5 -26.5q-38 0 -64 26.5t-26 63.5zM1096 1161q0 37 26.5 62.5t63.5 25.5t63.5 -25.5t26.5 -62.5t-26.5 -63.5
t-63.5 -26.5t-63.5 26.5t-26.5 63.5z" />
    <glyph glyph-name="uni0643" unicode="&#x643;" horiz-adv-x="1900" arabic-form="isolated" 
d="M1760 0h-1300q-94 0 -169.5 13.5t-129 47t-82.5 89.5t-29 141v307h129v-244q0 -74 17 -118.5t59 -68t113.5 -31t179.5 -7.5h1083v1333h129v-1462zM1115 621h-350v75h98q-49 55 -49 123q0 43 14.5 76.5t39.5 56t57.5 34t68.5 11.5q23 0 44.5 -1.5t35.5 -6.5v-82
q-23 6 -39 8.5t-33 2.5q-34 0 -56 -9t-35.5 -23.5t-19 -31.5t-5.5 -33q0 -26 10 -48.5t28.5 -39.5t46.5 -27t64 -10h80v-75z" />
    <glyph glyph-name="uniFEDB" unicode="&#x643;" horiz-adv-x="941" arabic-form="initial" 
d="M0 0q-35 0 -53.5 13t-18.5 50q0 22 4.5 35t13.5 20t22.5 9t31.5 2h504q45 0 82.5 7.5t64.5 26.5t41.5 50t14.5 78q0 64 -38.5 133t-111.5 136t-177.5 129.5t-236.5 115.5v152l665 432v-145l-539 -350q172 -77 281 -159t171.5 -161.5t86 -152.5t23.5 -132q0 -42 -10 -92
t-44.5 -94t-100 -73.5t-176.5 -29.5h-500z" />
    <glyph glyph-name="uniFEDC" unicode="&#x643;" horiz-adv-x="1079" arabic-form="medial" 
d="M0 0q-35 0 -53.5 13t-18.5 50q0 22 4.5 35t13.5 20t22.5 9t31.5 2h518q93 0 141 40t48 122q0 62 -37 130t-108.5 135t-176.5 131t-242 118v152l665 432v-145l-539 -350q228 -105 368.5 -232.5t187.5 -290.5q34 -118 91.5 -180t130.5 -62h32q35 0 53.5 -12t18.5 -49
q0 -22 -4.5 -35t-13.5 -20.5t-22.5 -10t-31.5 -2.5h-32q-50 0 -87.5 13t-65.5 35t-48.5 51.5t-35.5 62.5q-21 -51 -55 -83t-76.5 -49.5t-90.5 -23.5t-96 -6h-492z" />
    <glyph glyph-name="uniFEDA" unicode="&#x643;" horiz-adv-x="1864" arabic-form="final" 
d="M1330 129q43 0 83 3t70.5 19.5t49 50t18.5 95.5v1165h129v-1071q0 -59 9.5 -107.5t31 -83t56.5 -53t87 -18.5q35 0 53 -12t18 -49q0 -22 -4.5 -35t-13.5 -20.5t-22 -10t-31 -2.5q-74 0 -130 26.5t-85 94.5q-24 -37 -52.5 -60.5t-64.5 -37t-81 -18.5t-103 -5h-888
q-94 0 -169.5 13.5t-129 47t-82.5 89.5t-29 141v307h129v-244q0 -74 17 -118.5t59 -68t113.5 -31t179.5 -7.5h782zM1115 621h-350v75h98q-49 55 -49 123q0 43 14.5 76.5t39.5 56t57.5 34t68.5 11.5q23 0 44.5 -1.5t35.5 -6.5v-82q-23 6 -39 8.5t-33 2.5q-34 0 -56 -9
t-35.5 -23.5t-19 -31.5t-5.5 -33q0 -26 10 -48.5t28.5 -39.5t46.5 -27t64 -10h80v-75z" />
    <glyph glyph-name="uni0644" unicode="&#x644;" horiz-adv-x="1323" arabic-form="isolated" 
d="M1183 0q0 -134 -34.5 -226.5t-104.5 -149.5t-177 -82t-252 -25q-278 0 -421.5 114t-143.5 354v307h129v-273q0 -103 28 -174t83.5 -115.5t137.5 -64t191 -19.5q114 0 196.5 17t135.5 58t78 109.5t25 172.5v1459h129v-1462z" />
    <glyph glyph-name="uniFEDF" unicode="&#x644;" horiz-adv-x="565" arabic-form="initial" 
d="M0 0q-35 0 -53.5 13t-18.5 50q0 22 4.5 35t13.5 20t22.5 9t31.5 2h296v1333h129v-1462h-425z" />
    <glyph glyph-name="uniFEE0" unicode="&#x644;" horiz-adv-x="625" arabic-form="medial" 
d="M0 0q-35 0 -53.5 13t-18.5 50q0 22 4.5 35t13.5 20t22.5 9t31.5 2h91q43 0 83 3t70.5 18.5t49 49t18.5 95.5v1167h129v-1073q0 -61 9 -109t30.5 -81.5t57 -51.5t87.5 -18q35 0 53 -12t18 -49q0 -22 -4.5 -35t-13.5 -20.5t-22 -10t-31 -2.5q-36 0 -68.5 6t-60 20.5
t-49 37.5t-36.5 57q-25 -37 -53.5 -60.5t-64.5 -37t-81 -18.5t-102 -5h-110z" />
    <glyph glyph-name="uniFEDE" unicode="&#x644;" horiz-adv-x="1357" arabic-form="final" 
d="M1183 0q0 -134 -34.5 -226.5t-104.5 -149.5t-177 -82t-252 -25q-278 0 -421.5 114t-143.5 354v307h129v-273q0 -103 28 -174t83.5 -115.5t137.5 -64t191 -19.5q114 0 196.5 17t135.5 58t78 109.5t25 172.5v1459h129v-1333h174q35 0 53.5 -12t18.5 -49q0 -22 -4.5 -35
t-13.5 -20.5t-22.5 -10t-31.5 -2.5h-174z" />
    <glyph glyph-name="uni0645" unicode="&#x645;" horiz-adv-x="1241" arabic-form="isolated" 
d="M327 259q14 98 42.5 172.5t66.5 129.5t82.5 92t90 59.5t89 32t79.5 9.5q75 0 140 -29.5t112.5 -83t74.5 -128t27 -163.5q0 -83 -21 -151.5t-63 -117t-106 -75.5t-150 -27q-93 0 -195.5 31t-213.5 113q-68 -15 -107.5 -39t-59.5 -64.5t-25 -100.5t-5 -146v-593h-135v597
q0 103 10 179t39.5 132.5t84 97.5t143.5 73zM998 356q0 52 -15 101t-44.5 86t-72.5 59.5t-99 22.5q-50 0 -99 -20.5t-91.5 -67t-75.5 -121.5t-52 -185q73 -55 157 -90t171 -35q51 0 92 13.5t69.5 43.5t44 77.5t15.5 115.5z" />
    <glyph glyph-name="uniFEE3" unicode="&#x645;" horiz-adv-x="1200" arabic-form="initial" 
d="M0 0q-35 0 -53.5 13t-18.5 50q0 22 4.5 35t13.5 20t22.5 9t31.5 2h78q30 0 60.5 10.5t59.5 36t56 69.5t51 112q44 124 97.5 201.5t110.5 121t114.5 59t109.5 15.5q75 0 140 -29.5t112 -83t74 -128t27 -163.5q0 -78 -21.5 -146t-64.5 -118t-107.5 -79t-149.5 -29
q-97 0 -196.5 30.5t-210.5 108.5q-27 -39 -57 -62.5t-63 -35.5t-67.5 -15.5t-70.5 -3.5h-82zM961 356q0 52 -15.5 101t-45.5 86t-73.5 59.5t-99.5 22.5q-47 0 -91 -20.5t-85 -67t-80 -121.5t-76 -183q87 -60 171.5 -93.5t170.5 -33.5q51 0 92.5 13.5t71 43.5t45 77.5
t15.5 115.5z" />
    <glyph glyph-name="uniFEE4" unicode="&#x645;" horiz-adv-x="1160" arabic-form="medial" 
d="M1155 0q-38 0 -67.5 9.5t-52.5 27t-40.5 41t-31.5 51.5q-42 -74 -111.5 -112.5t-164.5 -38.5q-97 0 -202 30.5t-211 109.5q-27 -39 -57.5 -62.5t-63 -36t-67.5 -16t-71 -3.5h-15q-35 0 -53.5 13t-18.5 50q0 22 4.5 35t13.5 20t22.5 9t31.5 2h11q27 0 56.5 9t58.5 34
t57 67.5t52 110.5q45 126 99 205t111 123.5t115 60t110 15.5q75 0 140 -29.5t112 -83t74 -128t27 -163.5q0 -26 -3 -53.5t-8 -56.5q27 -58 63.5 -84.5t77.5 -26.5h7q35 0 53.5 -12t18.5 -49q0 -22 -4.5 -35t-13.5 -20.5t-22.5 -10t-31.5 -2.5h-5zM894 356q0 52 -15.5 101
t-45.5 86t-73.5 59.5t-99.5 22.5q-47 0 -91 -20.5t-85 -67t-80 -121.5t-76 -183q87 -60 171.5 -93.5t170.5 -33.5q51 0 92.5 13.5t71 43.5t45 77.5t15.5 115.5z" />
    <glyph glyph-name="uniFEE2" unicode="&#x645;" horiz-adv-x="1265" arabic-form="final" 
d="M1068 127q-38 -77 -105 -112.5t-172 -35.5q-46 0 -98 8t-105 25.5t-105.5 44.5t-100.5 66q-68 -15 -107.5 -39t-59.5 -64.5t-25 -100.5t-5 -146v-593h-135v597q0 103 9.5 178.5t39 132t84 97.5t144.5 74q14 98 42.5 172.5t66 129.5t82 92t90 59.5t89 32t80.5 9.5
q76 0 140.5 -29.5t111 -83t72.5 -128t26 -163.5q0 -31 -2.5 -58.5t-7.5 -53.5q27 -58 63.5 -83.5t77.5 -25.5h7q35 0 53.5 -12t18.5 -49q0 -22 -4.5 -35t-13.5 -20.5t-22.5 -10t-31.5 -2.5h-5q-38 0 -67.5 9.5t-52.5 26t-40.5 40t-31.5 51.5zM998 356q0 52 -15 101t-44.5 86
t-72.5 59.5t-99 22.5q-51 0 -100.5 -20.5t-91.5 -67t-75 -122t-51 -184.5q82 -60 161.5 -92.5t166.5 -32.5q51 0 92 13.5t69.5 43.5t44 77.5t15.5 115.5z" />
    <glyph glyph-name="uni0646" unicode="&#x646;" horiz-adv-x="1323" arabic-form="isolated" 
d="M1183 778v-530q0 -134 -34.5 -226.5t-104.5 -150t-177 -83t-252 -25.5q-278 0 -421.5 114.5t-143.5 354.5v307h129v-273q0 -103 28 -174.5t83.5 -115.5t137.5 -64t191 -20q114 0 196.5 17t135.5 58t78 110t25 173v528h129zM527 892q0 37 25.5 62.5t62.5 25.5q18 0 35 -7
t29.5 -19t20 -28t7.5 -34t-7.5 -34.5t-20 -29t-29.5 -19.5t-35 -7q-37 0 -62.5 26.5t-25.5 63.5z" />
    <glyph glyph-name="uniFEE7" unicode="&#x646;" horiz-adv-x="625" arabic-form="initial" 
d="M311 1161q0 37 25.5 62.5t62.5 25.5q18 0 35 -7t29.5 -19t20 -28t7.5 -34t-7.5 -34.5t-20 -29t-29.5 -19.5t-35 -7q-37 0 -62.5 26.5t-25.5 63.5zM-5 0q-35 0 -53.5 13t-18.5 50q0 22 4.5 35t13.5 20t22.5 9t31.5 2h352v649h129v-778h-481z" />
    <glyph glyph-name="uniFEE8" unicode="&#x646;" horiz-adv-x="669" arabic-form="medial" 
d="M0 0q-35 0 -53.5 13t-18.5 50q0 22 4.5 35t13.5 20t22.5 9t31.5 2h135q43 0 83 3t70.5 18.5t49 49t18.5 95.5v483h129v-389q0 -61 9.5 -109t31 -81.5t56.5 -51.5t87 -18q35 0 53 -12t18 -49q0 -22 -4.5 -35t-13.5 -20.5t-22 -10t-31 -2.5q-36 0 -68.5 6t-60 20.5
t-49 37.5t-36.5 57q-25 -37 -53.5 -60.5t-64.5 -37t-81 -18.5t-102 -5h-154zM334 1161q0 37 25.5 62.5t62.5 25.5q18 0 35 -7t29.5 -19t20 -28t7.5 -34t-7.5 -34.5t-20 -29t-29.5 -19.5t-35 -7q-37 0 -62.5 26.5t-25.5 63.5z" />
    <glyph glyph-name="uniFEE6" unicode="&#x646;" horiz-adv-x="1369" arabic-form="final" 
d="M1183 2q0 -134 -34.5 -226.5t-104.5 -150t-177 -83t-252 -25.5q-278 0 -421.5 114.5t-143.5 354.5v307h129v-273q0 -103 28 -174.5t83.5 -115.5t137.5 -64t191 -20q114 0 196.5 17t135.5 58t78 110t25 173v656h129v-269q0 -61 8 -109t29 -81.5t57 -51.5t92 -18
q35 0 53.5 -13t18.5 -50q0 -22 -4.5 -35t-13.5 -20.5t-22.5 -10t-31.5 -2.5q-72 0 -117.5 23t-68.5 69v-90zM542 759q0 37 25.5 62.5t62.5 25.5q18 0 35 -7t29.5 -19t20 -28t7.5 -34t-7.5 -34.5t-20 -29t-29.5 -19.5t-35 -7q-37 0 -62.5 26.5t-25.5 63.5z" />
    <glyph glyph-name="uniFEE9" unicode="&#x647;" horiz-adv-x="1377" arabic-form="isolated" 
d="M382 129q-32 51 -49.5 118t-17.5 130q0 51 12 104t36 100t59 84.5t81 55.5q-37 5 -75 6.5t-76 3.5v105q222 -12 392.5 -48.5t286.5 -115t176 -208.5t60 -331v-133h-1016q-45 0 -71.5 -10t-40.5 -28t-18.5 -42.5t-4.5 -52.5h-63q-14 38 -18.5 73t-4.5 60q0 41 18 66t45 39
t58.5 19t58.5 5h172zM614 129q52 0 86 25t53.5 62.5t27 81t7.5 81.5q0 53 -10 101t-31.5 85t-56 58.5t-82.5 21.5q-45 0 -80 -19.5t-58 -55t-35 -85t-12 -110.5q0 -43 9 -87t31 -79t58.5 -57.5t92.5 -22.5zM894 387q0 -30 -4 -64t-12 -68t-19 -66.5t-26 -59.5h303
q0 120 -23.5 209t-67.5 153.5t-107.5 107t-143.5 69.5q28 -27 47.5 -60.5t31 -70.5t16.5 -75t5 -75z" />
    <glyph glyph-name="uniFEEB" unicode="&#x647;" horiz-adv-x="1275" arabic-form="initial" 
d="M0 0q-35 0 -53.5 13t-18.5 50q0 22 4.5 35t13.5 20t22.5 9t31.5 2h278q-32 51 -50 118t-18 130q0 51 10 101.5t31.5 95.5t55.5 81.5t83 59.5q-18 2 -34 4t-32 3t-33.5 1.5t-38.5 0.5v112q219 -2 389 -37.5t286.5 -117.5t177 -215.5t60.5 -332.5v-133h-1165zM324 375
q0 -42 7.5 -86t28 -79.5t57 -58t94.5 -22.5q49 0 83 25.5t55 63.5t30 81.5t9 79.5q0 53 -11 101t-33.5 85t-56.5 58.5t-79 21.5q-42 0 -76 -19.5t-58 -55t-37 -85t-13 -110.5zM803 387q0 -30 -4 -64t-12 -68t-19.5 -66.5t-26.5 -59.5h295q0 120 -22 209t-65.5 153.5
t-107.5 107t-147 69.5q28 -27 49 -60.5t34 -70.5t19.5 -75t6.5 -75z" />
    <glyph glyph-name="uniFEEC" unicode="&#x647;" horiz-adv-x="1069" arabic-form="medial" 
d="M825 0q28 -27 46.5 -56.5t29 -58.5t14.5 -55.5t4 -45.5q0 -56 -21 -106.5t-61.5 -88.5t-100 -60t-136.5 -22q-96 0 -166 23.5t-115.5 73.5t-67.5 129.5t-22 190.5v76h-229q-35 0 -53.5 13t-18.5 50q0 22 4.5 35t13.5 20t22.5 9t31.5 2h229v164q0 120 25.5 216t74.5 162.5
t119 102t160 35.5q85 0 145 -30.5t97.5 -77.5t54.5 -104t17 -110q0 -117 -41.5 -207.5t-115.5 -150.5h304q35 0 53.5 -12t18.5 -49q0 -22 -4.5 -35t-13.5 -20.5t-22.5 -10t-31.5 -2.5h-244zM358 129h119q89 0 150 34t98.5 84t53.5 107t16 103q0 58 -15.5 100t-41.5 69.5
t-61.5 40.5t-74.5 13q-122 0 -183 -98t-61 -285v-168zM358 0v-80q0 -68 9.5 -123t35.5 -93t72 -58.5t119 -20.5q103 0 153 48.5t50 133.5q0 22 -11 55t-39.5 63.5t-78 52.5t-125.5 22h-185z" />
    <glyph glyph-name="uniFEEA" unicode="&#x647;" horiz-adv-x="925" arabic-form="final" 
d="M159 535q0 -112 67.5 -173t198.5 -61q47 0 96 10t91 27v448h-166q-61 0 -113.5 -15t-91 -45.5t-60.5 -78t-22 -112.5zM401 168q-36 0 -77.5 5.5t-82.5 20.5t-79 40t-67.5 64.5t-47 94t-17.5 127.5q0 110 36 185.5t95.5 122t136 67t156.5 20.5h287v-587q0 -43 5.5 -79.5
t21.5 -63t45 -41.5t75 -15h37q42 0 57 -11.5t15 -49.5t-14 -53t-58 -15h-59q-53 0 -97 14t-77 40t-52.5 64.5t-21.5 86.5q-45 -17 -101.5 -27t-115.5 -10z" />
    <glyph glyph-name="uni0648" unicode="&#x648;" horiz-adv-x="1023" arabic-form="isolated" 
d="M489 0q-67 0 -133 18.5t-118.5 62t-85 115t-32.5 177.5q0 84 26.5 162.5t77.5 139.5t125.5 97.5t171.5 36.5q107 0 179.5 -42.5t117 -114t63.5 -166t19 -197.5v-236q0 -147 -40 -249t-113.5 -165.5t-177.5 -92.5t-232 -29h-96v132h83q92 0 173.5 17t142 57.5t96 107.5
t35.5 167v80q-57 -37 -124 -57.5t-158 -20.5zM245 391q0 -74 21 -124t56.5 -80.5t83 -44t101.5 -13.5q88 0 154.5 27t109.5 62v79q0 80 -13.5 151t-44.5 124t-80 84t-121 31t-122.5 -27t-83 -70t-47 -95.5t-14.5 -103.5z" />
    <glyph glyph-name="uniFEEE" unicode="&#x648;" horiz-adv-x="1046" arabic-form="final" 
d="M898 0q-8 -134 -51 -226t-116 -149t-172.5 -82.5t-220.5 -25.5h-97v132h87q90 0 170.5 17t141 57.5t96 108t35.5 168.5h-270q-81 0 -151 21.5t-121 67t-80 116t-29 168.5q0 84 26.5 162.5t77 139.5t124 97.5t167.5 36.5q104 0 177.5 -38t119.5 -106.5t67 -164.5t21 -211
v-160h146q35 0 53 -12t18 -49q0 -22 -4.5 -35t-13.5 -20.5t-22 -10t-31 -2.5h-148zM245 391q0 -130 68.5 -196t199.5 -66h258v178q0 79 -14 148.5t-46 121t-83.5 81t-125.5 29.5q-65 0 -113 -26.5t-80 -68.5t-48 -95t-16 -106z" />
    <glyph glyph-name="uni0649" unicode="&#x649;" horiz-adv-x="1589" arabic-form="isolated" 
d="M179 56q0 -89 27.5 -163t93 -127.5t174 -83.5t270.5 -30q115 0 221 13t187 40.5t129.5 71.5t48.5 107q0 22 -8.5 41t-28 38t-52.5 39.5t-81 44.5q-59 29 -110.5 62t-90.5 73.5t-61.5 90.5t-22.5 114q0 77 28 152.5t84 135.5t140 97t197 37q62 0 107 -10t68 -18v-136
q-23 5 -47.5 9.5t-48.5 7.5t-45.5 4.5t-37.5 1.5q-78 0 -136.5 -21.5t-97.5 -56.5t-58.5 -81t-19.5 -94q0 -46 17 -80.5t47 -63t69.5 -52.5l84.5 -49l103 -60.5t76 -55.5t46.5 -59t15.5 -70q0 -90 -39.5 -165t-126 -129t-224 -84t-333.5 -30q-195 0 -328 38t-214 104.5
t-116.5 158t-35.5 199.5v297h129v-258z" />
    <glyph glyph-name="uniFBE8" unicode="&#x649;" horiz-adv-x="621" arabic-form="initial" 
d="M0 0q-35 0 -53.5 13t-18.5 50q0 22 4.5 35t13.5 20t22.5 9t31.5 2h352v649h129v-778h-481z" />
    <glyph glyph-name="uniFBE9" unicode="&#x649;" horiz-adv-x="669" arabic-form="medial" 
d="M0 0q-35 0 -53.5 13t-18.5 50q0 22 4.5 35t13.5 20t22.5 9t31.5 2h135q43 0 83 3t70.5 18.5t49 49t18.5 95.5v483h129v-389q0 -61 9.5 -109t31 -81.5t56.5 -51.5t87 -18q35 0 53 -12t18 -49q0 -22 -4.5 -35t-13.5 -20.5t-22 -10t-31 -2.5q-36 0 -68.5 6t-60 20.5
t-49 37.5t-36.5 57q-25 -37 -53.5 -60.5t-64.5 -37t-81 -18.5t-102 -5h-154z" />
    <glyph glyph-name="uniFEF0" unicode="&#x649;" horiz-adv-x="1500" arabic-form="final" 
d="M1344 0q51 -48 70.5 -97t19.5 -87q0 -61 -36 -115t-117 -95t-211 -65t-318 -24q-208 0 -344 37.5t-215.5 103.5t-111 155.5t-31.5 193.5v307h129v-277q0 -101 32.5 -175t102.5 -122t179.5 -71t263.5 -23q114 0 216.5 9t179.5 31t122 57.5t45 88.5q0 31 -18.5 58
t-49.5 50.5t-72.5 44t-87 38t-93 32t-91.5 25.5l-61 16v129q136 -38 258.5 -67t228.5 -29h164q35 0 53.5 -12t18.5 -49q0 -22 -4.5 -35t-13.5 -20.5t-22.5 -10t-31.5 -2.5h-154z" />
    <glyph glyph-name="uni064A" unicode="&#x64a;" horiz-adv-x="1589" arabic-form="isolated" 
d="M179 210q0 -89 27.5 -163t93 -127.5t174 -83.5t270.5 -30q115 0 221 13t187 40.5t129.5 71.5t48.5 107q0 22 -8.5 41t-28 38t-52.5 39.5t-81 44.5q-59 29 -110.5 62t-90.5 73.5t-61.5 90.5t-22.5 114q0 77 28 152.5t84 135.5t140 97t197 37q62 0 107 -10t68 -18v-136
q-23 5 -47.5 9.5t-48.5 7.5t-45.5 4.5t-37.5 1.5q-78 0 -136.5 -21.5t-97.5 -56.5t-58.5 -81t-19.5 -94q0 -46 17 -80.5t47 -63t69.5 -52.5l84.5 -49l103 -60.5t76 -55.5t46.5 -59t15.5 -70q0 -90 -39.5 -165t-126 -129t-224 -84t-333.5 -30q-195 0 -328 38t-214 104.5
t-116.5 158t-35.5 199.5v297h129v-258zM528 -611q0 37 26 63.5t64 26.5q37 0 63.5 -26.5t26.5 -63.5q0 -38 -26.5 -64.5t-63.5 -26.5q-38 0 -64 26.5t-26 64.5zM806 -611q0 37 26.5 63.5t63.5 26.5t63.5 -26.5t26.5 -63.5q0 -38 -26.5 -64.5t-63.5 -26.5t-63.5 26.5
t-26.5 64.5z" />
    <glyph glyph-name="uniFEF3" unicode="&#x64a;" horiz-adv-x="621" arabic-form="initial" 
d="M0 0q-35 0 -53.5 13t-18.5 50q0 22 4.5 35t13.5 20t22.5 9t31.5 2h352v649h129v-778h-481zM104 -276q0 37 26 63.5t64 26.5q37 0 63.5 -26.5t26.5 -63.5q0 -38 -26.5 -64.5t-63.5 -26.5q-38 0 -64 26.5t-26 64.5zM382 -276q0 37 26.5 63.5t63.5 26.5t63.5 -26.5
t26.5 -63.5q0 -38 -26.5 -64.5t-63.5 -26.5t-63.5 26.5t-26.5 64.5z" />
    <glyph glyph-name="uniFEF4" unicode="&#x64a;" horiz-adv-x="669" arabic-form="medial" 
d="M0 0q-35 0 -53.5 13t-18.5 50q0 22 4.5 35t13.5 20t22.5 9t31.5 2h135q43 0 83 3t70.5 18.5t49 49t18.5 95.5v483h129v-389q0 -61 9.5 -109t31 -81.5t56.5 -51.5t87 -18q35 0 53 -12t18 -49q0 -22 -4.5 -35t-13.5 -20.5t-22 -10t-31 -2.5q-36 0 -68.5 6t-60 20.5
t-49 37.5t-36.5 57q-25 -37 -53.5 -60.5t-64.5 -37t-81 -18.5t-102 -5h-154zM185 -276q0 37 26 63.5t64 26.5q37 0 63.5 -26.5t26.5 -63.5q0 -38 -26.5 -64.5t-63.5 -26.5q-38 0 -64 26.5t-26 64.5zM463 -276q0 37 26.5 63.5t63.5 26.5t63.5 -26.5t26.5 -63.5
q0 -38 -26.5 -64.5t-63.5 -26.5t-63.5 26.5t-26.5 64.5z" />
    <glyph glyph-name="uniFEF2" unicode="&#x64a;" horiz-adv-x="1500" arabic-form="final" 
d="M1344 0q51 -48 70.5 -97t19.5 -87q0 -61 -36 -115t-117 -95t-211 -65t-318 -24q-208 0 -344 37.5t-215.5 103.5t-111 155.5t-31.5 193.5v307h129v-277q0 -101 32.5 -175t102.5 -122t179.5 -71t263.5 -23q114 0 216.5 9t179.5 31t122 57.5t45 88.5q0 31 -18.5 58
t-49.5 50.5t-72.5 44t-87 38t-93 32t-91.5 25.5l-61 16v129q136 -38 258.5 -67t228.5 -29h164q35 0 53.5 -12t18.5 -49q0 -22 -4.5 -35t-13.5 -20.5t-22.5 -10t-31.5 -2.5h-154zM532 -764q0 37 26 63.5t64 26.5q37 0 63.5 -26.5t26.5 -63.5q0 -38 -26.5 -64.5t-63.5 -26.5
q-38 0 -64 26.5t-26 64.5zM810 -764q0 37 26.5 63.5t63.5 26.5t63.5 -26.5t26.5 -63.5q0 -38 -26.5 -64.5t-63.5 -26.5t-63.5 26.5t-26.5 64.5z" />
    <glyph glyph-name="uni0671" unicode="&#x671;" horiz-adv-x="409" arabic-form="isolated" 
d="M269 1462v-1462h-129v1462h129zM339 1667v31q0 18 -3 34t-12 28.5t-24 20t-39 7.5q-21 0 -41.5 -10t-38.5 -26.5t-33.5 -38.5t-25.5 -46h217zM120 1763q66 88 152 88q60 0 92 -36.5t32 -104.5v-106h-411v63h74v164h61v-68z" />
    <glyph glyph-name="uniFB51" unicode="&#x671;" horiz-adv-x="464" arabic-form="final" 
d="M536 68q0 -22 -4.5 -35t-13.5 -20.5t-22.5 -10t-31.5 -2.5h-41q-64 0 -116 13.5t-89 45t-57.5 84t-20.5 129.5v1190h129v-1143q0 -51 7 -87.5t27 -59t54.5 -33t90.5 -10.5h16q35 0 53.5 -12t18.5 -49zM366 1667v31q0 18 -3 34t-12 28.5t-24 20t-39 7.5q-21 0 -41.5 -10
t-38.5 -26.5t-33.5 -38.5t-25.5 -46h217zM147 1763q66 88 152 88q60 0 92 -36.5t32 -104.5v-106h-411v63h74v164h61v-68z" />
    <glyph glyph-name="uni0679" unicode="&#x679;" horiz-adv-x="1873" arabic-form="isolated" 
d="M1036 915v46q0 24 -4.5 45t-16.5 36.5t-31.5 25t-49.5 9.5q-29 0 -57.5 -13t-53 -35t-44 -51.5t-31.5 -62.5h288zM745 1032q91 121 201 121q74 0 116 -45.5t42 -132.5v-133h-526v73h98v431h69v-314zM460 0q-94 0 -169.5 13.5t-129 47t-82.5 89.5t-29 141v307h129v-244
q0 -74 17 -118.5t59 -68t113.5 -31t179.5 -7.5h1056v649h129v-778h-1273z" />
    <glyph glyph-name="uniFB68" unicode="&#x679;" horiz-adv-x="621" arabic-form="initial" 
d="M502 1038v45q0 24 -5 45.5t-16.5 37t-31.5 25t-50 9.5q-29 0 -57 -13t-52.5 -35t-44.5 -51.5t-32 -62.5h289zM211 1155q89 121 201 121q74 0 115.5 -46t41.5 -132v-133h-526v73h98v430h70v-313zM0 0q-35 0 -53.5 13t-18.5 50q0 22 4.5 35t13.5 20t22.5 9t31.5 2h352v649
h129v-778h-481z" />
    <glyph glyph-name="uniFB69" unicode="&#x679;" horiz-adv-x="669" arabic-form="medial" 
d="M543 1038v45q0 24 -5 45.5t-16.5 37t-31.5 25t-50 9.5q-29 0 -57 -13t-52.5 -35t-44.5 -51.5t-32 -62.5h289zM252 1155q89 121 201 121q74 0 115.5 -46t41.5 -132v-133h-526v73h98v430h70v-313zM0 0q-35 0 -53.5 13t-18.5 50q0 22 4.5 35t13.5 20t22.5 9t31.5 2h135
q43 0 83 3t70.5 18.5t49 49t18.5 95.5v483h129v-389q0 -61 9.5 -109t31 -81.5t56.5 -51.5t87 -18q35 0 53 -12t18 -49q0 -22 -4.5 -35t-13.5 -20.5t-22 -10t-31 -2.5q-36 0 -68.5 6t-60 20.5t-49 37.5t-36.5 57q-25 -37 -53.5 -60.5t-64.5 -37t-81 -18.5t-102 -5h-154z" />
    <glyph glyph-name="uniFB67" unicode="&#x679;" horiz-adv-x="1864" arabic-form="final" 
d="M1040 915v46q0 24 -4.5 45t-16.5 36.5t-31.5 25t-49.5 9.5q-29 0 -57.5 -13t-53 -35t-44 -51.5t-31.5 -62.5h288zM750 1032q89 121 200 121q75 0 116.5 -45.5t41.5 -132.5v-133h-526v73h98v431h70v-314zM460 0q-94 0 -169.5 13.5t-129 47t-82.5 89.5t-29 141v307h129
v-244q0 -74 17 -118.5t59 -68t113.5 -31t179.5 -7.5h784q43 0 83 3t70.5 18.5t49 49t18.5 95.5v483h127v-387q0 -59 9 -107t31 -82t58.5 -52.5t92.5 -18.5q35 0 53 -13t18 -50q0 -22 -4.5 -35t-13.5 -20.5t-22 -10t-31 -2.5q-37 0 -71 6t-62.5 20.5t-51 37.5t-37.5 57
q-24 -37 -52.5 -60.5t-64 -37t-80 -18.5t-102.5 -5h-890z" />
    <glyph glyph-name="uni067E" unicode="&#x67e;" horiz-adv-x="1873" arabic-form="isolated" 
d="M460 0q-94 0 -169.5 13.5t-129 47t-82.5 89.5t-29 141v307h129v-244q0 -74 17 -118.5t59 -68t113.5 -31t179.5 -7.5h1056v649h129v-778h-1273zM1112 -276q0 -19 -7 -35t-19.5 -28t-29.5 -19t-36 -7q-37 0 -63.5 25.5t-26.5 63.5q0 37 26.5 63.5t63.5 26.5q19 0 36 -7
t29.5 -19.5t19.5 -29t7 -34.5zM832 -276q0 -38 -26.5 -63.5t-63.5 -25.5t-62.5 25.5t-25.5 63.5q0 37 25.5 63.5t62.5 26.5t63.5 -26.5t26.5 -63.5zM967 -535q0 -37 -26.5 -62.5t-63.5 -25.5t-63.5 25.5t-26.5 62.5q0 38 26.5 64.5t63.5 26.5t63.5 -26.5t26.5 -64.5z" />
    <glyph glyph-name="uniFB58" unicode="&#x67e;" horiz-adv-x="621" arabic-form="initial" 
d="M0 0q-35 0 -53.5 13t-18.5 50q0 22 4.5 35t13.5 20t22.5 9t31.5 2h352v649h129v-778h-481zM485 -276q0 -19 -7 -35t-19.5 -28t-29.5 -19t-36 -7q-37 0 -63.5 25.5t-26.5 63.5q0 37 26.5 63.5t63.5 26.5q19 0 36 -7t29.5 -19.5t19.5 -29t7 -34.5zM205 -276
q0 -38 -26.5 -63.5t-63.5 -25.5t-62.5 25.5t-25.5 63.5q0 37 25.5 63.5t62.5 26.5t63.5 -26.5t26.5 -63.5zM340 -535q0 -37 -26.5 -62.5t-63.5 -25.5t-63.5 25.5t-26.5 62.5q0 38 26.5 64.5t63.5 26.5t63.5 -26.5t26.5 -64.5z" />
    <glyph glyph-name="uniFB59" unicode="&#x67e;" horiz-adv-x="669" arabic-form="medial" 
d="M0 0q-35 0 -53.5 13t-18.5 50q0 22 4.5 35t13.5 20t22.5 9t31.5 2h135q43 0 83 3t70.5 18.5t49 49t18.5 95.5v483h129v-389q0 -61 9.5 -109t31 -81.5t56.5 -51.5t87 -18q35 0 53 -12t18 -49q0 -22 -4.5 -35t-13.5 -20.5t-22 -10t-31 -2.5q-36 0 -68.5 6t-60 20.5
t-49 37.5t-36.5 57q-25 -37 -53.5 -60.5t-64.5 -37t-81 -18.5t-102 -5h-154zM596 -276q0 -19 -7 -35t-19.5 -28t-29.5 -19t-36 -7q-37 0 -63.5 25.5t-26.5 63.5q0 37 26.5 63.5t63.5 26.5q19 0 36 -7t29.5 -19.5t19.5 -29t7 -34.5zM316 -276q0 -38 -26.5 -63.5t-63.5 -25.5
t-62.5 25.5t-25.5 63.5q0 37 25.5 63.5t62.5 26.5t63.5 -26.5t26.5 -63.5zM451 -535q0 -37 -26.5 -62.5t-63.5 -25.5t-63.5 25.5t-26.5 62.5q0 38 26.5 64.5t63.5 26.5t63.5 -26.5t26.5 -64.5z" />
    <glyph glyph-name="uniFB57" unicode="&#x67e;" horiz-adv-x="1864" arabic-form="final" 
d="M460 0q-94 0 -169.5 13.5t-129 47t-82.5 89.5t-29 141v307h129v-244q0 -74 17 -118.5t59 -68t113.5 -31t179.5 -7.5h784q43 0 83 3t70.5 18.5t49 49t18.5 95.5v483h127v-387q0 -59 9 -107t31 -82t58.5 -52.5t92.5 -18.5q35 0 53 -13t18 -50q0 -22 -4.5 -35t-13.5 -20.5
t-22 -10t-31 -2.5q-37 0 -71 6t-62.5 20.5t-51 37.5t-37.5 57q-24 -37 -52.5 -60.5t-64 -37t-80 -18.5t-102.5 -5h-890zM1112 -276q0 -19 -7 -35t-19.5 -28t-29.5 -19t-36 -7q-37 0 -63.5 25.5t-26.5 63.5q0 37 26.5 63.5t63.5 26.5q19 0 36 -7t29.5 -19.5t19.5 -29t7 -34.5
zM832 -276q0 -38 -26.5 -63.5t-63.5 -25.5t-62.5 25.5t-25.5 63.5q0 37 25.5 63.5t62.5 26.5t63.5 -26.5t26.5 -63.5zM967 -535q0 -37 -26.5 -62.5t-63.5 -25.5t-63.5 25.5t-26.5 62.5q0 38 26.5 64.5t63.5 26.5t63.5 -26.5t26.5 -64.5z" />
    <glyph glyph-name="uni0686" unicode="&#x686;" horiz-adv-x="1316" arabic-form="isolated" 
d="M1206 0h-611q-47 0 -97.5 -4t-99 -16t-92 -35t-76.5 -60t-52 -91.5t-19 -130.5q0 -92 38 -158.5t102.5 -110t149.5 -64.5t180 -21q75 0 167.5 18.5t202.5 69.5l50 -107q-57 -34 -120 -55.5t-120.5 -33.5t-104 -16.5t-71.5 -4.5q-133 0 -243.5 30t-190.5 90t-124.5 149
t-44.5 208q0 100 23.5 173.5t64 126t95.5 86t118 52.5t131 26.5t135 7.5h480q0 150 -35 255t-98 171t-151 96t-195 30q-56 0 -114.5 -8t-106.5 -19v116q43 12 107 25.5t137 13.5q157 0 268.5 -54t181.5 -146.5t102.5 -215t32.5 -260.5v-133zM945 -235q0 -19 -7 -35
t-19.5 -28t-29.5 -19t-36 -7q-37 0 -63.5 25.5t-26.5 63.5q0 37 26.5 63.5t63.5 26.5q19 0 36 -7t29.5 -19.5t19.5 -29t7 -34.5zM665 -235q0 -38 -26.5 -63.5t-63.5 -25.5t-62.5 25.5t-25.5 63.5q0 37 25.5 63.5t62.5 26.5t63.5 -26.5t26.5 -63.5zM800 -494
q0 -37 -26.5 -62.5t-63.5 -25.5t-63.5 25.5t-26.5 62.5q0 38 26.5 64.5t63.5 26.5t63.5 -26.5t26.5 -64.5z" />
    <glyph glyph-name="uniFB7C" unicode="&#x686;" horiz-adv-x="1109" arabic-form="initial" 
d="M0 0q-35 0 -53.5 13t-18.5 50q0 22 4.5 35t13.5 20t22.5 9t31.5 2h870q0 150 -35 255t-98 171t-151 96t-195 30q-56 0 -114.5 -8t-106.5 -19v116q43 12 107 25.5t137 13.5q157 0 268.5 -54t181.5 -146.5t102.5 -215t32.5 -260.5v-133h-999zM710 -276q0 -19 -7 -35
t-19.5 -28t-29.5 -19t-36 -7q-37 0 -63.5 25.5t-26.5 63.5q0 37 26.5 63.5t63.5 26.5q19 0 36 -7t29.5 -19.5t19.5 -29t7 -34.5zM430 -276q0 -38 -26.5 -63.5t-63.5 -25.5t-62.5 25.5t-25.5 63.5q0 37 25.5 63.5t62.5 26.5t63.5 -26.5t26.5 -63.5zM565 -535
q0 -37 -26.5 -62.5t-63.5 -25.5t-63.5 25.5t-26.5 62.5q0 38 26.5 64.5t63.5 26.5t63.5 -26.5t26.5 -64.5z" />
    <glyph glyph-name="uniFB7D" unicode="&#x686;" horiz-adv-x="1110" arabic-form="medial" 
d="M0 0q-35 0 -53.5 13t-18.5 50q0 22 4.5 35t13.5 20t22.5 9t31.5 2h870q0 150 -35 255t-98.5 171t-152 96t-195.5 30q-56 0 -114 -8t-106 -19v116q43 12 106.5 25.5t136.5 13.5q106 0 190.5 -24.5t150 -69.5t112 -107.5t76.5 -138t44 -162t14 -178.5h111q35 0 53 -12
t18 -49q0 -22 -4.5 -35t-13.5 -20.5t-22 -10t-31 -2.5h-1110zM710 -276q0 -19 -7 -35t-19.5 -28t-29.5 -19t-36 -7q-37 0 -63.5 25.5t-26.5 63.5q0 37 26.5 63.5t63.5 26.5q19 0 36 -7t29.5 -19.5t19.5 -29t7 -34.5zM430 -276q0 -38 -26.5 -63.5t-63.5 -25.5t-62.5 25.5
t-25.5 63.5q0 37 25.5 63.5t62.5 26.5t63.5 -26.5t26.5 -63.5zM565 -535q0 -37 -26.5 -62.5t-63.5 -25.5t-63.5 25.5t-26.5 62.5q0 38 26.5 64.5t63.5 26.5t63.5 -26.5t26.5 -64.5z" />
    <glyph glyph-name="uniFB7B" unicode="&#x686;" horiz-adv-x="1315" arabic-form="final" 
d="M1318 0h-723q-47 0 -97.5 -4t-99 -16t-92 -35t-76.5 -60t-52 -91.5t-19 -130.5q0 -92 38 -158.5t102.5 -110t149.5 -64.5t180 -21q75 0 167.5 18.5t202.5 69.5l50 -107q-57 -34 -120 -55.5t-120.5 -33.5t-104 -16.5t-71.5 -4.5q-133 0 -243.5 30t-190.5 90t-124.5 149
t-44.5 208q0 100 23.5 173.5t64 126t95.5 86t118 52.5t131 26.5t135 7.5h480q0 150 -35 255t-98.5 171t-152 96t-195.5 30q-56 0 -114 -8t-106 -19v116q43 12 106.5 25.5t136.5 13.5q106 0 190.5 -24.5t150 -69.5t112 -107.5t76.5 -138t44 -162t14 -178.5h109q35 0 53 -12
t18 -49q0 -22 -4.5 -35t-13 -20.5t-21.5 -10t-29 -2.5zM945 -235q0 -19 -7 -35t-19.5 -28t-29.5 -19t-36 -7q-37 0 -63.5 25.5t-26.5 63.5q0 37 26.5 63.5t63.5 26.5q19 0 36 -7t29.5 -19.5t19.5 -29t7 -34.5zM665 -235q0 -38 -26.5 -63.5t-63.5 -25.5t-62.5 25.5
t-25.5 63.5q0 37 25.5 63.5t62.5 26.5t63.5 -26.5t26.5 -63.5zM800 -494q0 -37 -26.5 -62.5t-63.5 -25.5t-63.5 25.5t-26.5 62.5q0 38 26.5 64.5t63.5 26.5t63.5 -26.5t26.5 -64.5z" />
    <glyph glyph-name="uni0688" unicode="&#x688;" horiz-adv-x="911" arabic-form="isolated" 
d="M684 1106v45q0 24 -4.5 45t-16.5 37t-31.5 25.5t-49.5 9.5q-29 0 -57.5 -13t-53 -35t-44.5 -51.5t-32 -62.5h289zM393 1223q90 120 201 120q74 0 116 -45.5t42 -132.5v-133h-527v74h99v430h69v-313zM801 211q0 -45 -16.5 -84t-49 -67t-81.5 -44t-113 -16h-480v129h474
q43 0 69.5 8.5t41 21t19.5 27.5t5 28q0 26 -8.5 52t-34 70t-72.5 114.5l-125 184.5l-70 104l117 76l123 -194l58.5 -91.5t66 -108.5t54 -111t22.5 -99z" />
    <glyph glyph-name="uniFB89" unicode="&#x688;" horiz-adv-x="973" arabic-form="final" 
d="M666 1106v45q0 24 -5 45t-16.5 37t-31.5 25.5t-50 9.5q-29 0 -57 -13t-52.5 -35t-44.5 -51.5t-32 -62.5h289zM375 1223q88 120 200 120q75 0 116.5 -45.5t41.5 -132.5v-133h-526v74h98v430h70v-313zM965 0q-33 0 -62 12.5t-52.5 30.5t-41 38.5t-28.5 36.5
q-23 -42 -56 -65.5t-68.5 -35.5t-70.5 -14.5t-62 -2.5h-463v129h464q21 0 46 2t47 10.5t37 25.5t15 47q0 26 -11 56t-30.5 64.5t-45.5 74l-56 83.5l-167 247l117 76l171 -268l54 -87.5l56 -93l56 -89.5t54.5 -76t51 -52.5t45.5 -19.5h8q35 0 53 -12t18 -49q0 -22 -4.5 -35
t-13.5 -20.5t-22 -10t-31 -2.5h-8z" />
    <glyph glyph-name="uni0691" unicode="&#x691;" horiz-adv-x="600" arabic-form="isolated" 
d="M510 1038v45q0 24 -5 45.5t-16.5 37t-31 25t-49.5 9.5q-29 0 -57.5 -13t-53 -35t-44.5 -51.5t-32 -62.5h289zM219 1155q91 121 201 121q74 0 116 -46t42 -132v-133h-527v73h99v430h69v-313zM331 778h129v-716q0 -143 -16.5 -246t-58 -169.5t-111.5 -98t-177 -31.5h-57
v132h57q80 0 126.5 27.5t70.5 82.5t30.5 136.5t6.5 189.5v693z" />
    <glyph glyph-name="uniFB8D" unicode="&#x691;" horiz-adv-x="642" arabic-form="final" 
d="M510 1038v45q0 24 -5 45.5t-16.5 37t-31 25t-49.5 9.5q-29 0 -57.5 -13t-53 -35t-44.5 -51.5t-32 -62.5h289zM219 1155q91 121 201 121q74 0 116 -46t42 -132v-133h-527v73h99v430h69v-313zM458 53q0 -141 -16.5 -242t-57.5 -166.5t-111 -96.5t-176 -31h-57v132h57
q80 0 126.5 27.5t70.5 82.5t30.5 136.5t6.5 189.5v693h129v-387q0 -61 7.5 -109.5t28 -82.5t55.5 -52t91 -18q35 0 53.5 -12t18.5 -49q0 -22 -4.5 -35t-13.5 -20.5t-22.5 -10t-31.5 -2.5q-72 0 -116.5 21.5t-67.5 67.5v-36z" />
    <glyph glyph-name="uni0698" unicode="&#x698;" horiz-adv-x="600" arabic-form="isolated" 
d="M331 778h129v-716q0 -143 -16.5 -246t-58 -169.5t-111.5 -98t-177 -31.5h-57v132h57q80 0 126.5 27.5t70.5 82.5t30.5 136.5t6.5 189.5v693zM161 1039q0 37 26 62.5t64 25.5q37 0 63.5 -25.5t26.5 -62.5t-26.5 -63.5t-63.5 -26.5q-38 0 -64 26.5t-26 63.5zM439 1039
q0 37 26.5 62.5t63.5 25.5t63.5 -25.5t26.5 -62.5t-26.5 -63.5t-63.5 -26.5t-63.5 26.5t-26.5 63.5zM304 1297q0 37 26.5 62.5t63.5 25.5q18 0 35 -7t29.5 -19t20 -28t7.5 -34t-7.5 -34.5t-20 -29t-29.5 -19.5t-35 -7q-37 0 -63.5 26.5t-26.5 63.5z" />
    <glyph glyph-name="uniFB8B" unicode="&#x698;" horiz-adv-x="642" arabic-form="final" 
d="M458 53q0 -141 -16.5 -242t-57.5 -166.5t-111 -96.5t-176 -31h-57v132h57q80 0 126.5 27.5t70.5 82.5t30.5 136.5t6.5 189.5v693h129v-387q0 -61 7.5 -109.5t28 -82.5t55.5 -52t91 -18q35 0 53.5 -12t18.5 -49q0 -22 -4.5 -35t-13.5 -20.5t-22.5 -10t-31.5 -2.5
q-72 0 -116.5 21.5t-67.5 67.5v-36zM161 1039q0 37 26 62.5t64 25.5q37 0 63.5 -25.5t26.5 -62.5t-26.5 -63.5t-63.5 -26.5q-38 0 -64 26.5t-26 63.5zM439 1039q0 37 26.5 62.5t63.5 25.5t63.5 -25.5t26.5 -62.5t-26.5 -63.5t-63.5 -26.5t-63.5 26.5t-26.5 63.5zM304 1297
q0 37 26.5 62.5t63.5 25.5q18 0 35 -7t29.5 -19t20 -28t7.5 -34t-7.5 -34.5t-20 -29t-29.5 -19.5t-35 -7q-37 0 -63.5 26.5t-26.5 63.5z" />
    <glyph glyph-name="uni06A4" unicode="&#x6a4;" horiz-adv-x="2142" arabic-form="isolated" 
d="M1372 398q0 -68 22 -118.5t61 -84t91.5 -50t114.5 -16.5h230v240q0 55 -11 110.5t-39.5 100t-77 72.5t-124.5 28q-62 0 -111.5 -21t-84 -58.5t-53 -89.5t-18.5 -113zM460 0q-94 0 -169.5 13.5t-129 47t-82.5 89.5t-29 141v307h129v-244q0 -74 17 -118.5t59 -68t113.5 -31
t179.5 -7.5h790q-22 22 -39.5 52t-29.5 64t-18.5 70.5t-6.5 73.5q0 82 27 158t78 134.5t124.5 93t166.5 34.5q76 0 134 -18.5t100.5 -50.5t70.5 -75t44.5 -91t23.5 -99.5t7 -99.5v-375h-1560zM1351 1161q0 37 26 62.5t64 25.5q37 0 63.5 -25.5t26.5 -62.5t-26.5 -63.5
t-63.5 -26.5q-38 0 -64 26.5t-26 63.5zM1629 1161q0 37 26.5 62.5t63.5 25.5t63.5 -25.5t26.5 -62.5t-26.5 -63.5t-63.5 -26.5t-63.5 26.5t-26.5 63.5zM1494 1419q0 37 26.5 62.5t63.5 25.5q18 0 35 -7t29.5 -19t20 -28t7.5 -34t-7.5 -34.5t-20 -29t-29.5 -19.5t-35 -7
q-37 0 -63.5 26.5t-26.5 63.5z" />
    <glyph glyph-name="uniFB6C" unicode="&#x6a4;" horiz-adv-x="1089" arabic-form="initial" 
d="M319 398q0 -68 22 -118.5t61 -84t91.5 -50t114.5 -16.5h230v240q0 55 -11 110.5t-39.5 100t-77 72.5t-124.5 28q-62 0 -111.5 -21t-84 -58.5t-53 -89.5t-18.5 -113zM0 0q-35 0 -53.5 13t-18.5 50q0 22 4.5 35t13.5 20t22.5 9t31.5 2h285q-22 22 -39.5 52t-29.5 64
t-18.5 70.5t-6.5 73.5q0 82 27 158t78 134.5t124.5 93t166.5 34.5q76 0 134 -18.5t100.5 -50.5t70.5 -75t44.5 -91t23.5 -99.5t7 -99.5v-375h-967zM355 1161q0 37 26 62.5t64 25.5q37 0 63.5 -25.5t26.5 -62.5t-26.5 -63.5t-63.5 -26.5q-38 0 -64 26.5t-26 63.5zM633 1161
q0 37 26.5 62.5t63.5 25.5t63.5 -25.5t26.5 -62.5t-26.5 -63.5t-63.5 -26.5t-63.5 26.5t-26.5 63.5zM498 1419q0 37 26.5 62.5t63.5 25.5q18 0 35 -7t29.5 -19t20 -28t7.5 -34t-7.5 -34.5t-20 -29t-29.5 -19.5t-35 -7q-37 0 -63.5 26.5t-26.5 63.5z" />
    <glyph glyph-name="uniFB6D" unicode="&#x6a4;" horiz-adv-x="1094" arabic-form="medial" 
d="M347 1161q0 37 26 62.5t64 25.5q37 0 63.5 -25.5t26.5 -62.5t-26.5 -63.5t-63.5 -26.5q-38 0 -64 26.5t-26 63.5zM625 1161q0 37 26.5 62.5t63.5 25.5t63.5 -25.5t26.5 -62.5t-26.5 -63.5t-63.5 -26.5t-63.5 26.5t-26.5 63.5zM490 1419q0 37 26.5 62.5t63.5 25.5
q18 0 35 -7t29.5 -19t20 -28t7.5 -34t-7.5 -34.5t-20 -29t-29.5 -19.5t-35 -7q-37 0 -63.5 26.5t-26.5 63.5zM0 0q-35 0 -53.5 13t-18.5 50q0 22 4.5 35t13.5 20t22.5 9t31.5 2h285q-24 24 -42 55.5t-29.5 65.5t-17 67t-5.5 62q0 80 25 157t75 138t125 98t176 37
q74 0 130.5 -18.5t98 -50.5t69.5 -75t45 -91t24.5 -99.5t7.5 -99.5v-246h145q35 0 53 -12t18 -49q0 -22 -4.5 -35t-13.5 -20.5t-22 -10t-31 -2.5h-1112zM319 398q0 -68 22 -118.5t61 -84t91.5 -50t114.5 -16.5h230v240q0 55 -11 110.5t-39.5 100t-77 72.5t-124.5 28
q-66 0 -115.5 -22.5t-83.5 -61t-51 -90t-17 -108.5z" />
    <glyph glyph-name="uniFB6B" unicode="&#x6a4;" horiz-adv-x="2168" arabic-form="final" 
d="M1376 398q0 -68 22 -118.5t61 -84t91.5 -50t114.5 -16.5h230v240q0 55 -11 110.5t-39.5 100t-77 72.5t-124.5 28q-66 0 -115.5 -22.5t-83.5 -61t-51 -90t-17 -108.5zM460 0q-94 0 -169.5 13.5t-129 47t-82.5 89.5t-29 141v307h129v-244q0 -74 17 -118.5t59 -68t113.5 -31
t179.5 -7.5h794q-24 24 -42 55.5t-29.5 65.5t-17 67t-5.5 62q0 80 25 157t75 138t125 98t176 37q74 0 130.5 -18.5t98 -50.5t69.5 -75t45 -91t24.5 -99.5t7.5 -99.5v-246h144q35 0 53 -12t18 -49q0 -22 -4.5 -35t-13.5 -20.5t-22 -10t-31 -2.5h-1708zM1384 1161
q0 37 26 62.5t64 25.5q37 0 63.5 -25.5t26.5 -62.5t-26.5 -63.5t-63.5 -26.5q-38 0 -64 26.5t-26 63.5zM1662 1161q0 37 26.5 62.5t63.5 25.5t63.5 -25.5t26.5 -62.5t-26.5 -63.5t-63.5 -26.5t-63.5 26.5t-26.5 63.5zM1527 1419q0 37 26.5 62.5t63.5 25.5q18 0 35 -7
t29.5 -19t20 -28t7.5 -34t-7.5 -34.5t-20 -29t-29.5 -19.5t-35 -7q-37 0 -63.5 26.5t-26.5 63.5z" />
    <glyph glyph-name="uni06A9" unicode="&#x6a9;" horiz-adv-x="1839" arabic-form="isolated" 
d="M1402 129q45 0 82.5 7.5t64.5 26.5t41.5 50t14.5 78q0 64 -38.5 133t-111.5 136t-177.5 129.5t-236.5 115.5v152l665 432v-145l-539 -350q172 -77 281 -159t171.5 -161.5t86 -152.5t23.5 -132q0 -42 -10 -92t-44.5 -94t-100 -73.5t-176.5 -29.5h-938q-94 0 -169.5 13.5
t-129 47t-82.5 89.5t-29 141v307h129v-244q0 -74 17 -118.5t59 -68t113.5 -31t179.5 -7.5h854z" />
    <glyph glyph-name="uniFB90" unicode="&#x6a9;" horiz-adv-x="941" arabic-form="initial" 
d="M0 0q-35 0 -53.5 13t-18.5 50q0 22 4.5 35t13.5 20t22.5 9t31.5 2h504q45 0 82.5 7.5t64.5 26.5t41.5 50t14.5 78q0 64 -38.5 133t-111.5 136t-177.5 129.5t-236.5 115.5v152l665 432v-145l-539 -350q172 -77 281 -159t171.5 -161.5t86 -152.5t23.5 -132q0 -42 -10 -92
t-44.5 -94t-100 -73.5t-176.5 -29.5h-500z" />
    <glyph glyph-name="uniFB91" unicode="&#x6a9;" horiz-adv-x="1079" arabic-form="medial" 
d="M0 0q-35 0 -53.5 13t-18.5 50q0 22 4.5 35t13.5 20t22.5 9t31.5 2h518q93 0 141 40t48 122q0 62 -37 130t-108.5 135t-176.5 131t-242 118v152l665 432v-145l-539 -350q228 -105 368.5 -232.5t187.5 -290.5q34 -118 91.5 -180t130.5 -62h32q35 0 53.5 -12t18.5 -49
q0 -22 -4.5 -35t-13.5 -20.5t-22.5 -10t-31.5 -2.5h-32q-50 0 -87.5 13t-65.5 35t-48.5 51.5t-35.5 62.5q-21 -51 -55 -83t-76.5 -49.5t-90.5 -23.5t-96 -6h-492z" />
    <glyph glyph-name="uniFB8F" unicode="&#x6a9;" horiz-adv-x="1923" arabic-form="final" 
d="M1363 129q93 0 141 40t48 122q0 62 -37 130t-108.5 135t-176.5 131t-242 118v152l665 432v-145l-539 -350q228 -105 368.5 -232.5t187.5 -290.5q34 -118 91.5 -179t130.5 -61h32q35 0 53.5 -13t18.5 -50q0 -22 -4.5 -35t-13.5 -20.5t-22.5 -10t-31.5 -2.5h-32
q-50 0 -87.5 13t-65.5 35t-48.5 51.5t-35.5 62.5q-21 -51 -55 -83t-76.5 -49.5t-90.5 -23.5t-96 -6h-877q-94 0 -169.5 13.5t-129 47t-82.5 89.5t-29 141v307h129v-244q0 -74 17 -118.5t59 -68t113.5 -31t179.5 -7.5h815z" />
    <glyph glyph-name="uni06AF" unicode="&#x6af;" horiz-adv-x="1839" arabic-form="isolated" 
d="M1402 129q45 0 82.5 7.5t64.5 26.5t41.5 50t14.5 78q0 64 -38.5 133t-111.5 136t-177.5 129.5t-236.5 115.5v152l665 432v-145l-539 -350q172 -77 281 -159t171.5 -161.5t86 -152.5t23.5 -132q0 -42 -10 -92t-44.5 -94t-100 -73.5t-176.5 -29.5h-938q-94 0 -169.5 13.5
t-129 47t-82.5 89.5t-29 141v307h129v-244q0 -74 17 -118.5t59 -68t113.5 -31t179.5 -7.5h854zM1040 1067v125l667 422v-122z" />
    <glyph glyph-name="uniFB94" unicode="&#x6af;" horiz-adv-x="941" arabic-form="initial" 
d="M0 0q-35 0 -53.5 13t-18.5 50q0 22 4.5 35t13.5 20t22.5 9t31.5 2h504q45 0 82.5 7.5t64.5 26.5t41.5 50t14.5 78q0 64 -38.5 133t-111.5 136t-177.5 129.5t-236.5 115.5v152l665 432v-145l-539 -350q172 -77 281 -159t171.5 -161.5t86 -152.5t23.5 -132q0 -42 -10 -92
t-44.5 -94t-100 -73.5t-176.5 -29.5h-500zM142 1067v125l667 422v-122z" />
    <glyph glyph-name="uniFB95" unicode="&#x6af;" horiz-adv-x="1079" arabic-form="medial" 
d="M0 0q-35 0 -53.5 13t-18.5 50q0 22 4.5 35t13.5 20t22.5 9t31.5 2h518q93 0 141 40t48 122q0 62 -37 130t-108.5 135t-176.5 131t-242 118v152l665 432v-145l-539 -350q228 -105 368.5 -232.5t187.5 -290.5q34 -118 91.5 -180t130.5 -62h32q35 0 53.5 -12t18.5 -49
q0 -22 -4.5 -35t-13.5 -20.5t-22.5 -10t-31.5 -2.5h-32q-50 0 -87.5 13t-65.5 35t-48.5 51.5t-35.5 62.5q-21 -51 -55 -83t-76.5 -49.5t-90.5 -23.5t-96 -6h-492zM143 1067v125l667 422v-122z" />
    <glyph glyph-name="uniFB93" unicode="&#x6af;" horiz-adv-x="1923" arabic-form="final" 
d="M1363 129q93 0 141 40t48 122q0 62 -37 130t-108.5 135t-176.5 131t-242 118v152l665 432v-145l-539 -350q228 -105 368.5 -232.5t187.5 -290.5q34 -118 91.5 -179t130.5 -61h32q35 0 53.5 -13t18.5 -50q0 -22 -4.5 -35t-13.5 -20.5t-22.5 -10t-31.5 -2.5h-32
q-50 0 -87.5 13t-65.5 35t-48.5 51.5t-35.5 62.5q-21 -51 -55 -83t-76.5 -49.5t-90.5 -23.5t-96 -6h-877q-94 0 -169.5 13.5t-129 47t-82.5 89.5t-29 141v307h129v-244q0 -74 17 -118.5t59 -68t113.5 -31t179.5 -7.5h815zM983 1067v125l667 422v-122z" />
    <glyph glyph-name="uni06BA" unicode="&#x6ba;" horiz-adv-x="1323" arabic-form="isolated" 
d="M1183 778v-530q0 -134 -34.5 -226.5t-104.5 -150t-177 -83t-252 -25.5q-278 0 -421.5 114.5t-143.5 354.5v307h129v-273q0 -103 28 -174.5t83.5 -115.5t137.5 -64t191 -20q114 0 196.5 17t135.5 58t78 110t25 173v528h129z" />
    <glyph glyph-name="uniFB9F" unicode="&#x6ba;" horiz-adv-x="1369" arabic-form="final" 
d="M1183 2q0 -134 -34.5 -226.5t-104.5 -150t-177 -83t-252 -25.5q-278 0 -421.5 114.5t-143.5 354.5v307h129v-273q0 -103 28 -174.5t83.5 -115.5t137.5 -64t191 -20q114 0 196.5 17t135.5 58t78 110t25 173v656h129v-269q0 -61 8 -109t29 -81.5t57 -51.5t92 -18
q35 0 53.5 -13t18.5 -50q0 -22 -4.5 -35t-13.5 -20.5t-22.5 -10t-31.5 -2.5q-72 0 -117.5 23t-68.5 69v-90z" />
    <glyph glyph-name="uniFBAC" unicode="&#x6be;" horiz-adv-x="1275" arabic-form="initial" 
d="M0 0q-35 0 -53.5 13t-18.5 50q0 22 4.5 35t13.5 20t22.5 9t31.5 2h278q-32 51 -50 118t-18 130q0 51 10 101.5t31.5 95.5t55.5 81.5t83 59.5q-18 2 -34 4t-32 3t-33.5 1.5t-38.5 0.5v112q219 -2 389 -37.5t286.5 -117.5t177 -215.5t60.5 -332.5v-133h-1165zM324 375
q0 -42 7.5 -86t28 -79.5t57 -58t94.5 -22.5q49 0 83 25.5t55 63.5t30 81.5t9 79.5q0 53 -11 101t-33.5 85t-56.5 58.5t-79 21.5q-42 0 -76 -19.5t-58 -55t-37 -85t-13 -110.5zM803 387q0 -30 -4 -64t-12 -68t-19.5 -66.5t-26.5 -59.5h295q0 120 -22 209t-65.5 153.5
t-107.5 107t-147 69.5q28 -27 49 -60.5t34 -70.5t19.5 -75t6.5 -75z" />
    <glyph glyph-name="uniFBAD" unicode="&#x6be;" horiz-adv-x="1069" arabic-form="medial" 
d="M825 0q28 -27 46.5 -56.5t29 -58.5t14.5 -55.5t4 -45.5q0 -56 -21 -106.5t-61.5 -88.5t-100 -60t-136.5 -22q-96 0 -166 23.5t-115.5 73.5t-67.5 129.5t-22 190.5v76h-229q-35 0 -53.5 13t-18.5 50q0 22 4.5 35t13.5 20t22.5 9t31.5 2h229v164q0 120 25.5 216t74.5 162.5
t119 102t160 35.5q85 0 145 -30.5t97.5 -77.5t54.5 -104t17 -110q0 -117 -41.5 -207.5t-115.5 -150.5h304q35 0 53.5 -12t18.5 -49q0 -22 -4.5 -35t-13.5 -20.5t-22.5 -10t-31.5 -2.5h-244zM358 129h119q89 0 150 34t98.5 84t53.5 107t16 103q0 58 -15.5 100t-41.5 69.5
t-61.5 40.5t-74.5 13q-122 0 -183 -98t-61 -285v-168zM358 0v-80q0 -68 9.5 -123t35.5 -93t72 -58.5t119 -20.5q103 0 153 48.5t50 133.5q0 22 -11 55t-39.5 63.5t-78 52.5t-125.5 22h-185z" />
    <glyph glyph-name="uniFBAB" unicode="&#x6be;" horiz-adv-x="1130" arabic-form="final" 
d="M427 129h119q89 0 150 34t98.5 84t53.5 107t16 103q0 58 -15.5 100t-41.5 69.5t-61.5 40.5t-74.5 13q-122 0 -183 -98t-61 -285v-168zM427 0v-80q0 -68 9.5 -123t35.5 -93t72 -58.5t119 -20.5q103 0 153 48.5t50 133.5q0 22 -11 55t-39.5 63.5t-78 52.5t-125.5 22h-185z
M224 0q-22 0 -35.5 -6.5t-21.5 -18.5t-11 -28t-3 -35q0 -11 1 -22l2 -23h-103q-14 38 -18.5 73t-4.5 60q0 41 15 66t37 39t45.5 19t40.5 5h130v164q0 120 25.5 216t74.5 162.5t119 102t160 35.5q85 0 145 -30.5t97.5 -77.5t54.5 -104t17 -110q0 -117 -41.5 -207.5
t-115.5 -150.5h304q35 0 53.5 -12t18.5 -49q0 -22 -4.5 -35t-13.5 -20.5t-22.5 -10t-31.5 -2.5h-244q28 -27 46.5 -56.5t29 -58.5t14.5 -55.5t4 -45.5q0 -56 -21 -106.5t-61.5 -88.5t-100 -60t-136.5 -22q-96 0 -166 23.5t-115.5 73.5t-67.5 129.5t-22 190.5v76h-74z" />
    <glyph glyph-name="uni06C0" unicode="&#x6c0;" horiz-adv-x="902" arabic-form="isolated" 
d="M411 680q-59 0 -106 -26t-79.5 -69.5t-50 -102t-17.5 -122.5q0 -65 19.5 -111.5t53 -75.5t79.5 -42.5t99 -13.5q49 0 95 11t81.5 37.5t57 72t21.5 114.5q0 80 -19.5 141t-54 102.5t-80.5 63t-99 21.5zM30 344q0 91 26.5 175t77 148.5t122 103t161.5 38.5q81 0 149.5 -32
t119 -92t78.5 -146.5t28 -194.5q0 -71 -21.5 -135t-68.5 -113.5t-120.5 -78.5t-176.5 -29q-83 0 -152 22t-118.5 66t-77 111t-27.5 157zM567 1025h-350v76h98q-49 55 -49 123q0 43 14.5 76.5t39.5 56t57.5 34t68.5 11.5q23 0 44.5 -1.5t35.5 -6.5v-82q-23 6 -39 8t-33 2
q-34 0 -56.5 -9t-36 -23.5t-19 -33t-5.5 -36.5q0 -56 39 -87.5t111 -31.5h80v-76z" />
    <glyph glyph-name="uni06C1" unicode="&#x6c1;" horiz-adv-x="902" arabic-form="isolated" 
d="M411 680q-59 0 -106 -26t-79.5 -69.5t-50 -102t-17.5 -122.5q0 -65 19.5 -111.5t53 -75.5t79.5 -42.5t99 -13.5q49 0 95 11t81.5 37.5t57 72t21.5 114.5q0 80 -19.5 141t-54 102.5t-80.5 63t-99 21.5zM30 344q0 91 26.5 175t77 148.5t122 103t161.5 38.5q81 0 149.5 -32
t119 -92t78.5 -146.5t28 -194.5q0 -71 -21.5 -135t-68.5 -113.5t-120.5 -78.5t-176.5 -29q-83 0 -152 22t-118.5 66t-77 111t-27.5 157z" />
    <glyph glyph-name="uniFBA8" unicode="&#x6c1;" horiz-adv-x="621" arabic-form="initial" 
d="M336 0q-26 -42 -38.5 -80t-12.5 -74q0 -48 23 -78t73 -30h13.5t15.5 2q-13 -45 -43.5 -64.5t-61.5 -19.5q-33 0 -57.5 11t-40 30.5t-23.5 45.5t-8 56q0 48 19 100.5t51 100.5h-246q-35 0 -53.5 13t-18.5 50q0 22 4.5 35t13.5 20t22.5 9t31.5 2h352v649h129v-778h-145z
" />
    <glyph glyph-name="uniFBA9" unicode="&#x6c1;" horiz-adv-x="944" arabic-form="medial" 
d="M0 0q-35 0 -53.5 13t-18.5 50q0 22 4.5 35t13.5 20t22.5 9t31.5 2h385q-42 -97 -64 -175t-22 -144q0 -26 5 -58.5t19.5 -65t39 -60.5t63.5 -44q18 141 60 244t103.5 170.5t142 100t175.5 32.5h37q35 0 53.5 -12t18.5 -49q0 -22 -4.5 -35t-13.5 -20.5t-22.5 -10
t-31.5 -2.5h-70q-84 0 -146 -34.5t-105 -105t-69 -178.5t-38 -255q-328 67 -328 358q0 12 0.5 32t5 47.5t14.5 61.5t28 74h-236z" />
    <glyph glyph-name="uniFBA7" unicode="&#x6c1;" horiz-adv-x="654" arabic-form="final" 
d="M613 0q-41 0 -71.5 11.5t-54 29t-41 39.5t-31.5 43q-20 30 -36.5 52.5t-32 36.5t-32 21t-37.5 7q-60 0 -92.5 -60t-32.5 -166v-32.5t2 -32.5h-100q-2 17 -3 34t-1 37q0 76 16.5 139.5t46.5 109t72.5 71t93.5 25.5q54 0 101.5 -27.5t79.5 -81.5q17 -29 33.5 -52t35.5 -40
t41.5 -26t52.5 -9h31q35 0 53.5 -12t18.5 -49q0 -22 -4.5 -35t-13.5 -20.5t-22.5 -10t-31.5 -2.5h-41z" />
    <glyph glyph-name="uni06C2.fina" unicode="&#x6c2;" horiz-adv-x="654" 
d="M613 0q-41 0 -71.5 11.5t-54 29t-41 39.5t-31.5 43q-20 30 -36.5 52.5t-32 36.5t-32 21t-37.5 7q-60 0 -92.5 -60t-32.5 -166v-32.5t2 -32.5h-100q-2 17 -3 34t-1 37q0 76 16.5 139.5t46.5 109t72.5 71t93.5 25.5q54 0 101.5 -27.5t79.5 -81.5q17 -29 33.5 -52t35.5 -40
t41.5 -26t52.5 -9h31q35 0 53.5 -12t18.5 -49q0 -22 -4.5 -35t-13.5 -20.5t-22.5 -10t-31.5 -2.5h-41zM376 660h-350v76h98q-49 55 -49 123q0 43 14.5 76.5t39.5 56t57.5 34t68.5 11.5q23 0 44.5 -1.5t35.5 -6.5v-82q-23 6 -39 8t-33 2q-34 0 -56.5 -9t-36 -23.5t-19 -33
t-5.5 -36.5q0 -56 39 -87.5t111 -31.5h80v-76z" />
    <glyph glyph-name="uni06C3.fina" unicode="&#x6c3;" horiz-adv-x="925" 
d="M159 535q0 -112 67.5 -173t198.5 -61q47 0 96 10t91 27v448h-166q-61 0 -113.5 -15t-91 -45.5t-60.5 -78t-22 -112.5zM401 168q-36 0 -77.5 5.5t-82.5 20.5t-79 40t-67.5 64.5t-47 94t-17.5 127.5q0 110 36 185.5t95.5 122t136 67t156.5 20.5h287v-587q0 -43 5.5 -79.5
t21.5 -63t45 -41.5t75 -15h37q42 0 57 -11.5t15 -49.5t-14 -53t-58 -15h-59q-53 0 -97 14t-77 40t-52.5 64.5t-21.5 86.5q-45 -17 -101.5 -27t-115.5 -10zM221 1317q0 37 26 62.5t64 25.5q37 0 63.5 -25.5t26.5 -62.5t-26.5 -63.5t-63.5 -26.5q-38 0 -64 26.5t-26 63.5z
M499 1317q0 37 26.5 62.5t63.5 25.5t63.5 -25.5t26.5 -62.5t-26.5 -63.5t-63.5 -26.5t-63.5 26.5t-26.5 63.5z" />
    <glyph glyph-name="uni06CC" unicode="&#x6cc;" horiz-adv-x="1589" arabic-form="isolated" 
d="M179 56q0 -89 27.5 -163t93 -127.5t174 -83.5t270.5 -30q115 0 221 13t187 40.5t129.5 71.5t48.5 107q0 22 -8.5 41t-28 38t-52.5 39.5t-81 44.5q-59 29 -110.5 62t-90.5 73.5t-61.5 90.5t-22.5 114q0 77 28 152.5t84 135.5t140 97t197 37q62 0 107 -10t68 -18v-136
q-23 5 -47.5 9.5t-48.5 7.5t-45.5 4.5t-37.5 1.5q-78 0 -136.5 -21.5t-97.5 -56.5t-58.5 -81t-19.5 -94q0 -46 17 -80.5t47 -63t69.5 -52.5l84.5 -49l103 -60.5t76 -55.5t46.5 -59t15.5 -70q0 -90 -39.5 -165t-126 -129t-224 -84t-333.5 -30q-195 0 -328 38t-214 104.5
t-116.5 158t-35.5 199.5v297h129v-258z" />
    <glyph glyph-name="uniFBFE" unicode="&#x6cc;" horiz-adv-x="621" arabic-form="initial" 
d="M0 0q-35 0 -53.5 13t-18.5 50q0 22 4.5 35t13.5 20t22.5 9t31.5 2h352v649h129v-778h-481zM104 -276q0 37 26 63.5t64 26.5q37 0 63.5 -26.5t26.5 -63.5q0 -38 -26.5 -64.5t-63.5 -26.5q-38 0 -64 26.5t-26 64.5zM382 -276q0 37 26.5 63.5t63.5 26.5t63.5 -26.5
t26.5 -63.5q0 -38 -26.5 -64.5t-63.5 -26.5t-63.5 26.5t-26.5 64.5z" />
    <glyph glyph-name="uniFBFF" unicode="&#x6cc;" horiz-adv-x="669" arabic-form="medial" 
d="M0 0q-35 0 -53.5 13t-18.5 50q0 22 4.5 35t13.5 20t22.5 9t31.5 2h135q43 0 83 3t70.5 18.5t49 49t18.5 95.5v483h129v-389q0 -61 9.5 -109t31 -81.5t56.5 -51.5t87 -18q35 0 53 -12t18 -49q0 -22 -4.5 -35t-13.5 -20.5t-22 -10t-31 -2.5q-36 0 -68.5 6t-60 20.5
t-49 37.5t-36.5 57q-25 -37 -53.5 -60.5t-64.5 -37t-81 -18.5t-102 -5h-154zM185 -276q0 37 26 63.5t64 26.5q37 0 63.5 -26.5t26.5 -63.5q0 -38 -26.5 -64.5t-63.5 -26.5q-38 0 -64 26.5t-26 64.5zM463 -276q0 37 26.5 63.5t63.5 26.5t63.5 -26.5t26.5 -63.5
q0 -38 -26.5 -64.5t-63.5 -26.5t-63.5 26.5t-26.5 64.5z" />
    <glyph glyph-name="uniFBFD" unicode="&#x6cc;" horiz-adv-x="1500" arabic-form="final" 
d="M1344 0q51 -48 70.5 -97t19.5 -87q0 -61 -36 -115t-117 -95t-211 -65t-318 -24q-208 0 -344 37.5t-215.5 103.5t-111 155.5t-31.5 193.5v307h129v-277q0 -101 32.5 -175t102.5 -122t179.5 -71t263.5 -23q114 0 216.5 9t179.5 31t122 57.5t45 88.5q0 31 -18.5 58
t-49.5 50.5t-72.5 44t-87 38t-93 32t-91.5 25.5l-61 16v129q136 -38 258.5 -67t228.5 -29h164q35 0 53.5 -12t18.5 -49q0 -22 -4.5 -35t-13.5 -20.5t-22.5 -10t-31.5 -2.5h-154z" />
    <glyph glyph-name="uni06D2" unicode="&#x6d2;" horiz-adv-x="1706" arabic-form="isolated" 
d="M747 778q-6 -84 -29 -140.5t-63.5 -94.5t-98.5 -62t-133 -43q-140 -35 -202.5 -82t-62.5 -107q0 -50 36.5 -81t112 -47.5t190 -22t270.5 -5.5q109 0 234 7t246 18.5t227.5 25.5t179.5 29v-129q-104 -21 -224.5 -36t-242 -25t-235 -14.5t-201.5 -4.5q-179 0 -314 10
t-225.5 39.5t-136 83.5t-45.5 143q0 115 87 188.5t262 124.5q58 17 100.5 33t71 40t45 59.5t22.5 92.5h129z" />
    <glyph glyph-name="uniFBAF" unicode="&#x6d2;" horiz-adv-x="943" arabic-form="final" 
d="M495 0q-101 0 -166.5 -13.5t-103 -36t-52 -53.5t-14.5 -65q0 -42 27.5 -77t93 -60t174 -39t270.5 -14q60 0 122.5 2t134.5 8t156.5 17.5t188.5 29.5v-121q-97 -16 -180.5 -27.5t-160 -19t-148.5 -11t-145 -3.5q-142 0 -246.5 12t-178 33.5t-119.5 51t-72.5 64t-36 72.5
t-9.5 76q0 148 127.5 225.5t384.5 77.5h401q36 0 54 -12t18 -49q0 -22 -4.5 -35t-13.5 -20.5t-22.5 -10t-31.5 -2.5h-448z" />
    <glyph glyph-name="uni06D3" unicode="&#x6d3;" horiz-adv-x="1706" arabic-form="isolated" 
d="M747 778q-6 -84 -29 -140.5t-63.5 -94.5t-98.5 -62t-133 -43q-140 -35 -202.5 -82t-62.5 -107q0 -50 36.5 -81t112 -47.5t190 -22t270.5 -5.5q109 0 234 7t246 18.5t227.5 25.5t179.5 29v-129q-104 -21 -224.5 -36t-242 -25t-235 -14.5t-201.5 -4.5q-179 0 -314 10
t-225.5 39.5t-136 83.5t-45.5 143q0 115 87 188.5t262 124.5q58 17 100.5 33t71 40t45 59.5t22.5 92.5h129zM481 795h-350v76h98q-49 55 -49 123q0 43 14.5 76.5t39.5 56t57.5 34t68.5 11.5q23 0 44.5 -1.5t35.5 -6.5v-82q-23 6 -39 8t-33 2q-34 0 -56.5 -9t-36 -23.5
t-19 -33t-5.5 -36.5q0 -56 39 -87.5t111 -31.5h80v-76z" />
    <glyph glyph-name="uniFBB1" unicode="&#x6d3;" horiz-adv-x="943" arabic-form="final" 
d="M495 0q-101 0 -166.5 -13.5t-103 -36t-52 -53.5t-14.5 -65q0 -42 27.5 -77t93 -60t174 -39t270.5 -14q60 0 122.5 2t134.5 8t156.5 17.5t188.5 29.5v-121q-97 -16 -180.5 -27.5t-160 -19t-148.5 -11t-145 -3.5q-142 0 -246.5 12t-178 33.5t-119.5 51t-72.5 64t-36 72.5
t-9.5 76q0 148 127.5 225.5t384.5 77.5h401q36 0 54 -12t18 -49q0 -22 -4.5 -35t-13.5 -20.5t-22.5 -10t-31.5 -2.5h-448zM450 326h-350v76h98q-49 55 -49 123q0 43 14.5 76.5t39.5 56t57.5 34t68.5 11.5q23 0 44.5 -1.5t35.5 -6.5v-82q-23 6 -39 8t-33 2q-34 0 -56.5 -9
t-36 -23.5t-19 -33t-5.5 -36.5q0 -56 39 -87.5t111 -31.5h80v-76z" />
    <glyph glyph-name="uni06D5.fina" unicode="&#x6d5;" horiz-adv-x="925" 
d="M159 535q0 -112 67.5 -173t198.5 -61q47 0 96 10t91 27v448h-166q-61 0 -113.5 -15t-91 -45.5t-60.5 -78t-22 -112.5zM401 168q-36 0 -77.5 5.5t-82.5 20.5t-79 40t-67.5 64.5t-47 94t-17.5 127.5q0 110 36 185.5t95.5 122t136 67t156.5 20.5h287v-587q0 -43 5.5 -79.5
t21.5 -63t45 -41.5t75 -15h37q42 0 57 -11.5t15 -49.5t-14 -53t-58 -15h-59q-53 0 -97 14t-77 40t-52.5 64.5t-21.5 86.5q-45 -17 -101.5 -27t-115.5 -10z" />
    <glyph glyph-name="uniFDF2" unicode="&#xfdf2;" horiz-adv-x="2753" arabic-form="isolated" 
d="M893 0q-50 0 -93.5 8.5t-79 29t-61.5 55t-41 85.5q-27 -4 -56.5 -6.5t-58.5 -4t-55 -2.5t-45 -1q-93 0 -167.5 21t-127.5 59t-81.5 92.5t-28.5 122.5q0 101 52 178.5t137.5 129.5t195.5 78.5t227 26.5v123h129v-676q0 -51 6.5 -87t25.5 -58.5t53 -32.5t89 -10h154
q43 0 83 3t70.5 18.5t49 49t18.5 95.5v1163h129v-1069q0 -61 8.5 -109t30.5 -81.5t58 -51.5t92 -18h368v1331h129v-1462h-497q-36 0 -69.5 6t-62 20.5t-51 37.5t-37.5 57q-24 -37 -52.5 -60.5t-64.5 -37t-81 -18.5t-103 -5h-192zM127 475q0 -41 15.5 -76.5t52 -61t96.5 -40
t149 -14.5q12 0 31.5 1t43 3t48.5 5t47 7v461q-108 -4 -197 -24.5t-152.5 -56.5t-98.5 -87.5t-35 -116.5zM2603 1462v-1462h-129v1462h129z" />
    <glyph glyph-name="uniFDFA" unicode="&#xfdfa;" horiz-adv-x="2165" arabic-form="isolated" 
d="M2083 895q0 -14 -8 -34t-25 -46q-29 -47 -63 -63q-95 -43 -238 -43q-23 0 -47.5 1t-50.5 3q-50 -97 -78 -97q-8 0 -8 13q0 15 11 39.5t34 56.5q-44 17 -68 29.5t-31 23.5q-80 -53 -102 -53q15 -287 51 -360t172 -82l4 4q-43 34 -43 88q0 68 66 155q51 66 125 66
q59 0 108 -35q50 -33 50 -63q-53 18 -107 18q-73 0 -133 -29q-53 -27 -53 -55q0 -29 51 -80q26 -26 48 -40t42 -19q19 2 53.5 11t85.5 26t85.5 29.5t51.5 21.5l-34 -76q-207 -108 -392 -108q-198 0 -243 149q-62 -133 -117 -133q-53 0 -137 90q-66 -57 -166 -86t-238 -29
q-42 0 -77 3t-66 8q9 -65 18 -107q20 -76 48 -102q88 -90 360 -90q232 0 338 65q30 76 57 76q8 0 8 -16q0 -30 -24 -91q12 -26 55 -26q55 0 100 24q43 136 68 136q8 0 8 -23q0 -38 -20 -88q64 -27 90 -27q13 0 16 7q2 4 -16 79l35 74q24 -74 24 -106q0 -138 -90 -138
q-46 0 -98 39q-32 -53 -121 -53q-98 0 -98 53q-20 -14 -52.5 -26t-78.5 -23q-53 -11 -114.5 -16.5t-133.5 -5.5q-100 0 -172.5 14t-120.5 43q-120 70 -123 258l-45 -66q-17 -26 -30.5 -38.5t-22.5 -14.5q24 -42 24 -84q0 -53 -32 -86q-18 -16 -43 -16q-42 0 -125 47
q-28 -63 -86 -96q-7 -4 -20.5 -6t-27.5 -3t-26.5 -2t-18.5 -4l-22 -8q-12 0 -12 10t49 31q31 13 50.5 22t29.5 17l69 53q-20 36 -20 82t37 84q36 43 69 43q5 0 13 -4q18 -11 33 -15.5t26 -4.5q36 0 74 47l47 86q-78 24 -113 55q-61 55 -80 174h-4q-59 -102 -162 -102
q-20 0 -39.5 4t-39.5 12q-33 14 -33 25q0 52 88 118q42 32 85.5 54.5t88.5 36.5l-4 34l41 68q15 -223 43 -289q27 -65 115 -92l-27 270l39 88l35 -368q106 -12 194 -12q107 0 197 19.5t166 61.5q27 78 39 78q8 0 8 -18q0 -9 -1.5 -21.5t-6.5 -29.5q75 -72 120 -72
q53 0 86 88l-26 330q-153 -6 -180 151h-4q-8 -31 -15.5 -52t-13.5 -34q-22 -52 -55 -61l4 -4q143 9 143 -80q0 -29 -12.5 -53t-38.5 -41q-88 -60 -169 -90.5t-159 -30.5q-94 0 -151.5 47.5t-57.5 134.5q0 32 8 66t25 71q-57 16 -78 88h-4q-30 -104 -113 -104q-99 0 -96 158
l-55 -50q-14 -14 -80 -14q-100 0 -100 37q0 22 26 64q29 45 51 55l156 76v20l35 74l8 -246q3 -86 66 -86q15 0 31 6t29 15.5t22.5 22t11.5 24.5l-33 233l37 80l57 -330q20 -43 68 -43q47 0 47 27q0 20 -8 58t-25 93q-11 32 -20.5 65.5t-20.5 67.5l27 68q82 -256 82 -321
q0 -20 -5 -43t-16 -48q-21 -57 -51 -57q-9 0 -18 6q-8 -21 -11.5 -41t-3.5 -39q0 -153 187 -153q145 0 291 98q4 4 4 6q0 13 -78 25l-89.5 13.5t-35.5 6.5q-24 19 27 82q121 52 131 109q2 5 2 12v16q0 101 -10.5 218.5t-30.5 254.5l34 115q25 -218 44.5 -348.5t33.5 -175.5
q38 -117 148 -135l-10 196l43 92l16 -286q29 11 60 29t63 44l61 -43q41 -24 80 -30q22 23 55 51.5t78 60.5q105 78 144 78q36 0 84 -28q53 -33 53 -68zM2064 4q0 -102 -79 -221q-86 -131 -183 -131q-23 0 -52.5 8t-68.5 25q-75 32 -75 47q0 8 10 8q5 0 18.5 -3t36.5 -11
q48 -17 72 -17q139 -3 287 217l-15 45q-37 -53 -76 -53q-14 0 -27 7.5t-23 19.5t-16 27t-7 30q-3 46 30 111q34 63 58 63q26 0 65 -49q45 -54 45 -123zM1987 1309q-70 -25 -238 -105q-197 -95 -197 -125q0 -22 54 -51l-19 -49q-67 21 -67 82q0 63 53 90q131 75 238 127.5
t194 81.5zM975 915q-6 -135 -27 -149l-51 496l45 116zM1233 76l-53 -64l-99 72l-57 -74l-102 74l59 72l96 -72l56 68zM2025 860q0 15 -36 33q-35 18 -54 18q-43 0 -123 -49q-32 -20 -55.5 -37t-40.5 -32q6 -2 16.5 -2h24.5q42 0 84 4t84 12q100 21 100 53zM1294 -248
q0 -23 -1 -38t-3 -23q-11 -27 -51 -27q-20 0 -29 8q-29 -32 -61 -32q-9 0 -17.5 5.5t-16.5 11.5t-14.5 11.5t-10.5 5.5q-16 0 -76 -34q-58 -37 -144 -37q-90 0 -90 16q0 14 66 14q71 0 94 5q14 3 32 10.5t40 21.5q31 20 51 29.5t31 9.5q8 0 18.5 -5t20 -11.5l17 -11.5
t9.5 -5q31 0 37 35q3 27 23 27q8 0 8 -12v-9.5t-2 -9.5q3 -9 22 -12q25 0 25 24q0 33 22 33zM1669 1444l-12 -45l-400 -197l9 51zM346 539q-180 -70 -180 -107q0 -20 63 -20q69 0 121 49zM664 1362q0 -66 -43 -66q-14 0 -24.5 4.5t-18.5 12.5q-37 -31 -62 -31q-43 0 -43 55
q0 39 6 56l13 12q-4 -76 34 -76q25 0 39 33l-4 47l19 29l8 -62q3 -33 30 -33q26 0 23 31l-6 45l14 21q8 -20 11.5 -39t3.5 -39zM387 997q-20 -9 -41 -17.5t-43 -16.5q-66 -31 -70 -50q-3 -22 52 -22q29 0 55 6.5t49 20.5zM438 -78q-9 42 -49 70q-37 28 -70 28q-28 0 -28 -24
q0 -28 53 -55q49 -31 80 -31q17 0 14 12zM2005 20q-12 66 -53 66q-32 0 -41 -51q9 -37 63 -37q28 0 31 22z" />
    <glyph glyph-name=".notdef" horiz-adv-x="1049" 
d="M1049 1470v-1470h-1049v1470h1049zM946 102v1264h-844v-1264h844zM530 1247q109 0 181.5 -73.5t72.5 -194.5q0 -70 -28 -125t-102 -122q-75 -68 -87 -106t-12 -147h-94l-4 40q0 104 26.5 160t109.5 137q52 51 69.5 84t17.5 71q0 73 -46 123.5t-110 50.5q-63 0 -109 -45
t-59 -150l-102 17q14 144 90 212t186 68zM455 377h114v-137h-114v137z" />
    <glyph glyph-name=".null" horiz-adv-x="0" 
 />
    <glyph glyph-name="nonmarkingreturn" unicode="&#xd;" horiz-adv-x="569" 
 />
    <glyph glyph-name="space" unicode=" " horiz-adv-x="569" 
 />
    <glyph glyph-name="exclam" unicode="!" horiz-adv-x="494" 
d="M317 1462v-436l-30 -661h-78l-31 661v436h139zM334 217v-217h-172v217h172z" />
    <glyph glyph-name="quotedbl" unicode="&#x22;" horiz-adv-x="758" 
d="M307 1462v-497h-129v497h129zM580 1462v-497h-129v497h129z" />
    <glyph glyph-name="numbersign" unicode="#" 
d="M430 1415h102l-63 -454h289l63 454h103l-64 -454h215v-93h-227l-45 -319h215v-92h-227l-65 -457h-101l63 457h-289l-63 -456h-103l64 456h-225v92h237l45 319h-225v93h238zM412 549h288l45 319h-288z" />
    <glyph glyph-name="dollar" unicode="$" 
d="M526 1653h80v-160q188 -3 309.5 -122.5t124.5 -302.5v-19h-129q-2 147 -82 240t-223 95v-589q276 -59 374.5 -159t98.5 -257q0 -181 -130 -294t-343 -116v-174h-80v176q-234 22 -346.5 139t-120.5 357h129q2 -174 87 -272t251 -117v606q-241 48 -335.5 145.5t-94.5 263.5
q0 170 117 283t313 117v160zM225 1080q0 -104 62.5 -166t238.5 -101v571q-141 0 -221 -81t-80 -223zM606 78q159 2 251.5 81.5t92.5 217.5q0 109 -77.5 178t-266.5 113v-590z" />
    <glyph glyph-name="percent" unicode="%" horiz-adv-x="1821" 
d="M1317 1485h96l-926 -1555h-98zM467 1446q158 0 242 -102t84 -285t-84.5 -285t-241.5 -102q-156 0 -241 101t-85 286q0 186 85.5 286.5t240.5 100.5zM250 1057q0 -139 56.5 -216t160.5 -77t160.5 79.5t56.5 213.5t-56 215.5t-163 81.5q-100 0 -157.5 -77t-57.5 -220z
M1366 743q158 0 242 -102t84 -285t-84.5 -285t-241.5 -102t-241.5 102.5t-84.5 284.5q0 183 84 285t242 102zM1149 354q0 -138 57 -215.5t160 -77.5t160 79.5t57 213.5q0 133 -55.5 215t-163.5 82q-102 0 -158.5 -77.5t-56.5 -219.5z" />
    <glyph glyph-name="ampersand" unicode="&#x26;" horiz-adv-x="1251" 
d="M582 1462q138 0 230.5 -84t92.5 -213q0 -104 -63 -191.5t-224 -187.5l320 -385q23 47 33 100t10 146h129q0 -89 -23 -183.5t-63 -166.5l246 -297h-162l-156 190q-87 -109 -200 -165t-231 -56q-198 0 -319.5 111.5t-121.5 297.5q0 127 93 235.5t265 199.5
q-119 146 -149.5 216.5t-30.5 135.5q0 128 92.5 212.5t231.5 84.5zM387 1166q0 -56 37 -124t127 -172q130 83 177.5 151.5t47.5 143.5q0 88 -55.5 138.5t-140.5 50.5q-83 0 -138 -51t-55 -137zM209 367q0 -123 94.5 -206t222.5 -83q94 0 182 51t164 158l-363 441h-2
q-152 -81 -225 -169t-73 -192z" />
    <glyph glyph-name="quotesingle" unicode="'" horiz-adv-x="569" 
d="M350 1462v-497h-129v497h129z" />
    <glyph glyph-name="parenleft" unicode="(" horiz-adv-x="494" 
d="M393 1493h103q-132 -209 -197.5 -461t-65.5 -532q0 -218 71 -458t192 -433h-103q-160 266 -224.5 485.5t-64.5 450.5q0 246 72.5 485t216.5 463z" />
    <glyph glyph-name="parenright" unicode=")" horiz-adv-x="494" 
d="M-2 1493h102q148 -244 218.5 -465t70.5 -471q0 -253 -73.5 -491.5t-214.5 -455.5h-103q132 213 197 463.5t65 528.5q0 213 -69.5 448t-192.5 443z" />
    <glyph glyph-name="asterisk" unicode="*" horiz-adv-x="721" 
d="M319 1462h80v-252l236 84l31 -75l-242 -80l147 -201l-65 -47l-150 205l-149 -205l-66 47l150 201l-236 80l29 75l235 -84v252z" />
    <glyph glyph-name="plus" unicode="+" horiz-adv-x="1229" 
d="M561 1030h109v-461h460v-108h-460v-461h-109v461h-461v108h461v461z" />
    <glyph glyph-name="comma" unicode="," horiz-adv-x="569" 
d="M371 217v-225q0 -88 -46.5 -167.5t-134.5 -105.5v88q43 18 69.5 71t25.5 110v12h-86v217h172z" />
    <glyph glyph-name="hyphen" unicode="-" horiz-adv-x="758" 
d="M635 623v-119h-512v119h512z" />
    <glyph glyph-name="period" unicode="." horiz-adv-x="569" 
d="M371 217v-217h-172v217h172z" />
    <glyph glyph-name="slash" unicode="/" horiz-adv-x="682" 
d="M604 1493h105l-625 -1524h-111z" />
    <glyph glyph-name="zero" unicode="0" 
d="M569 1446q249 0 374.5 -188.5t125.5 -548.5q0 -370 -127 -555t-373 -185q-244 0 -371.5 184.5t-127.5 553.5q0 370 128 554.5t371 184.5zM199 709q0 -314 93 -472.5t277 -158.5q185 0 278 157.5t93 473.5q0 312 -93.5 470t-279.5 158q-179 0 -273.5 -155.5t-94.5 -472.5z
" />
    <glyph glyph-name="one" unicode="1" 
d="M602 1434h105v-1434h-129v1065h-379v92q176 3 245 30.5t106.5 86t51.5 160.5z" />
    <glyph glyph-name="two" unicode="2" 
d="M567 1446q202 0 323.5 -109t121.5 -295q0 -147 -91.5 -275t-332.5 -275q-195 -118 -274 -203.5t-93 -169.5h797v-119h-944q2 159 92 288.5t319 275.5t313.5 246t84.5 234q0 130 -90 211.5t-232 81.5q-148 0 -233.5 -97t-90.5 -274v-28h-128v20q0 221 119.5 354.5
t338.5 133.5z" />
    <glyph glyph-name="three" unicode="3" 
d="M550 1446q187 0 315.5 -96t128.5 -269q0 -118 -62.5 -202t-178.5 -115v-4q148 -27 221.5 -123t73.5 -231q0 -196 -140 -316.5t-354 -120.5q-216 0 -353.5 121t-137.5 334q0 25 2 33h129v-27q0 -158 96.5 -255t261.5 -97q156 0 261.5 89t105.5 228t-92.5 221t-253.5 82
h-107v109h114q115 0 200 69.5t85 190.5q0 131 -86 200.5t-227 69.5q-147 0 -236.5 -93t-89.5 -261v-8h-129q2 212 128.5 341.5t324.5 129.5z" />
    <glyph glyph-name="four" unicode="4" 
d="M725 1434h117v-969h215v-109h-215v-356h-119v356h-662v125zM178 465h545v780h-4z" />
    <glyph glyph-name="five" unicode="5" 
d="M973 1415v-119h-627l-92 -475l4 -4q56 64 136.5 98.5t167.5 34.5q219 0 349.5 -137.5t130.5 -357.5q0 -206 -144.5 -346t-352.5 -140q-196 0 -330 116t-141 325h129q5 -149 104 -240.5t248 -91.5q156 0 257 113t101 278q0 162 -105.5 267.5t-260.5 105.5
q-93 0 -177.5 -42.5t-142.5 -127.5h-110l139 743h717z" />
    <glyph glyph-name="six" unicode="6" 
d="M594 1446q197 0 308 -96.5t132 -278.5h-129q-17 120 -96.5 193t-202.5 73q-193 0 -293.5 -165.5t-100.5 -475.5h3q54 111 158.5 174.5t223.5 63.5q209 0 340.5 -133.5t131.5 -345.5q0 -211 -138 -348.5t-348 -137.5q-273 0 -387 180t-114 578q0 315 130.5 517t381.5 202z
M238 446q0 -173 94 -270.5t263 -97.5q150 0 247.5 108t97.5 260q0 164 -94.5 271.5t-253.5 107.5q-155 0 -254.5 -104.5t-99.5 -274.5z" />
    <glyph glyph-name="seven" unicode="7" 
d="M1026 1415v-119q-262 -275 -411.5 -603.5t-168.5 -692.5h-139q24 368 163.5 671t426.5 625h-793v119h922z" />
    <glyph glyph-name="eight" unicode="8" 
d="M567 1446q185 0 311 -97.5t126 -261.5q0 -114 -61 -198t-173 -117v-4q143 -31 218 -127.5t75 -239.5q0 -201 -137 -316.5t-357 -115.5t-356.5 117t-136.5 312q0 132 76 237.5t215 132.5v4q-116 38 -175 119t-59 196q0 164 125 261.5t309 97.5zM262 1087q0 -123 82 -194.5
t218 -71.5q156 0 234 74t78 192q0 116 -82.5 183t-223.5 67q-129 0 -217.5 -68.5t-88.5 -181.5zM205 401q0 -149 100 -236t264 -87q168 0 266.5 86t98.5 237q0 136 -96.5 224t-270.5 88q-171 0 -266.5 -86t-95.5 -226z" />
    <glyph glyph-name="nine" unicode="9" 
d="M556 1446q272 0 386.5 -179.5t114.5 -577.5q0 -312 -130.5 -516t-381.5 -204q-191 0 -304 93.5t-137 281.5h129q21 -126 100.5 -196t198.5 -70q192 0 293.5 165t101.5 476h-3q-58 -114 -162 -176t-220 -62q-209 0 -340.5 134.5t-131.5 345.5q0 210 138.5 347.5
t347.5 137.5zM199 969q0 -167 95 -273t251 -106q159 0 257.5 106t98.5 273q0 169 -92.5 268.5t-266.5 99.5q-146 0 -244.5 -106.5t-98.5 -261.5z" />
    <glyph glyph-name="colon" unicode=":" horiz-adv-x="569" 
d="M371 1024v-217h-172v217h172zM371 217v-217h-172v217h172z" />
    <glyph glyph-name="semicolon" unicode=";" horiz-adv-x="569" 
d="M371 1024v-217h-172v217h172zM371 217v-225q0 -88 -46.5 -167.5t-134.5 -105.5v88q43 18 69 70t26 111v12h-86v217h172z" />
    <glyph glyph-name="less" unicode="&#x3c;" horiz-adv-x="1229" 
d="M1135 1053v-113l-914 -422l914 -422v-112l-1041 479v110z" />
    <glyph glyph-name="equal" unicode="=" horiz-adv-x="1229" 
d="M1130 774v-108h-1030v108h1030zM1130 371v-109h-1030v109h1030z" />
    <glyph glyph-name="greater" unicode="&#x3e;" horiz-adv-x="1229" 
d="M94 1053l1041 -480v-110l-1041 -479v112l914 422l-914 422v113z" />
    <glyph glyph-name="question" unicode="?" horiz-adv-x="1100" 
d="M575 1493q180 0 298 -105t118 -274q0 -89 -34.5 -165.5t-117.5 -157.5l-132 -130q-59 -59 -71 -118.5t-12 -175.5h-131v40q1 134 43 217.5t178 204.5q75 67 111.5 136t36.5 143q0 118 -85 197t-209 79q-150 0 -238 -94t-90 -258v-20h-129q0 224 125.5 352.5t338.5 128.5z
M645 217v-217h-172v217h172z" />
    <glyph glyph-name="at" unicode="@" horiz-adv-x="1638" 
d="M848 1493q299 0 496.5 -180.5t197.5 -456.5q0 -158 -71 -297.5t-181.5 -218t-221.5 -78.5q-55 0 -93 34.5t-45 101.5h-4q-71 -69 -135 -101.5t-125 -32.5q-120 0 -195.5 84.5t-75.5 213.5q0 140 63 281t176 225.5t246 84.5q76 0 131 -44.5t87 -127.5l51 133h108
l-189 -569q-29 -88 -29 -134q0 -28 12.5 -42.5t36.5 -14.5q129 0 237.5 165.5t108.5 343.5q0 238 -165 388t-417 150q-278 0 -462.5 -195t-184.5 -483q0 -280 189 -471t462 -191q150 0 294 73.5t233 199.5h106q-95 -167 -268 -266t-365 -99q-324 0 -542 220.5t-218 547.5
q0 315 219 535.5t533 220.5zM524 571q0 -88 47 -143t123 -55q129 0 234.5 165t105.5 315q0 70 -50 130.5t-114 60.5q-139 0 -242.5 -156t-103.5 -317z" />
    <glyph glyph-name="A" unicode="A" horiz-adv-x="1290" 
d="M731 1462l574 -1462h-150l-178 455h-666l-176 -455h-149l589 1462h156zM354 573h576l-283 749z" />
    <glyph glyph-name="B" unicode="B" horiz-adv-x="1366" 
d="M776 1462q211 0 335 -90t124 -267q0 -115 -69.5 -208.5t-184.5 -120.5v-4q140 -18 224.5 -115t84.5 -241q0 -205 -133.5 -310.5t-379.5 -105.5h-630v1462h629zM774 821q141 0 231.5 67t90.5 182q0 138 -84.5 205.5t-247.5 67.5h-477v-522h487zM776 119q183 0 279 74.5
t96 226.5q0 140 -100.5 211t-285.5 71h-478v-583h489z" />
    <glyph glyph-name="C" unicode="C" horiz-adv-x="1442" 
d="M768 1493q222 0 389 -126.5t199 -346.5h-139q-41 169 -163.5 261.5t-286.5 92.5q-254 0 -402 -180.5t-148 -462.5q0 -277 146 -460t404 -183q190 0 318 128.5t152 339.5h139q-31 -275 -194 -431t-414 -156q-317 0 -503.5 215t-186.5 547q0 335 188.5 548.5t501.5 213.5z
" />
    <glyph glyph-name="D" unicode="D" horiz-adv-x="1403" 
d="M634 1462q328 0 509.5 -175t181.5 -556q0 -383 -183 -557t-493 -174h-502v1462h487zM596 119q303 0 446.5 142t143.5 470q0 325 -140 468.5t-470 143.5h-289v-1224h309z" />
    <glyph glyph-name="E" unicode="E" horiz-adv-x="1214" 
d="M1157 1462v-119h-870v-528h815v-119h-815v-577h880v-119h-1020v1462h1010z" />
    <glyph glyph-name="F" unicode="F" horiz-adv-x="1100" 
d="M1075 1462v-119h-788v-528h700v-119h-700v-696h-140v1462h928z" />
    <glyph glyph-name="G" unicode="G" horiz-adv-x="1518" 
d="M768 1493q236 0 401.5 -124.5t208.5 -360.5h-139q-17 145 -151 255.5t-320 110.5q-256 0 -403.5 -180t-147.5 -463q0 -279 146.5 -461t404.5 -182q225 0 365.5 141t140.5 392v4h-498v118h621v-743h-101l-18 266h-4q-70 -146 -201.5 -221.5t-304.5 -75.5
q-316 0 -503 214.5t-187 547.5q0 335 187.5 548.5t502.5 213.5z" />
    <glyph glyph-name="H" unicode="H" horiz-adv-x="1442" 
d="M287 1462v-635h868v635h139v-1462h-139v709h-868v-709h-140v1462h140z" />
    <glyph glyph-name="I" unicode="I" horiz-adv-x="455" 
d="M297 1462v-1462h-139v1462h139z" />
    <glyph glyph-name="J" unicode="J" horiz-adv-x="1024" 
d="M877 1462v-1064q0 -219 -98 -324t-327 -105q-206 0 -307.5 122.5t-101.5 372.5v5h139q3 -225 74 -303t208 -78q153 0 213 80t60 286v1008h140z" />
    <glyph glyph-name="K" unicode="K" horiz-adv-x="1327" 
d="M287 1462v-786l850 786h188l-653 -604l684 -858h-180l-609 762l-280 -260v-502h-140v1462h140z" />
    <glyph glyph-name="L" unicode="L" horiz-adv-x="1100" 
d="M287 1462v-1343h819v-119h-959v1462h140z" />
    <glyph glyph-name="M" unicode="M" horiz-adv-x="1706" 
d="M348 1462l506 -1282l504 1282h205v-1462h-140v1264h-4l-499 -1264h-132l-501 1264h-4v-1264h-140v1462h205z" />
    <glyph glyph-name="N" unicode="N" horiz-adv-x="1442" 
d="M301 1462l852 -1237h4v1237h139v-1462h-155l-852 1237h-4v-1237h-140v1462h156z" />
    <glyph glyph-name="O" unicode="O" horiz-adv-x="1518" 
d="M760 1493q206 0 363.5 -97t241 -275t83.5 -390q0 -330 -186.5 -546t-501.5 -216q-316 0 -503 213.5t-187 548.5t187.5 548.5t502.5 213.5zM209 731q0 -276 145.5 -459.5t405.5 -183.5q257 0 403 182.5t146 460.5q0 275 -145 459t-406 184q-254 0 -401.5 -180t-147.5 -463
z" />
    <glyph glyph-name="P" unicode="P" horiz-adv-x="1290" 
d="M805 1462q189 0 307.5 -110.5t118.5 -307.5q0 -196 -118.5 -306.5t-307.5 -110.5h-518v-627h-140v1462h658zM774 745q143 0 230.5 77.5t87.5 221.5q0 142 -84.5 220.5t-253.5 78.5h-467v-598h487z" />
    <glyph glyph-name="Q" unicode="Q" horiz-adv-x="1518" 
d="M760 1493q315 0 501.5 -215t186.5 -547q0 -179 -59 -330t-162 -249l209 -160l-70 -86l-227 172q-76 -54 -170 -81.5t-209 -27.5q-315 0 -502.5 213.5t-187.5 548.5t187.5 548.5t502.5 213.5zM209 731q0 -276 145.5 -459.5t405.5 -183.5q78 0 145 18t125 54l-192 145
l71 88l213 -162q94 90 140.5 220t46.5 280q0 275 -145 459t-406 184q-254 0 -401.5 -180t-147.5 -463z" />
    <glyph glyph-name="R" unicode="R" horiz-adv-x="1366" 
d="M826 1462q191 0 313.5 -99.5t122.5 -281.5q0 -146 -75 -245.5t-210 -126.5v-4l31 -6q102 -24 155 -90t68 -212l9 -156q9 -91 16 -131.5t34 -96.5l10 -13h-153q-29 40 -38 227q-14 261 -83.5 342t-190.5 80h-548v-649h-140v1462h679zM814 768q124 0 216 78t92 207
q0 142 -83 216t-224 74h-528v-575h527z" />
    <glyph glyph-name="S" unicode="S" horiz-adv-x="1290" 
d="M623 1493q235 0 387 -121.5t152 -333.5h-138q-9 160 -121.5 248t-277.5 88q-173 0 -270 -74.5t-97 -215.5q0 -83 49.5 -138.5t180.5 -87.5l333 -82q206 -51 300 -145t94 -243q0 -184 -141 -301.5t-418 -117.5q-273 0 -429 123t-156 356v33h140v-10q0 -194 121.5 -288.5
t353.5 -94.5q151 0 270 79.5t119 217.5q0 189 -285 260l-341 84q-175 43 -252.5 128t-77.5 223q0 170 129.5 291.5t374.5 121.5z" />
    <glyph glyph-name="T" unicode="T" 
d="M1149 1462v-119h-510v-1343h-139v1343h-510v119h1159z" />
    <glyph glyph-name="U" unicode="U" horiz-adv-x="1403" 
d="M272 1462v-915q0 -224 104 -341.5t324 -117.5q221 0 325.5 116t104.5 343v915h140v-945q0 -242 -145 -395t-425 -153q-171 0 -299.5 64t-198 193t-69.5 291v945h139z" />
    <glyph glyph-name="V" unicode="V" horiz-adv-x="1214" 
d="M135 1462l475 -1308h4l471 1308h148l-542 -1460l-2 -2h-161l-542 1462h149z" />
    <glyph glyph-name="W" unicode="W" horiz-adv-x="1858" 
d="M150 1462l331 -1280h4l357 1280h174l358 -1280h4l334 1280h139l-403 -1462h-148l-370 1309h-4l-369 -1309h-151l-406 1462h150z" />
    <glyph glyph-name="X" unicode="X" horiz-adv-x="1176" 
d="M170 1462l414 -612l428 612h155l-499 -712l528 -750h-168l-444 645l-451 -645h-158l527 754l-496 708h164z" />
    <glyph glyph-name="Y" unicode="Y" horiz-adv-x="1251" 
d="M145 1462l480 -738l3 -2l478 740h166l-578 -860v-602h-139v602l-575 860h165z" />
    <glyph glyph-name="Z" unicode="Z" horiz-adv-x="1176" 
d="M1128 1462v-123l-962 -1220h983v-119h-1139v123l963 1220h-897v119h1052z" />
    <glyph glyph-name="bracketleft" unicode="[" horiz-adv-x="494" 
d="M485 1493v-109h-200v-1667h200v-108h-329v1884h329z" />
    <glyph glyph-name="backslash" unicode="\" horiz-adv-x="682" 
d="M-27 1493h105l631 -1524h-111z" />
    <glyph glyph-name="bracketright" unicode="]" horiz-adv-x="494" 
d="M338 1493v-1884h-330v108h201v1667h-201v109h330z" />
    <glyph glyph-name="asciicircum" unicode="^" horiz-adv-x="1229" 
d="M561 1415h107l471 -928h-117l-410 799l-403 -799h-119z" />
    <glyph glyph-name="underscore" unicode="_" horiz-adv-x="1024" 
d="M1024 -154v-102h-1024v102h1024z" />
    <glyph glyph-name="grave" unicode="`" horiz-adv-x="379" 
d="M96 1495l215 -289h-104l-270 289h159z" />
    <glyph glyph-name="a" unicode="a" horiz-adv-x="1063" 
d="M540 1087q200 0 294 -86.5t94 -244.5v-574q0 -32 18 -52.5t58 -20.5q11 0 21 1.5t19 6.5v-109q-24 -5 -42.5 -6.5t-39.5 -1.5q-84 0 -118.5 40.5t-34.5 132.5v11h-4q-79 -120 -165.5 -167.5t-218.5 -47.5q-161 0 -258 80.5t-97 229.5q0 153 106.5 230.5t475.5 110.5
q84 7 117.5 38.5t33.5 103.5q0 107 -65 162t-211 55q-133 0 -206 -63t-77 -183h-129q9 174 119.5 264t309.5 90zM795 578q-20 -36 -123 -50q-102 -14 -226 -35.5t-187.5 -70.5t-63.5 -135q0 -94 70 -151.5t166 -57.5q158 0 263 94t105 232v174h-4z" />
    <glyph glyph-name="b" unicode="b" horiz-adv-x="1176" 
d="M252 1462v-606h4q37 107 139 169t229 62q221 0 347.5 -156t126.5 -403q0 -249 -128 -404t-347 -155q-126 0 -228.5 60t-148.5 172h-4v-201h-119v1462h129zM252 528q0 -200 96.5 -325t274.5 -125q162 0 254 128.5t92 321.5q0 194 -91.5 322.5t-256.5 128.5
q-175 0 -272 -124.5t-97 -326.5z" />
    <glyph glyph-name="c" unicode="c" horiz-adv-x="1063" 
d="M569 1087q186 0 296.5 -96t131.5 -266h-129q-28 126 -103 190t-196 64q-166 0 -268 -130.5t-102 -320.5q0 -188 102 -319t268 -131q116 0 204 82t104 219h129q-30 -197 -145 -303.5t-292 -106.5q-224 0 -361.5 157.5t-137.5 401.5q0 245 137 402t362 157z" />
    <glyph glyph-name="d" unicode="d" horiz-adv-x="1176" 
d="M1053 1462v-1462h-119v201h-4q-45 -106 -154 -169t-224 -63q-216 0 -345 152t-129 407q0 253 128 406t346 153q124 0 225 -60t143 -171h4v606h129zM207 528q0 -196 92.5 -323t253.5 -127q177 0 274 126t97 324q0 199 -96.5 325t-275.5 126q-157 0 -251 -124.5t-94 -326.5
z" />
    <glyph glyph-name="e" unicode="e" horiz-adv-x="1063" 
d="M547 1087q215 0 340 -156t125 -416v-21h-813q3 -184 98.5 -300t249.5 -116q129 0 212 66.5t120 203.5h129q-45 -191 -158 -285t-303 -94q-224 0 -350.5 150t-126.5 409q0 246 127 402.5t350 156.5zM883 602q-5 157 -98.5 267t-239.5 110q-137 0 -230.5 -102t-115.5 -275
h684z" />
    <glyph glyph-name="f" unicode="f" horiz-adv-x="530" 
d="M450 1462q79 -2 107 -8v-111q-24 6 -51.5 8.5t-42.5 2.5q-75 0 -108 -37t-33 -119v-141h208v-109h-208v-948h-129v948h-181v109h181v100q0 169 63.5 237t193.5 68z" />
    <glyph glyph-name="g" unicode="g" 
d="M546 1087q112 0 204 -60t133 -153h4v183h129v-982q0 -244 -114 -370.5t-354 -126.5q-180 0 -303.5 83.5t-135.5 236.5h129q16 -100 97.5 -155.5t211.5 -55.5q172 0 256 98t84 291v153h-4q-48 -103 -137.5 -160t-199.5 -57q-226 0 -351 142.5t-125 399.5
q0 232 129.5 382.5t346.5 150.5zM199 541q0 -187 94.5 -303.5t253.5 -116.5q153 0 246.5 121t93.5 299q0 188 -90 313t-252 125q-159 0 -252.5 -121.5t-93.5 -316.5z" />
    <glyph glyph-name="h" unicode="h" horiz-adv-x="1100" 
d="M250 1462v-588h4q37 95 130 154t209 59q203 0 294.5 -99t91.5 -298v-690h-129v668q0 153 -66.5 232t-201.5 79q-106 0 -182.5 -51.5t-113 -138t-36.5 -171.5v-618h-129v1462h129z" />
    <glyph glyph-name="i" unicode="i" horiz-adv-x="379" 
d="M254 1462v-207h-129v207h129zM254 1057v-1057h-129v1057h129z" />
    <glyph glyph-name="j" unicode="j" horiz-adv-x="379" 
d="M254 1462v-207h-129v207h129zM254 1057v-1164q0 -141 -55 -212.5t-171 -71.5q-22 0 -44 1t-45 3v106q13 -1 26 -1.5t26 -0.5q83 -1 108.5 37t25.5 109v1194h129z" />
    <glyph glyph-name="k" unicode="k" horiz-adv-x="1024" 
d="M252 1462v-917l586 512h172l-450 -391l480 -666h-161l-418 575l-209 -174v-401h-129v1462h129z" />
    <glyph glyph-name="l" unicode="l" horiz-adv-x="379" 
d="M254 1462v-1462h-129v1462h129z" />
    <glyph glyph-name="m" unicode="m" horiz-adv-x="1706" 
d="M594 1087q110 0 191 -52.5t112 -153.5q49 101 137.5 153.5t199.5 52.5q176 0 262.5 -93.5t86.5 -267.5v-726h-129v719q0 134 -60 197t-189 63q-141 0 -214 -97t-73 -274v-608h-130v724q0 119 -55 187t-166 68q-154 0 -234.5 -104.5t-80.5 -275.5v-599h-129v1057h119v-178
h6q55 104 141.5 156t204.5 52z" />
    <glyph glyph-name="n" unicode="n" horiz-adv-x="1100" 
d="M593 1087q203 0 294.5 -99t91.5 -298v-690h-129v668q0 153 -66.5 232t-201.5 79q-106 0 -182.5 -51.5t-113 -138t-36.5 -171.5v-618h-129v1057h129v-183h4q37 95 130 154t209 59z" />
    <glyph glyph-name="o" unicode="o" 
d="M569 1087q226 0 363 -157t137 -402q0 -148 -56.5 -276t-172 -205.5t-271.5 -77.5q-224 0 -361.5 157.5t-137.5 401.5q0 245 137 402t362 157zM199 528q0 -187 101 -318.5t269 -131.5t269.5 132t101.5 318t-101.5 318.5t-271.5 132.5q-164 0 -266 -131t-102 -320z" />
    <glyph glyph-name="p" unicode="p" horiz-adv-x="1176" 
d="M623 1087q222 0 348.5 -155t126.5 -404q0 -247 -127 -403t-347 -156q-126 0 -227.5 62t-140.5 170h-4v-592h-129v1448h119v-201h4q47 111 148 171t229 60zM252 529q0 -201 96.5 -326t274.5 -125q162 0 254 128.5t92 321.5q0 194 -92 322.5t-257 128.5q-179 0 -273.5 -113
t-94.5 -337z" />
    <glyph glyph-name="q" unicode="q" horiz-adv-x="1176" 
d="M552 1087q120 0 227.5 -64t150.5 -167h4v201h119v-1448h-129v592h-4q-40 -108 -141 -170t-227 -62q-216 0 -345 152t-129 407q0 254 128 406.5t346 152.5zM207 528q0 -196 92.5 -323t253.5 -127q177 0 274 126t97 324q0 199 -96.5 325t-275.5 126q-157 0 -251 -124.5
t-94 -326.5z" />
    <glyph glyph-name="r" unicode="r" horiz-adv-x="645" 
d="M613 1071h32v-129h-15q-171 0 -274.5 -109.5t-103.5 -272.5v-560h-129v1057h119v-248h4q48 124 145.5 193t221.5 69z" />
    <glyph glyph-name="s" unicode="s" horiz-adv-x="985" 
d="M498 1087q172 0 274.5 -88t112.5 -251h-129q-6 112 -81.5 171.5t-195.5 59.5q-112 0 -181 -48t-69 -134q0 -68 61.5 -112.5t158.5 -66.5l221 -49q109 -25 180.5 -98t71.5 -184q0 -148 -121.5 -233t-303.5 -85q-196 0 -307 94t-127 279h130q7 -125 91.5 -194.5
t219.5 -69.5q120 0 204.5 54t84.5 147q0 71 -54.5 118t-181.5 75l-162 36q-139 30 -217 97t-78 186q0 137 112 216.5t286 79.5z" />
    <glyph glyph-name="t" unicode="t" horiz-adv-x="606" 
d="M328 1374v-317h215v-109h-215v-721q0 -81 30.5 -106t78.5 -25q20 0 47.5 1.5t58.5 4.5v-110q-28 -2 -56.5 -3t-57.5 -1q-129 0 -179.5 49t-50.5 176v735h-185v109h185v317h129z" />
    <glyph glyph-name="u" unicode="u" horiz-adv-x="1100" 
d="M250 1057v-689q0 -133 62.5 -211.5t218.5 -78.5q149 0 234 119t85 297v563h129v-1057h-119v190h-4q-51 -104 -147 -162.5t-218 -58.5q-190 0 -280 101t-90 292v695h129z" />
    <glyph glyph-name="v" unicode="v" horiz-adv-x="948" 
d="M147 1057l332 -928h4l328 928h133l-395 -1057h-137l-408 1057h143z" />
    <glyph glyph-name="w" unicode="w" horiz-adv-x="1518" 
d="M154 1057l270 -905h4l258 905h145l259 -905h4l270 905h137l-339 -1053l-2 -4h-140l-260 889h-4l-258 -889h-142l-340 1057h138z" />
    <glyph glyph-name="x" unicode="x" horiz-adv-x="985" 
d="M195 1057l301 -402l295 402h161l-381 -506l412 -551h-164l-332 444l-325 -444h-160l410 549l-379 508h162z" />
    <glyph glyph-name="y" unicode="y" horiz-adv-x="948" 
d="M141 1057l348 -900l326 900h129l-455 -1208q-45 -123 -99.5 -181.5t-178.5 -58.5q-5 0 -45.5 2t-56.5 8v109h2q7 -3 36 -7t50 -4q80 0 121.5 49t107.5 238l-422 1053h137z" />
    <glyph glyph-name="z" unicode="z" horiz-adv-x="948" 
d="M885 1057v-92l-699 -856h727v-109h-882v104l690 844h-643v109h807z" />
    <glyph glyph-name="braceleft" unicode="{" horiz-adv-x="682" 
d="M600 1384h-19q-36 0 -53 -5.5t-33.5 -24.5t-26.5 -45t-16 -60t-6 -68v-305q0 -102 -38 -190t-105 -133v-4q71 -49 107 -137t36 -187v-306q0 -22 8.5 -78.5t37.5 -90.5t69 -33h39v-108h-114q-59 3 -98.5 42.5t-55 95t-15.5 111.5v324q0 151 -36 232t-111 81v109
q77 0 112 84q35 82 35 230v326q0 56 15.5 111.5t55.5 95t99 42.5h113v-109z" />
    <glyph glyph-name="bar" unicode="|" horiz-adv-x="455" 
d="M174 1610h109v-2048h-109v2048z" />
    <glyph glyph-name="braceright" unicode="}" horiz-adv-x="682" 
d="M82 1493h114q59 -3 98.5 -42.5t55 -95t15.5 -111.5v-324q0 -148 35 -230t112 -84v-108q-77 0 -112 -83t-35 -231v-326t-15.5 -111.5t-55.5 -95t-98 -42.5h-114v108h32q23 0 40 5.5t33.5 24.5t26.5 45t16 60t6 69v304q0 99 36 187t107 137v4q-67 44 -105 133
q-38 88 -38 190v307q0 43 -10.5 88t-24.5 64.5t-23.5 28.5t-23 14.5t-38.5 5.5h-34v109z" />
    <glyph glyph-name="asciitilde" unicode="~" horiz-adv-x="1229" 
d="M1014 645l73 -74q-56 -89 -117.5 -132.5t-138.5 -43.5q-40 0 -90 13t-130 53q-81 39 -130 53t-93 14q-56 0 -98 -34t-75 -107l-74 74q45 88 109 132t147 44q60 0 131.5 -25t163.5 -66q92 -42 142 -42q47 0 89.5 32.5t90.5 108.5z" />
    <glyph glyph-name="Adieresis" unicode="&#xc4;" horiz-adv-x="1290" 
d="M535 1845v-207h-139v207h139zM897 1845v-207h-139v207h139zM731 1462l574 -1462h-150l-178 455h-666l-176 -455h-149l589 1462h156zM354 573h576l-283 749z" />
    <glyph glyph-name="Aring" unicode="&#xc5;" horiz-adv-x="1290" 
d="M651 1980q93 0 156.5 -66t63.5 -153q0 -89 -65 -154t-155 -65q-89 0 -154 65t-65 154q0 87 63.5 153t155.5 66zM512 1761q0 -59 40 -99t99 -40q60 0 100 40t40 99t-40 99.5t-101 40.5q-57 0 -97.5 -40t-40.5 -100zM731 1462l574 -1462h-150l-178 455h-666l-176 -455h-149
l589 1462h156zM354 573h576l-283 749z" />
    <glyph glyph-name="Ccedilla" unicode="&#xc7;" horiz-adv-x="1442" 
d="M768 1493q222 0 389 -126.5t199 -346.5h-139q-41 169 -163.5 261.5t-286.5 92.5q-254 0 -402 -180.5t-148 -462.5q0 -277 146 -460t404 -183q190 0 318 128.5t152 340.5h139q-30 -272 -191 -429t-419 -159l-66 -80q13 4 32.5 6.5t37.5 2.5q68 0 118 -36t50 -102
q0 -82 -67.5 -129t-158.5 -47q-47 0 -95.5 9.5t-96.5 33.5l29 66q20 -9 67 -19t94 -10q52 0 80.5 23.5t28.5 64.5q0 36 -25.5 57t-64.5 21q-31 0 -57 -4t-45 -12l-33 30l101 129q-294 28 -455.5 239.5t-161.5 518.5q0 335 188.5 548.5t501.5 213.5z" />
    <glyph glyph-name="Eacute" unicode="&#xc9;" horiz-adv-x="1214" 
d="M946 1884l-270 -289h-104l215 289h159zM1157 1462v-119h-870v-528h815v-119h-815v-577h880v-119h-1020v1462h1010z" />
    <glyph glyph-name="Ntilde" unicode="&#xd1;" horiz-adv-x="1442" 
d="M985 1843h78q-19 -96 -65.5 -145t-112.5 -49q-67 0 -153 47q-87 47 -130 47q-38 0 -63.5 -25.5t-38.5 -79.5h-80q12 89 62.5 143t119.5 54q70 0 153 -45t124 -45q40 0 65.5 23.5t40.5 74.5zM301 1462l852 -1237h4v1237h139v-1462h-155l-852 1237h-4v-1237h-140v1462h156z
" />
    <glyph glyph-name="Odieresis" unicode="&#xd6;" horiz-adv-x="1518" 
d="M647 1845v-207h-139v207h139zM1009 1845v-207h-139v207h139zM760 1493q206 0 363.5 -97t241 -275t83.5 -390q0 -330 -186.5 -546t-501.5 -216q-316 0 -503 213.5t-187 548.5t187.5 548.5t502.5 213.5zM209 731q0 -276 145.5 -459.5t405.5 -183.5q257 0 403 182.5
t146 460.5q0 275 -145 459t-406 184q-254 0 -401.5 -180t-147.5 -463z" />
    <glyph glyph-name="Udieresis" unicode="&#xdc;" horiz-adv-x="1403" 
d="M586 1845v-207h-139v207h139zM948 1845v-207h-139v207h139zM272 1462v-915q0 -224 104 -341.5t324 -117.5q221 0 325.5 116t104.5 343v915h140v-945q0 -242 -145 -395t-425 -153q-171 0 -299.5 64t-198 193t-69.5 291v945h139z" />
    <glyph glyph-name="aacute" unicode="&#xe1;" horiz-adv-x="1063" 
d="M540 1087q200 0 294 -86.5t94 -244.5v-574q0 -32 18 -52.5t58 -20.5q11 0 21 1.5t19 6.5v-109q-24 -5 -42.5 -6.5t-39.5 -1.5q-84 0 -118.5 40.5t-34.5 132.5v11h-4q-79 -120 -165.5 -167.5t-218.5 -47.5q-161 0 -258 80.5t-97 229.5q0 153 106.5 230.5t475.5 110.5
q84 7 117.5 38.5t33.5 103.5q0 107 -65 162t-211 55q-133 0 -206 -63t-77 -183h-129q9 174 119.5 264t309.5 90zM795 578q-20 -36 -123 -50q-102 -14 -226 -35.5t-187.5 -70.5t-63.5 -135q0 -94 70 -151.5t166 -57.5q158 0 263 94t105 232v174h-4zM829 1495l-270 -289h-104
l215 289h159z" />
    <glyph glyph-name="agrave" unicode="&#xe0;" horiz-adv-x="1063" 
d="M540 1087q200 0 294 -86.5t94 -244.5v-574q0 -32 18 -52.5t58 -20.5q11 0 21 1.5t19 6.5v-109q-24 -5 -42.5 -6.5t-39.5 -1.5q-84 0 -118.5 40.5t-34.5 132.5v11h-4q-79 -120 -165.5 -167.5t-218.5 -47.5q-161 0 -258 80.5t-97 229.5q0 153 106.5 230.5t475.5 110.5
q84 7 117.5 38.5t33.5 103.5q0 107 -65 162t-211 55q-133 0 -206 -63t-77 -183h-129q9 174 119.5 264t309.5 90zM795 578q-20 -36 -123 -50q-102 -14 -226 -35.5t-187.5 -70.5t-63.5 -135q0 -94 70 -151.5t166 -57.5q158 0 263 94t105 232v174h-4zM399 1495l215 -289h-104
l-270 289h159z" />
    <glyph glyph-name="acircumflex" unicode="&#xe2;" horiz-adv-x="1063" 
d="M540 1087q200 0 294 -86.5t94 -244.5v-574q0 -32 18 -52.5t58 -20.5q11 0 21 1.5t19 6.5v-109q-24 -5 -42.5 -6.5t-39.5 -1.5q-84 0 -118.5 40.5t-34.5 132.5v11h-4q-79 -120 -165.5 -167.5t-218.5 -47.5q-161 0 -258 80.5t-97 229.5q0 153 106.5 230.5t475.5 110.5
q84 7 117.5 38.5t33.5 103.5q0 107 -65 162t-211 55q-133 0 -206 -63t-77 -183h-129q9 174 119.5 264t309.5 90zM795 578q-20 -36 -123 -50q-102 -14 -226 -35.5t-187.5 -70.5t-63.5 -135q0 -94 70 -151.5t166 -57.5q158 0 263 94t105 232v174h-4zM602 1495l234 -289h-133
l-177 209l-180 -209h-119l234 289h141z" />
    <glyph glyph-name="adieresis" unicode="&#xe4;" horiz-adv-x="1063" 
d="M540 1087q200 0 294 -86.5t94 -244.5v-574q0 -32 18 -52.5t58 -20.5q11 0 21 1.5t19 6.5v-109q-24 -5 -42.5 -6.5t-39.5 -1.5q-84 0 -118.5 40.5t-34.5 132.5v11h-4q-79 -120 -165.5 -167.5t-218.5 -47.5q-161 0 -258 80.5t-97 229.5q0 153 106.5 230.5t475.5 110.5
q84 7 117.5 38.5t33.5 103.5q0 107 -65 162t-211 55q-133 0 -206 -63t-77 -183h-129q9 174 119.5 264t309.5 90zM795 578q-20 -36 -123 -50q-102 -14 -226 -35.5t-187.5 -70.5t-63.5 -135q0 -94 70 -151.5t166 -57.5q158 0 263 94t105 232v174h-4zM416 1456v-207h-139v207
h139zM778 1456v-207h-139v207h139z" />
    <glyph glyph-name="atilde" unicode="&#xe3;" horiz-adv-x="1063" 
d="M540 1087q200 0 294 -86.5t94 -244.5v-574q0 -32 18 -52.5t58 -20.5q11 0 21 1.5t19 6.5v-109q-24 -5 -42.5 -6.5t-39.5 -1.5q-84 0 -118.5 40.5t-34.5 132.5v11h-4q-79 -120 -165.5 -167.5t-218.5 -47.5q-161 0 -258 80.5t-97 229.5q0 153 106.5 230.5t475.5 110.5
q84 7 117.5 38.5t33.5 103.5q0 107 -65 162t-211 55q-133 0 -206 -63t-77 -183h-129q9 174 119.5 264t309.5 90zM795 578q-20 -36 -123 -50q-102 -14 -226 -35.5t-187.5 -70.5t-63.5 -135q0 -94 70 -151.5t166 -57.5q158 0 263 94t105 232v174h-4zM774 1454h78
q-19 -96 -65.5 -145t-112.5 -49q-50 0 -103 23t-99 47t-81 24q-38 0 -63.5 -25.5t-38.5 -79.5h-80q11 89 62 143t120 54q44 0 91 -17.5t98 -44.5q51 -28 88 -28q38 0 64.5 22.5t41.5 75.5z" />
    <glyph glyph-name="aring" unicode="&#xe5;" horiz-adv-x="1063" 
d="M540 1087q200 0 294 -86.5t94 -244.5v-574q0 -32 18 -52.5t58 -20.5q11 0 21 1.5t19 6.5v-109q-24 -5 -42.5 -6.5t-39.5 -1.5q-84 0 -118.5 40.5t-34.5 132.5v11h-4q-79 -120 -165.5 -167.5t-218.5 -47.5q-161 0 -258 80.5t-97 229.5q0 153 106.5 230.5t475.5 110.5
q84 7 117.5 38.5t33.5 103.5q0 107 -65 162t-211 55q-133 0 -206 -63t-77 -183h-129q9 174 119.5 264t309.5 90zM795 578q-20 -36 -123 -50q-102 -14 -226 -35.5t-187.5 -70.5t-63.5 -135q0 -94 70 -151.5t166 -57.5q158 0 263 94t105 232v174h-4zM526 1612q89 0 154.5 -65
t65.5 -154q0 -88 -64 -153.5t-156 -65.5q-91 0 -155 65.5t-64 153.5t65 153.5t154 65.5zM387 1393q0 -59 40 -99.5t99 -40.5q60 0 100 40t40 100q0 59 -39.5 99t-101.5 40q-58 0 -98 -39.5t-40 -99.5z" />
    <glyph glyph-name="ccedilla" unicode="&#xe7;" horiz-adv-x="1063" 
d="M569 1087q186 0 296.5 -96t131.5 -266h-129q-28 126 -103 190t-196 64q-166 0 -268 -130.5t-102 -320.5q0 -188 102 -319t268 -131q116 0 204 82t104 219h129q-29 -192 -140.5 -298.5t-285.5 -111.5l-66 -80q12 4 32 6.5t37 2.5q71 0 120 -37.5t49 -100.5q0 -80 -66 -128
t-160 -48q-46 0 -94 9t-98 34l28 66q19 -9 67 -19t94 -10q53 0 81.5 23.5t28.5 64.5q0 37 -27 57.5t-63 20.5q-33 0 -59 -4.5t-44 -11.5l-32 30l102 129q-207 25 -323.5 178t-116.5 377q0 245 137 402t362 157z" />
    <glyph glyph-name="eacute" unicode="&#xe9;" horiz-adv-x="1063" 
d="M547 1087q215 0 340 -156t125 -416v-21h-813q3 -184 98.5 -300t249.5 -116q129 0 212 66.5t120 203.5h129q-45 -191 -158 -285t-303 -94q-224 0 -350.5 150t-126.5 409q0 246 127 402.5t350 156.5zM883 602q-5 157 -98.5 267t-239.5 110q-137 0 -230.5 -102t-115.5 -275
h684zM848 1495l-270 -289h-104l215 289h159z" />
    <glyph glyph-name="egrave" unicode="&#xe8;" horiz-adv-x="1063" 
d="M547 1087q215 0 340 -156t125 -416v-21h-813q3 -184 98.5 -300t249.5 -116q129 0 212 66.5t120 203.5h129q-45 -191 -158 -285t-303 -94q-224 0 -350.5 150t-126.5 409q0 246 127 402.5t350 156.5zM883 602q-5 157 -98.5 267t-239.5 110q-137 0 -230.5 -102t-115.5 -275
h684zM418 1495l215 -289h-104l-270 289h159z" />
    <glyph glyph-name="ecircumflex" unicode="&#xea;" horiz-adv-x="1063" 
d="M547 1087q215 0 340 -156t125 -416v-21h-813q3 -184 98.5 -300t249.5 -116q129 0 212 66.5t120 203.5h129q-45 -191 -158 -285t-303 -94q-224 0 -350.5 150t-126.5 409q0 246 127 402.5t350 156.5zM883 602q-5 157 -98.5 267t-239.5 110q-137 0 -230.5 -102t-115.5 -275
h684zM620 1495l234 -289h-133l-177 209l-180 -209h-119l234 289h141z" />
    <glyph glyph-name="edieresis" unicode="&#xeb;" horiz-adv-x="1063" 
d="M547 1087q215 0 340 -156t125 -416v-21h-813q3 -184 98.5 -300t249.5 -116q129 0 212 66.5t120 203.5h129q-45 -191 -158 -285t-303 -94q-224 0 -350.5 150t-126.5 409q0 246 127 402.5t350 156.5zM883 602q-5 157 -98.5 267t-239.5 110q-137 0 -230.5 -102t-115.5 -275
h684zM434 1456v-207h-139v207h139zM796 1456v-207h-139v207h139z" />
    <glyph glyph-name="iacute" unicode="&#xed;" horiz-adv-x="379" 
d="M254 1057v-1057h-129v1057h129zM489 1495l-270 -289h-104l215 289h159z" />
    <glyph glyph-name="igrave" unicode="&#xec;" horiz-adv-x="379" 
d="M254 1057v-1057h-129v1057h129zM61 1495l215 -289h-104l-270 289h159z" />
    <glyph glyph-name="icircumflex" unicode="&#xee;" horiz-adv-x="379" 
d="M254 1057v-1057h-129v1057h129zM264 1495l234 -289h-133l-177 209l-180 -209h-119l234 289h141z" />
    <glyph glyph-name="idieresis" unicode="&#xef;" horiz-adv-x="379" 
d="M254 1057v-1057h-129v1057h129zM78 1456v-207h-139v207h139zM440 1456v-207h-139v207h139z" />
    <glyph glyph-name="ntilde" unicode="&#xf1;" horiz-adv-x="1100" 
d="M593 1087q203 0 294.5 -99t91.5 -298v-690h-129v668q0 153 -66.5 232t-201.5 79q-106 0 -182.5 -51.5t-113 -138t-36.5 -171.5v-618h-129v1057h129v-183h4q37 95 130 154t209 59zM794 1454h78q-19 -96 -65.5 -145t-112.5 -49q-50 0 -103 23t-99 47t-81 24
q-38 0 -63.5 -25.5t-38.5 -79.5h-80q11 89 62 143t120 54q44 0 91 -17.5t98 -44.5q51 -28 88 -28q38 0 64.5 22.5t41.5 75.5z" />
    <glyph glyph-name="oacute" unicode="&#xf3;" 
d="M569 1087q226 0 363 -157t137 -402q0 -148 -56.5 -276t-172 -205.5t-271.5 -77.5q-224 0 -361.5 157.5t-137.5 401.5q0 245 137 402t362 157zM199 528q0 -187 101 -318.5t269 -131.5t269.5 132t101.5 318t-101.5 318.5t-271.5 132.5q-164 0 -266 -131t-102 -320z
M872 1495l-270 -289h-104l215 289h159z" />
    <glyph glyph-name="ograve" unicode="&#xf2;" 
d="M569 1087q226 0 363 -157t137 -402q0 -148 -56.5 -276t-172 -205.5t-271.5 -77.5q-224 0 -361.5 157.5t-137.5 401.5q0 245 137 402t362 157zM199 528q0 -187 101 -318.5t269 -131.5t269.5 132t101.5 318t-101.5 318.5t-271.5 132.5q-164 0 -266 -131t-102 -320z
M442 1495l215 -289h-104l-270 289h159z" />
    <glyph glyph-name="ocircumflex" unicode="&#xf4;" 
d="M569 1087q226 0 363 -157t137 -402q0 -148 -56.5 -276t-172 -205.5t-271.5 -77.5q-224 0 -361.5 157.5t-137.5 401.5q0 245 137 402t362 157zM199 528q0 -187 101 -318.5t269 -131.5t269.5 132t101.5 318t-101.5 318.5t-271.5 132.5q-164 0 -266 -131t-102 -320z
M645 1495l234 -289h-133l-177 209l-180 -209h-119l234 289h141z" />
    <glyph glyph-name="odieresis" unicode="&#xf6;" 
d="M569 1087q226 0 363 -157t137 -402q0 -148 -56.5 -276t-172 -205.5t-271.5 -77.5q-224 0 -361.5 157.5t-137.5 401.5q0 245 137 402t362 157zM199 528q0 -187 101 -318.5t269 -131.5t269.5 132t101.5 318t-101.5 318.5t-271.5 132.5q-164 0 -266 -131t-102 -320z
M459 1456v-207h-139v207h139zM821 1456v-207h-139v207h139z" />
    <glyph glyph-name="otilde" unicode="&#xf5;" 
d="M569 1087q226 0 363 -157t137 -402q0 -148 -56.5 -276t-172 -205.5t-271.5 -77.5q-224 0 -361.5 157.5t-137.5 401.5q0 245 137 402t362 157zM199 528q0 -187 101 -318.5t269 -131.5t269.5 132t101.5 318t-101.5 318.5t-271.5 132.5q-164 0 -266 -131t-102 -320z
M817 1454h78q-19 -96 -65.5 -145t-112.5 -49q-50 0 -103 23t-99 47t-81 24q-38 0 -63.5 -25.5t-38.5 -79.5h-80q11 89 62 143t120 54q44 0 91 -17.5t98 -44.5q51 -28 88 -28q38 0 64.5 22.5t41.5 75.5z" />
    <glyph glyph-name="uacute" unicode="&#xfa;" horiz-adv-x="1100" 
d="M250 1057v-689q0 -133 62.5 -211.5t218.5 -78.5q149 0 234 119t85 297v563h129v-1057h-119v190h-4q-51 -104 -147 -162.5t-218 -58.5q-190 0 -280 101t-90 292v695h129zM850 1495l-270 -289h-104l215 289h159z" />
    <glyph glyph-name="ugrave" unicode="&#xf9;" horiz-adv-x="1100" 
d="M250 1057v-689q0 -133 62.5 -211.5t218.5 -78.5q149 0 234 119t85 297v563h129v-1057h-119v190h-4q-51 -104 -147 -162.5t-218 -58.5q-190 0 -280 101t-90 292v695h129zM420 1495l215 -289h-104l-270 289h159z" />
    <glyph glyph-name="ucircumflex" unicode="&#xfb;" horiz-adv-x="1100" 
d="M250 1057v-689q0 -133 62.5 -211.5t218.5 -78.5q149 0 234 119t85 297v563h129v-1057h-119v190h-4q-51 -104 -147 -162.5t-218 -58.5q-190 0 -280 101t-90 292v695h129zM622 1495l234 -289h-133l-177 209l-180 -209h-119l234 289h141z" />
    <glyph glyph-name="udieresis" unicode="&#xfc;" horiz-adv-x="1100" 
d="M250 1057v-689q0 -133 62.5 -211.5t218.5 -78.5q149 0 234 119t85 297v563h129v-1057h-119v190h-4q-51 -104 -147 -162.5t-218 -58.5q-190 0 -280 101t-90 292v695h129zM436 1456v-207h-139v207h139zM798 1456v-207h-139v207h139z" />
    <glyph glyph-name="dagger" unicode="&#x2020;" 
d="M633 1462v-452h407v-109h-407v-1210h-129v1210h-406v109h406v452h129z" />
    <glyph glyph-name="degree" unicode="&#xb0;" horiz-adv-x="819" 
d="M410 1446q121 0 208 -88t87 -207q0 -121 -86 -208t-209 -87q-122 0 -208.5 84t-86.5 211q0 125 87.5 210t207.5 85zM195 1151q0 -90 62.5 -152.5t152.5 -62.5q88 0 151.5 63t63.5 152q0 85 -62.5 150t-154.5 65q-89 0 -151 -63t-62 -152z" />
    <glyph glyph-name="cent" unicode="&#xa2;" 
d="M552 1266h81v-179q172 -5 279.5 -101.5t125.5 -260.5h-129q-26 122 -96 186t-180 68v-901q110 6 190 89t95 212h129q-27 -189 -137.5 -296t-276.5 -114v-207h-80v209q-207 22 -324.5 177.5t-117.5 379.5q0 226 118 380t323 175v183zM240 528q0 -172 85 -299t228 -149v895
q-145 -23 -229 -148.5t-84 -298.5z" />
    <glyph glyph-name="sterling" unicode="&#xa3;" 
d="M578 1493q219 0 347 -124t128 -357v-4h-129q-2 178 -93.5 277t-252.5 99q-149 0 -243.5 -87t-94.5 -234q0 -100 50 -184.5t70 -137.5h328v-65h-291q20 -29 34.5 -88t14.5 -111q0 -95 -57.5 -191t-167.5 -182l4 -4q61 32 109 47t92 15q109 0 209 -42q99 -42 174 -42
q61 0 124.5 31t110.5 84l66 -99q-73 -65 -144 -95t-155 -30q-101 0 -216 42q-116 42 -208 42q-64 0 -107.5 -17.5t-117.5 -66.5l-74 111q120 98 174.5 189.5t54.5 191.5q0 44 -14.5 104t-42.5 111h-166v65h129q-59 92 -85.5 172t-26.5 159q0 197 132 309t335 112z" />
    <glyph glyph-name="section" unicode="&#xa7;" 
d="M560 1493q178 0 277.5 -95.5t99.5 -267.5h-128v15q0 98 -67.5 168.5t-170.5 70.5t-166 -49.5t-63 -132.5q0 -78 63 -145.5t273 -174.5q202 -103 285.5 -197.5t83.5 -211.5q0 -87 -55.5 -162t-168.5 -125q51 -45 77 -101t26 -122q0 -129 -101.5 -211t-245.5 -82
q-173 0 -275 92.5t-102 270.5h128v-16q0 -98 67.5 -168t169.5 -70q101 0 165.5 48.5t64.5 133.5q0 80 -68 150t-274 174t-284.5 198t-78.5 207q0 94 61 170t162 117q-51 45 -76.5 101.5t-25.5 121.5q0 130 101.5 211.5t245.5 81.5zM221 694q0 -82 74 -157.5t245 -167.5
q170 -92 205 -119q85 34 129 89.5t44 131.5q0 81 -71 157.5t-239 164.5q-169 87 -219 122q-89 -39 -128.5 -92.5t-39.5 -128.5z" />
    <glyph glyph-name="bullet" unicode="&#x2022;" horiz-adv-x="1024" 
d="M512 1096q151 0 259 -108t108 -257q0 -148 -106.5 -257t-260.5 -109t-259.5 109t-105.5 257t106 256.5t259 108.5z" />
    <glyph glyph-name="paragraph" unicode="&#xb6;" horiz-adv-x="1229" 
d="M1063 1462v-1824h-129v1716h-246v-1716h-129v1034q-185 3 -304.5 117.5t-119.5 272.5q0 191 119 295.5t329 104.5h480z" />
    <glyph glyph-name="germandbls" unicode="&#xdf;" horiz-adv-x="1100" 
d="M532 1493q178 0 290 -99t112 -261q0 -114 -61.5 -198t-170.5 -110v-4h2q140 -13 222 -121t82 -259q0 -205 -122.5 -331t-359.5 -126h-37t-38 4v112q25 -4 48 -6t47 -2q150 0 241.5 86t91.5 242q0 173 -91.5 253.5t-324.5 80.5h-12v108q180 0 267 69.5t87 196.5
q0 109 -77 182.5t-194 73.5q-146 0 -213 -72t-67 -218v-1094h-129v1104q0 182 107 285.5t300 103.5z" />
    <glyph glyph-name="registered" unicode="&#xae;" horiz-adv-x="1638" 
d="M819 1493q325 0 543.5 -222.5t218.5 -539.5q0 -320 -221 -541t-541 -221q-319 0 -540.5 220.5t-221.5 541.5q0 322 221 542t541 220zM176 731q0 -273 184.5 -463t458.5 -190q272 0 457.5 189.5t185.5 463.5t-185 463.5t-460 189.5q-272 0 -456.5 -189.5t-184.5 -463.5z
M889 1171q133 0 205.5 -58.5t72.5 -184.5q0 -101 -55 -162.5t-166 -83.5l262 -391h-127l-247 391h-183v-391h-108v880h346zM811 774q149 0 198.5 38.5t49.5 115.5q0 75 -52 113t-150 38h-206v-305h160z" />
    <glyph glyph-name="copyright" unicode="&#xa9;" horiz-adv-x="1638" 
d="M819 1493q326 0 544 -222.5t218 -539.5q0 -320 -221 -541t-541 -221q-319 0 -540.5 220.5t-221.5 541.5q0 322 221 542t541 220zM176 731q0 -273 184.5 -463t458.5 -190q272 0 457.5 189.5t185.5 463.5t-185 463.5t-460 189.5q-272 0 -456.5 -189.5t-184.5 -463.5z
M838 1200q148 0 252.5 -81.5t126.5 -227.5h-105q-21 100 -96.5 158.5t-178.5 58.5q-154 0 -244.5 -103.5t-90.5 -273.5q0 -173 92 -275t246 -102q104 0 177 58.5t95 158.5h105q-21 -144 -125 -226.5t-254 -82.5q-203 0 -324 130.5t-121 338.5q0 210 122 339.5t323 129.5z
" />
    <glyph glyph-name="trademark" unicode="&#x2122;" horiz-adv-x="2028" 
d="M825 1462v-92h-274v-752h-109v752h-274v92h657zM1149 1462l272 -684l265 684h174v-844h-109v746h-4l-299 -746h-62l-299 746h-4v-746h-108v844h174z" />
    <glyph glyph-name="acute" unicode="&#xb4;" horiz-adv-x="379" 
d="M442 1495l-270 -289h-104l215 289h159z" />
    <glyph glyph-name="dieresis" unicode="&#xa8;" horiz-adv-x="379" 
d="M78 1456v-207h-139v207h139zM440 1456v-207h-139v207h139z" />
    <glyph glyph-name="notequal" unicode="&#x2260;" horiz-adv-x="1229" 
d="M884 1081l93 -51l-148 -256h301v-108h-364l-170 -295h534v-109h-598l-184 -319l-94 51l154 268h-308v109h371l170 295h-541v108h605z" />
    <glyph glyph-name="AE" unicode="&#xc6;" horiz-adv-x="1858" 
d="M1802 1462v-119h-751v-528h704v-119h-704v-577h759v-119h-899v463h-530l-238 -463h-157l766 1462h1050zM442 582h469v761h-82z" />
    <glyph glyph-name="Oslash" unicode="&#xd8;" horiz-adv-x="1518" 
d="M760 1493q140 0 258.5 -44t212.5 -136l145 160l54 -48l-150 -165q81 -98 124.5 -234.5t43.5 -294.5q0 -330 -186.5 -546t-501.5 -216q-145 0 -263 45.5t-210 137.5l-156 -177l-55 52l162 180q-84 104 -126 237t-42 287q0 335 188.5 548.5t501.5 213.5zM209 731
q0 -123 30 -232t89 -192l815 907q-70 78 -167.5 119t-217.5 41q-252 0 -400.5 -180t-148.5 -463zM1188 1157l-813 -907q73 -81 168.5 -121.5t216.5 -40.5q257 0 403 182.5t146 460.5q0 124 -30.5 232t-90.5 194z" />
    <glyph glyph-name="infinity" unicode="&#x221e;" horiz-adv-x="1554" 
d="M1165 840q131 0 217 -89t86 -229q0 -139 -82 -230t-219 -91q-86 0 -177.5 48.5t-211.5 174.5l-127.5 -113t-127 -80t-136.5 -28q-133 0 -217 88t-84 225q0 140 84 230t213 90q92 0 181.5 -52t213.5 -182q143 149 224 193.5t163 44.5zM866 514q111 -106 177.5 -140
t130.5 -34q73 0 117 48.5t44 127.5q0 81 -44 132.5t-125 51.5q-53 0 -117 -36t-183 -150zM219 516q0 -78 46 -127t124 -49q63 0 139.5 44t161.5 130q-91 88 -167 136t-141 48q-73 0 -118 -53t-45 -129z" />
    <glyph glyph-name="plusminus" unicode="&#xb1;" horiz-adv-x="1229" 
d="M561 1030h109v-368h460v-109h-460v-369h-109v369h-459v109h459v368zM1130 109v-109h-1030v109h1030z" />
    <glyph glyph-name="lessequal" unicode="&#x2264;" horiz-adv-x="1229" 
d="M1128 1080v-111l-907 -340l907 -340v-113l-1030 397v111l1027 396h3zM1128 109v-109h-1030v109h1030z" />
    <glyph glyph-name="greaterequal" unicode="&#x2265;" horiz-adv-x="1229" 
d="M100 1081l1030 -397v-111l-1030 -397v113l908 340l-908 340v112zM1130 109v-109h-1030v109h1030z" />
    <glyph glyph-name="yen" unicode="&#xa5;" 
d="M160 1462l407 -747l412 747h141l-432 -747h223v-92h-268l-12 -21v-149h280v-93h-280v-360h-129v360h-277v93h277v149l-13 21h-264v92h217l-430 747h148z" />
    <glyph glyph-name="uni00B5" horiz-adv-x="1100" 
d="M250 1057v-689q0 -133 62.5 -211.5t218.5 -78.5q149 0 234 117.5t85 298.5v563h129v-1057h-119v190h-4q-51 -104 -148 -162.5t-216 -58.5q-69 0 -132.5 18.5t-109.5 53.5v-432h-129v1448h129z" />
    <glyph glyph-name="partialdiff" unicode="&#x2202;" horiz-adv-x="1047" 
d="M446 1477q248 0 381.5 -202t133.5 -535q0 -364 -120.5 -564.5t-355.5 -200.5q-180 0 -298.5 132.5t-118.5 328.5q0 192 113.5 315t293.5 123q94 0 178 -38.5t152 -115.5l2 96q0 133 -41 261.5t-122.5 199.5t-190.5 71q-58 0 -114 -23.5t-120 -73.5l-86 103
q72 63 148.5 93t164.5 30zM219 430q0 -139 75.5 -235.5t194.5 -96.5q140 0 223.5 142.5t83.5 332.5q-65 87 -144.5 131t-159.5 44q-122 0 -197.5 -90.5t-75.5 -227.5z" />
    <glyph glyph-name="summation" unicode="&#x2211;" horiz-adv-x="1260" 
d="M1182 1610v-148h-895l616 -868l-653 -885h956v-147h-1155v131l660 901l-631 885v131h1102z" />
    <glyph glyph-name="product" unicode="&#x220f;" horiz-adv-x="1473" 
d="M1331 1610v-2048h-160v1900h-872v-1900h-160v2048h1192z" />
    <glyph glyph-name="pi" unicode="&#x3c0;" horiz-adv-x="1210" 
d="M1155 1057v-109h-168v-765q0 -29 19.5 -51.5t70.5 -22.5q20 0 33.5 2.5t17.5 5.5v-109q-22 -4 -51 -6t-54 -2q-90 0 -127.5 46t-37.5 131v771h-528v-948h-129v948h-154v109h1108z" />
    <glyph glyph-name="integral" unicode="&#x222b;" horiz-adv-x="1135" 
d="M697 1610q68 0 115.5 -30.5t47.5 -84.5q0 -36 -25 -57t-61 -21q-25 0 -46 18.5t-37 44.5q-16 25 -32 25q-31 0 -47.5 -48.5t-16.5 -144.5l5 -175v-1122q0 -244 -65 -347.5t-192 -103.5q-59 0 -100.5 29t-41.5 77q0 31 24 52.5t51 21.5q41 0 67 -43q25 -43 40 -43
q28 0 43.5 57.5t15.5 174.5q0 27 -2 75l-2 1197q0 254 66 351t193 97z" />
    <glyph glyph-name="ordfeminine" unicode="&#xaa;" horiz-adv-x="637" 
d="M301 1446q137 0 199.5 -51.5t62.5 -147.5v-358q0 -16 12.5 -31.5t38.5 -15.5q8 0 14 1.5t13 4.5v-70q-14 -3 -26.5 -4.5t-28.5 -1.5q-54 0 -76.5 24t-22.5 86v5h-4q-41 -66 -104 -99.5t-148 -33.5q-115 0 -178 50t-63 146q0 103 72 150.5t233 59.5q94 6 133 18t39 52
q0 67 -44.5 101.5t-134.5 34.5q-79 0 -127.5 -37t-48.5 -106h-98q6 111 80 167t207 56zM463 1124q-10 -19 -78 -29q-23 -4 -161 -26t-138 -115q0 -49 43.5 -84.5t98.5 -35.5q103 0 171 55t68 137v98h-4z" />
    <glyph glyph-name="ordmasculine" unicode="&#xba;" horiz-adv-x="684" 
d="M332 1446q158 0 252 -94t94 -252q0 -155 -91.5 -250.5t-254.5 -95.5q-151 0 -238.5 96.5t-87.5 249.5q0 155 89 250.5t237 95.5zM102 1100q0 -108 65.5 -187t174.5 -79t174.5 79t65.5 187t-65.5 187t-176.5 79q-106 0 -172 -78t-66 -188z" />
    <glyph glyph-name="uni2126" horiz-adv-x="1554" 
d="M780 1493q195 0 351.5 -94t243.5 -254.5t87 -342.5q0 -207 -87.5 -379.5t-262.5 -295.5v-8h373v-119h-541v123q193 135 285 299.5t92 379.5q0 246 -150 409t-391 163q-249 0 -400 -156.5t-151 -412.5q0 -209 94 -377.5t290 -303.5v-124h-543v119h364v8
q-167 116 -256.5 289.5t-89.5 386.5q0 299 196 494.5t496 195.5z" />
    <glyph glyph-name="ae" unicode="&#xe6;" horiz-adv-x="1782" 
d="M539 1087q159 0 248 -57.5t104 -161.5h4q41 105 144 162t228 57q222 0 338.5 -154t116.5 -439h-795v-42q1 -171 93 -272.5t252 -101.5q124 0 203.5 67t109.5 197h129q-44 -183 -162.5 -278t-298.5 -95q-144 0 -242 68t-145 199h-4q-22 -119 -154 -193t-288 -74
q-159 0 -256.5 80.5t-97.5 229.5q0 153 106.5 230.5t475.5 110.5q84 7 117.5 38.5t33.5 103.5q0 107 -65 162t-211 55q-133 0 -206 -63t-77 -183h-129q9 174 119.5 264t308.5 90zM928 602h665q-3 164 -97.5 270.5t-237.5 106.5t-236.5 -103.5t-93.5 -261.5v-12zM795 578
q-20 -36 -123 -50q-102 -14 -226 -35.5t-187.5 -70.5t-63.5 -135q0 -94 70 -151.5t166 -57.5q158 0 263 94t105 232v174h-4z" />
    <glyph glyph-name="oslash" unicode="&#xf8;" 
d="M569 1087q110 0 197 -35t152 -104l106 115l45 -41l-111 -121q57 -80 84 -175t27 -198q0 -148 -56.5 -276.5t-172 -205.5t-271.5 -77q-104 0 -190.5 35t-153.5 105l-121 -132l-45 41l125 138q-55 73 -84.5 167t-29.5 205q0 245 137 402t362 157zM199 528q0 -79 18 -147
t55 -129l559 604q-48 60 -115.5 91.5t-148.5 31.5q-164 0 -266 -131t-102 -320zM868 803l-559 -604q50 -61 115 -91t145 -30q169 0 270 132t101 318q0 74 -18 145.5t-54 129.5z" />
    <glyph glyph-name="questiondown" unicode="&#xbf;" horiz-adv-x="1100" 
d="M629 1057v-217h-172v217h172zM608 705v-36q0 -141 -41.5 -222.5t-174.5 -201.5q-79 -71 -115.5 -140t-36.5 -142q0 -118 85 -197t207 -79q150 0 239 94.5t91 257.5v20h129q-2 -229 -127.5 -355t-336.5 -126q-181 0 -298.5 105.5t-117.5 273.5q0 94 38 173t159 194
q108 102 138 149.5t33 231.5h129z" />
    <glyph glyph-name="exclamdown" unicode="&#xa1;" horiz-adv-x="494" 
d="M334 1057v-217h-172v217h172zM209 692h78l30 -661v-422h-139v422z" />
    <glyph glyph-name="logicalnot" unicode="&#xac;" horiz-adv-x="1229" 
d="M1130 774v-547h-108v439h-922v108h1030z" />
    <glyph glyph-name="radical" unicode="&#x221a;" horiz-adv-x="1032" 
d="M1053 1610l-432 -2048h-154l-332 684l-96 -45l-57 123l229 106l309 -649l376 1823l2 6h155z" />
    <glyph glyph-name="florin" unicode="&#x192;" 
d="M878 1462q30 0 59.5 -2.5t66.5 -7.5l-25 -106q-26 4 -50 6t-41 2q-73 0 -122.5 -44.5t-69 -119.5t-37.5 -154l-28 -137h231l-18 -108h-232l-144 -765q-41 -223 -122 -301.5t-226 -78.5q-32 0 -56 2.5t-50 7.5l19 111q28 -7 54 -10t49 -3q68 0 117.5 56.5t74.5 172.5
l153 808h-205l19 108h207l26 138q27 123 54 213t95.5 151t200.5 61z" />
    <glyph glyph-name="approxequal" unicode="&#x2248;" horiz-adv-x="1229" 
d="M1053 854h104q-17 -123 -85.5 -192.5t-178.5 -69.5q-104 0 -286 73q-183 72 -274 72q-61 0 -102 -41.5t-55 -111.5h-104q16 120 84.5 191t179.5 71q103 0 289 -73q185 -73 272 -73q56 0 98 40t58 114zM1053 451h104q-19 -131 -90 -197t-174 -66q-49 0 -118.5 17
t-182.5 61q-114 43 -167 55.5t-92 12.5q-56 0 -99 -39.5t-58 -114.5h-104q15 120 84 191t180 71q53 0 119.5 -16.5t178.5 -58.5q111 -43 166 -56.5t96 -13.5q55 0 97.5 38t59.5 116z" />
    <glyph glyph-name="uni2206" unicode="&#x2206;" horiz-adv-x="1290" 
d="M731 1462l574 -1462h-1319l589 1462h156zM180 119h928l-461 1203z" />
    <glyph glyph-name="guillemotleft" unicode="&#xab;" horiz-adv-x="872" 
d="M395 883v-138l-192 -182l192 -182v-137l-272 256v127zM725 883v-138l-193 -182l193 -182v-137l-272 256v127z" />
    <glyph glyph-name="guillemotright" unicode="&#xbb;" horiz-adv-x="872" 
d="M420 627v-127l-273 -256v137l193 182l-193 182v138zM750 627v-127l-273 -256v137l193 182l-193 182v138z" />
    <glyph glyph-name="ellipsis" unicode="&#x2026;" horiz-adv-x="2048" 
d="M428 217v-217h-172v217h172zM1110 217v-217h-172v217h172zM1792 217v-217h-172v217h172z" />
    <glyph glyph-name="Agrave" unicode="&#xc0;" horiz-adv-x="1290" 
d="M518 1884l215 -289h-104l-270 289h159zM731 1462l574 -1462h-150l-178 455h-666l-176 -455h-149l589 1462h156zM354 573h576l-283 749z" />
    <glyph glyph-name="Atilde" unicode="&#xc3;" horiz-adv-x="1290" 
d="M893 1843h78q-19 -96 -65.5 -145t-112.5 -49q-67 0 -153 47q-87 47 -130 47q-38 0 -63.5 -25.5t-38.5 -79.5h-80q12 89 62.5 143t119.5 54q70 0 153 -45t124 -45q40 0 65.5 23.5t40.5 74.5zM731 1462l574 -1462h-150l-178 455h-666l-176 -455h-149l589 1462h156zM354 573
h576l-283 749z" />
    <glyph glyph-name="Otilde" unicode="&#xd5;" horiz-adv-x="1518" 
d="M1005 1843h78q-19 -96 -65.5 -145t-112.5 -49q-67 0 -153 47q-87 47 -130 47q-38 0 -63.5 -25.5t-38.5 -79.5h-80q12 89 62.5 143t119.5 54q70 0 153 -45t124 -45q40 0 65.5 23.5t40.5 74.5zM760 1493q206 0 363.5 -97t241 -275t83.5 -390q0 -330 -186.5 -546
t-501.5 -216q-316 0 -503 213.5t-187 548.5t187.5 548.5t502.5 213.5zM209 731q0 -276 145.5 -459.5t405.5 -183.5q257 0 403 182.5t146 460.5q0 275 -145 459t-406 184q-254 0 -401.5 -180t-147.5 -463z" />
    <glyph glyph-name="OE" unicode="&#x152;" horiz-adv-x="2200" 
d="M768 1493q127 0 227.5 -38t169.5 -114v121h971v-119h-831v-528h753v-119h-753v-577h837v-119h-977v143q-72 -83 -179 -128.5t-219 -45.5q-304 0 -497.5 218t-193.5 544q0 325 192 543.5t500 218.5zM215 731q0 -278 151.5 -460.5t401.5 -182.5q184 0 290.5 89.5
t106.5 180.5v700q0 101 -15 134t-62 74t-137 74.5t-186 33.5q-244 0 -397 -181.5t-153 -461.5z" />
    <glyph glyph-name="oe" unicode="&#x153;" horiz-adv-x="1821" 
d="M545 1087q148 0 242.5 -67.5t134.5 -192.5h4q43 117 144.5 188.5t245.5 71.5q229 0 340 -146.5t111 -446.5h-786q4 -193 93 -304.5t238 -111.5q127 0 207.5 66t116.5 196h129q-42 -178 -163.5 -274.5t-302.5 -96.5q-137 0 -242 73t-135 196h-4q-40 -133 -140 -201
t-239 -68q-220 0 -342.5 150t-122.5 409q0 247 127 403t344 156zM203 505q0 -189 88.5 -308t249.5 -119q153 0 232 114t79 344q0 222 -78.5 332.5t-232.5 110.5q-160 0 -249 -123.5t-89 -350.5zM1638 602q0 167 -91.5 272t-237.5 105q-145 0 -235.5 -101.5t-92.5 -275.5h657
z" />
    <glyph glyph-name="endash" unicode="&#x2013;" horiz-adv-x="1024" 
d="M1024 623v-119h-1024v119h1024z" />
    <glyph glyph-name="emdash" unicode="&#x2014;" horiz-adv-x="2048" 
d="M1782 623v-119h-1516v119h1516z" />
    <glyph glyph-name="quotedblleft" unicode="&#x201c;" horiz-adv-x="758" 
d="M446 965v225q0 87 46 166.5t137 105.5v-88q-43 -17 -70 -67.5t-27 -111.5v-13h86v-217h-172zM131 965v225q0 87 46 166.5t136 105.5v-88q-42 -17 -69 -67.5t-27 -111.5v-13h86v-217h-172z" />
    <glyph glyph-name="quotedblright" unicode="&#x201d;" horiz-adv-x="758" 
d="M627 1462v-225q0 -88 -46 -166.5t-137 -106.5v88q43 14 70 66.5t27 113.5v13h-86v217h172zM311 1462v-225q0 -88 -46 -166.5t-136 -106.5v88q42 14 69 66.5t27 113.5v13h-86v217h172z" />
    <glyph glyph-name="quoteleft" unicode="&#x2018;" horiz-adv-x="569" 
d="M377 1374q-43 -18 -69.5 -66t-26.5 -106v-20h86v-217h-172v225q0 88 46.5 168t135.5 104v-88z" />
    <glyph glyph-name="quoteright" unicode="&#x2019;" horiz-adv-x="569" 
d="M375 1462v-225q0 -88 -45.5 -166.5t-136.5 -106.5v88q42 14 69 66.5t27 113.5v13h-86v217h172z" />
    <glyph glyph-name="divide" unicode="&#xf7;" horiz-adv-x="1229" 
d="M614 1042q48 0 81.5 -33.5t33.5 -80.5q0 -45 -34.5 -80t-78.5 -35q-47 0 -81.5 34t-34.5 81t33.5 80.5t80.5 33.5zM1130 569v-108h-1030v108h1030zM614 217q48 0 81.5 -33.5t33.5 -81.5q0 -44 -34.5 -79t-78.5 -35q-47 0 -81.5 33.5t-34.5 80.5q0 48 33.5 81.5t80.5 33.5
z" />
    <glyph glyph-name="lozenge" unicode="&#x25ca;" horiz-adv-x="1214" 
d="M680 1530l352 -801l-352 -801h-148l-350 801l350 801h148zM338 729l268 -645l271 645l-271 645z" />
    <glyph glyph-name="ydieresis" unicode="&#xff;" horiz-adv-x="948" 
d="M141 1057l348 -900l326 900h129l-455 -1208q-45 -123 -99.5 -181.5t-178.5 -58.5q-5 0 -45.5 2t-56.5 8v109h2q7 -3 36 -7t50 -4q80 0 121.5 49t107.5 238l-422 1053h137zM373 1456v-207h-139v207h139zM735 1456v-207h-139v207h139z" />
    <glyph glyph-name="Ydieresis" unicode="&#x178;" horiz-adv-x="1251" 
d="M516 1845v-207h-139v207h139zM878 1845v-207h-139v207h139zM145 1462l480 -738l3 -2l478 740h166l-578 -860v-602h-139v602l-575 860h165z" />
    <glyph glyph-name="fraction" unicode="&#x2044;" horiz-adv-x="342" 
d="M588 1485h96l-926 -1555h-98z" />
    <glyph glyph-name="Euro" unicode="&#x20ac;" 
d="M760 1458q127 0 222.5 -39.5t158.5 -118.5l-55 -118h-2q-67 80 -148.5 119.5t-177.5 39.5q-178 0 -293.5 -121.5t-155.5 -330.5h682l-37 -92h-657q-6 -30 -6.5 -60.5t2.5 -60.5h622l-38 -92h-578q32 -241 150 -370.5t303 -129.5q88 0 167.5 33.5t188.5 142.5v-158
q-78 -66 -168.5 -99.5t-191.5 -33.5q-242 0 -396 163t-186 452h-135l39 92h89q-1 30 -1 60.5t4 60.5h-131l37 92h104q46 258 199.5 413.5t388.5 155.5z" />
    <glyph glyph-name="guilsinglleft" unicode="&#x2039;" horiz-adv-x="530" 
d="M381 883v-138l-193 -182l193 -182v-137l-272 256v127z" />
    <glyph glyph-name="guilsinglright" unicode="&#x203a;" horiz-adv-x="530" 
d="M422 627v-127l-272 -256v137l192 182l-192 182v138z" />
    <glyph glyph-name="fi" unicode="&#xfb01;" horiz-adv-x="909" 
d="M450 1462q79 -2 107 -8v-111q-24 6 -51.5 8.5t-42.5 2.5q-75 0 -108 -37t-33 -119v-141h208v-109h-208v-948h-129v948h-181v109h181v100q0 169 63.5 237t193.5 68zM784 1462v-207h-129v207h129zM784 1057v-1057h-129v1057h129z" />
    <glyph glyph-name="fl" unicode="&#xfb02;" horiz-adv-x="909" 
d="M450 1462q79 -2 107 -8v-111q-24 6 -51.5 8.5t-42.5 2.5q-75 0 -108 -37t-33 -119v-141h208v-109h-208v-948h-129v948h-181v109h181v100q0 169 63.5 237t193.5 68zM784 1462v-1462h-129v1462h129z" />
    <glyph glyph-name="daggerdbl" unicode="&#x2021;" 
d="M633 1462v-405h407v-109h-407v-743h407v-109h-407v-405h-129v405h-406v109h406v743h-406v109h406v405h129z" />
    <glyph glyph-name="periodcentered" unicode="&#xb7;" horiz-adv-x="569" 
d="M285 768q50 0 85.5 -37.5t35.5 -85.5q0 -45 -36.5 -82t-84.5 -37q-49 0 -85 38t-36 85q0 48 37.5 83.5t83.5 35.5z" />
    <glyph glyph-name="quotesinglbase" unicode="&#x201a;" horiz-adv-x="569" 
d="M375 217v-225q0 -88 -46 -166.5t-136 -106.5v88q42 14 69 66.5t27 113.5v13h-86v217h172z" />
    <glyph glyph-name="quotedblbase" unicode="&#x201e;" horiz-adv-x="758" 
d="M311 217v-225q0 -88 -46 -167t-136 -106v88q48 18 72.5 71.5t24.5 104.5v17h-87v217h172zM627 217v-225q0 -88 -46 -166.5t-137 -106.5v88q43 14 70 66.5t27 113.5v13h-86v217h172z" />
    <glyph glyph-name="perthousand" unicode="&#x2030;" horiz-adv-x="2275" 
d="M1192 1485h96l-926 -1555h-98zM438 1446q150 0 227.5 -89.5t77.5 -256.5q0 -170 -78.5 -258t-226.5 -88q-149 0 -227 89.5t-78 256.5q0 163 77 254.5t228 91.5zM242 1100q0 -132 49.5 -193t146.5 -61q99 0 148 65.5t49 188.5t-49.5 188.5t-149.5 65.5q-93 0 -143.5 -60
t-50.5 -194zM1120 662q146 0 225.5 -88t79.5 -259q0 -167 -77.5 -256.5t-227.5 -89.5q-151 0 -228 91.5t-77 254.5q0 169 79.5 258t225.5 89zM1845 662q146 0 225.5 -88t79.5 -259q0 -167 -77.5 -256.5t-227.5 -89.5q-151 0 -228 91.5t-77 254.5q0 166 78.5 256.5
t226.5 90.5zM924 315q0 -132 50 -193t146 -61q99 0 148 65.5t49 188.5q0 125 -48.5 189.5t-150.5 64.5q-94 0 -144 -59.5t-50 -194.5zM1649 315q0 -132 50 -193t146 -61q99 0 148 65.5t49 188.5q0 125 -48.5 189.5t-150.5 64.5q-94 0 -144 -59.5t-50 -194.5z" />
    <glyph glyph-name="Acircumflex" unicode="&#xc2;" horiz-adv-x="1290" 
d="M721 1884l234 -289h-133l-177 209l-180 -209h-119l234 289h141zM731 1462l574 -1462h-150l-178 455h-666l-176 -455h-149l589 1462h156zM354 573h576l-283 749z" />
    <glyph glyph-name="Ecircumflex" unicode="&#xca;" horiz-adv-x="1214" 
d="M719 1884l234 -289h-133l-177 209l-180 -209h-119l234 289h141zM1157 1462v-119h-870v-528h815v-119h-815v-577h880v-119h-1020v1462h1010z" />
    <glyph glyph-name="Aacute" unicode="&#xc1;" horiz-adv-x="1290" 
d="M948 1884l-270 -289h-104l215 289h159zM731 1462l574 -1462h-150l-178 455h-666l-176 -455h-149l589 1462h156zM354 573h576l-283 749z" />
    <glyph glyph-name="Edieresis" unicode="&#xcb;" horiz-adv-x="1214" 
d="M533 1845v-207h-139v207h139zM895 1845v-207h-139v207h139zM1157 1462v-119h-870v-528h815v-119h-815v-577h880v-119h-1020v1462h1010z" />
    <glyph glyph-name="Egrave" unicode="&#xc8;" horiz-adv-x="1214" 
d="M516 1884l215 -289h-104l-270 289h159zM1157 1462v-119h-870v-528h815v-119h-815v-577h880v-119h-1020v1462h1010z" />
    <glyph glyph-name="Iacute" unicode="&#xcd;" horiz-adv-x="455" 
d="M528 1884l-270 -289h-104l215 289h159zM297 1462v-1462h-139v1462h139z" />
    <glyph glyph-name="Icircumflex" unicode="&#xce;" horiz-adv-x="455" 
d="M301 1884l234 -289h-133l-177 209l-180 -209h-119l234 289h141zM297 1462v-1462h-139v1462h139z" />
    <glyph glyph-name="Idieresis" unicode="&#xcf;" horiz-adv-x="455" 
d="M115 1845v-207h-139v207h139zM477 1845v-207h-139v207h139zM297 1462v-1462h-139v1462h139z" />
    <glyph glyph-name="Igrave" unicode="&#xcc;" horiz-adv-x="455" 
d="M98 1884l215 -289h-104l-270 289h159zM297 1462v-1462h-139v1462h139z" />
    <glyph glyph-name="Oacute" unicode="&#xd3;" horiz-adv-x="1518" 
d="M1060 1884l-270 -289h-104l215 289h159zM760 1493q206 0 363.5 -97t241 -275t83.5 -390q0 -330 -186.5 -546t-501.5 -216q-316 0 -503 213.5t-187 548.5t187.5 548.5t502.5 213.5zM209 731q0 -276 145.5 -459.5t405.5 -183.5q257 0 403 182.5t146 460.5q0 275 -145 459
t-406 184q-254 0 -401.5 -180t-147.5 -463z" />
    <glyph glyph-name="Ocircumflex" unicode="&#xd4;" horiz-adv-x="1518" 
d="M833 1884l234 -289h-133l-177 209l-180 -209h-119l234 289h141zM760 1493q206 0 363.5 -97t241 -275t83.5 -390q0 -330 -186.5 -546t-501.5 -216q-316 0 -503 213.5t-187 548.5t187.5 548.5t502.5 213.5zM209 731q0 -276 145.5 -459.5t405.5 -183.5q257 0 403 182.5
t146 460.5q0 275 -145 459t-406 184q-254 0 -401.5 -180t-147.5 -463z" />
    <glyph glyph-name="Ograve" unicode="&#xd2;" horiz-adv-x="1518" 
d="M631 1884l215 -289h-104l-270 289h159zM760 1493q206 0 363.5 -97t241 -275t83.5 -390q0 -330 -186.5 -546t-501.5 -216q-316 0 -503 213.5t-187 548.5t187.5 548.5t502.5 213.5zM209 731q0 -276 145.5 -459.5t405.5 -183.5q257 0 403 182.5t146 460.5q0 275 -145 459
t-406 184q-254 0 -401.5 -180t-147.5 -463z" />
    <glyph glyph-name="Uacute" unicode="&#xda;" horiz-adv-x="1403" 
d="M999 1884l-270 -289h-104l215 289h159zM272 1462v-915q0 -224 104 -341.5t324 -117.5q221 0 325.5 116t104.5 343v915h140v-945q0 -242 -145 -395t-425 -153q-171 0 -299.5 64t-198 193t-69.5 291v945h139z" />
    <glyph glyph-name="Ucircumflex" unicode="&#xdb;" horiz-adv-x="1403" 
d="M772 1884l234 -289h-133l-177 209l-180 -209h-119l234 289h141zM272 1462v-915q0 -224 104 -341.5t324 -117.5q221 0 325.5 116t104.5 343v915h140v-945q0 -242 -145 -395t-425 -153q-171 0 -299.5 64t-198 193t-69.5 291v945h139z" />
    <glyph glyph-name="Ugrave" unicode="&#xd9;" horiz-adv-x="1403" 
d="M569 1884l215 -289h-104l-270 289h159zM272 1462v-915q0 -224 104 -341.5t324 -117.5q221 0 325.5 116t104.5 343v915h140v-945q0 -242 -145 -395t-425 -153q-171 0 -299.5 64t-198 193t-69.5 291v945h139z" />
    <glyph glyph-name="dotlessi" unicode="&#x131;" horiz-adv-x="379" 
d="M254 1057v-1057h-129v1057h129z" />
    <glyph glyph-name="circumflex" unicode="&#x2c6;" horiz-adv-x="379" 
d="M266 1495l234 -289h-133l-177 209l-180 -209h-119l234 289h141z" />
    <glyph glyph-name="tilde" unicode="&#x2dc;" horiz-adv-x="379" 
d="M432 1454h78q-19 -96 -65.5 -145t-112.5 -49q-50 0 -103 23t-99 47t-81 24q-38 0 -63.5 -25.5t-38.5 -79.5h-80q11 89 62 143t120 54q44 0 91 -17.5t98 -44.5q51 -28 88 -28q38 0 64.5 22.5t41.5 75.5z" />
    <glyph glyph-name="macron" unicode="&#xaf;" horiz-adv-x="379" 
d="M526 1399v-92h-673v92h673z" />
    <glyph glyph-name="breve" unicode="&#x2d8;" horiz-adv-x="379" 
d="M-104 1483h79q6 -79 66.5 -123.5t144.5 -44.5q80 0 142 44.5t75 123.5h80q-15 -119 -94.5 -189.5t-202.5 -70.5q-128 0 -204.5 70t-85.5 190z" />
    <glyph glyph-name="dotaccent" unicode="&#x2d9;" horiz-adv-x="379" 
d="M260 1456v-207h-139v207h139z" />
    <glyph glyph-name="ring" unicode="&#x2da;" horiz-adv-x="379" 
d="M190 1612q89 0 154.5 -65t65.5 -154q0 -88 -64 -153.5t-156 -65.5q-91 0 -155 65.5t-64 153.5t65 153.5t154 65.5zM51 1393q0 -59 40 -99.5t99 -40.5q60 0 100 40t40 100q0 59 -39.5 99t-101.5 40q-58 0 -98 -39.5t-40 -99.5z" />
    <glyph glyph-name="cedilla" unicode="&#xb8;" horiz-adv-x="379" 
d="M186 0h72l-90 -111q12 4 32 6.5t37 2.5q71 0 120 -37.5t49 -100.5q0 -80 -66 -128t-160 -48q-46 0 -94 9t-98 34l28 66q24 -11 73 -20t88 -9q53 0 81.5 23.5t28.5 64.5q0 35 -26 56.5t-64 21.5q-33 0 -59 -4.5t-44 -11.5l-33 30z" />
    <glyph glyph-name="hungarumlaut" unicode="&#x2dd;" horiz-adv-x="379" 
d="M295 1495l-258 -289h-105l207 289h156zM614 1495l-258 -289h-104l207 289h155z" />
    <glyph glyph-name="ogonek" unicode="&#x2db;" horiz-adv-x="379" 
d="M309 0h78q-92 -77 -130 -126t-38 -113q0 -45 26 -71t64 -26q31 0 59.5 19.5t53.5 64.5l59 -27q-28 -65 -76.5 -101t-123.5 -36q-85 0 -136 45t-51 123q0 64 54 123t161 125z" />
    <glyph glyph-name="caron" unicode="&#x2c7;" horiz-adv-x="379" 
d="M10 1495l176 -209l181 209h118l-233 -289h-141l-234 289h133z" />
    <glyph glyph-name="Lslash" unicode="&#x141;" horiz-adv-x="1100" 
d="M287 1462v-739l497 344v-115l-497 -342v-491h819v-119h-959v514l-167 -117v115l167 115v835h140z" />
    <glyph glyph-name="Scaron" unicode="&#x160;" horiz-adv-x="1290" 
d="M473 1884l176 -209l181 209h118l-233 -289h-141l-234 289h133zM623 1493q235 0 387 -121.5t152 -333.5h-138q-9 160 -121.5 248t-277.5 88q-173 0 -270 -74.5t-97 -215.5q0 -83 49.5 -138.5t180.5 -87.5l333 -82q206 -51 300 -145t94 -243q0 -184 -141 -301.5
t-418 -117.5q-273 0 -429 123t-156 356v33h140v-10q0 -194 121.5 -288.5t353.5 -94.5q151 0 270 79.5t119 217.5q0 189 -285 260l-341 84q-175 43 -252.5 128t-77.5 223q0 170 129.5 291.5t374.5 121.5z" />
    <glyph glyph-name="Yacute" unicode="&#xdd;" horiz-adv-x="1251" 
d="M929 1884l-270 -289h-104l215 289h159zM145 1462l480 -738l3 -2l478 740h166l-578 -860v-602h-139v602l-575 860h165z" />
    <glyph glyph-name="Zcaron" unicode="&#x17d;" horiz-adv-x="1176" 
d="M416 1884l176 -209l181 209h118l-233 -289h-141l-234 289h133zM1128 1462v-123l-962 -1220h983v-119h-1139v123l963 1220h-897v119h1052z" />
    <glyph glyph-name="Eth" unicode="&#xd0;" horiz-adv-x="1403" 
d="M624 1462q341 0 521 -175t180 -556q0 -383 -183 -557t-508 -174h-487v713h-147v92h147v657h477zM770 805v-92h-483v-594h289q323 0 466.5 142t143.5 470q0 325 -140 468.5t-480 143.5h-279v-538h483z" />
    <glyph glyph-name="Thorn" unicode="&#xde;" horiz-adv-x="1290" 
d="M287 1462v-239h498q208 0 327 -111t119 -307q0 -195 -118 -306.5t-308 -111.5h-518v-387h-140v1462h140zM774 506q145 0 231.5 77.5t86.5 221.5q0 140 -85 219.5t-253 79.5h-467v-598h487z" />
    <glyph glyph-name="lslash" unicode="&#x142;" horiz-adv-x="379" 
d="M254 1462v-547l137 113v-113l-137 -112v-803h-129v696l-137 -112v112l137 113v653h129z" />
    <glyph glyph-name="scaron" unicode="&#x161;" horiz-adv-x="985" 
d="M498 1087q172 0 274.5 -88t112.5 -251h-129q-6 112 -81.5 171.5t-195.5 59.5q-112 0 -181 -48t-69 -134q0 -68 61.5 -112.5t158.5 -66.5l221 -49q109 -25 180.5 -98t71.5 -184q0 -148 -121.5 -233t-303.5 -85q-196 0 -307 94t-127 279h130q7 -125 91.5 -194.5
t219.5 -69.5q120 0 204.5 54t84.5 147q0 71 -54.5 118t-181.5 75l-162 36q-139 30 -217 97t-78 186q0 137 112 216.5t286 79.5zM329 1495l176 -209l181 209h118l-233 -289h-141l-234 289h133z" />
    <glyph glyph-name="yacute" unicode="&#xfd;" horiz-adv-x="948" 
d="M141 1057l348 -900l326 900h129l-455 -1208q-45 -123 -99.5 -181.5t-178.5 -58.5q-5 0 -45.5 2t-56.5 8v109h2q7 -3 36 -7t50 -4q80 0 121.5 49t107.5 238l-422 1053h137zM786 1495l-270 -289h-104l215 289h159z" />
    <glyph glyph-name="zcaron" unicode="&#x17e;" horiz-adv-x="948" 
d="M885 1057v-92l-699 -856h727v-109h-882v104l690 844h-643v109h807zM303 1495l176 -209l181 209h118l-233 -289h-141l-234 289h133z" />
    <glyph glyph-name="eth" unicode="&#xf0;" 
d="M365 1520l99.5 -56.5t113.5 -74.5l233 131l68 -66l-224 -125q198 -160 300 -362.5t102 -437.5q0 -254 -134 -407t-368 -153q-227 0 -356 145t-129 395q0 229 132.5 378t353.5 149q93 0 163.5 -20.5t107.5 -61.5h4q-39 77 -104.5 158t-167.5 164l-215 -121l-68 66l205 114
q-30 20 -88.5 56t-101.5 57zM199 508q0 -196 96.5 -313t265.5 -117q171 0 269 117.5t98 316.5q0 181 -95.5 298.5t-269.5 117.5q-172 0 -268 -113t-96 -307z" />
    <glyph glyph-name="thorn" unicode="&#xfe;" horiz-adv-x="1176" 
d="M252 1462v-606h4q37 107 139 169t229 62q221 0 347.5 -156t126.5 -403t-127 -403t-347 -156q-126 0 -227.5 62t-140.5 170h-4v-592h-129v1853h129zM252 528q0 -200 96.5 -325t274.5 -125q162 0 254 128.5t92 321.5q0 194 -91.5 322.5t-256.5 128.5q-175 0 -272 -124.5
t-97 -326.5z" />
    <glyph glyph-name="brokenbar" unicode="&#xa6;" horiz-adv-x="455" 
d="M174 1354h109v-512h-109v512zM174 330h109v-512h-109v512z" />
    <glyph glyph-name="currency" unicode="&#xa4;" 
d="M251 1102q60 52 144 83.5t175 31.5q88 0 166.5 -28.5t147.5 -84.5l112 113l78 -78l-110 -111q59 -75 86.5 -153.5t27.5 -165.5q0 -91 -28.5 -169t-85.5 -151l110 -110l-78 -78l-112 112q-64 -54 -144 -83t-170 -29q-88 0 -166.5 27.5t-152.5 86.5l-115 -114l-78 78
l117 116q-56 69 -84.5 147.5t-28.5 166.5q0 86 28.5 167t82.5 148l-115 115l78 78zM192 709q0 -167 112 -278.5t266 -111.5q153 0 266 111.5t113 278.5q0 164 -111.5 276.5t-269.5 112.5q-152 0 -264 -111.5t-112 -277.5z" />
    <glyph glyph-name="onesuperior" unicode="&#xb9;" horiz-adv-x="758" 
d="M391 1679h80v-866h-96v639h-238v72q69 3 131 10t88.5 41t34.5 104z" />
    <glyph glyph-name="twosuperior" unicode="&#xb2;" horiz-adv-x="758" 
d="M391 1698q133 0 203 -67.5t70 -188.5q0 -89 -47 -158t-135 -125l-113 -72q-93 -60 -129.5 -103t-49.5 -91h472v-80h-582q2 108 55.5 187.5t281.5 219.5q80 49 115 103.5t35 126.5q0 76 -48 121t-128 45q-92 0 -143.5 -60.5t-51.5 -171.5h-98q0 149 76.5 231.5t216.5 82.5
z" />
    <glyph glyph-name="threesuperior" unicode="&#xb3;" horiz-adv-x="758" 
d="M389 1698q116 0 189 -60t73 -168q0 -69 -39 -119.5t-117 -74.5q89 -12 140 -67.5t51 -143.5q0 -122 -86 -196t-223 -74q-143 0 -224 72t-81 197q1 8 1 16t1 16h96v-7q0 -105 57 -160t148 -55t153 50.5t62 134.5q0 80 -60.5 126.5t-182.5 45.5h-34v80h44q94 0 146 43.5
t52 107.5q0 75 -45 115.5t-125 40.5q-89 0 -141.5 -54.5t-52.5 -156.5h-97q4 137 82.5 214t212.5 77z" />
    <glyph glyph-name="onequarter" unicode="&#xbc;" horiz-adv-x="1708" 
d="M1200 1485h96l-925 -1555h-99zM362 1427h80v-866h-96v639h-237v72q159 4 200 31.5t53 123.5zM1321 866h90v-581h139v-80h-139v-205h-96v205h-430v80zM979 285h336v444z" />
    <glyph glyph-name="onehalf" unicode="&#xbd;" horiz-adv-x="1708" 
d="M1200 1485h96l-925 -1555h-99zM362 1427h80v-866h-96v639h-237v72q159 4 200 31.5t53 123.5zM1315 885q133 0 202.5 -67t69.5 -189q0 -91 -44.5 -157t-134.5 -124l-123 -79q-76 -48 -118.5 -95t-52.5 -94h471v-80h-581q3 102 49 176.5t174 157.5l139 89.5t125 213.5
q0 76 -48 121t-128 45q-91 0 -143.5 -59.5t-52.5 -172.5h-97q0 149 76 231.5t217 82.5z" />
    <glyph glyph-name="threequarters" unicode="&#xbe;" horiz-adv-x="1708" 
d="M1354 1485h96l-926 -1555h-98zM1362 866h90v-581h139v-80h-139v-205h-96v205h-430v80zM1020 285h336v444zM465 1446q116 0 189 -60t73 -168q0 -69 -39 -119.5t-117 -74.5q89 -12 140 -67.5t51 -143.5q0 -122 -86 -196t-223 -74q-143 0 -224 72t-81 197q1 8 1 16t1 16h96
v-7q0 -105 57 -160t148 -55t153 50.5t62 134.5q0 80 -60.5 126.5t-182.5 45.5h-34v80h44q94 0 146 43.5t52 107.5q0 75 -45 115.5t-125 40.5q-89 0 -141.5 -54.5t-52.5 -156.5h-97q4 137 82.5 214t212.5 77z" />
    <glyph glyph-name="minus" unicode="&#x2212;" horiz-adv-x="1229" 
d="M1130 569v-108h-1030v108h1030z" />
    <glyph glyph-name="multiply" unicode="&#xd7;" horiz-adv-x="1229" 
d="M227 977l387 -387l387 387l76 -76l-387 -387l387 -387l-76 -76l-387 385l-387 -385l-75 76l385 387l-385 387z" />
    <glyph glyph-name="estimated" unicode="&#x212e;" horiz-adv-x="1556" 
d="M780 1446q301 0 494.5 -202t198.5 -537h-1080v-484q76 -76 171.5 -116.5t215.5 -40.5q172 0 296.5 79t219.5 242l95 -57q-119 -187 -258.5 -274t-351.5 -87q-198 0 -356 94t-246.5 265t-88.5 379q0 212 90.5 384t248.5 263.5t351 91.5zM393 805h778v387
q-82 78 -180.5 119t-214.5 41q-106 0 -203 -38.5t-180 -121.5v-387z" />
    <glyph glyph-name="liter" unicode="&#x2113;" horiz-adv-x="1024" 
d="M584 1477q87 0 144.5 -65.5t57.5 -186.5q0 -146 -86 -311.5t-254 -346.5v-331q0 -83 42.5 -133t117.5 -50q45 0 92 20.5t88 59.5h5l40 -55q-49 -50 -112 -78.5t-133 -28.5q-113 0 -178.5 66.5t-65.5 180.5v274l-121 -132h-4l-43 56l168 172v549q0 149 67.5 244.5
t174.5 95.5zM446 666q123 144 187.5 286.5t64.5 261.5q0 84 -34 135.5t-83 51.5q-60 0 -97.5 -70.5t-37.5 -179.5v-485z" />
    <glyph glyph-name="uni25CC" unicode="&#x25cc;" horiz-adv-x="1866" 
d="M991 1374q0 -25 -16 -41t-41 -16q-23 0 -40 16t-17 41q0 23 17 40.5t40 17.5q25 0 41 -17.5t16 -40.5zM1251 1319q0 -23 -16 -40t-41 -17q-23 0 -40 17t-17 40q0 25 17 41t40 16q25 0 41 -16t16 -41zM1466 1174q0 -23 -16 -40.5t-41 -17.5t-41 17.5t-16 40.5
q0 24 16 41.5t41 17.5t41 -17.5t16 -41.5zM1610 956q0 -23 -16.5 -40t-41.5 -17q-23 0 -40 17t-17 40q0 25 17 41.5t40 16.5q25 0 41.5 -16.5t16.5 -41.5zM1661 705q0 -25 -16.5 -41.5t-40.5 -16.5q-23 0 -40.5 16.5t-17.5 41.5q0 23 17.5 40t40.5 17q24 0 40.5 -17
t16.5 -40zM1610 444q0 -24 -16.5 -40.5t-41.5 -16.5q-23 0 -40 16.5t-17 40.5q0 23 17 40.5t40 17.5q25 0 41.5 -17.5t16.5 -40.5zM1466 229q0 -23 -16 -40t-41 -17t-41 17t-16 40t16 40.5t41 17.5t41 -17.5t16 -40.5zM1245 82q0 -23 -16 -40t-41 -17q-23 0 -40.5 17
t-17.5 40q0 25 17.5 41t40.5 16q25 0 41 -16t16 -41zM991 35q0 -25 -16 -42.5t-41 -17.5q-23 0 -40 17.5t-17 42.5q0 23 17 40t40 17q25 0 41 -17t16 -40zM733 86q0 -25 -17 -41t-40 -16q-25 0 -41.5 16t-16.5 41q0 23 16.5 40t41.5 17q23 0 40 -17t17 -40zM518 229
q0 -23 -16 -40t-41 -17t-41.5 17t-16.5 40t16.5 40.5t41.5 17.5t41 -17.5t16 -40.5zM371 451q0 -25 -17.5 -41.5t-40.5 -16.5q-24 0 -40.5 16.5t-16.5 41.5q0 23 16.5 40t40.5 17q23 0 40.5 -17t17.5 -40zM319 705q0 -25 -16 -41.5t-41 -16.5t-41 16.5t-16 41.5q0 23 16 40
t41 17t41 -17t16 -40zM373 965q0 -25 -16.5 -41.5t-41.5 -16.5q-23 0 -40 16.5t-17 41.5q0 23 17 40t40 17q25 0 41.5 -17t16.5 -40zM518 1174q0 -23 -16 -40.5t-41 -17.5t-41.5 17.5t-16.5 40.5q0 24 16.5 41.5t41.5 17.5t41 -17.5t16 -41.5zM739 1323q0 -25 -17 -41
t-40 -16q-25 0 -41 16t-16 41q0 23 16 40t41 17q23 0 40 -17t17 -40z" />
    <glyph glyph-name="uni200C" unicode="&#x200c;" horiz-adv-x="68" 
d="M68 4h-68v2701h68v-2701z" />
    <glyph glyph-name="uni200D" unicode="&#x200d;" horiz-adv-x="68" 
d="M160 2513l-92 94v-2607h-68v2613l-100 -100l-35 37l129 129l-129 131l35 35l131 -129l129 129l37 -35l-129 -129v-2l129 -129z" />
    <glyph glyph-name="uni200E" unicode="&#x200e;" horiz-adv-x="66" 
d="M223 2513v125h-157v-2634h-66v2701h223v140l166 -166z" />
    <glyph glyph-name="uni200F" unicode="&#x200f;" horiz-adv-x="68" 
d="M51 2775v-2771h-26v2744h-207v-100l-123 121l123 121v-115h233z" />
    <glyph glyph-name="uni202A" unicode="&#x202a;" horiz-adv-x="1024" 
 />
    <glyph glyph-name="uni202B" unicode="&#x202b;" horiz-adv-x="1024" 
 />
    <glyph glyph-name="uni202C" unicode="&#x202c;" horiz-adv-x="1024" 
 />
    <glyph glyph-name="uni202D" unicode="&#x202d;" horiz-adv-x="1024" 
 />
    <glyph glyph-name="uni202E" unicode="&#x202e;" horiz-adv-x="1024" 
 />
    <glyph glyph-name="uni2002" unicode="&#x2002;" horiz-adv-x="1024" 
 />
    <glyph glyph-name="uni2003" unicode="&#x2003;" horiz-adv-x="2048" 
 />
    <glyph glyph-name="uni2009" unicode="&#x2009;" horiz-adv-x="205" 
 />
    <glyph glyph-name="uni200A" unicode="&#x200a;" horiz-adv-x="41" 
 />
    <glyph glyph-name="uni0647" unicode="&#x647;" horiz-adv-x="902" 
d="M411 680q-59 0 -106 -26t-79.5 -69.5t-50 -102t-17.5 -122.5q0 -65 19.5 -111.5t53 -75.5t79.5 -42.5t99 -13.5q49 0 95 11t81.5 37.5t57 72t21.5 114.5q0 80 -19.5 141t-54 102.5t-80.5 63t-99 21.5zM30 344q0 91 26.5 175t77 148.5t122 103t161.5 38.5q81 0 149.5 -32
t119 -92t78.5 -146.5t28 -194.5q0 -71 -21.5 -135t-68.5 -113.5t-120.5 -78.5t-176.5 -29q-83 0 -152 22t-118.5 66t-77 111t-27.5 157z" />
    <glyph glyph-name="uni06BE" unicode="&#x6be;" horiz-adv-x="1339" 
d="M194 0q-22 0 -35.5 -6.5t-21.5 -18.5t-11 -28t-3 -35q0 -11 1 -22l2 -23h-103q-14 38 -18.5 73t-4.5 60q0 41 15 66t37 39t45.5 19t40.5 5h214q-32 51 -50 118t-18 130q0 51 10 101.5t31.5 95.5t55.5 81.5t83 59.5q-18 2 -34 4t-32 3t-33.5 1.5t-38.5 0.5v112
q219 -2 389 -37.5t286.5 -117.5t177 -215.5t60.5 -332.5v-133h-1045zM398 375q0 -42 7.5 -86t28 -79.5t57 -58t94.5 -22.5q49 0 83 25.5t55 63.5t30 81.5t9 79.5q0 53 -11 101t-33.5 85t-56.5 58.5t-79 21.5q-42 0 -76 -19.5t-58 -55t-37 -85t-13 -110.5zM877 387
q0 -30 -4 -64t-12 -68t-19.5 -66.5t-26.5 -59.5h295q0 120 -22 209t-65.5 153.5t-107.5 107t-147 69.5q28 -27 49 -60.5t34 -70.5t19.5 -75t6.5 -75z" />
    <glyph glyph-name="uniFBA5" horiz-adv-x="925" 
d="M159 535q0 -112 67.5 -173t198.5 -61q47 0 96 10t91 27v448h-166q-61 0 -113.5 -15t-91 -45.5t-60.5 -78t-22 -112.5zM401 168q-36 0 -77.5 5.5t-82.5 20.5t-79 40t-67.5 64.5t-47 94t-17.5 127.5q0 110 36 185.5t95.5 122t136 67t156.5 20.5h287v-587q0 -43 5.5 -79.5
t21.5 -63t45 -41.5t75 -15h37q42 0 57 -11.5t15 -49.5t-14 -53t-58 -15h-59q-53 0 -97 14t-77 40t-52.5 64.5t-21.5 86.5q-45 -17 -101.5 -27t-115.5 -10zM598 1146h-350v76h98q-49 55 -49 123q0 43 14.5 76.5t39.5 56t57.5 34t68.5 11.5q23 0 44.5 -1.5t35.5 -6.5v-82
q-23 6 -39 8t-33 2q-34 0 -56.5 -9t-36 -23.5t-19 -33t-5.5 -36.5q0 -56 39 -87.5t111 -31.5h80v-76z" />
    <glyph glyph-name="uni06C2" unicode="&#x6c2;" horiz-adv-x="902" 
d="M411 680q-59 0 -106 -26t-79.5 -69.5t-50 -102t-17.5 -122.5q0 -65 19.5 -111.5t53 -75.5t79.5 -42.5t99 -13.5q49 0 95 11t81.5 37.5t57 72t21.5 114.5q0 80 -19.5 141t-54 102.5t-80.5 63t-99 21.5zM30 344q0 91 26.5 175t77 148.5t122 103t161.5 38.5q81 0 149.5 -32
t119 -92t78.5 -146.5t28 -194.5q0 -71 -21.5 -135t-68.5 -113.5t-120.5 -78.5t-176.5 -29q-83 0 -152 22t-118.5 66t-77 111t-27.5 157zM567 1025h-350v76h98q-49 55 -49 123q0 43 14.5 76.5t39.5 56t57.5 34t68.5 11.5q23 0 44.5 -1.5t35.5 -6.5v-82q-23 6 -39 8t-33 2
q-34 0 -56.5 -9t-36 -23.5t-19 -33t-5.5 -36.5q0 -56 39 -87.5t111 -31.5h80v-76z" />
    <glyph glyph-name="uni06C3" unicode="&#x6c3;" horiz-adv-x="902" 
d="M411 680q-59 0 -106 -26t-79.5 -69.5t-50 -102t-17.5 -122.5q0 -65 19.5 -111.5t53 -75.5t79.5 -42.5t99 -13.5q49 0 95 11t81.5 37.5t57 72t21.5 114.5q0 80 -19.5 141t-54 102.5t-80.5 63t-99 21.5zM30 344q0 91 26.5 175t77 148.5t122 103t161.5 38.5q81 0 149.5 -32
t119 -92t78.5 -146.5t28 -194.5q0 -71 -21.5 -135t-68.5 -113.5t-120.5 -78.5t-176.5 -29q-83 0 -152 22t-118.5 66t-77 111t-27.5 157zM168 1161q0 37 26 62.5t64 25.5q37 0 63.5 -25.5t26.5 -62.5t-26.5 -63.5t-63.5 -26.5q-38 0 -64 26.5t-26 63.5zM446 1161
q0 37 26.5 62.5t63.5 25.5t63.5 -25.5t26.5 -62.5t-26.5 -63.5t-63.5 -26.5t-63.5 26.5t-26.5 63.5z" />
    <glyph glyph-name="uni06D5" unicode="&#x6d5;" horiz-adv-x="902" 
d="M411 680q-59 0 -106 -26t-79.5 -69.5t-50 -102t-17.5 -122.5q0 -65 19.5 -111.5t53 -75.5t79.5 -42.5t99 -13.5q49 0 95 11t81.5 37.5t57 72t21.5 114.5q0 80 -19.5 141t-54 102.5t-80.5 63t-99 21.5zM30 344q0 91 26.5 175t77 148.5t122 103t161.5 38.5q81 0 149.5 -32
t119 -92t78.5 -146.5t28 -194.5q0 -71 -21.5 -135t-68.5 -113.5t-120.5 -78.5t-176.5 -29q-83 0 -152 22t-118.5 66t-77 111t-27.5 157z" />
    <glyph glyph-name="uni0640" unicode="&#x640;" horiz-adv-x="303" 
d="M0 0q-35 0 -53.5 13t-18.5 50q0 22 4.5 35t13.5 20t22.5 9t31.5 2h303q35 0 53.5 -12t18.5 -49q0 -22 -4.5 -35t-13.5 -20.5t-22.5 -10t-31.5 -2.5h-303z" />
    <glyph glyph-name="uni0640.narrow" horiz-adv-x="236" 
d="M0 0q-35 0 -53.5 13t-18.5 50q0 22 4.5 35t13.5 20t22.5 9t31.5 2h233q36 0 54 -12t18 -49q0 -22 -4.5 -35t-13.5 -20.5t-22.5 -10t-31.5 -2.5h-233z" />
    <glyph glyph-name="uni0640.long" horiz-adv-x="401" 
d="M0 0q-35 0 -53.5 13t-18.5 50q0 22 4.5 35t13.5 20t22.5 9t31.5 2h401q36 0 54 -12t18 -49q0 -22 -4.5 -35t-13.5 -20.5t-22.5 -10t-31.5 -2.5h-401z" />
    <glyph glyph-name="uni064B" unicode="&#x64b;" horiz-adv-x="0" 
d="M246 1655l-492 -78v82l492 76v-80zM246 1495l-492 -78v82l492 76v-80z" />
    <glyph glyph-name="uni064C" unicode="&#x64c;" horiz-adv-x="0" 
d="M90 1679q26 0 44.5 6t29.5 11v20q0 56 -23.5 86.5t-58.5 30.5q-21 0 -36 -7.5t-25.5 -19.5t-15.5 -27t-5 -30q0 -21 9.5 -34.5t23.5 -21.5t29.5 -11t27.5 -3zM158 1632q-17 -11 -40 -16.5t-46 -5.5q-63 0 -102.5 37.5t-39.5 97.5q0 34 11.5 63t31.5 50t48 33t61 12
q31 0 59 -11t49 -33.5t33.5 -58t12.5 -84.5q0 -74 -19 -124t-52 -80.5t-76.5 -44t-92.5 -13.5q-41 0 -74 10.5t-60 28t-48 41.5t-39 51l-129 -69l-35 65l186 107q18 -36 38 -66t44.5 -51.5t54.5 -33t68 -11.5q66 0 105.5 29t50.5 77z" />
    <glyph glyph-name="uni064D" unicode="&#x64d;" horiz-adv-x="0" 
d="M246 -399l-492 -78v82l492 76v-80zM246 -559l-492 -78v82l492 76v-80z" />
    <glyph glyph-name="uni064E" unicode="&#x64e;" horiz-adv-x="0" 
d="M246 1495l-492 -78v82l492 76v-80z" />
    <glyph glyph-name="uni064F" unicode="&#x64f;" horiz-adv-x="0" 
d="M16 1679q26 0 45 5.5t31 11.5v20q0 56 -24.5 86.5t-59.5 30.5q-21 0 -36 -7.5t-24.5 -19.5t-14.5 -27t-5 -30q0 -21 9.5 -34.5t23 -21.5t29 -11t26.5 -3zM86 1630q-17 -11 -41 -15.5t-47 -4.5q-31 0 -57 10t-44.5 27.5t-29 42.5t-10.5 55q0 34 12 63t32 50t47.5 33
t59.5 12q33 0 61 -11t49 -33.5t32.5 -58t11.5 -84.5q0 -74 -19.5 -124t-53.5 -80t-81 -43t-102 -13q-23 0 -47 1.5t-41 6.5v70q23 -5 49 -6.5t39 -1.5q84 0 126 28.5t54 75.5z" />
    <glyph glyph-name="uni0650" unicode="&#x650;" horiz-adv-x="0" 
d="M246 -401l-492 -78v82l492 75v-79z" />
    <glyph glyph-name="uni0651" unicode="&#x651;" horiz-adv-x="0" 
d="M127 1440q-81 0 -121 55q-18 -23 -46.5 -39t-70.5 -16q-72 0 -107.5 42t-35.5 105v152h74v-146q0 -22 6.5 -37.5t17.5 -25t25 -13.5t29 -4q29 0 52 21t23 59v125h72v-131q0 -41 23.5 -57.5t52.5 -16.5q35 0 55.5 16t20.5 58v154h73v-144q0 -72 -38.5 -114.5t-104.5 -42.5
z" />
    <glyph glyph-name="uni0652" unicode="&#x652;" horiz-adv-x="0" 
d="M-160 1612q0 33 12.5 62t33.5 51t50 34.5t62 12.5q32 0 61 -12.5t51 -34t35 -50.5t13 -63q0 -33 -12.5 -61.5t-34.5 -49.5t-51 -33t-62 -12t-62 12t-50 33t-33.5 49.5t-12.5 61.5zM-98 1614q0 -42 28 -69t70 -27t70 27t28 69t-28 70t-70 28t-70 -28t-28 -70z" />
    <glyph glyph-name="uni0653" unicode="&#x653;" horiz-adv-x="498" 
d="M-330 1606q42 35 83.5 48t76.5 13q19 0 43 -4.5t49.5 -12.5t52 -18.5t50.5 -21.5q54 -25 102.5 -41.5t83.5 -16.5q27 0 48 7.5t37 20t28 28t20 30.5l51 -24q-29 -66 -73.5 -107t-110.5 -41q-54 0 -104.5 18.5t-98.5 41.5q-51 23 -101 41t-93 18q-35 0 -61.5 -6.5
t-55.5 -26.5z" />
    <glyph glyph-name="uni0654" unicode="&#x654;" horiz-adv-x="330" 
d="M160 1462h-350v76h98q-49 55 -49 123q0 43 14.5 76.5t39.5 56t57.5 34t68.5 11.5q23 0 44.5 -1.5t35.5 -6.5v-82q-23 6 -39 8t-33 2q-34 0 -56.5 -9t-36 -23.5t-19 -33t-5.5 -36.5q0 -56 39 -87.5t111 -31.5h80v-76z" />
    <glyph glyph-name="uni0655" unicode="&#x655;" horiz-adv-x="721" 
d="M160 -555h-350v76h98q-49 55 -49 123q0 43 14.5 76t39.5 55.5t57.5 34.5t68.5 12q23 0 44.5 -1.5t35.5 -6.5v-82q-23 6 -39 8t-33 2q-34 0 -56.5 -9t-36 -23.5t-19 -33t-5.5 -36.5q0 -56 39 -87.5t111 -31.5h80v-76z" />
    <glyph glyph-name="uni0670" unicode="&#x670;" horiz-adv-x="0" 
d="M-39 1776h84v-404h-84v404z" />
    <glyph glyph-name="uni0656" unicode="&#x656;" horiz-adv-x="0" 
d="M-39 -219h84v-406h-84v406z" />
    <glyph glyph-name="uni0658" unicode="&#x658;" horiz-adv-x="0" 
d="M195 1714v-147q0 -100 -52.5 -150.5t-140.5 -50.5q-91 0 -144 51t-53 150v147h76v-151q0 -60 33.5 -90.5t87.5 -30.5t85.5 30.5t31.5 90.5v151h76z" />
    <glyph glyph-name="uni0615" horiz-adv-x="1024" 
d="M422 1038v45q0 24 -5 45.5t-16.5 37t-31.5 25t-50 9.5q-29 0 -57 -13t-52.5 -35t-44.5 -51.5t-32 -62.5h289zM131 1155q89 121 201 121q74 0 115.5 -46t41.5 -132v-133h-526v73h98v430h70v-313z" />
    <glyph glyph-name="uni064C0651" horiz-adv-x="252" 
d="M127 1440q-81 0 -121 55q-18 -23 -46.5 -39t-70.5 -16q-72 0 -107.5 42t-35.5 105v152h74v-146q0 -22 6.5 -37.5t17.5 -25t25 -13.5t29 -4q29 0 52 21t23 59v125h72v-131q0 -41 23.5 -57.5t52.5 -16.5q35 0 55.5 16t20.5 58v154h73v-144q0 -72 -38.5 -114.5t-104.5 -42.5
zM135 2070q26 0 44.5 6t29.5 11v20q0 56 -23.5 86.5t-58.5 30.5q-21 0 -36 -7.5t-25.5 -19.5t-15.5 -27t-5 -30q0 -21 9.5 -34.5t23.5 -21.5t29.5 -11t27.5 -3zM203 2023q-17 -11 -40 -16.5t-46 -5.5q-63 0 -102.5 37.5t-39.5 97.5q0 34 11.5 63t31.5 50t48 33t61 12
q31 0 59 -11t49 -33.5t33.5 -58t12.5 -84.5q0 -74 -19 -124t-52 -80.5t-76.5 -44t-92.5 -13.5q-41 0 -74 10.5t-60 28t-48 41.5t-39 51l-129 -69l-35 65l186 107q18 -36 38 -66t44.5 -51.5t54.5 -33t68 -11.5q66 0 105.5 29t50.5 77z" />
    <glyph glyph-name="uni064D0651" horiz-adv-x="252" 
d="M112 1829q-81 0 -121 55q-18 -23 -46.5 -39t-70.5 -16q-72 0 -107.5 42t-35.5 105v152h74v-146q0 -22 6.5 -37.5t17.5 -25t25 -13.5t29 -4q29 0 52 21t23 59v125h72v-131q0 -41 23.5 -57.5t52.5 -16.5q35 0 55.5 16t20.5 58v154h73v-144q0 -72 -38.5 -114.5t-104.5 -42.5
zM246 1655l-492 -78v82l492 76v-80zM246 1495l-492 -78v82l492 76v-80z" />
    <glyph glyph-name="uni064B0651" horiz-adv-x="252" 
d="M127 1440q-81 0 -121 55q-18 -23 -46.5 -39t-70.5 -16q-72 0 -107.5 42t-35.5 105v152h74v-146q0 -22 6.5 -37.5t17.5 -25t25 -13.5t29 -4q29 0 52 21t23 59v125h72v-131q0 -41 23.5 -57.5t52.5 -16.5q35 0 55.5 16t20.5 58v154h73v-144q0 -72 -38.5 -114.5t-104.5 -42.5
zM250 2071l-492 -78v82l492 76v-80zM250 1911l-492 -78v82l492 76v-80z" />
    <glyph glyph-name="uni064E0651" horiz-adv-x="252" 
d="M127 1440q-81 0 -121 55q-18 -23 -46.5 -39t-70.5 -16q-72 0 -107.5 42t-35.5 105v152h74v-146q0 -22 6.5 -37.5t17.5 -25t25 -13.5t29 -4q29 0 52 21t23 59v125h72v-131q0 -41 23.5 -57.5t52.5 -16.5q35 0 55.5 16t20.5 58v154h73v-144q0 -72 -38.5 -114.5t-104.5 -42.5
zM256 1915l-492 -78v82l492 76v-80z" />
    <glyph glyph-name="uni064F0651" horiz-adv-x="252" 
d="M127 1440q-81 0 -121 55q-18 -23 -46.5 -39t-70.5 -16q-72 0 -107.5 42t-35.5 105v152h74v-146q0 -22 6.5 -37.5t17.5 -25t25 -13.5t29 -4q29 0 52 21t23 59v125h72v-131q0 -41 23.5 -57.5t52.5 -16.5q35 0 55.5 16t20.5 58v154h73v-144q0 -72 -38.5 -114.5t-104.5 -42.5
zM47 2101q26 0 45 5.5t31 11.5v20q0 56 -24.5 86.5t-59.5 30.5q-21 0 -36 -7.5t-24.5 -19.5t-14.5 -27t-5 -30q0 -21 9.5 -34.5t23 -21.5t29 -11t26.5 -3zM117 2052q-17 -11 -41 -15.5t-47 -4.5q-31 0 -57 10t-44.5 27.5t-29 42.5t-10.5 55q0 34 12 63t32 50t47.5 33
t59.5 12q33 0 61 -11t49 -33.5t32.5 -58t11.5 -84.5q0 -74 -19.5 -124t-53.5 -80t-81 -43t-102 -13q-23 0 -47 1.5t-41 6.5v70q23 -5 49 -6.5t39 -1.5q84 0 126 28.5t54 75.5z" />
    <glyph glyph-name="uni06500651" horiz-adv-x="252" 
d="M114 1663q-81 0 -121 55q-18 -23 -46.5 -39t-70.5 -16q-72 0 -107.5 42t-35.5 105v152h74v-146q0 -22 6.5 -37.5t17.5 -25t25 -13.5t29 -4q29 0 52 21t23 59v125h72v-131q0 -41 23.5 -57.5t52.5 -16.5q35 0 55.5 16t20.5 58v154h73v-144q0 -72 -38.5 -114.5t-104.5 -42.5
zM246 1495l-492 -78v82l492 76v-80z" />
    <glyph glyph-name="uni06510670" horiz-adv-x="252" 
d="M127 1440q-81 0 -121 55q-18 -23 -46.5 -39t-70.5 -16q-72 0 -107.5 42t-35.5 105v152h74v-146q0 -22 6.5 -37.5t17.5 -25t25 -13.5t29 -4q29 0 52 21t23 59v125h72v-131q0 -41 23.5 -57.5t52.5 -16.5q35 0 55.5 16t20.5 58v154h73v-144q0 -72 -38.5 -114.5t-104.5 -42.5
zM-42 2229h84v-404h-84v404z" />
    <glyph glyph-name="uni06540651" horiz-adv-x="721" 
d="M160 1462h-350v76h98q-49 55 -49 123q0 43 14.5 76.5t39.5 56t57.5 34t68.5 11.5q23 0 44.5 -1.5t35.5 -6.5v-82q-23 6 -39 8t-33 2q-34 0 -56.5 -9t-36 -23.5t-19 -33t-5.5 -36.5q0 -56 39 -87.5t111 -31.5h80v-76zM216 2187l-492 -78v82l492 76v-80zM216 2027l-492 -78
v82l492 76v-80z" />
    <glyph glyph-name="uni0654064E" horiz-adv-x="721" 
d="M160 1462h-350v76h98q-49 55 -49 123q0 43 14.5 76.5t39.5 56t57.5 34t68.5 11.5q23 0 44.5 -1.5t35.5 -6.5v-82q-23 6 -39 8t-33 2q-34 0 -56.5 -9t-36 -23.5t-19 -33t-5.5 -36.5q0 -56 39 -87.5t111 -31.5h80v-76zM246 2027l-492 -78v82l492 76v-80z" />
    <glyph glyph-name="uni0654064C" horiz-adv-x="721" 
d="M160 1462h-350v76h98q-49 55 -49 123q0 43 14.5 76.5t39.5 56t57.5 34t68.5 11.5q23 0 44.5 -1.5t35.5 -6.5v-82q-23 6 -39 8t-33 2q-34 0 -56.5 -9t-36 -23.5t-19 -33t-5.5 -36.5q0 -56 39 -87.5t111 -31.5h80v-76zM119 2211q26 0 44.5 6t29.5 11v20q0 56 -23.5 86.5
t-58.5 30.5q-21 0 -36 -7.5t-25.5 -19.5t-15.5 -27t-5 -30q0 -21 9.5 -34.5t23.5 -21.5t29.5 -11t27.5 -3zM187 2164q-17 -11 -40 -16.5t-46 -5.5q-63 0 -102.5 37.5t-39.5 97.5q0 34 11.5 63t31.5 50t48 33t61 12q31 0 59 -11t49 -33.5t33.5 -58t12.5 -84.5q0 -74 -19 -124
t-52 -80.5t-76.5 -44t-92.5 -13.5q-41 0 -74 10.5t-60 28t-48 41.5t-39 51l-129 -69l-35 65l186 107q18 -36 38 -66t44.5 -51.5t54.5 -33t68 -11.5q66 0 105.5 29t50.5 77z" />
    <glyph glyph-name="uni0654064F" horiz-adv-x="721" 
d="M160 1462h-350v76h98q-49 55 -49 123q0 43 14.5 76.5t39.5 56t57.5 34t68.5 11.5q23 0 44.5 -1.5t35.5 -6.5v-82q-23 6 -39 8t-33 2q-34 0 -56.5 -9t-36 -23.5t-19 -33t-5.5 -36.5q0 -56 39 -87.5t111 -31.5h80v-76zM24 2211q26 0 45 5.5t31 11.5v20q0 56 -24.5 86.5
t-59.5 30.5q-21 0 -36 -7.5t-24.5 -19.5t-14.5 -27t-5 -30q0 -21 9.5 -34.5t23 -21.5t29 -11t26.5 -3zM94 2162q-17 -11 -41 -15.5t-47 -4.5q-31 0 -57 10t-44.5 27.5t-29 42.5t-10.5 55q0 34 12 63t32 50t47.5 33t59.5 12q33 0 61 -11t49 -33.5t32.5 -58t11.5 -84.5
q0 -74 -19.5 -124t-53.5 -80t-81 -43t-102 -13q-23 0 -47 1.5t-41 6.5v70q23 -5 49 -6.5t39 -1.5q84 0 126 28.5t54 75.5z" />
    <glyph glyph-name="uni06540652" horiz-adv-x="721" 
d="M160 1462h-350v76h98q-49 55 -49 123q0 43 14.5 76.5t39.5 56t57.5 34t68.5 11.5q23 0 44.5 -1.5t35.5 -6.5v-82q-23 6 -39 8t-33 2q-34 0 -56.5 -9t-36 -23.5t-19 -33t-5.5 -36.5q0 -56 39 -87.5t111 -31.5h80v-76zM-158 2144q0 33 12.5 62t33.5 51t50 34.5t62 12.5
q32 0 61 -12.5t51 -34t35 -50.5t13 -63q0 -33 -12.5 -61.5t-34.5 -49.5t-51 -33t-62 -12t-62 12t-50 33t-33.5 49.5t-12.5 61.5zM-96 2146q0 -42 28 -69t70 -27t70 27t28 69t-28 70t-70 28t-70 -28t-28 -70z" />
    <glyph glyph-name="uni06550650" horiz-adv-x="721" 
d="M160 -555h-350v76h98q-49 55 -49 123q0 43 14.5 76t39.5 55.5t57.5 34.5t68.5 12q23 0 44.5 -1.5t35.5 -6.5v-82q-23 6 -39 8t-33 2q-34 0 -56.5 -9t-36 -23.5t-19 -33t-5.5 -36.5q0 -56 39 -87.5t111 -31.5h80v-76zM260 -715l-492 -78v82l492 75v-79z" />
    <glyph glyph-name="uni0655064D" horiz-adv-x="721" 
d="M160 -555h-350v76h98q-49 55 -49 123q0 43 14.5 76t39.5 55.5t57.5 34.5t68.5 12q23 0 44.5 -1.5t35.5 -6.5v-82q-23 6 -39 8t-33 2q-34 0 -56.5 -9t-36 -23.5t-19 -33t-5.5 -36.5q0 -56 39 -87.5t111 -31.5h80v-76zM275 -722l-492 -78v82l492 76v-80zM275 -882l-492 -78
v82l492 76v-80z" />
    <glyph glyph-name="uni064406440647" horiz-adv-x="2253" 
d="M893 0q-50 0 -93.5 8.5t-79 29t-61.5 55t-41 85.5q-27 -4 -56.5 -6.5t-58.5 -4t-55 -2.5t-45 -1q-93 0 -167.5 21t-127.5 59t-81.5 92.5t-28.5 122.5q0 101 52 178.5t137.5 129.5t195.5 78.5t227 26.5v123h129v-676q0 -51 6.5 -87t25.5 -58.5t53 -32.5t89 -10h154
q43 0 83 3t70.5 18.5t49 49t18.5 95.5v1167h129v-1073q0 -61 8.5 -109t30.5 -81.5t58 -51.5t92 -18h368v1335h129v-1466h-497q-36 0 -69.5 6t-62 20.5t-51 37.5t-37.5 57q-24 -37 -52.5 -60.5t-64.5 -37t-81 -18.5t-103 -5h-192zM127 475q0 -41 15.5 -76.5t52 -61t96.5 -40
t149 -14.5q12 0 31.5 1t43 3t48.5 5t47 7v461q-108 -4 -197 -24.5t-152.5 -56.5t-98.5 -87.5t-35 -116.5z" />
    </font>
</defs>
</svg>
